<svg width="1261" height="657" fill="none" xmlns="http://www.w3.org/2000/svg"><path fill="#276F86" d="M0 0h1261v657H0z"/><path d="M568.111 133.494c-2.1 1.174-5.189 1.297-6.733.309-.371-.247-.927-.062-1.174.309-.309.556-.865.556-2.162-.062-1.359-.618-1.791-.618-2.038 0-.124.371-.68.741-1.298.741-.556 0-1.42.371-1.791.742-.618.618-1.05.618-1.977 0-1.668-.989-3.397-.927-11.737.432-6.98 1.174-11.119 2.595-11.119 3.892 0 .309-.432.494-.927.309-.494-.247-1.05-.124-1.235.185-.247.371-.803.618-1.297.618-.495 0-1.606.679-2.471 1.544s-1.854 1.545-2.286 1.606c-1.544.124-3.83-.185-4.324-.617-.247-.248-2.039-.248-4.015 0-3.892.556-6.178-.371-6.734-2.595-.37-1.235-1.235-1.482-2.409-.679-.37.247-1.359 1.976-2.162 3.83-2.1 5.003-3.521 6.671-7.351 8.463-3.706 1.791-7.413 5.065-7.413 6.609 0 .556-.618 1.915-1.359 2.904-1.112 1.482-1.421 2.718-1.421 5.806 0 2.348-.308 4.263-.741 4.695-.432.433-.803 1.112-.803 1.483 0 .309-.988 1.482-2.224 2.471-1.235 1.05-2.78 2.347-3.459 2.965-1.421 1.297-4.942 2.903-6.363 2.903-1.359 0-2.224.989-3.83 4.448-.803 1.668-1.668 2.965-1.915 2.965-1.668 0-5.065 5.065-5.065 7.598 0 1.483-1.606 3.954-4.077 6.301-.742.68-1.977 2.903-2.78 4.942-.741 2.038-1.853 4.077-2.471 4.448-.556.432-1.235 1.791-1.483 3.088-.185 1.298-.556 3.027-.741 3.83-.247 1.05-.123 1.359.494 1.174.433-.124 1.483.432 2.224 1.235 1.421 1.545 1.853 3.213.865 3.213-1.05 0-1.359 3.088-.371 4.509 1.298 1.853 1.174 7.166-.308 10.934-.68 1.73-1.236 3.83-1.236 4.757 0 1.853-3.027 6.98-4.139 6.98-.432 0-.803.247-.803.618 0 .309.433.618.927.618.556 0 1.235.741 1.606 1.667.371.989.926 2.224 1.235 2.78.309.618.309 1.174-.061 1.421-.371.185-.618 1.668-.618 3.274.062 2.409.37 3.212 1.853 4.695 2.039 1.977 2.409 3.027.865 2.409-.803-.309-.927-.124-.556 1.112.679 2.162 1.112 2.409 2.471 1.359.865-.68.988-1.05.494-1.236-.927-.308-1.112-2.038-.247-2.038.309 0 .865.803 1.235 1.853.309.989.927 1.853 1.236 1.853.371 0 .679.433.679.927 0 .494.433.927.927.927.494 0 .927.185.927.494 0 .247 1.42 1.915 3.088 3.768 1.977 2.162 3.089 3.892 3.151 4.942.062 2.594.432 3.953 1.235 4.386.371.247.494.803.309 1.173-.247.371-.185.68.185.68.371 0 .495.371.371.741-.185.494.741 1.236 2.286 1.915 2.594 1.05 4.756 2.78 12.169 9.452 7.475 6.733 9.328 7.289 14.949 4.571 5.931-2.842 15.258-3.089 20.447-.556.68.309 1.73.185 2.78-.371 5.683-2.841 9.946-4.633 11.181-4.633.741 0 1.545-.432 1.73-.865.432-1.173 5.436-2.223 11.181-2.347 3.644-.124 4.633.062 5.745 1.05 1.544 1.421 3.706 5.374 3.706 6.733 0 .495.618 1.545 1.421 2.224 1.05 1.05 1.853 1.236 3.521.927 1.174-.185 3.274-.494 4.633-.618 1.359-.185 3.336-.37 4.448-.494 1.606-.247 2.038 0 2.285 1.174.186.741.927 1.606 1.607 1.791.679.185 1.235.741 1.235 1.174 0 .494.371 1.173.865 1.544 1.174.989.618 6.981-.927 10.069-.803 1.545-.926 2.348-.432 2.471.432.185.556.68.185 1.483-.247.617-.618 2.409-.741 3.953-.309 2.657-1.112 3.954-2.162 3.336-.803-.494-.556 1.235.37 3.212.495.989 1.359 2.904 1.977 4.263.618 1.359 2.162 3.459 3.336 4.633 4.386 4.262 9.884 12.416 9.884 14.702 0 .741.309 1.482.617 1.668.371.247.495.617.309.926-.185.309.309 2.039 1.174 3.83.803 1.792 1.977 4.757 2.656 6.548 1.112 3.212 1.112 3.336-.061 4.139-1.112.865-1.112 1.05.864 5.992 1.359 3.459 1.977 6.054 1.915 7.907-.123 3.212-1.112 6.177-2.162 6.177-1.173.062-4.015 5.189-4.447 8.093-.495 3.706-2.101 9.204-2.595 9.204-.803 0-.432 11.366.432 13.405.433 1.112 1.051 2.038 1.236 2.038.618 0 3.274 5.498 5.93 12.046.556 1.359 1.73 3.707 2.656 5.251 1.298 2.224 1.668 3.645 1.73 7.104.062 2.347.371 5.683.741 7.413.371 1.668 1.112 5.559 1.668 8.586 1.174 6.363 2.039 8.34 5.251 11.861 1.483 1.606 2.78 4.015 3.706 6.795 1.483 4.571 3.522 9.019 4.386 9.575.309.185.742 1.606.927 3.212.371 2.409.247 2.903-.556 2.903-.494 0-1.05.371-1.235.742-.248.865.741 2.965 1.667 3.644.309.248.433 1.112.248 1.977-.433 2.1.494 3.583 1.359 2.286.37-.618.617-.68.617-.186 0 .433.371.804.803.804.495 0 1.359.556 1.977 1.235 1.359 1.544 2.595 1.544 4.139.185.741-.679 2.1-1.05 3.706-.988 1.421.062 3.151-.309 4.016-.865 1.791-1.174 6.239-1.482 9.636-.679 1.606.37 2.657.37 3.213-.124.494-.371 1.482-.618 2.285-.494.803.123 1.359-.124 1.297-.494-.061-.433 1.051-.865 2.533-.989 3.274-.37 9.513-4.447 13.034-8.401.68-.803 2.286-2.471 3.645-3.706 2.286-2.224 6.548-8.278 6.548-9.328 0-.803 4.139-5.004 4.942-5.004.679 0 1.791-2.285 3.336-7.104 1.112-3.459 1.359-8.03.37-7.413-1.112.68-.617-.803.803-2.471.742-.864 3.336-2.347 5.684-3.335 3.15-1.236 4.694-2.286 5.745-3.768.864-1.298 1.173-2.286.803-2.657-.371-.37-.371-1.173.061-2.224.803-1.976.68-6.918-.123-7.721-.371-.371-.618-.927-.618-1.236 0-.37.309-.247.618.247.494.742.618.68.618-.494 0-.741-.309-1.297-.742-1.235-.432.123-.741-.68-.803-1.977-.062-1.174-.432-2.224-.865-2.347-.37-.124-.679-.865-.679-1.607 0-1.606 5.559-7.783 7.042-7.783.556 0 .988-.247.988-.494s.495-1.174 1.112-1.977c2.224-3.027 4.51-4.818 7.969-6.239 1.977-.741 3.707-1.606 3.892-1.792.185-.247.741-.679 1.297-.988 1.606-.865 5.745-6.486 6.61-9.019.618-1.791.618-2.903.123-4.942-.432-1.482-.679-6.115-.617-10.687.185-10.316.247-9.883-1.421-10.625-1.174-.556-1.73-1.606-2.471-4.942-1.359-5.374-1.297-6.177.185-6.548.68-.185 1.236-.679 1.236-1.05 0-.432-.433-.617-.927-.37-1.235.432-1.977-1.298-1.112-2.657.494-.803.247-1.544-1.112-3.212-.988-1.112-1.791-2.533-1.791-3.027 0-1.297 2.038-7.042 2.656-7.474.618-.433 3.459-6.981 3.954-9.081.185-.741.926-1.668 1.606-2.039 1.915-1.05 5.127-4.509 6.362-6.795 2.657-5.25 10.996-14.208 16.062-17.42 3.335-2.1 13.157-12.849 13.219-14.455 0-.247.988-2.038 2.162-3.892 1.174-1.853 2.162-3.83 2.162-4.447 0-1.236 3.768-9.328 4.51-9.637.247-.124.432-.494.432-.865 0-.309.68-1.977 1.544-3.706.865-1.668 1.545-4.016 1.545-5.251 0-1.606.309-2.224 1.235-2.471 1.298-.371 1.668-1.174.618-1.544-.556-.186-.865-3.46-.494-5.683.309-1.73-2.286-2.471-3.645-1.051-1.359 1.359-6.671 3.213-7.969 2.718-.494-.185-1.606 0-2.409.433-.803.432-2.1.618-2.841.432-.803-.247-1.977.124-3.027.927-1.236.865-2.348 1.174-3.768.988a5.996 5.996 0 00-3.954.803c-3.212 1.977-5.56 1.174-8.031-2.718-.617-.926-1.729-1.853-2.594-2.038l-1.483-.371 1.421-.741c2.348-1.174 2.101-2.965-.865-6.054-1.482-1.544-3.088-3.398-3.582-4.139-.495-.679-1.174-1.297-1.545-1.297-.309 0-1.112-.865-1.668-1.853-.617-1.05-1.544-2.039-2.162-2.286-.618-.247-1.482-.803-1.915-1.235-.432-.371-1.173-.618-1.606-.433-.556.186-.926-.247-1.112-1.235-.247-1.112-.062-1.606.556-1.606.741 0 .741-.124-.062-.927-1.173-1.235-1.42-1.174-1.853.432-.37 1.421-.432 1.421-1.297.186-.556-.68-1.236-2.348-1.544-3.707-1.73-7.104-2.595-8.895-5.622-11.242-3.459-2.718-4.324-4.695-4.509-10.687-.124-2.348-.556-4.695-.927-5.189-.432-.556-.865-1.668-.926-2.533 0-.865-.186-1.544-.371-1.544s-1.483-1.05-2.965-2.348c-2.904-2.594-4.633-6.918-2.718-6.918.679 0 .494-.433-.68-1.483-.865-.803-2.347-3.089-3.397-5.065a120.528 120.528 0 00-3.151-5.992c-.679-1.298-1.297-2.657-1.297-3.089 0-.432-.494-1.483-1.05-2.286-.618-.865-1.174-2.038-1.236-2.656-.123-.679-1.173-2.286-2.347-3.706-1.174-1.359-2.162-3.151-2.162-3.892 0-.803-.247-1.544-.556-1.792-.371-.185-.803-2.285-1.05-4.633-.186-2.347-.742-4.756-1.174-5.374-1.606-2.162-8.957-1.421-11.675 1.174-.741.679-1.792 1.05-2.533.865-.679-.124-2.471-.618-4.015-.927-1.544-.371-3.336-.927-4.015-1.235-2.224-.989-6.363-1.792-7.907-1.483-1.174.247-1.668 0-1.977-.988-.309-.989-.927-1.298-2.348-1.298-3.335 0-6.424-1.173-6.795-2.471-.185-.741-.865-1.235-1.544-1.235-.741 0-1.483-.309-1.668-.618-.927-1.482-6.795-.123-9.575 2.224-1.915 1.668-2.471 4.448-1.297 6.363.988 1.606-1.483 4.942-3.707 5.003-.494 0-2.038-.803-3.397-1.729-2.533-1.853-6.425-3.212-8.957-3.212-2.162 0-4.077-1.545-4.571-3.769-.309-1.235-.989-2.1-2.039-2.532-.927-.371-2.471-1.05-3.459-1.606-1.112-.556-3.213-.927-5.066-.865-2.038.061-4.077-.371-5.745-1.112-2.471-1.236-4.139-3.151-3.335-3.954.185-.185-.062-.37-.618-.37s-1.05.247-1.05.617c0 1.051-1.792.68-2.471-.556-.494-.988-.247-1.482 1.235-2.779 1.05-.865 2.286-1.421 2.78-1.236.494.247.927.062.927-.371 0-.37-.309-.494-.618-.308-.433.247-.494-.433-.247-2.039.309-2.1.185-2.594-.927-3.15-1.544-.865-1.668-2.224-.309-3.583.494-.556.803-1.359.618-1.853-.185-.495-.062-.68.247-.495.371.186.618.124.618-.185 0-1.174-.865-1.297-1.977-.309-1.112.989-1.174.989-1.482-.247-.309-1.05-1.792-1.977-3.336-2.038-.186 0-1.359.556-2.595 1.173zm117.864 199.467c.494.68.556 1.297.124 1.792-.309.432-.433.988-.247 1.297.37.679-.927 3.83-1.606 3.83-.309 0-.495.309-.495.679 0 .433-.494 1.112-1.05 1.545-1.05.803-1.05.926 0 1.729 1.545 1.236.618 1.606-2.656.989-1.668-.309-3.089-.247-3.521.061-1.174.989-1.483-.37-1.112-4.818.618-6.61.68-6.795 3.212-7.598 1.297-.432 2.595-.988 2.904-1.235.679-.68 3.459.37 4.447 1.729zm-21.373 23.721c0 .927.308 1.853.679 2.039.371.247.494.865.309 1.359s-.062 1.482.309 2.224c.556.988.556 1.359 0 1.544-1.236.432-.741 2.594.803 3.15 1.482.618 2.224 1.854 2.224 3.83 0 .68.679 2.595 1.544 4.263 1.915 3.768 1.915 3.83 0 2.965-.988-.433-1.482-1.05-1.235-1.606.185-.433-.124-1.421-.618-2.162-.494-.742-.927-1.73-.927-2.162 0-.495-.803-1.854-1.853-3.027-.988-1.112-1.915-2.533-1.977-3.151 0-.556-.123-1.915-.247-2.903-.123-1.05-.309-4.077-.432-6.795-.185-4.448-.124-4.757.556-3.089.432.989.803 2.595.865 3.521zm22.238 28.293c.371.679.741 2.532.865 4.015.062 1.544.494 3.15.865 3.521.926.927.988 3.397.123 3.892-.865.556-.37 9.142.556 9.451.371.124.68.494.68.803 0 .371-.247.432-.618.247-.309-.185-.618-.062-.618.247 0 .371-.309.68-.679.68-.371 0-.494-.556-.247-1.236.247-.741.123-1.606-.186-2.038-.617-.803-1.544-5.56-1.42-7.537.432-7.351.308-9.451-.371-10.81-.432-.865-.803-1.73-.803-2.039 0-.926 1.235-.37 1.853.804zM755.408 397.453c-.494.803-.926 2.347-1.05 3.521-.185 2.594-.556 2.965-2.038 2.038-.989-.618-1.236-.618-1.236.124 0 .494.371 1.05.803 1.235.371.186.124.186-.618 0-1.42-.309-1.667.062-1.482 2.348.062.556-.185 1.173-.556 1.42-.309.186-.618.927-.618 1.545 0 .803-.309 1.05-.926.865-.556-.248-.927 0-.927.556 0 1.235-4.386 4.324-7.722 5.436-1.359.432-2.718 1.05-3.027 1.297-.37.247-1.235.494-2.038.494-1.112 0-1.421.309-1.421 1.668 0 .988-.556 2.533-1.174 3.521-1.235 1.853-1.235 3.336 0 10.44.742 4.139.742 4.262-1.05 7.721-.988 1.915-2.038 3.707-2.285 3.892-2.163 1.545-2.966 7.166-1.421 10.069.494.989.741 2.718.556 4.324-.186 1.607-.062 2.842.37 3.089.371.247.68.927.68 1.544 0 1.359 1.853 3.151 3.274 3.151.556 0 1.05.247 1.05.618 0 .926 3.212.679 4.571-.309.68-.494 1.977-.927 2.904-.927 1.853 0 4.262-2.471 4.262-4.262 0-.556.371-1.545.865-2.224.432-.68 1.174-2.78 1.606-4.633.494-1.853 1.359-4.386 1.915-5.621.618-1.236 1.483-3.583 1.853-5.251.433-1.668 1.792-5.683 3.089-9.019 1.297-3.274 2.533-7.042 2.718-8.34.741-4.447.926-5.127 1.73-4.942.741.124.803-.432.061-5.127l-.432-2.78 1.235 1.483 1.236 1.544 1.05-1.976c.741-1.483.865-2.286.371-3.151-.309-.679-.618-2.471-.618-3.953 0-1.483-.309-3.645-.68-4.819-.864-2.718-3.274-7.907-3.644-7.968-.186 0-.742.617-1.236 1.359z" fill="#27AE60"/></svg>