<?xml version="1.0" encoding="utf-8"?>
<!-- Generator: Adobe Illustrator 26.2.1, SVG Export Plug-In . SVG Version: 6.00 Build 0)  -->
<svg version="1.1" id="Layer_1" xmlns="http://www.w3.org/2000/svg" xmlns:xlink="http://www.w3.org/1999/xlink" x="0px" y="0px"
	 viewBox="0 0 1261 657" style="enable-background:new 0 0 1261 657;" xml:space="preserve">
<style type="text/css">
	.st0{fill:#27AE60;}
	.st1{display:none;fill:#219250;fill-opacity:0.44;}
	.st2{fill:none;}
	.st3{fill:#219250;}
</style>
<rect y="0" class="st0" width="1261" height="657"/>
<path class="st1" d="M393.5,546.8c-3.7-1.4-4.7-2.7-3.9-5.1c0.4-1.1,1.2-1.9,1.7-1.9c0.5,0,3,1.3,5.3,2.8c2.4,1.5,5.3,3.2,6.5,3.6
	l2.1,0.8l-2.6,0.1c-1.5,0-3.6,0.2-4.7,0.4C396.8,547.5,394.8,547.3,393.5,546.8L393.5,546.8z M385.1,539.7c-0.7-0.4-1.9-0.5-2.6-0.3
	c-0.9,0.3-1.6-0.1-2.3-1.4c-0.5-1-1.5-2-2.1-2.2c-1.5-0.5-4.5-5.5-6.2-10.1c-0.9-2.3-2-4-3.4-4.7c-2.4-1.4-2.6-2-0.7-2.6
	c2.2-0.7,2.6-4.5,0.7-7c-0.9-1.2-1.3-2.7-1.1-3.3c0.3-0.8-0.5-2.2-2.6-4.3c-2.6-2.7-3.1-3.6-3.2-6.4c-0.1-1.8-0.5-3.7-1-4.3
	c-0.6-0.7-0.7-3.2-0.4-8.2c0.3-5.4,0.1-8.7-0.8-13.4c-1.4-6.9-2.1-19.8-1.7-31.5c0.1-2.5-0.2-5.9-0.7-7.6c-1.2-4.1-6.5-9.4-13-12.8
	c-4.7-2.5-5.4-3.1-7.2-6.9c-1.1-2.3-3.2-5.7-4.7-7.6c-1.5-1.9-3.1-4.7-3.6-6.2c-1.5-4.8-4.3-9.6-6.1-10.8c-1-0.7-2.1-2.3-2.5-3.8
	c-0.6-2.3-0.5-2.9,1.5-5.8c2.1-3.1,2.2-3.2,0.7-3.6c-3.6-0.9-2.1-5.7,4.3-13.8c4.2-5.4,5.5-9.4,4.3-14.2c-0.4-1.8-0.9-3.7-0.9-4.2
	c0-0.5-0.4-0.9-0.7-0.9c-0.3,0-0.3-0.7,0.1-1.5c0.7-1.2,0.5-1.6-1.1-2.3c-2.3-1.1-5.8,0-5.8,1.7c0,2.1-0.9,2.3-4,0.7
	c-1.6-0.9-3.3-1.5-3.8-1.5s-2.2-1.2-3.8-2.6s-3.4-2.9-3.9-3.3c-0.5-0.4-0.9-1.5-0.9-2.4c0-0.9-0.6-2.3-1.4-3
	c-0.8-0.7-1.8-2.4-2.3-3.8c-0.6-1.8-1.1-2.3-1.6-1.7c-1.2,1.2-3,1-7.3-0.9c-2.3-1-4.6-2.7-5.5-4c-0.9-1.3-2.6-2.8-3.8-3.4
	c-2-1-2.5-1-5.3,0.1l-3.2,1.2l-9.7-4.7c-6-2.9-10.6-5.7-12.1-7.2c-2.2-2.4-2.3-2.6-1.6-5.5c0.7-2.7,0.6-3.5-0.9-6.6
	c-0.9-1.9-3-4.9-4.5-6.6c-1.6-1.7-2.6-3.3-2.4-3.7c0.2-0.3-0.9-2.7-2.4-5.2c-1.8-2.9-3-5.9-3.3-8.2c-0.4-2.9-0.9-3.8-2.3-4.4
	c-1.6-0.7-2-0.6-2.9,0.6c-1.2,1.7-0.9,3.5,1.9,9.5c1.1,2.4,2.3,6,2.6,8c0.3,2,1.2,4.8,1.9,6.3c1.8,3.6,0.6,3.5-2.2-0.1
	c-1.7-2.1-2.2-3.3-1.8-4.7c0.4-1.4,0-2.1-1.8-3.4c-2.7-2-3.2-3.3-2.3-5.1c0.6-1.1,0.3-2.2-1.1-5.1c-1.5-2.9-1.8-4.3-1.4-6.5
	c0.6-3.5-1-6.8-4-8c-1.7-0.7-2.3-1.5-2.7-3.6c-0.2-1.5-0.7-3.7-1.1-5c-0.3-1.4-0.3-2.5,0.1-2.8c0.4-0.2,0.1-1.2-0.5-2.2
	c-1-1.5-1-2.2-0.3-3.7c0.5-1,0.6-2.2,0.4-2.6c-0.2-0.4,0.4-1.6,1.4-2.7s2.4-3.2,3-4.7c0.6-1.5,2.6-4.4,4.3-6.3
	c1.7-1.9,4-5.4,4.9-7.6c1.3-3.1,2.1-4,3.3-4c0.9,0,1.5,0.4,1.5,0.9c-0.2,2.1,1.4,1.4,3.3-1.3c1.1-1.6,1.7-3,1.3-3.2
	c-0.4-0.1-0.7-0.7-0.7-1.3c0-0.6-1.5-2.6-3.4-4.4c-3.1-3-3.3-3.4-2.2-4.5c0.8-0.9,0.9-1.6,0.4-2.6c-1-1.7,0.6-5.6,2.2-5.6
	c0.7,0,0.9-0.2,0.5-0.5c-0.9-0.7-1.4-2.3-1.2-4.5c0.2-3.6-0.6-5.2-3.3-6.3c-1.5-0.6-3.7-1.9-5-2.9c-1.3-1-2.9-1.8-3.6-1.8
	c-0.7,0-3.9-0.7-7-1.5c-5.1-1.3-6-1.4-7.8-0.4c-3.7,1.9-7.5,2.7-9.1,1.8c-1.2-0.6-2.5-0.2-7,2.1c-3,1.6-6.7,3.1-8.1,3.4
	c-1.4,0.3-4.1,1.3-6,2.3c-5.3,2.7-13,5.4-15.1,5.3c-1.4,0-0.4-0.6,3.2-2.1c6.2-2.4,12.5-5.6,13.1-6.6c0.7-1.2-0.8-1.6-2.7-0.7
	c-1.4,0.6-2.2,0.6-3.8-0.3l-2.1-1.1l2.2-1.2c2.5-1.3,3.3-2.8,2.7-5.1c-0.6-2.2,2.5-3.9,9.2-4.9c3.6-0.5,6.3-1.4,8.1-2.7
	c3.2-2.2,2.7-3.9-0.8-2.4c-1.7,0.7-2.9,0.7-5.3,0c-3-0.8-3.1-0.9-1.8-1.9c2.2-1.6,6.8-2.6,9.9-2.1c1.9,0.3,3.5,0.1,5.1-0.7l2.3-1.2
	l-1.5-1.6c-0.8-0.9-1.5-1.8-1.5-2.1c0-0.7,4.4-2,6.6-2c1.1,0,4.1-0.8,6.7-1.8c2.6-1,8.5-2.3,13.2-2.9c7.6-1.1,9.2-1.1,14.9-0.1
	c3.5,0.6,8.3,1.3,10.8,1.5c2.4,0.3,6.7,1.1,9.5,1.9c6.5,1.8,10.7,1.8,18-0.1c3.2-0.8,6.4-1.3,7.2-1.1c0.8,0.2,2,0.1,2.8-0.4
	c1.1-0.6,2-0.5,3.6,0.3c1.4,0.7,3.2,1,5.7,0.7c2.6-0.3,4.8,0,8.1,1.1c2.5,0.8,5.3,1.5,6.1,1.5c1.6,0,1.6,0,0.2,1
	c-1.4,1-1.4,1.1-0.1,1.6c0.7,0.3,3.3,0.3,5.6,0.1c4.3-0.4,4.3-0.4,5.5,1.9l1.2,2.3l1.6-2c0.9-1.1,3-2.4,5-3c3-0.9,3.9-0.9,6.9,0
	c2.1,0.6,4.7,0.9,6.6,0.6c2.4-0.4,3.5-0.1,5.1,1c2,1.4,2,1.4,3.8,0c1-0.8,3-1.7,4.5-2.1c3.6-1,4.8-3.1,2.6-4.6
	c-1.5-1.1-1.5-1.1,2.5-3.1c3-1.5,4.3-1.8,4.9-1.2c0.6,0.6,0.6,1.2,0,2.3c-1,1.9,0.2,4.8,1.8,4.2c0.6-0.2,1.5-0.2,2.1,0
	c0.9,0.4,0.9,0.7-0.1,2.2c-2.8,4.3,3.5,3.1,7.7-1.5c1.7-1.9,4.4-2.4,6.9-1.4c1.6,0.6,1.5,1.1-1.2,4.1c-3.2,3.5-4.8,4.2-9.6,4.2
	c-2.3,0-5.1,0.5-6.3,1.2c-1.8,0.9-2.6,1-4,0.4c-2.6-1.2-3.5-0.2-1.6,1.8l1.6,1.7l-3.2,0.9c-1.7,0.5-4.7,0.9-6.5,1
	c-2.6,0.1-3.3,0.4-3.3,1.4c0,0.9-1.3,1.8-4,2.9c-8.8,3.6-16.4,10.1-13.6,11.8c0.5,0.3,1.3,1.5,1.8,2.6c0.6,1.3,1.6,2.1,2.9,2.4
	c1.1,0.2,4,1.4,6.4,2.6c2.4,1.2,5.4,2.4,6.6,2.6c3.3,0.7,3.3,0.8,1.8,4.7c-1.3,3.3-1.3,3.8-0.3,5.8c0.6,1.2,1.5,2.1,2,2.1
	c2.4-0.1,4.6-2.3,6-5.9c1.3-3.5,1.9-4.1,5.7-6.2c5.6-3,7.9-6,7.3-9.3c-0.4-2.2-0.2-2.7,1.7-4c1.2-0.8,2.7-2.8,3.4-4.4
	c1.6-3.6,4.2-4.8,8.6-4.1c3.9,0.6,8.4,3.1,9,4.8c0.2,0.7,0,2-0.4,2.9c-0.7,1.3-0.6,1.8,0.8,3.3l1.6,1.7l2.6-1.4
	c1.5-0.8,3.8-2.2,5.2-3.3l2.5-1.9l0.6,1.6c0.3,0.9,0.4,2.1,0.2,2.6c-0.2,0.6,0,1.6,0.4,2.4c0.5,0.9,0.5,1.9,0.1,2.6
	c-0.5,0.8-0.2,2.1,1,4.1c1.7,3,1.7,3,0.2,4c-1.9,1.4-0.7,2.8,1.4,1.7c2.1-1.1,4.5-1,6,0.4c2.2,2,0.4,4.4-5.5,7.1
	c-6.4,3-9.2,3.6-17.5,3.7c-6.1,0.1-7,0.2-12.9,3.1c-3.5,1.7-6.4,3.3-6.4,3.7c0,1.5,1.1,1.4,5.3-0.6c2.5-1.2,5.7-2.1,7.2-2.1
	c2.6,0,2.7,0.1,1.9,1.6c-0.5,0.9-1.5,2.1-2.3,2.7c-1.2,1-1.3,1.4-0.5,3.1c1.1,2.5,4.1,3.7,7.7,3.1l2.8-0.5l-2.2,1.5
	c-1.2,0.8-3.2,1.7-4.4,2c-1.2,0.3-3.7,1.2-5.5,2.2c-1.9,0.9-3.7,1.4-4.2,1.1c-1.2-0.7,0.1-1.8,3.8-3.3c3.3-1.4,2.8-2.9-0.8-2.2
	c-1.4,0.3-5.9,2-10.1,3.8c-6.5,2.8-7.6,3.6-8,5.3c-0.5,2.1-2,3.1-7.6,4.8c-1.8,0.5-4.1,1.8-5.1,2.9c-1,1.1-3,2.6-4.4,3.5
	c-1.4,0.9-2.7,2.4-2.9,3.4c-0.4,1.6-0.5,1.7-1,0.4c-0.9-2.4-2.3-0.1-2.4,4c-0.1,4.1-2.2,7-6.8,9.1c-4.7,2.2-11.4,7.5-12.8,10
	c-1.2,2.2-1.3,3.1-0.5,8.8c0.7,5.4,0.6,6.7-0.3,8.5c-0.7,1.3-1.5,1.9-2.1,1.7c-1.6-0.6-3.5-7-2.9-9.9c0.4-2,0.1-2.7-1.4-4.1
	c-1.2-1.1-2.3-1.5-3.2-1.2c-0.8,0.2-3-0.2-4.9-1c-2.9-1.3-3.9-1.4-6-0.7c-1.4,0.5-2.8,1.6-3.3,2.6c-0.7,1.5-1.1,1.7-3,1.3
	c-1.2-0.3-3.1-0.9-4.2-1.5c-2.7-1.4-4.2-1.3-7.1,0.5c-1.4,0.8-4.2,2.3-6.3,3.4c-2.4,1.2-4,2.6-4.5,3.8c-0.4,1-1.7,5-3,8.9l-2.3,7
	l1.2,4.5c2.2,8.3,5.2,10.8,11.4,9.5c4.7-1,7.6-3.1,8.6-6.2c0.7-2,1.4-2.7,3.5-3.3c3.2-0.9,4.6-0.9,5.8-0.1c1,0.6,0.7,1.7-3.9,11.6
	c-3.1,6.8-2.9,7.4,2.5,6.6c4.9-0.7,9.4-0.2,9.9,1.2c0.2,0.5-0.1,4.1-0.7,7.9c-1.1,6.9-1.1,7,0.5,9.6c0.9,1.4,2.5,3.1,3.6,3.6
	c1.8,0.9,2.4,0.9,4.6,0c3.6-1.5,5.6-1.3,8.1,0.7c2,1.6,2.3,1.6,3.9,0.6c0.9-0.6,2.2-2.1,2.8-3.4c1.4-2.8,3.8-4.8,5.8-4.8
	c0.8,0,2.3-0.8,3.2-1.8c1.9-2,5.3-2.7,3.6-0.7c-1.4,1.7-2.2,7-1.3,8.7c0.7,1.4,0.8,1.4,2.1-0.3c1-1.2,1.2-1.9,0.6-2.5
	c-1.3-1.3-0.9-2.3,1.5-4c2.4-1.8,4.3-1.6,6.4,0.6c1.5,1.6,9.7,3.8,12,3.3c3.6-0.9,13.2,5,16.8,10.2c1.7,2.5,7.2,5,9.6,4.4
	c5-1.2,11.8,3.7,13.4,9.8c0.5,1.8,1.2,3.5,1.6,3.7c1.1,0.7-0.5,3.3-4,6.6c-2.2,2.1-2.8,3-2.1,3.7c0.6,0.6,1.7,0.1,4.1-2.2
	c3.6-3.3,4.8-3.6,6.6-1.8c1.1,1.1,1.1,1.3-0.4,2.9c-0.9,1-2.1,1.8-2.8,1.8c-0.7,0-0.4,0.3,0.6,0.8c1.4,0.6,2.2,0.4,3.6-0.8
	c3.8-3.1,4.8-3.3,8.2-1.3c2.2,1.2,3.1,2.2,3,3.2c-0.3,2.8,0.3,3.4,2.3,2.1c1.5-1,2.6-1,7.7-0.3c5.4,0.7,6.2,1,8.8,3.7
	c1.9,1.9,4.1,3.2,6.9,4c3.7,1.1,4.1,1.4,4.7,3.9c1,3.6-0.2,7.6-3.2,11.4c-1.3,1.6-2.9,4-3.6,5.3c-0.7,1.3-2,3.2-3.1,4.2
	c-1.8,1.8-1.9,2.2-1.4,6.4c0.9,8.2-3.1,23.5-7,26.8c-1.3,1.1-2.3,1.3-4.3,1c-1.6-0.3-2.9-0.1-3.2,0.4c-0.3,0.5-1.9,1.4-3.5,2.2
	c-1.7,0.7-4.1,2.3-5.5,3.4c-2.4,2-2.4,2.2-1.6,4.6c0.9,2.8,0.3,6-1.7,8.8c-0.6,0.9-1.1,2.4-1.1,3.4s-0.8,2.8-1.7,4
	c-0.9,1.2-2.7,4.1-4,6.3c-3.1,5.5-5,6.4-9.5,4.8c-3.9-1.4-6-1.6-6-0.5c0,0.4,0.8,1.1,1.7,1.5c1,0.4,2.4,2.2,3.3,3.9
	c1.3,2.6,1.4,3.5,0.8,4.9c-1,2.3-5,4.2-8.7,4.2c-3.3,0-4.1,0.8-2.9,2.9c0.7,1.3,0.2,3.4-1.1,5c-0.1,0.1-1.2-0.3-2.5-1
	c-3.1-1.6-4.2-0.6-2.6,2.4c0.6,1.2,1.8,2.4,2.7,2.7c1.4,0.5,1.5,0.6,0.3,1.8c-0.7,0.8-1,1.9-0.8,2.5c0.3,0.7-0.3,2.2-1.5,3.7
	c-1.8,2.4-1.9,2.6-0.7,4.4c0.7,1,1.7,2.1,2.3,2.3c2.2,0.8,2.6,3.7,0.9,7c-1.7,3.3-1.9,6.6-0.6,8.1
	C390.8,537.9,386.9,540.7,385.1,539.7L385.1,539.7z M331.4,224.2c1.9-4.1,5.6-7.1,8.5-7.1c2.1,0,2.1,0.3,0.2,2.8l-1.5,1.9l1.5,1.3
	c1.2,1,1.9,1.1,3.3,0.5c1-0.4,2-1.4,2.2-2.2c0.3-1.1,0.9-1.3,2.2-1c1.2,0.3,1.9,0,2.4-0.8c1.5-2.6-2.3-6-5.1-4.5c-2,1.1-4.6-1-4-3.3
	c0.2-0.8-0.2-2.3-0.9-3.2c-1.5-2-3.8-2.2-8.8-0.8c-1.8,0.5-3.9,0.9-4.6,0.9c-0.7,0-1.1,0.3-0.9,0.6c0.2,0.4,0.2,0.7-0.2,0.7
	c-0.3,0-1.4,0.6-2.4,1.4l-1.8,1.4l2,0.8c1.6,0.6,2.5,0.5,4.3-0.4c2.1-1.1,2.5-1.1,4.7,0c1.4,0.7,3.2,1,4.2,0.7
	c0.9-0.2,1.9-0.1,2.2,0.3c0.3,0.4-0.8,0.9-2.3,1.2c-4.3,0.7-6.5,2.5-9.6,7.7c-2.6,4.3-2.7,4.8-1.7,6c1,1.1,1.3,1.1,2.7,0.2
	C328.9,228.5,330.4,226.3,331.4,224.2L331.4,224.2z M344.6,228.7c2.6-1.3,2.8-1.7,1.9-2.6s-1.5-0.9-4.5,0.5
	c-3.5,1.5-4.6,3.6-1.9,3.6C341,230.2,343,229.5,344.6,228.7z M357.5,223.2c1.5-1.1,1.6-1.3,0.5-1.9c-1.6-0.9-6.3,0.6-6.3,2
	C351.8,224.8,355.4,224.7,357.5,223.2z M412.2,537.7c0-0.3,0.4-1,0.9-1.5c0.5-0.5,0.6-0.9,0.3-0.9c-0.3,0-1,0.5-1.5,1.2
	c-0.7,0.9-1.2,1-2.3,0.4c-0.8-0.5-1-0.8-0.4-0.8c0.5,0,0.8-0.4,0.5-0.8c-0.5-0.8,0.8-1,4.4-0.7c3.2,0.2,3.5,0.7,1.5,2.2
	C413.8,538.4,412.2,538.8,412.2,537.7L412.2,537.7z M1020.5,519.5c-2.1-1.3,2.3-4.2,13-8.7c3-1.3,7.6-3.9,10.2-5.8
	c4.4-3.3,4.8-3.5,5.7-2.2c1.3,1.9,0.5,3.3-2.7,4.7c-1.5,0.7-3.5,2.1-4.3,3c-0.8,1-2.2,1.7-3,1.7c-0.8,0-2.7,1.1-4.2,2.5
	C1030.1,519.2,1023.5,521.4,1020.5,519.5z M969.6,510c-0.8-0.5-0.8-1-0.2-2.1c0.4-0.8,0.8-2.5,0.8-3.8c0-2.1,0.2-2.2,1.6-1.7
	c0.9,0.3,2.8,0.6,4.2,0.7c1.4,0.1,2.8,0.1,3.1,0.2c1.2,0.2-2,3.9-4.9,5.6C970.8,510.9,970.9,510.8,969.6,510L969.6,510z
	 M1053.7,503.6c-0.2-0.3,0.3-1.1,1.3-1.9c1.5-1.2,1.7-1.7,1-2.9c-0.9-1.8,0.5-3.6,3.7-5c2.5-1,3.1-3.1,2.5-8.2
	c-0.5-3.5-0.4-3.7,0.7-2.8c0.9,0.7,1.1,1.7,0.8,3.3c-0.3,1.8,0,2.8,1.5,4.6c1.7,2,2.2,2.2,3.4,1.5c1.3-0.7,1.4-0.6,1,0.4
	c-0.3,0.7-0.5,1.4-0.5,1.5s-1.1,0.8-2.4,1.5c-1.3,0.7-3.8,2.4-5.6,3.9c-2.9,2.4-5.9,4.4-6.8,4.4
	C1054.3,504.1,1054,503.9,1053.7,503.6L1053.7,503.6z M976.7,494.2c-1.5-1.6-1.8-1.7-3.3-0.7c-1.9,1.2-5.4,0.5-8.2-1.7
	c-1.5-1.2-1.6-1.5-0.8-3c0.7-1.2,0.7-2.1,0.1-3.4c-0.4-1-0.8-2.4-0.8-3.2c0-1.8-1.1-1.8-2.1-0.2c-0.4,0.7-0.9,1.1-1.2,0.8
	c-0.3-0.3,0.6-1.7,1.9-3.1c3.2-3.6,1.9-4.6-2.3-1.8c-1.8,1.2-3.4,2.5-3.5,2.9c-0.1,0.4-1-0.8-1.9-2.8c-1-2.1-2.7-4.2-4.2-5.2
	c-2.3-1.5-3.1-1.6-7.5-1.2c-6.5,0.6-12.8,2.3-16.9,4.3c-1.9,0.9-5.5,1.9-8.3,2.2c-2.8,0.3-7.1,1.3-9.7,2.3c-4,1.5-5.1,1.7-7.1,1
	c-2.7-0.9-3.8-2.7-2.1-3.4c0.6-0.2,1.8-1.9,2.6-3.7c1.2-2.9,1.3-3.8,0.6-7.5c-0.6-3.1-0.6-6-0.1-10.7c0.4-3.6,0.6-7.2,0.4-8.1
	c-0.2-0.9,0.1-3,0.8-4.7c1.2-3,1.4-3.2,9.2-6.5c4.4-1.9,9-3.4,10.1-3.4c3,0,6.7-2.9,8.8-6.8c1.3-2.4,2.2-3.3,2.9-3
	c2.1,0.8,2.5,0.7,2.4-0.9c-0.1-1,0.3-1.8,1.2-2c0.8-0.2,2.1-1.6,3.1-2.9c1-1.4,3-3,4.5-3.7c2.7-1.1,2.9-1.1,4.4,0.3
	c2.7,2.4,4.6,3.1,5.5,2c0.4-0.5,0.6-1.2,0.3-1.4c-0.8-0.8,3-5.6,4.8-6.1c1-0.2,3.1-1.1,4.6-1.8c2.4-1.2,3.2-1.3,5.8-0.6
	c5.7,1.5,5.9,1.8,3.8,5c-2.7,4.1-2,5.7,4.7,10.4c3.1,2.2,6,3.8,6.5,3.7c0.5-0.2,2-1.8,3.3-3.7c1.9-2.6,2.6-4.4,2.9-7.4
	c0.4-4.3,2.5-10.2,3.5-10.2c0.3,0,1.1,1.8,1.8,3.9c0.6,2.1,1.9,4.6,2.9,5.6c2.3,2.1,3.6,8.1,2.6,11.6c-0.7,2.3-0.5,2.7,1.8,5.1
	c1.4,1.4,3.6,4.9,4.8,7.7c1.3,2.8,3.6,6.8,5.2,8.8l2.8,3.7l-0.8,5.7c-0.6,4.2-1.5,6.9-3.3,10.1c-2.7,4.9-6.8,9.5-9,10.2
	c-0.8,0.2-2.6,2.1-4,4.1c-1.4,2-2.9,3.6-3.3,3.6c-0.4,0-2.1,1.7-3.7,3.8c-2.7,3.5-3.2,3.8-6.1,3.8c-2.2,0-3.9,0.6-5.7,2l-2.6,2
	L976.7,494.2L976.7,494.2z M621.5,478.9c-1.5-1.5-1.8-2.3-1.5-4.5c0.3-2,0-3.2-1.4-5.2c-1-1.4-1.8-3-1.8-3.4c0-0.4-1.3-2.5-2.9-4.6
	c-2.4-3.3-2.9-4.6-3.3-8.7c-0.7-7.3-3-15.2-6.2-20.9c-1.5-2.8-3-6.5-3.3-8.1c-0.6-3.5,0.9-8.7,4.1-15l2.2-4.2l-1.2-3.7
	c-0.7-2-1-4.5-0.8-5.5c0.3-1.2,0-2.6-0.9-4.2c-0.8-1.3-1.9-4.1-2.5-6.3c-0.8-2.9-2-4.9-4.4-7.2c-4.6-4.5-5.2-6.3-3.8-11.2
	c2.9-10-0.2-15.9-7.9-14.7c-3,0.4-3.1,0.4-3.5-1.7c-0.3-1.6-1.2-2.6-3.4-3.7c-2.9-1.5-4.1-1.5-7.6,0c-0.8,0.3-4.1,1.5-7.3,2.5
	c-4.8,1.6-6.3,1.8-8.4,1.2c-2-0.6-3.7-0.4-7.7,0.7c-4.2,1.2-5.7,1.3-8,0.6c-4.7-1.3-12.9-8.6-14-12.6c-0.9-3.1-6.5-10.3-8.4-10.8
	c-1.2-0.3-1.4-0.6-0.6-1.1c0.7-0.5,0.6-0.7-0.5-1c-1.8-0.5-2-2-0.2-2c1.1,0,1.1-0.1,0.2-0.7c-0.7-0.4-0.8-0.7-0.2-0.7
	c0.6,0,0.4-0.9-0.6-2.6c-1.4-2.4-1.4-2.7-0.4-3.9c3.3-3.6,4-11.4,1.5-16.2c-1.2-2.3-0.4-5.6,2.1-8.9c1-1.3,2.8-4.3,4.1-6.8
	c2.3-4.4,7.4-10.4,8.8-10.4c1.5,0,6.5-5.3,6.5-7c0-3.7,2.2-7.5,5.9-9.8c2-1.3,4.2-3.4,5.1-4.8c1.7-2.8,2-2.9,4-1.5
	c0.8,0.6,2.8,1.2,4.4,1.5c2.5,0.4,3.6,0.1,7.3-1.8c6.3-3.4,10.2-4.2,17.4-3.8c4.7,0.3,6.9,0.1,9.2-0.8c3.4-1.4,6.3-0.6,5.5,1.5
	c-0.2,0.6-0.1,1.5,0.3,2c0.5,0.6,0.5,1.5,0,2.9c-0.7,1.8-0.5,2.3,1.1,4c1,1.1,2.9,2.2,4.2,2.4c5.9,1.2,7.5,1.9,8.7,4
	c0.9,1.5,2,2.3,4,2.6c1.5,0.3,3.7,1,4.8,1.6c2,1,2.2,1,3.9-0.6c1.1-1,1.6-2.1,1.3-2.9c-0.2-0.7-0.1-2,0.4-2.8
	c1.1-2.1,4.3-1.9,9.3,0.6c5.4,2.7,15.8,4.7,19.4,3.7c1.8-0.5,3.5-0.5,5,0c5,1.5,7.6,0.3,8.3-3.9c0.2-1.4,0.6-2.6,0.9-2.6
	c0.5,0,0.7-2.1,0.8-6.7c0-1.5,0.4-2.7,0.8-2.7c0.5,0,0.5-0.5-0.1-1.5c-0.9-1.7-2.7-1.6-7.1,0.1c-2.1,0.8-2.6,0.8-4.5-0.3
	c-2.4-1.4-4.9-1.6-5.6-0.5c-0.5,0.9-4.3,0.3-6.3-1c-1.5-0.9-2.8-3.6-2.8-5.6c0-0.8-0.7-1.9-1.6-2.5c-1.4-1-1.5-1.3-0.5-1.9
	c0.6-0.4,1.8-0.5,2.7-0.3c1.2,0.3,2.2-0.2,3.6-1.5c1.3-1.3,2.8-2,4.5-2.1c1.4-0.1,3.5-0.7,4.6-1.5c2.4-1.6,7.9-1.1,12.1,1
	c5.7,2.9,10.8,2.7,12.8-0.4c1.1-1.6,1.1-2,0.1-3.5c-0.6-0.9-3.6-3.1-6.6-4.8l-5.4-3.1l1-2c0.6-1.1,0.8-2.2,0.6-2.4
	c-0.2-0.2-0.1-0.8,0.2-1.4c0.3-0.5,0.7-1.4,0.7-1.9c0.2-1.1-1-0.8-6.8,1.8c-3.4,1.5-3.9,1.9-3.1,2.8c0.5,0.6,1.6,1.1,2.4,1.1
	c1.2,0,0.9,0.4-1.2,1.5c-2.6,1.4-2.9,1.4-4.6,0.3c-1.5-1-1.6-1.4-1-2.2c0.7-0.8,0.6-1.1-0.5-1.5c-0.7-0.3-1.7-1-2.1-1.6
	c-2.1-2.8-8.7,4.5-10.6,11.7c-0.9,3.4-0.9,3.6,0.8,4.8l1.8,1.3l-3.2,0.7c-1.8,0.4-4.2,0.4-5.3,0.1c-2.1-0.6-4.8,0.3-4.8,1.6
	c0,0.4-0.5,0.5-1.1,0.3c-0.6-0.2-1.6,0-2.1,0.4c-0.9,0.7-0.8,1.3,0.7,4.1c1.6,3,1.6,3.4,0.6,5.4c-1.2,2.5-2.4,2.3-4.1-0.7
	c-1.2-2.1-1.2-2.1,0.4-2.3c2-0.3,2.2-1.6,0.2-1.9c-4.5-0.7-6.9-3.1-6.9-6.8c0-2.9-2.7-6.1-6-7.1c-1.7-0.5-3.6-1.6-4.1-2.4
	c-0.6-0.8-2.2-1.9-3.6-2.6c-1.4-0.6-3.1-1.7-3.6-2.5c-0.8-1.1-1.3-1.2-2.4-0.6c-0.8,0.4-1.4,1.2-1.4,1.8c0,1.9,9.3,10.4,13.8,12.7
	c4.8,2.4,5.6,3.3,2.2,2.6c-3-0.7-3.8,0-2.8,2.2c0.7,1.6,0.6,2.1-0.8,3.4l-1.7,1.6l0.4-2.2c0.6-3.4-3.9-8.4-7.7-8.4
	c-1.4,0-6.7-5.1-8.1-7.8c-1.5-2.9-3.1-3.4-5.5-1.8c-3.5,2.4-6.2,3.2-8.9,2.7c-3.7-0.6-6,0.7-5.4,3c0.3,1.2,0.1,1.8-0.6,1.8
	c-0.5,0-1.9,0.8-3.1,1.8c-1.2,1-2.4,1.8-2.7,1.8c-0.9,0-3.4,4.6-3.4,6.2c0,1.6-2.9,4.6-5.6,6.1c-0.9,0.4-2.9,0.8-4.5,0.8
	c-2.2,0-3.1,0.4-3.7,1.5c-0.8,1.5-0.8,1.5-2.7-0.4c-1.8-1.8-2.8-2.2-6.3-2.7c-1.9-0.3-2.2-4.5-0.8-10.5c0.6-2.6,0.9-5.4,0.6-6.4
	c-0.7-2.8,1.5-4.4,5.1-3.8c8.3,1.3,13.2,1.4,14.4,0.2c1.6-1.6,2.3-6.8,1.3-9.7c-0.6-1.9-1.5-2.7-4.1-3.7c-3.8-1.4-3.9-2.8-0.2-2.9
	c1.4,0,3.4-0.6,4.5-1.3c1.1-0.7,2.3-1.1,2.6-0.9c1,0.6,4.9-1.6,6.2-3.6c0.6-1,1.9-1.9,2.7-2.1c0.9-0.2,3.2-1.9,5.2-3.8
	c2.8-2.6,4.3-3.5,6.8-3.8c3-0.4,6.1-2.8,4.6-3.8c-0.9-0.6-1.6-4.1-1.1-5.4c0.2-0.6,1.3-1.7,2.3-2.3l1.9-1.2l-0.5,3
	c-0.4,2.6-0.3,3,0.8,2.8c0.7-0.1,2-0.6,2.9-1.1c1.4-0.8,1.7-0.7,2.1,0.2c0.6,1.6-1.1,3.5-2.3,2.5c-0.7-0.5-1.1-0.5-1.5,0.1
	c-0.4,0.6-0.7,0.6-1.1-0.1c-0.3-0.5-0.8-0.8-1-0.6c-0.2,0.2,0.4,1.3,1.3,2.5c1.5,1.9,1.8,2,4,1.3c1.9-0.7,2.8-0.6,4.4,0.2
	c1.8,0.9,2.4,0.9,5.9-0.4c3.1-1.2,4.3-1.3,5.6-0.7c1.2,0.6,2.2,0.6,3.3,0c3.3-1.7,4.2-3,3.8-5.3c-0.6-3.5,0.5-4.6,3.4-3.5
	c2,0.7,2.6,0.7,3.5-0.2c0.9-0.9,0.9-1.3-0.7-2.9c-1.5-1.6-1.6-2-0.7-2.6c0.6-0.4,2.8-0.5,4.9-0.3c3.9,0.4,8.7-1.1,7.9-2.5
	c-0.7-1.2-5.2-1.5-8.9-0.7c-3.3,0.7-4.2,0.7-6.8-0.5c-4-1.8-4.4-3.9-1.7-7.7c3.5-4.9,4.1-6.4,3.1-7.6c-1.5-1.8-2.9-1.2-6.3,2.5
	c-1.8,2-4.2,4-5.4,4.5c-1.2,0.5-2.7,1.9-3.3,3c-1,1.9-1,2.3,0,3.8c0.6,0.9,1.8,1.9,2.6,2.2c2.2,0.7,1.8,2-1.4,4.2
	c-1,0.7-2.3,2.6-2.9,4.2c-0.8,2.1-2,3.5-3.8,4.5c-2.6,1.5-2.7,1.5-4.1,0.2c-0.8-0.7-1.7-2.2-1.9-3.3c-0.2-1.1-1.3-3.1-2.4-4.4
	l-2-2.4l-2.5,1.5c-1.4,0.8-3.2,1.5-4,1.5c-2.3,0-5-2.5-5.2-4.8c-0.1-1.1-0.4-2.6-0.7-3.3c-0.7-1.6,2.6-4.7,6-5.6
	c3.4-0.9,10.3-5.8,11.5-8c0.5-1,2.3-3,3.9-4.5c1.6-1.5,3-3,3-3.4c0-0.4,1.6-1.3,3.5-2c1.9-0.7,5.1-1.9,7.1-2.7
	c2.5-1,5.5-1.5,9.5-1.6c6.9-0.2,11.4,0.7,15.1,3.1c1.9,1.2,3.3,1.6,4.7,1.3c2.5-0.5,15.9,3.7,16.5,5.1c0.6,1.5-3.3,2.8-6.6,2.4
	c-1.5-0.2-4.6-0.8-7-1.3c-3.1-0.7-4.4-0.7-5-0.1c-0.6,0.6-0.3,1.1,1.2,1.7c1.1,0.5,2.5,1.8,3,2.9c1.5,2.9,6.2,5.2,8.6,4.2
	c2.3-0.9,2.3-1.2-0.1-2.5c-2.3-1.2-1.2-1.5,1.6-0.4c2.3,0.9,4.9-0.2,4.3-1.8c-0.3-0.7,0.5-1.3,2.8-1.8c4.8-1.2,5.2-1.4,4.8-2.4
	c-1.5-3.7-1.5-3.6,0.7-3.3c1.2,0.1,2,0.6,1.9,1.1c-0.1,0.5,0.5,1.3,1.4,1.7c1.3,0.7,2.3,0.4,5.7-1.4c5.1-2.7,9.1-3.5,10.5-2.3
	c0.8,0.7,2.2,0.7,6.2,0c2.8-0.5,5.4-0.7,5.8-0.4c0.4,0.2,0.9,0.1,1.2-0.3c0.6-0.9-1-3-1.9-2.5c-1,0.6-4.5-0.5-3.7-1.3
	c0.8-0.8,21,4,22.2,5.2c0.8,0.8,3.4-0.3,3.4-1.4c0-0.4-1.4-1.4-3.2-2.3c-5.5-2.7-5.8-6.9-0.7-8.2c3-0.8,4.3,0.1,8.4,5.6
	c5.4,7.2,5.2,6.8,3.5,9.3c-1.3,1.8-1.4,2.3-0.5,2.6c1.7,0.7,5.4-1.6,5.9-3.7c0.6-2.4-0.5-4.4-3.2-5.8c-2.1-1.1-3.6-3.1-3.6-4.8
	c0-0.6,0.8-0.7,2.4-0.4c2.4,0.4,4.3-0.4,9.7-4.2c1.2-0.9,3.3-1.4,5.4-1.5c4.2-0.1,5.6-0.8,4.4-2.3c-0.5-0.6-0.7-1.2-0.5-1.4
	c0.9-0.9,12.9-2.6,15.7-2.2c2.7,0.4,3.5,0.2,5.7-1.5c1.4-1.1,2.6-2.2,2.6-2.6c0-0.9-6.4-0.8-6.9,0.1c-0.8,1.2-1.8,0.8-1.5-0.6
	c0.2-1.2-0.4-1.4-5.7-1.8c-14.5-1.1-15.7-1.4-13.9-3.1c1.5-1.5,5.3-1.5,8.4,0.1c1.3,0.6,3.4,1.2,4.7,1.2c1.3,0,2.6,0.3,2.8,0.7
	s1.5,0.7,2.8,0.7c3.6,0,10.7,1.6,10.2,2.3c-0.2,0.3,0.5,0.6,1.5,0.6c1,0,2.9,0.6,4.2,1.3c1.7,0.9,4.1,1.3,9.3,1.3
	c5.5,0,7.3,0.3,8.9,1.4c1.1,0.7,2,1.6,2,1.8c0,0.3-1.7,1.4-3.7,2.5c-4.9,2.7-3.9,3.9,2.1,2.4c3.9-1,4.8-1,8-0.1
	c2.6,0.8,4.3,0.9,6.1,0.4c1.8-0.5,3.6-0.4,6.7,0.4c3.2,0.8,4.9,0.9,7,0.4c4.7-1.3,10.5-0.9,13.8,0.9c1.7,0.9,4.7,2.6,6.8,3.7
	c3.7,2,3.9,2,6.4,0.9c2.1-1,3.3-1,6.5-0.4c3.1,0.6,4.3,0.5,6.1-0.4c1.7-0.9,2-1.3,1.4-2.1c-1.3-1.5,3.3-2.1,8.8-1.1
	c2.6,0.5,5.8,0.9,7.2,1c1.4,0.1,4.1,0.9,6.1,1.8c3,1.3,5.2,1.6,13.9,1.9c8.2,0.2,10.9,0.6,12.8,1.6c2,1.1,4.3,1.3,12,1.4
	c7,0.1,10.2,0.4,12.3,1.3c3.4,1.4,4.7,0.9,2.9-1.1c-1.3-1.5-1.3-1.5,3.8-1c8.5,0.8,18.8,2.7,22.2,4.1c1.8,0.7,5.2,1.5,7.6,1.8
	c2.4,0.3,5.9,1.3,7.8,2.3c2.8,1.4,3.8,1.6,5.6,1c2.5-0.9,4.1-0.2,7.9,3.1l2.4,2.1l-1.8,0.4c-1.8,0.5-6.6-0.7-8.2-2
	c-0.5-0.4-1.2-0.5-1.5-0.3c-0.3,0.2-2-0.1-3.8-0.7c-4.1-1.4-5.9-0.9-4,1.2c1.3,1.4,1.2,1.4-1.2,1.3c-4.5-0.3-3.3,1,3.4,3.6
	c3.6,1.4,6.7,2.7,6.9,2.9c0.7,0.7-1.6,1.5-3.2,1.2c-1.8-0.3-6.2,1.6-6.2,2.7c0,0.4-0.7,1.3-1.6,2.1c-1.4,1.3-1.7,1.4-3.6,0.4
	c-1.8-0.9-2.4-0.9-4.1-0.1c-1.1,0.6-3,1.2-4.2,1.5c-1.2,0.3-2.6,0.9-3.1,1.3c-1.5,1.2,1.1,4.8,4.8,6.5c2,1,3.4,2.2,3.8,3.4
	c0.4,1.1,1.2,2.8,1.8,3.8c1,1.7,1,2-0.1,2.4c-0.8,0.3-1,0.9-0.7,1.7c0.3,0.7,0.6,2.1,0.7,3.1c0.1,1,0.4,2.4,0.7,3
	c0.4,0.9,0.1,1.4-1.1,1.7c-1.3,0.4-2.1-0.1-4.2-2.4c-1.5-1.6-3.9-3.8-5.4-4.9c-1.5-1.1-4.2-3.9-6-6.3c-3.2-4.2-3.2-4.4-2.2-6.4
	c0.6-1.2,1.1-2.8,1.1-3.8c0-0.9,0.5-2.5,1-3.5c1.1-1.9,0.6-3.4-1.6-6c-1.5-1.7-4.1-0.4-3.4,1.7c0.6,1.9-1.3,2.5-3.4,1.1
	c-0.9-0.6-3.1-1.3-4.8-1.6c-2.9-0.5-3.1-0.4-3.9,1.6c-0.4,1.2-0.6,3-0.4,4c0.3,1.7,0.1,2-1.6,2.4c-1.2,0.3-3.2,0-4.8-0.7
	c-1.8-0.8-3.5-1-4.7-0.6c-1,0.3-4.6,0.6-7.8,0.6c-5.2,0.1-6.2,0.3-7.8,1.8c-1,0.9-2.2,3.2-2.7,5.1c-0.5,1.9-1.3,4.1-1.9,5
	c-1,1.5-0.9,1.7,2,3.2c3.1,1.6,6.5,2,9,1.1c2-0.7,8,4,9.9,7.7c0.8,1.5,2,3.1,2.8,3.5c3,1.6,3.6,12,1.1,18.9
	c-1.7,4.7-3.7,6.3-6.5,5.2c-1.1-0.4-2.1-0.7-2.2-0.7c-0.1,0-0.9,1.3-1.8,3c-1.1,2.2-1.3,3.2-0.8,3.9c1.1,1.3,0.3,2.9-1.8,3.9
	c-1,0.4-1.8,1.1-1.8,1.5s2.3,2.3,5.1,4.2c3.5,2.4,5.4,4.3,6.3,6.2c0.7,1.5,1.1,2.9,0.9,3c-0.2,0.1-1.7,0.9-3.3,1.8l-3,1.5l-1.8-4.2
	c-2-4.7-3.8-6.5-6.8-7.4c-1.5-0.4-2.1-1-2.1-2.3c0-1.2-0.8-2.2-2.4-3.1c-2.3-1.4-2.4-1.4-4.9,0.2c-2.5,1.5-2.5,1.5-3.3,0.1
	c-0.4-0.8-0.8-1.9-0.8-2.6c0-0.6-0.6-1.4-1.4-1.8c-1.1-0.6-1.8-0.2-3.9,2c-1.4,1.5-3.1,3.1-3.9,3.5c-1.2,0.7-1.3,1-0.4,2
	c0.5,0.6,2.4,2,4.1,2.9c2.7,1.5,3.3,1.6,4.2,0.7c0.9-0.9,1.6-0.9,4.3-0.2l3.2,0.9l-1.8,1.2c-3.3,2.2-4.3,3.4-4.8,5.4
	c-0.4,1.6-0.2,2.1,1.3,2.8c1,0.4,2.5,2.2,3.3,4c0.8,1.7,2.5,3.7,3.7,4.4c2.7,1.6,3.4,3.2,1.9,4.1c-1.4,0.8-0.7,2,1.1,2
	c2.3,0,2.3,1.4,0.1,9.2c-2.7,9.5-5.1,12.6-11.3,14.9c-2.5,0.9-5.5,1.7-6.7,1.8c-2.8,0.2-5,1.3-6.8,3.7l-1.5,1.9l-0.7-1.8
	c-0.9-2.4-3-3-6-1.7c-2.8,1.2-4.6,3-5.3,5.4c-0.7,2.1,1.7,5.9,5.5,9c3.2,2.5,6.7,8.8,7.5,13.3c0.7,4-0.6,6.6-4,8.1
	c-1.6,0.7-3,1.9-3.3,2.6c-0.5,1.7-3.8,3.8-4.4,2.9c-0.2-0.4-0.3-1.3,0-2.1c0.2-0.7,0.2-1.9,0-2.5c-0.4-0.9-0.8-1-1.9-0.4
	c-1.2,0.6-1.7,0.5-2.6-0.9c-2.4-3.4-9.3-9-11.2-9c-0.7,0-0.9,0.8-0.8,2.6c0.1,1.4-0.2,4.1-0.6,6.1c-0.7,3.2-0.6,3.7,0.7,5.6
	c0.8,1.1,1.7,2.9,2,3.9c0.3,1,2.4,3.4,4.8,5.3c4,3.2,4.4,3.9,6.1,9.2c1,3.2,1.8,6.1,1.8,6.4c0,1.2-1.5,0.7-4.7-1.5
	c-3.3-2.4-5.4-6.1-7.1-12.7c-0.8-2.9-1.6-4.1-4-5.8c-2.9-2.1-3-2.3-2.8-5.8c0.1-2,0.5-4.8,0.7-6.3c0.4-2.1,0.1-3.5-1.4-6.6
	c-1-2.1-2.2-5.4-2.7-7.3c-1-4.2-2.5-4.9-5-2.4c-1.1,1-2.1,1.8-2.4,1.8c-1.2,0-2.8-2.5-2.4-3.7c0.7-2.2-3.6-9.8-6.1-10.8
	c-1.4-0.6-2.6-1.9-3.5-3.8c-1.5-3.2-3.1-4.5-4.7-3.6c-0.6,0.3-3,1-5.3,1.4c-4.2,0.9-5.7,2.1-5.2,4.3c0.2,0.8-0.5,1.6-2.3,2.4
	c-1.4,0.7-3,2.1-3.4,3.1c-0.5,1-1.5,2-2.2,2.3s-2,1.4-2.6,2.5c-0.7,1.1-2.7,3.2-4.5,4.5c-2.5,1.9-3.2,2.9-3.1,4.3
	c0.7,7.8-0.4,14.3-3.1,18.1c-2.6,3.8-2.8,3.9-5,2.9c-1.2-0.6-2-1.6-2.3-3.3c-0.3-1.4-1.7-5.2-3.3-8.5c-9.3-20-10.7-23.8-9.9-27.4
	c0.5-2.4-0.8-6.1-2-5.7c-0.5,0.2-0.9,0.8-0.9,1.3c-0.1,3.3-3.8,3.8-6.7,0.9l-1.9-1.9l1.7-0.6c1.9-0.7,1.7-2.6-0.2-2.2
	c-0.7,0.1-2.2-0.6-3.4-1.6c-1.2-1-2.5-1.9-2.8-1.9s-0.8-0.7-1.1-1.5c-0.7-2.1-4.5-4-6.5-3.1c-1.7,0.8-17.6,0.6-20.2-0.2
	c-1-0.3-2.7-1.7-3.9-3c-2.2-2.5-2.2-2.5-5.5-1.6c-3.1,0.8-3.5,0.8-7.7-1.3c-3.6-1.8-4.7-2.8-5.8-5.3c-1.4-3.1-4.6-5.4-6.5-4.7
	c-0.6,0.2-1.3,1.4-1.6,2.5c-0.4,1.7,0,2.8,1.8,5.2c1.2,1.7,2.6,4.3,3,5.9c0.9,3.3,2.6,4.3,4.1,2.3c0.9-1.2,1.1-1.2,1.7-0.3
	c0.4,0.6,0.6,1.4,0.5,1.8c-0.4,1.3,3.8,3.3,5.8,2.8c1-0.2,3.1-1.9,4.7-3.8c2.5-2.9,3.4-3.1,3-0.7c-0.3,1.6,1,3.5,3.1,4.6
	c3.3,1.7,7.8,5.4,7.8,6.4c0,0.5-0.9,1.6-1.9,2.6c-1,1-2.5,3-3.3,4.6c-1.9,3.7-7.5,9.2-9.4,9.2c-2.2,0-5.4,1.8-6.7,3.8
	c-0.6,0.9-2.2,2.2-3.6,2.9c-6.9,3.5-15.3,7-17.6,7.4c-2.5,0.5-2.7,0.4-4-2.3c-0.8-1.5-1.6-4.6-1.9-6.8c-0.4-2.9-1.1-4.7-2.6-6.4
	c-1.2-1.3-2.1-2.7-2.1-3.1c0-0.4-1.3-2.1-2.9-3.7c-2-2.1-3.3-4.3-4.1-7.1c-0.7-2.3-2-5.1-2.9-6.3c-6.7-8.3-8.7-11.2-9.7-14.3
	c-1.3-4.1-2.4-4.7-3-1.7l-0.4,2.1l-2.5-3.1c-3.8-4.8-4.3-2.6-0.7,3.2c1.7,2.8,4.4,7.7,6,10.9c1.6,3.2,3.7,6.8,4.6,8.1
	c1,1.3,1.7,3.3,1.7,4.6c0,2.7,0.8,4.5,4,8.4c1.3,1.6,2.6,3.9,2.8,5.2c0.3,1.6,1.8,3.3,4.8,5.7c4.6,3.7,7.6,7.5,8.3,10.7
	c0.3,1.2,1.3,2.4,2.7,3.1c2,1,2.7,1,9.2-0.4c3.8-0.8,7.9-2,9-2.6l2.1-1.1l0.5,2.9c0.4,2.6,0,3.9-5.2,13.8
	c-5.6,10.7-5.8,11-11.4,15.4c-3.1,2.5-6.4,5.5-7.3,6.7c-0.9,1.2-3.7,4.5-6.2,7.3c-7.4,8.2-8.4,15.4-3.5,25.1
	c1.2,2.5,1.7,4.3,1.4,5.5c-0.2,1-0.1,3.4,0.3,5.5c0.7,3.2,0.6,4.1-0.6,6.4c-1.7,3.4-3.1,4.6-7.9,7c-2.1,1.1-3.8,2.2-3.8,2.6
	c0,0.4-1.5,2.4-3.3,4.4c-1.8,2-3.3,4-3.3,4.4c0,0.4,0.7,2.1,1.5,3.7c2.5,4.9,0.8,8.4-5.1,10.8c-2.5,1-3.3,3.2-2.7,7
	c0.3,2,0.1,2.7-1,3.3c-0.8,0.4-2.2,2-3.1,3.5c-3,4.7-11.6,13-15.5,15c-3.3,1.6-4.1,1.8-6.5,1.1c-2.1-0.6-3.8-0.5-7.3,0.4
	C623.1,481.1,623.8,481.1,621.5,478.9L621.5,478.9z M717.5,246.6c1.9-1,2.1-1.5,2.1-4.3c0-2-0.4-3.5-1.1-4.1
	c-0.6-0.5-1.6-1.9-2.3-3.1c-1-2-1-2.1,0-1.7c1.4,0.5,3.4-0.1,3.4-1.1c0-0.4-0.7-1.7-1.5-2.8c-1.2-1.8-1.7-2-2.9-1.4
	c-0.9,0.5-1.4,0.5-1.4,0c0-0.4-1.3-1.4-2.9-2.2c-3.5-1.8-4.8-3.8-3.7-5.8c0.8-1.6,3.8-2.6,5.1-1.9c1.7,1.1,2.2-0.5,0.8-2.5
	c-3.4-4.8-8.2-4.5-14.1,0.9c-3.8,3.5-4.1,4.4-2,5.6c0.8,0.4,1.5,1.3,1.5,1.9c0,0.6,1.3,2.5,2.9,4.2c3.6,4,4.3,5.8,3.9,10.4l-0.4,3.8
	l5,2.6c2.8,1.4,5.1,2.6,5.2,2.6C715.2,247.7,716.3,247.2,717.5,246.6L717.5,246.6z M697.4,450.1c-2.1-1.2-2.3-1.8-2.9-6.1
	c-0.4-3.4-0.2-4.2,1.8-7.5c2.1-3.4,2.2-4,1.8-7.7c-0.7-5.3,0.5-8.1,3.6-8.8c2.9-0.6,9.2-6.2,10.7-9.5l1.2-2.5l0.8,1.8
	c2,4.4,1.8,6.4-1.7,16.1c-1.9,5.2-3.9,11.4-4.5,13.8c-1.9,7.7-2.9,9.5-6,10.5C698.9,451.1,699.2,451.1,697.4,450.1L697.4,450.1z
	 M1056.2,437.4c-2.3-2.5-3.7-4.7-3.7-5.8c0-2.4,0.4-2.2,2.5,1.4c1,1.7,2.8,4.1,4,5.2c1.2,1.2,2.2,2.4,2.2,2.7
	C1061.2,442.3,1059.7,441.2,1056.2,437.4L1056.2,437.4z M731.3,436.4c0-0.4,0.3-0.7,0.7-0.7c0.4,0,0.7,0.3,0.7,0.7
	c0,0.4-0.3,0.7-0.7,0.7C731.6,437.1,731.3,436.8,731.3,436.4z M1114.8,435c-0.2-0.4-0.1-1,0.3-1.2c1.1-0.7,1.5-0.1,0.8,1
	C1115.5,435.4,1115.2,435.5,1114.8,435L1114.8,435z M736.4,433.8c0-0.2,0.3-0.5,0.7-0.8c0.4-0.2,0.7-0.1,0.7,0.3
	c0,0.4-0.3,0.8-0.7,0.8C736.7,434.2,736.4,434,736.4,433.8z M1095.9,426.5c-0.7-1.8,0.2-2.5,2.2-1.6c1.7,0.8,1.8,0.9,0.6,1.8
	C1097,427.9,1096.4,427.9,1095.9,426.5z M1100.5,423.2c-1.4-0.9-0.4-1.6,1.8-1.3c1.8,0.2,1.8,0.3,0.6,1.1
	C1102.1,423.5,1101.1,423.6,1100.5,423.2L1100.5,423.2z M1066.5,420.5c-1.5-3.2-1-4.5,0.6-1.4c1.6,3.2,1.6,3.3,0.9,3.3
	C1067.7,422.5,1067,421.6,1066.5,420.5L1066.5,420.5z M1069.3,420c0-0.8,0.1-1.2,0.4-1c0.2,0.2,0.3,0.9,0.1,1.4
	C1069.5,421,1069.3,420.9,1069.3,420L1069.3,420z M1128.6,413c-0.7-1.1,0-1.6,1.5-1.3c1.1,0.2,1.2,0.3,0.1,1.2
	C1129.4,413.6,1129,413.6,1128.6,413L1128.6,413z M698.1,409.4c-0.2-0.4-0.1-0.7,0.3-0.7s0.8,0.3,0.8,0.7s-0.1,0.7-0.3,0.7
	C698.7,410.1,698.4,409.8,698.1,409.4z M1017.9,402.6c-4.6-1.5-6.7-2.8-8.5-5.5c-2.1-3.1-5.9-5.4-7.8-4.8c-0.8,0.2-2.1,1.6-2.9,3
	c-1.4,2.4-1.7,2.5-4.2,2.1c-1.5-0.3-3.6-1.3-4.7-2.3c-1.4-1.3-2.4-1.7-3.4-1.3c-0.8,0.3-2,0.2-2.7-0.2c-1-0.6-0.9-0.8,0.7-1.9
	c1.9-1.2,1.9-1.2,0.6-3.8c-1-2.1-2.4-3.2-6.9-5.5c-3.1-1.6-6.6-2.8-7.8-2.8c-2.7,0-3.8-2.5-1.8-4c1.2-0.9,1-1.1-2.1-2.6
	c-3.4-1.6-3.4-1.7-1.8-2.6c0.9-0.5,2.4-0.9,3.2-0.9c1.7,0,3.9,2.4,3.9,4.4c0,0.7,0.7,2.1,1.6,3.2c1.6,2,1.6,2,2.7,0.6
	c0.6-0.8,2.7-2.3,4.5-3.4l3.4-1.9l4.7,2.1c2.6,1.2,6.2,2.7,8.1,3.3c1.9,0.7,5.6,2.7,8.4,4.5c5.2,3.4,7.4,6.3,6.2,7.8
	c-1,1.3,3.1,7.1,7.4,10.3C1023.2,403.9,1023.1,404.2,1017.9,402.6L1017.9,402.6z M1049.6,402.5c-0.6-0.7-0.6-1.1-0.2-1.1
	c0.9,0,1.9,1.4,1.4,1.9C1050.7,403.5,1050.1,403.1,1049.6,402.5L1049.6,402.5z M927.2,399.5c-1.1-0.6-1.4-1-0.7-1
	c1.3,0,3.4,1.2,2.9,1.7C929.2,400.4,928.2,400.1,927.2,399.5z M939.5,398.6c2.1-2.9,5.3-4.1,8.3-3.2c2.2,0.7,2.2,0.8,0.5,0.8
	c-1,0-3.4,1.1-5.3,2.3C938.7,401.2,937.6,401.2,939.5,398.6L939.5,398.6z M1045.2,399.6c-1-1.2-0.8-1.3,1-0.7
	c0.6,0.2,1.2,0.7,1.2,1.1C1047.4,401,1046.2,400.8,1045.2,399.6L1045.2,399.6z M1048.6,398.9c-0.3-0.7-0.5-1.8-0.4-2.5
	c0-0.8,0.3-0.6,0.8,0.5c0.4,1,0.6,2.1,0.4,2.5C1049.2,399.9,1048.9,399.6,1048.6,398.9z M1104.9,399.6c0-0.2,0.3-0.5,0.7-0.8
	c0.4-0.2,0.7-0.1,0.7,0.3c0,0.4-0.3,0.8-0.7,0.8C1105.3,399.9,1104.9,399.8,1104.9,399.6z M918.7,396.6c-0.5-0.2-0.7-0.7-0.5-1.1
	c0.6-0.9,5.2-0.9,5.8,0.1c0.2,0.4,0,0.7-0.5,0.7c-0.5,0-1.6,0.2-2.4,0.3C920.2,396.8,919.2,396.8,918.7,396.6L918.7,396.6z
	 M929.5,396c-1.3-1.6,0.2-2.1,3.6-1.2c3.5,0.9,3.4,1.1-0.1,1.7C931.1,396.9,930.1,396.7,929.5,396L929.5,396z M1038.8,395.6
	c-0.5-0.8-0.6-1.5-0.2-1.5s1.1,0.7,1.5,1.5c0.4,0.8,0.5,1.5,0.2,1.5C1040,397,1039.3,396.4,1038.8,395.6L1038.8,395.6z
	 M1043.4,394.8c-2-2.2-0.9-2.5,1.1-0.4c0.9,1,1.4,1.8,1,1.8C1045,396.3,1044.1,395.6,1043.4,394.8L1043.4,394.8z M906.8,394.7
	c-2.6-0.4-6.3-1.2-8.2-1.8c-1.9-0.6-4.1-0.9-4.9-0.6c-1.7,0.5-8.8-1.6-8.8-2.6c0-2.3,6.5-2.5,10-0.3c1.3,0.8,2.3,0.9,5.1,0.3
	c3-0.7,3.7-0.6,5.4,0.7c1.1,0.8,2.3,1.5,2.8,1.5c1.4,0,5.8,2.4,5.4,3c-0.2,0.3-0.8,0.6-1.2,0.5S909.4,395.1,906.8,394.7L906.8,394.7
	z M1037.6,391.2c-0.7-0.8-1-1.5-0.6-1.5s1.3,0.7,2.1,1.5c0.7,0.8,1,1.5,0.6,1.5S1038.3,392,1037.6,391.2z M1033,390.3
	c-0.4-0.5-1-1.9-1.2-3.1c-0.4-1.9-0.4-2,0.4-0.7c0.5,0.8,1.3,2,1.9,2.7c0.6,0.7,0.8,1.4,0.4,1.6C1034,391,1033.4,390.8,1033,390.3z
	 M1017.5,388l-1.8-1l2.8-0.5c1.5-0.3,3.9-1.5,5.3-2.7c1.5-1.3,2.5-1.8,2.5-1.2c0,1.5-0.9,2.6-3.6,4.6
	C1019.8,389.3,1019.9,389.3,1017.5,388L1017.5,388z M880.9,385.1c-2.7-1.5-7.5-7.4-9.1-11.1c-0.8-2-2.8-5.2-4.3-7.2
	c-1.5-2-3.3-4.6-3.9-5.8s-2.5-3.5-4.2-5.1c-3.5-3.4-5.7-6.9-4.2-6.9c1.9,0,6.8,2.8,8.9,5c5.8,6.1,7,7.2,9.8,8.9
	c2.7,1.6,3.9,3.3,4,5.5c0,0.4,0.8,1.5,1.7,2.5c0.9,1,2.6,2.9,3.8,4.2c1.2,1.3,2.3,3.3,2.6,4.5C886.9,383.4,883.8,386.8,880.9,385.1
	L880.9,385.1z M734.2,384.6c0-0.4,0.3-0.7,0.7-0.7c0.4,0,0.7,0.3,0.7,0.7c0,0.4-0.3,0.7-0.7,0.7C734.5,385.4,734.2,385,734.2,384.6z
	 M926.8,384.6c-0.2-0.4-0.3-1.4,0-2.2c0.2-0.8-0.1-2.2-0.7-3.1c-1-1.5-1-1.9,0.1-3.5c0.7-1,1.5-3.5,1.8-5.7c0.4-2.7,1.1-4.5,2.3-5.7
	c1.6-1.6,2-1.7,5.6-1c3.1,0.6,4.3,0.5,5.9-0.4c2.8-1.4,3-1.4,2.1,0.7c-1.2,2.6-3.5,3.4-6,2.1c-4.4-2.3-10.3,1.1-7.2,4.2
	c1.1,1.1,1.8,1.2,3.9,0.6c3.6-1,5.1-0.8,2.8,0.4c-2.6,1.4-3,2.9-1.7,5.5c0.6,1.2,1.1,3,1.1,4c0,1.7-0.2,1.8-1.5,1.1
	c-0.8-0.4-2-2-2.6-3.4c-1.1-2.6-1.1-2.7-2.5-1.2c-1.2,1.2-1.3,1.8-0.6,4.2c0.6,2.2,0.6,3-0.2,3.4C928,385.5,927.4,385.5,926.8,384.6
	L926.8,384.6z M1026.8,380.7c-0.7-1-2.3-2.4-3.5-3.1c-1.2-0.6-2.1-1.3-1.9-1.5c1.1-1.1,7.5,4,6.9,5.6
	C1028.2,382.3,1027.5,381.8,1026.8,380.7z M912.4,378.3c-1.1-0.6-2.6-0.9-3.3-0.6c-1.8,0.6-9-0.9-9.7-2c-0.6-0.9-2.2-6.2-3.1-10
	c-0.2-1,0-2.4,0.6-3.2c0.8-1.1,1.3-1.2,2.6-0.5c1.4,0.7,1.7,0.6,2.5-1.1c0.5-1,2.1-2.5,3.5-3.3c1.6-0.8,3-2.3,3.6-3.6
	c0.6-1.5,1.7-2.5,3.4-3c1.4-0.5,3.3-1.9,4.4-3.3c1-1.4,2.3-2.5,2.8-2.5c0.5,0,1.9,1.1,3.2,2.4l2.3,2.4l-1.9,2.5
	c-2.1,2.9-2,5.3,0.4,8.7l1.5,2l-1.8,1.2c-1,0.7-1.8,1.6-1.8,2.1c0,1.7-4.7,11.3-5.8,12C914.7,379.2,913.8,379.1,912.4,378.3
	L912.4,378.3z M954.7,378.3c-1.5-0.4-1.7-1.7-0.3-1.7c0.6,0,2.1,0.2,3.4,0.5c2.1,0.4,2.2,0.6,1,1
	C957.3,378.8,956.6,378.8,954.7,378.3L954.7,378.3z M1070.7,369c0-0.2,0.3-0.5,0.7-0.8c0.4-0.2,0.7-0.1,0.7,0.3
	c0,0.4-0.3,0.8-0.7,0.8C1071,369.3,1070.7,369.2,1070.7,369z M952.2,367c-0.6-0.6-0.6-1.3-0.1-2.2c0.4-0.7,0.5-1.7,0.3-2.1
	c-0.7-1.1,1-3.6,2.3-3.6c1.1,0,1.1,0.1,0,1.4c-1,1.1-1.1,1.8-0.5,3.3C955.3,366.8,954,368.9,952.2,367L952.2,367z M586.3,364.7
	c0-0.2,0.3-0.5,0.7-0.8c0.4-0.2,0.7-0.1,0.7,0.3c0,0.4-0.3,0.8-0.7,0.8C586.7,365,586.3,364.8,586.3,364.7z M1091.5,362.8
	c-0.2-0.4-0.1-0.7,0.3-0.7c0.4,0,0.8,0.3,0.8,0.7s-0.2,0.7-0.3,0.7C1092.1,363.5,1091.7,363.2,1091.5,362.8z M590.7,355.9
	c0-0.2,0.3-0.5,0.7-0.8c0.4-0.2,0.7-0.1,0.7,0.3c0,0.4-0.3,0.8-0.7,0.8C591,356.2,590.7,356.1,590.7,355.9z M941.1,345
	c-1.4-3.2-1.6-3.4-3.7-2.9c-2.1,0.5-2.2,0.4-1.4-1.1c0.7-1.2,1.3-1.5,2.8-1.1c1.5,0.3,2.5,0,4-1.4c1.1-1,2-2.4,2-3.1
	c0-1.8,2.7,4.3,3.3,7.6c0.5,2.5,0.4,2.6-0.7,1.7c-1.7-1.4-3.3,0.1-1.9,1.7c0.6,0.7,0.6,1.1,0.2,1.1c-0.4,0-1.3,0.2-1.9,0.4
	C942.8,348.3,942.1,347.5,941.1,345L941.1,345z M808.3,346.2c-0.8-1.3-1.3-7.3-0.7-8.8c0.6-1.7,0.7-1.6,2.5,1.1
	c2.2,3.3,2.9,5.4,2.2,6.5C811.6,346.1,808.7,347,808.3,346.2z M970.9,342.5c0-0.4,0.3-0.9,0.7-1.2c0.4-0.2,0.7-0.1,0.7,0.3
	c0,0.4-0.3,0.9-0.7,1.2C971.2,343,970.9,342.9,970.9,342.5z M1085.3,342.4c0-0.4,0.2-0.7,0.3-0.7c0.2,0,0.5,0.3,0.8,0.7
	c0.2,0.4,0.1,0.7-0.3,0.7C1085.6,343.1,1085.3,342.8,1085.3,342.4z M919.9,338.2c0-0.3,1.5-2.2,3.2-4.2c2.6-2.9,3.3-3.3,3.3-2.1
	c0,0.8-1.1,2.7-2.4,4.2C921.7,338.6,919.9,339.5,919.9,338.2L919.9,338.2z M935.7,336.2c-0.3-0.7-0.2-1.7,0.1-2.3
	c0.5-0.9,0.7-0.9,1.4-0.1c0.6,0.8,0.6,1.3-0.1,2.3C936.2,337.4,936.2,337.4,935.7,336.2L935.7,336.2z M377.9,333.4
	c0.4-0.5,0.6-1.2,0.3-1.5c-0.3-0.3,0.2-0.5,1-0.5c1.2,0,1.4,0.3,1.1,1.5c-0.2,0.8-1,1.5-1.8,1.5
	C377.4,334.4,377.3,334.2,377.9,333.4z M940.6,333.2c-0.3-0.8-0.6-1.6-0.8-1.9c-0.2-0.3,0-0.5,0.4-0.5c0.7,0,1.8,3,1.2,3.5
	C941.2,334.4,940.9,334,940.6,333.2L940.6,333.2z M933.2,331.3c-1-1.2,0-3,1.5-2.6c1,0.2,1,0.5,0.2,1.9
	C934.2,332,933.9,332.1,933.2,331.3L933.2,331.3z M941.8,328.8c-0.8-1.1-1.4-2.1-1.2-2.2c0.6-0.6,2.6,0.7,3.7,2.4
	C946,331.5,943.9,331.4,941.8,328.8z M929.8,326c-0.6-0.6-1.2-1.6-1.2-2s0.7-0.1,1.6,0.8c0.9,0.9,1.4,1.8,1.2,2
	C931.2,327,930.5,326.6,929.8,326z M358.1,325.9c-0.3-0.3-0.5-0.8-0.5-1.2c0-0.5,0.3-0.4,0.9,0.1c0.5,0.5,0.7,1,0.5,1.2
	S358.4,326.1,358.1,325.9L358.1,325.9z M354,324.9c0-0.4,0.1-0.7,0.3-0.7s0.5,0.3,0.8,0.7c0.2,0.4,0.1,0.7-0.3,0.7
	C354.3,325.6,354,325.3,354,324.9z M388.2,323.5c0-0.4,0.1-0.7,0.3-0.7c0.2,0,0.5,0.3,0.8,0.7c0.2,0.4,0.1,0.7-0.3,0.7
	C388.6,324.2,388.2,323.9,388.2,323.5z M937.2,323.3c-0.7-0.4-2.1-0.6-3.1-0.3c-1.4,0.4-2.4-0.2-5-2.9c-3.7-3.8-4.5-5.5-3.4-7.5
	c0.4-0.8,0.8-2.4,0.8-3.6c0-4,2.6-3.8,4.6,0.3c1.1,2.3,1.1,2.7,0.1,5.2c-1.1,2.6-1.1,2.7,0.9,4.7c1.4,1.5,2.5,2,3.6,1.7
	c0.9-0.2,1.9,0.1,2.5,0.7C939.4,323.1,938.8,324.3,937.2,323.3L937.2,323.3z M383.8,318.8c0-0.2,0.3-0.5,0.7-0.8
	c0.4-0.2,0.7-0.1,0.7,0.3c0,0.4-0.3,0.8-0.7,0.8C384.2,319.1,383.8,318.9,383.8,318.8L383.8,318.8z M498.2,316.2
	c0-0.4,0.3-0.7,0.7-0.7c0.4,0,0.7,0.3,0.7,0.7s-0.3,0.7-0.7,0.7C498.5,316.9,498.2,316.6,498.2,316.2z M381.6,313.3
	c0-0.4,0.3-0.9,0.7-1.2c0.4-0.2,0.7-0.1,0.7,0.3c0,0.4-0.3,0.9-0.7,1.2C382,313.9,381.6,313.7,381.6,313.3z M375.5,310.4
	c-0.3-0.4,0-0.5,0.7-0.3c1.3,0.5,1.5,1,0.4,1C376.2,311.1,375.7,310.7,375.5,310.4z M491.3,310.3c-0.2-0.4-0.1-0.7,0.3-0.7
	c0.4,0,0.8,0.3,0.8,0.7s-0.1,0.7-0.3,0.7C491.9,311.1,491.5,310.7,491.3,310.3L491.3,310.3z M378.4,308.9c-0.2-0.4-0.1-0.7,0.3-0.7
	c0.4,0,0.8,0.3,0.8,0.7c0,0.4-0.1,0.7-0.3,0.7C379,309.6,378.6,309.3,378.4,308.9z M381.6,308.9c0-0.4,0.1-0.7,0.3-0.7
	s0.5,0.3,0.8,0.7c0.2,0.4,0.1,0.7-0.3,0.7C382,309.6,381.6,309.3,381.6,308.9z M331.6,306.9c-0.5-0.2-0.9-0.7-0.9-1
	c0-1,3.2-0.8,4.8,0.4c1.3,1,1.3,1.1-0.8,1C333.5,307.3,332.1,307.1,331.6,306.9L331.6,306.9z M350,306.5c-0.7-0.4-2.1-0.5-3.2-0.2
	c-1.1,0.2-2.8,0.1-3.8-0.3c-1.6-0.6-1.4-0.7,1.2-0.6c3.9,0.1,4.9-0.5,3.9-2.4c-0.7-1.3-0.5-1.4,3-1.4c3.4,0,8.2,1.5,9,2.9
	C360.7,305.4,351.3,307.3,350,306.5z M364,307c-0.9-0.9,0.2-1.8,2.1-1.8c1.1,0,1.7,0.3,1.5,0.9C367.3,307.2,364.7,307.8,364,307z
	 M890.9,305.8c-1.9-1.9,0-4.2,3.5-4.2c1.6,0,1.6,0,0.2,2.3C893.1,306.6,892.2,307.1,890.9,305.8z M370,305.7c0-0.2,0.5-0.5,1.1-0.7
	c0.6-0.2,1.1-0.1,1.1,0.3s-0.5,0.7-1.1,0.7C370.5,306,370,305.8,370,305.7L370,305.7z M338.5,300.5c-0.2-0.2-1.8-0.4-3.4-0.4
	c-2.3,0-2.8-0.3-2.3-0.9c0.5-0.7-0.2-1.5-2.9-3.3c-5.2-3.4-8.2-4.1-11.7-2.7c-3.3,1.3-3.6,1.4-3.6,0.5c0-1.5,5.8-3.2,10-2.9
	c4,0.3,6.2,1.2,14.1,5.3c6.4,3.4,6.5,3.5,4.4,4C340.7,300.9,339,301,338.5,300.5L338.5,300.5z M343.8,294.3c1.4-0.9,2.2-0.9,2.2,0
	c0,0.4-0.7,0.7-1.6,0.7C343,295,342.9,294.9,343.8,294.3z M923.9,293c-0.4-0.3-1.2-1.3-1.7-2.2c-0.7-1.4-0.7-2.1,0.4-3.9
	c1.7-2.9,2.8-3.3,3.4-1.1C926.6,288.1,924.9,293.7,923.9,293L923.9,293z M348.6,292.1c0.5-0.8,3.2-0.9,3.2-0.1
	c0,0.3-0.8,0.6-1.8,0.7C349,292.7,348.3,292.4,348.6,292.1L348.6,292.1z M334.2,285c-1.2-1.3-1-3.1,0.3-3.1c0.4,0,0.6,0.6,0.4,1.4
	c-0.2,0.8,0,1.6,0.5,1.7c0.5,0.2,0.6,0.5,0.4,0.8C335.5,286.1,334.8,285.7,334.2,285L334.2,285z M338.4,279.3
	c-0.3-0.7-0.3-1.4-0.1-1.6c0.2-0.2,0.6,0.2,0.8,0.9c0.3,0.7,0.3,1.4,0.1,1.6C339,280.4,338.6,280,338.4,279.3z M333.8,278.7
	c0-0.6,0.6-1.1,1.4-1.1c1.2,0,1.3,0.1,0.3,1.1c-0.6,0.6-1.2,1.1-1.4,1.1C334,279.8,333.8,279.3,333.8,278.7L333.8,278.7z
	 M944.7,262.7c0-0.6-0.8-2-1.8-3.1c-2.3-2.7-1.5-4.6,1.2-2.8c2,1.3,3,3.9,2.3,5.8C945.9,264,944.7,264.1,944.7,262.7L944.7,262.7z
	 M379.5,258.3c0-0.2,0.3-0.5,0.7-0.8c0.4-0.2,0.7-0.1,0.7,0.3c0,0.4-0.3,0.8-0.7,0.8S379.5,258.5,379.5,258.3z M948.8,257.4
	c-0.5-1.2,0.6-2.4,2.3-2.4c1.2,0,1.2,1.6,0,2.8C949.9,258.9,949.3,258.9,948.8,257.4z M955.4,254.8c-1.4-2.2-3.4-2.5-8-1.2
	c-1.9,0.5-3.1,0.5-4,0c-0.7-0.4-0.9-0.8-0.4-0.8c0.5,0,1.8-0.9,3-1.9c1.6-1.3,2.7-1.7,3.9-1.4c1.3,0.3,2.7-0.3,5.7-2.5
	c5.8-4.3,6.3-5.7,3.9-10.3c-2.2-4.4-1.6-5.9,1.7-3.9c2.4,1.4,4.7,5.5,4,7.3c-0.2,0.6,0.1,2.6,0.8,4.3c1,2.5,1,3.6,0.4,4.7
	c-0.9,1.7-3.5,2.9-6.5,2.9c-1.7,0-2.2,0.4-2.7,2.3l-0.7,2.3L955.4,254.8L955.4,254.8z M660.3,252.3c-0.9-0.9-0.4-1.7,1-1.7
	c0.8,0,1.6-0.3,1.9-0.7c0.7-1.1,1.8-0.9,1.4,0.3C664.1,251.3,661,252.9,660.3,252.3z M635.5,251l-2.2-1l2.9,0
	c3.6-0.1,6.3,0.6,5.8,1.5C641.4,252.4,638,252.2,635.5,251L635.5,251z M606.1,243.7c-2.9-1.5-3.1-1.7-1.5-2.1
	c1.8-0.5,5.9,0.1,5.8,0.8c0,0.2-0.3,1-0.5,1.7C609.3,245.3,609,245.2,606.1,243.7L606.1,243.7z M591.5,235.9
	c-0.6-1.8-0.6-2.5,0.2-3.3c1.5-1.5,2.6-0.4,2.6,2.4C594.3,238.3,592.5,238.8,591.5,235.9L591.5,235.9z M574.4,236.5
	c0.5-1.3,2.7-1.6,2.3-0.2c-0.2,0.5-0.8,1-1.5,1.1C574.3,237.5,574.1,237.3,574.4,236.5L574.4,236.5z M955,228.1
	c-1.3-1.9-1.4-2.2-0.4-3.6c1-1.4,1-1.8,0-3.7c-1.6-3.2-1.4-3.4,1.4-1.2c1.4,1.1,4.2,2.4,6.2,3c4.1,1.2,5.1,2.2,3,2.8
	c-0.8,0.3-1.5,0.9-1.5,1.5c0,0.8-0.5,0.9-2,0.5c-3.8-1-4.9-0.7-4.7,1C957.2,230.8,956.8,230.6,955,228.1L955,228.1z M592.6,229
	c-0.8-0.8-0.5-2.3,0.6-2.7c0.8-0.3,1.1,0.1,1.1,1.4C594.3,229.4,593.6,230,592.6,229z M950.4,213.6c-0.6-0.7-2.1-3.2-3.3-5.6
	c-1.2-2.4-4.4-6.8-7.1-9.8c-3-3.3-4.5-5.6-4-5.8c0.5-0.2,1.6,0.6,2.4,1.7c2,2.7,4.5,5,8.4,7.9c3.2,2.4,4.8,4.6,2.7,3.8
	c-2.4-0.9-1.8,1.3,1.3,4.8c1.8,2,3.3,3.9,3.3,4C954.2,215.5,951.3,214.8,950.4,213.6z M417.3,212.4c0-0.6,0.3-1.1,0.7-1.1
	s0.5,0.5,0.3,1.1c-0.2,0.6-0.5,1.1-0.7,1.1C417.5,213.5,417.3,213,417.3,212.4z M413.5,210l-2.7-0.3l5.1-5.1
	c2.8-2.8,5.5-5.1,5.9-5.1c0.5,0,0.3,0.5-0.3,1.3c-1.5,1.7-0.5,3.6,2.3,4.2c1.2,0.3,2.4,1.2,2.9,2.2c0.7,1.6,0.6,1.8-1.9,2.5
	C422.1,210.5,419,210.6,413.5,210L413.5,210z M236,204.8c-2.5-2.4-2.8-3.3-1.1-4c1.5-0.6,4.3,1.3,5.3,3.6c1.1,2.4,1.1,2.5-0.5,2.5
	C238.9,206.9,237.3,206,236,204.8z M556.8,201.1c0.8-0.4,2.4-1.1,3.5-1.5c2.5-0.9,2.1-1.8-1.1-2.5c-2.2-0.4-2.2-0.5-1-1.4
	c0.7-0.5,1.1-1.3,0.9-1.7c-0.3-0.4,0.5-1.1,1.7-1.5c1.2-0.4,2.2-1.1,2.2-1.5c0-1.7-1.5-4.5-2.4-4.4c-1.9,0.3-2.8-0.1-2.5-1
	c0.2-0.5,0-1.5-0.3-2.2c-0.9-1.8,1.2-5.6,3.2-5.6c0.3,0,0.5,0.4,0.4,0.9c-0.1,0.5,0.6,1,1.5,1.2l1.7,0.3l-1.6,1.7l-1.6,1.7l1.8,0.7
	c2,0.8,3.9,3.2,5.8,7.5c0.9,2.1,1.5,2.6,2.6,2.3c2.2-0.6,2.5,0.9,0.4,2.3c-1.4,0.9-1.7,1.4-1.1,2.1c0.6,0.6-0.6,1-4.8,1.6
	c-3.1,0.4-6.8,1-8.2,1.3C556,201.7,555.7,201.6,556.8,201.1L556.8,201.1z M544.5,197.1c-0.2-0.6,0-2.1,0.6-3.3
	c0.7-1.3,0.8-2.3,0.4-2.5c-1.3-0.8-0.8-1.8,1.1-2.2c1-0.2,2.2-0.9,2.6-1.5c1-1.2,5.5-1.4,6.1-0.3c0.2,0.4-0.1,1.5-0.7,2.3
	c-0.6,0.9-1.1,2.5-1.1,3.6c0,1.6-0.5,2.1-3.1,3c-1.7,0.6-3.6,1.3-4.3,1.6C545.4,198.1,544.8,197.8,544.5,197.1L544.5,197.1z
	 M557.9,189.8c0-0.2,0.3-0.5,0.7-0.8c0.4-0.2,0.7-0.1,0.7,0.3c0,0.4-0.3,0.8-0.7,0.8C558.2,190.2,557.9,190,557.9,189.8z
	 M234.7,186.3c-0.7-0.9-0.7-1.3,0.2-2c1.5-1.2,2.2-0.4,1.4,1.5C235.6,187.2,235.4,187.3,234.7,186.3L234.7,186.3z M233.5,180.9
	c-0.2-0.4,0-1.1,0.6-1.6c1.2-1,1.4-0.2,0.4,1.4C234.2,181.2,233.8,181.3,233.5,180.9z M186.4,180.4c0-0.5,2.2-1.4,5.3-2.2
	c1.2-0.3,1.9-0.2,1.7,0.2c-0.2,0.4-1.3,0.8-2.4,1.1s-2.6,0.6-3.3,0.9C187,180.6,186.4,180.6,186.4,180.4L186.4,180.4z M619.3,172.2
	c-1.3-0.5-1.1-1.4,0.4-1.5c0.7-0.1,1.3,0.4,1.3,0.9C621,172.7,620.8,172.8,619.3,172.2z M459.2,168.5c-4.6-2.5-6.8-6.4-5.5-9.6
	c0.6-1.5,0.7-2.5,0.1-3.6c-1.2-2.3,0.4-4.9,4.4-7.4c1.9-1.2,3.8-2.8,4.2-3.6c1.2-2.2,0.1-5.9-1.9-6.8c-1-0.5-1.6-1.2-1.4-1.8
	c0.5-1.3-1.9-5.9-4.3-8.2c-1.8-1.7-2.5-1.8-8.6-1.9c-8.3-0.1-9.8-0.5-9.7-2.9c0.1-1,0.3-1.8,0.5-1.8c0.2,0,3.2-0.3,6.6-0.8
	c4.3-0.5,8.2-1.6,13.1-3.7c7.5-3.2,8-3.3,25.9-2.8c5.6,0.1,10.8-0.3,17.5-1.4c6.2-1,10.8-1.4,13.2-1.1c2.1,0.3,5.1,0.1,6.8-0.4
	c4-1.1,14.3,0.2,18.4,2.3c2.4,1.2,3.7,1.4,7.7,1c4.4-0.4,4.7-0.4,3.4,0.6c-0.8,0.6-3.3,1.3-5.5,1.6c-4.8,0.6-9.2,4-8,6.2
	c0.5,0.9,0.1,1.7-1.5,3.3c-1.2,1.1-2.3,2.6-2.5,3.3c-0.5,1.6-6.9,4.6-10.1,4.7c-3.5,0.1-3.9,0.9-1.2,2.4c1.3,0.7,3.2,1.9,4.2,2.7
	l1.8,1.4l-1.7,0.6c-1.3,0.5-2.3,0.2-4.4-1.3c-2.9-2-6-2-4.3,0c0.6,0.8,0.5,1.1-0.7,1.4c-2.7,0.7-0.8,2.1,2.2,1.6
	c1.9-0.3,3-0.2,3.6,0.6c0.7,0.9-0.2,1.2-5.5,2.4c-3.5,0.7-8.2,1.4-10.4,1.4c-4.1,0.1-7,1.2-11.4,4.5c-1.4,1.1-4.4,2.1-7.9,2.8
	c-7.4,1.4-9.8,3-14.3,9.3c-3.6,5.1-5.7,7-7.9,7C463.4,170.5,461.2,169.6,459.2,168.5L459.2,168.5z M407.6,163.6
	c-1.6-1-3.5-2.8-4.3-4c-1.5-2.4-2.9-2.7-7-1.5c-1.4,0.4-2.9,0.4-3.6,0.1c-2.2-1.2,1.7-2.4,6.1-1.9c3.3,0.4,4,0.3,4.4-0.7
	c0.8-2,4.3-3.5,6.3-2.6c1.2,0.6,2.3,0.5,3.9-0.1c2.1-0.8,2.1-0.9,0.8-1.9c-0.8-0.6-1.7-1-2-1c-0.3,0-1.4-1.5-2.5-3.3
	c-1-1.8-3-3.9-4.4-4.8c-2.3-1.4-2.6-1.4-4.7-0.4c-1.8,0.9-2.8,1-5.7,0.4c-1.9-0.4-4.6-0.6-5.9-0.3c-2.3,0.4-6.6-0.7-6.6-1.8
	c0-2,6.2-6.4,9.8-7l2.9-0.5l-2.1,2.2c-2.9,3.1-1.8,4.5,1.3,1.7c1.3-1.2,3.6-2.3,5.1-2.6c2.2-0.4,3.2-0.1,6,1.7
	c3.8,2.5,4,2.6,6.2,1.4c1.3-0.7,1.7-0.5,3.1,1.2c1,1.2,3.1,2.5,5.2,3.2c3.3,1.1,3.6,1.3,3.6,3.6c0,1.7,0.5,2.8,1.7,3.6
	c4.9,3.5,4.8,3.4,3.7,5c-1.5,2.3-2.6,2.5-5.8,0.9c-2.2-1.1-3.2-1.3-4.3-0.7c-1.4,0.7-1.4,0.9-0.3,3c0.9,1.8,1,2.6,0.4,4
	c-0.8,1.7-0.9,1.7-2.9,0.6c-4.1-2.1-6.8-0.7-3,1.5c1.2,0.7,2,1.5,1.8,1.9C414,165.9,410.4,165.3,407.6,163.6L407.6,163.6z
	 M557.2,164.5c0-0.3,0.5-0.6,1.1-0.6s1.1,0.3,1.1,0.6s-0.5,0.6-1.1,0.6S557.2,164.9,557.2,164.5z M380.1,160.6
	c-1.4-0.8-2.6-0.8-4.6-0.3c-3.4,0.9-4.6,0.3-2.9-1.7c2.2-2.5,3.7-2.9,6.4-2.1c3,1,4.4,2.5,3.5,3.9
	C382.1,161.5,381.7,161.5,380.1,160.6L380.1,160.6z M524.8,160.3c-1.2-0.8-2.7-1.3-3.4-1.1c-0.9,0.3-1.1,0-0.8-1
	c0.4-1.7,6.8-4,9-3.4c0.8,0.2,2.7,0,4.3-0.4c2.5-0.8,3.2-0.7,4.9,0.4l2,1.3l-1.8,1.4c-1.5,1.2-4.2,2.2-10.9,4
	C527.5,161.6,526,161.1,524.8,160.3L524.8,160.3z M327,146.7c-1-0.2-3.4-1-5.4-1.9l-3.6-1.6l5.1-0.4c2.8-0.2,5.1-0.7,5.1-1.1
	c0-0.4-2-0.9-4.4-1.1c-3.2-0.3-3.8-0.5-2.2-0.7c2.7-0.4,2.8-1.6,0.4-2.2c-1.8-0.5-1.8-0.5,0.7-1.6c4.4-1.9,9-2.2,13.1-1
	c3.4,1,3.9,1,5.5,0c1.1-0.7,1.8-0.9,1.9-0.3c0.1,0.4,0.1,1.2,0.2,1.7c0.2,1.6,1.6,1.4,3.4-0.5c1.6-1.7,4.4-2.5,4.4-1.3
	c0,0.3-0.6,1.6-1.4,2.9l-1.4,2.4l2.4,1.2l2.3,1.2l-3.9,1.8c-3.5,1.6-4.2,1.7-7.3,0.9c-3-0.7-3.9-0.6-6.9,0.7
	C331.3,147.2,330.6,147.3,327,146.7L327,146.7z M356.2,146.2c-0.7-0.8-0.4-1.2,1.3-1.9c1.2-0.5,2.9-0.7,3.8-0.4
	c1.6,0.5,1.5,0.6-0.9,1.9C357.4,147.4,357.3,147.4,356.2,146.2L356.2,146.2z M557.2,142.8c1.4-0.9,2.2-0.9,2.2,0
	c0,0.4-0.7,0.7-1.6,0.7C556.4,143.5,556.3,143.4,557.2,142.8L557.2,142.8z M690.9,140.8c-3.7-1.5-3.6-1.4-2.6-2.7
	c0.5-0.6,0.6-1.1,0.3-1.1c-0.3,0,0-0.5,0.8-1.1c0.8-0.6,1.5-1.3,1.5-1.6c0-1.1,3-3.9,5.1-4.9c1.2-0.5,4.3-1.2,6.9-1.4
	c2.6-0.2,6.1-0.6,7.8-0.8c1.8-0.3,3.2-0.2,3.5,0.3c0.5,0.8-0.5,1.2-6.1,2.2c-5.6,1-9,2.6-11.2,5.2c-2.3,2.8-2.4,4.5-0.3,6l1.6,1.1
	l-2.2,0C694.7,142,692.5,141.4,690.9,140.8L690.9,140.8z M309.4,138.7c-1.2-1.2-0.9-1.4,4.7-4.5c6.6-3.6,9.9-4.1,15.8-2.3l3.3,1
	l-4.4,0.9c-3.6,0.7-11.1,3.2-17.1,5.7C311.1,139.7,310,139.4,309.4,138.7L309.4,138.7z M362,137.7c0-0.4-0.9-1.2-2-1.9l-2-1.1
	l2.7,0.4c1.9,0.3,2.9,0.1,3.3-0.6c0.5-0.9,5.1-2.6,7-2.6c0.3,0,0.1,1-0.6,2.2C368.9,136.9,362,139.9,362,137.7L362,137.7z
	 M373.3,135.6c-1-1.7,6.1-4.3,9.1-3.3c2.2,0.7,0.7,1.9-3.1,2.5c-1.7,0.3-3.7,0.8-4.3,1C374.3,136.1,373.6,136,373.3,135.6z
	 M396.6,130.2c-4.8-0.4-8.8-0.8-8.9-0.9c-0.7-0.6,1-2.6,2.7-3.3c1.7-0.7,2.5-0.6,4.9,0.6c2.3,1.2,3.8,1.4,8,1.1
	c2.9-0.2,6.2-0.1,7.3,0.1l2.1,0.5l-2.5,1.4c-1.4,0.7-3,1.3-3.6,1.3C405.8,131,401.4,130.6,396.6,130.2z M606.2,127.3
	c-3.6-1.8-3.9-2.7-1.1-2.7c1.1,0,2.5-0.4,3.1-0.8c0.9-0.7,0.9-0.7-0.1-0.4c-0.7,0.2-1.6,0-2-0.5c-0.6-0.6-1-0.6-1.4,0
	c-0.4,0.6-1.2,0.7-2.7,0.3c-3.8-1.2-4.7-1.7-4.7-2.8c0-1,1-1.1,6.9-0.6c4.5,0.3,6.9,0.2,6.9-0.3c0-1.4,2-0.7,2.6,0.9l0.5,1.6
	l0.3-1.6c0.2-0.9,0.8-1.6,1.4-1.6c0.6,0,1-0.4,1-0.9c0-0.7,0.2-0.7,0.9,0c0.5,0.5,2.9,0.9,5.8,0.9c5.2,0,6.4,0.9,3,2.3
	c-1.8,0.7-4.9,0.5-8.4-0.5c-0.7-0.2-1.3-0.1-1.3,0.2c0,0.7,4.1,3.1,5.2,3.1c0.4,0,1.2,0.5,1.7,1c0.9,0.9,0.9,1.1-0.1,1.4
	c-0.6,0.2-1.1,0.1-1.1-0.4c0-0.5-0.9-0.6-2.6-0.3c-1.8,0.3-2.5,0.2-2.1-0.3c0.3-0.4,0.1-1.3-0.4-1.9c-0.9-1.1-3.6-1.5-3.6-0.5
	c0,0.3-1.1,1.8-2.4,3.2l-2.4,2.6L606.2,127.3L606.2,127.3z M413,125.7c-1.3-0.7-3-1-5.8-0.7c-2.6,0.2-4.6,0-5.7-0.6
	c-1.5-0.9-1.1-1,3.4-0.9c5.7,0,8.2-1.2,5.1-2.5c-1.5-0.6-1.2-0.7,1.3-0.3c3.3,0.5,4.5-0.4,2.8-1.9c-1.9-1.6,0.2-2.1,7-1.6
	c4.2,0.3,6.8,0.1,7.9-0.5c2.1-1.1,1.3-2.5-1.1-1.9c-1.6,0.4-12.9-0.3-12.5-0.7c0.3-0.3,16.4-1.8,26.9-2.5c5.5-0.3,11.5-0.8,13.5-1.1
	l3.6-0.4l-5.9,2.8c-5.5,2.6-14.5,5.2-18.1,5.2c-0.9,0-3.5,1-5.7,2.2c-2.3,1.2-4.5,2.2-5.1,2.2c-0.6,0-2.9,1-5.3,2.2
	c-2.4,1.2-4.3,2.2-4.3,2.2C414.8,126.7,414,126.3,413,125.7L413,125.7z M398.8,119c-3.5-0.8-3.7-1.1-1.1-2.4c3.8-2,7.4-2.5,9-1.3
	c1.3,0.9,1.2,1.1-1.3,2.6C402.7,119.5,401.7,119.7,398.8,119L398.8,119z"/>
<g>
	<path class="st2" d="M345.2,215c-2,1.1-4.6-1-4-3.3c0.2-0.8-0.2-2.3-0.9-3.2c-1.5-2-3.8-2.2-8.8-0.8c-1.8,0.5-3.9,0.9-4.6,0.9
		c-0.7,0-1.1,0.3-0.9,0.6c0.2,0.4,0.2,0.7-0.2,0.7c-0.3,0-1.4,0.6-2.4,1.4l-1.8,1.4l2,0.8c1.6,0.6,2.5,0.5,4.3-0.4
		c2.1-1.1,2.5-1.1,4.7,0c1.4,0.7,3.2,1,4.2,0.7c0.9-0.2,1.9-0.1,2.2,0.3c0.3,0.4-0.8,0.9-2.3,1.2c-4.3,0.7-6.5,2.5-9.6,7.7
		c-2.6,4.3-2.7,4.8-1.7,6c1,1.1,1.3,1.1,2.7,0.2c0.9-0.6,2.4-2.8,3.4-4.9c1.9-4.1,5.6-7.1,8.5-7.1c2.1,0,2.1,0.3,0.2,2.8l-1.5,1.9
		l1.5,1.3c1.2,1,1.9,1.1,3.3,0.5c1-0.4,2-1.4,2.2-2.2c0.3-1.1,0.9-1.3,2.2-1c1.2,0.3,1.9,0,2.4-0.8
		C351.7,216.9,347.9,213.5,345.2,215z"/>
	<path class="st2" d="M716.2,235.1c-1-2-1-2.1,0-1.7c1.4,0.5,3.4-0.1,3.4-1.1c0-0.4-0.7-1.7-1.5-2.8c-1.2-1.8-1.7-2-2.9-1.4
		c-0.9,0.5-1.4,0.5-1.4,0c0-0.4-1.3-1.4-2.9-2.2c-3.5-1.8-4.8-3.8-3.7-5.8c0.8-1.6,3.8-2.6,5.1-1.9c1.7,1.1,2.2-0.5,0.8-2.5
		c-3.4-4.8-8.2-4.5-14.1,0.9c-3.8,3.5-4.1,4.4-2,5.6c0.8,0.4,1.5,1.3,1.5,1.9c0,0.6,1.3,2.5,2.9,4.2c3.6,4,4.3,5.8,3.9,10.4
		l-0.4,3.8l5,2.6c2.8,1.4,5.1,2.6,5.2,2.6c0.1,0,1.2-0.5,2.4-1.1c1.9-1,2.1-1.5,2.1-4.3c0-2-0.4-3.5-1.1-4.1
		C717.9,237.7,716.8,236.3,716.2,235.1z"/>
	<path class="st2" d="M342.1,226.6c-3.5,1.5-4.6,3.6-1.9,3.6c0.8,0,2.8-0.7,4.5-1.5c2.6-1.3,2.8-1.7,1.9-2.6
		S345.1,225.3,342.1,226.6z"/>
	<path class="st2" d="M358,221.3c-1.6-0.9-6.3,0.6-6.3,2c0,1.4,3.6,1.3,5.8-0.2C359.1,222.1,359.1,221.9,358,221.3z"/>
</g>
<g>
	<path class="st2" d="M327.9,213c2.1-1.1,2.5-1.1,4.7,0c1.4,0.7,3.2,1,4.2,0.7c0.9-0.2,1.9-0.1,2.2,0.3c0.3,0.4-0.8,0.9-2.3,1.2
		c-4.3,0.7-6.5,2.5-9.6,7.7c-2.6,4.3-2.7,4.8-1.7,6c1,1.1,1.3,1.1,2.7,0.2c0.9-0.6,2.4-2.8,3.4-4.9c1.9-4.1,5.6-7.1,8.5-7.1
		c2.1,0,2.1,0.3,0.2,2.8l-1.5,1.9l1.5,1.3c1.2,1,1.9,1.1,3.3,0.5c1-0.4,2-1.4,2.2-2.2c0.3-1.1,0.9-1.3,2.2-1c1.2,0.3,1.9,0,2.4-0.8
		c1.5-2.6-2.3-6-5.1-4.5c-2,1.1-4.6-1-4-3.3c0.2-0.8-0.2-2.3-0.9-3.2c-1.5-2-3.8-2.2-8.8-0.8c-1.8,0.5-3.9,0.9-4.6,0.9
		c-0.7,0-1.1,0.3-0.9,0.6c0.2,0.4,0.2,0.7-0.2,0.7c-0.3,0-1.4,0.6-2.4,1.4l-1.8,1.4l2,0.8C325.2,214,326.1,213.9,327.9,213z"/>
	<path class="st2" d="M342.1,226.6c-3.5,1.5-4.6,3.6-1.9,3.6c0.8,0,2.8-0.7,4.5-1.5c2.6-1.3,2.8-1.7,1.9-2.6
		S345.1,225.3,342.1,226.6z"/>
	<path class="st2" d="M357.5,223.2c1.5-1.1,1.6-1.3,0.5-1.9c-1.6-0.9-6.3,0.6-6.3,2C351.8,224.8,355.4,224.7,357.5,223.2z"/>
	<path class="st2" d="M716.3,233.4c1.4,0.5,3.4-0.1,3.4-1.1c0-0.4-0.7-1.7-1.5-2.8c-1.2-1.8-1.7-2-2.9-1.4c-0.9,0.5-1.4,0.5-1.4,0
		c0-0.4-1.3-1.4-2.9-2.2c-3.5-1.8-4.8-3.8-3.7-5.8c0.8-1.6,3.8-2.6,5.1-1.9c1.7,1.1,2.2-0.5,0.8-2.5c-3.4-4.8-8.2-4.5-14.1,0.9
		c-3.8,3.5-4.1,4.4-2,5.6c0.8,0.4,1.5,1.3,1.5,1.9c0,0.6,1.3,2.5,2.9,4.2c3.6,4,4.3,5.8,3.9,10.4l-0.4,3.8l5,2.6
		c2.8,1.4,5.1,2.6,5.2,2.6c0.1,0,1.2-0.5,2.4-1.1c1.9-1,2.1-1.5,2.1-4.3c0-2-0.4-3.5-1.1-4.1c-0.6-0.5-1.6-1.9-2.3-3.1
		C715.2,233.1,715.2,233,716.3,233.4z"/>
	<path class="st3" d="M937.8,365.9c2.5,1.3,4.8,0.5,6-2.1c0.9-2,0.7-2.1-2.1-0.7c-1.7,0.9-2.9,0.9-5.9,0.4c-3.6-0.7-4-0.6-5.6,1
		c-1.2,1.2-1.9,3-2.3,5.7c-0.3,2.2-1.1,4.8-1.8,5.7c-1.1,1.6-1.1,1.9-0.1,3.5c0.6,0.9,0.9,2.3,0.7,3.1c-0.2,0.8-0.2,1.7,0,2.2h0
		c0.5,0.9,1.1,0.9,2.4,0.1c0.8-0.5,0.8-1.2,0.2-3.4c-0.7-2.5-0.6-3,0.6-4.2c1.4-1.4,1.4-1.4,2.5,1.2c0.6,1.5,1.8,3,2.6,3.4
		c1.3,0.7,1.5,0.6,1.5-1.1c0-1-0.5-2.8-1.1-4c-1.3-2.5-0.8-4.1,1.7-5.5c2.3-1.2,0.8-1.4-2.8-0.4c-2.1,0.6-2.7,0.5-3.9-0.6
		C927.5,367,933.4,363.6,937.8,365.9z"/>
	<path class="st3" d="M933,396.6c3.6-0.6,3.6-0.8,0.1-1.7c-3.4-0.9-5-0.4-3.6,1.2C930.1,396.7,931.1,396.9,933,396.6z"/>
	<path class="st3" d="M642,251.4c0.5-0.9-2.1-1.5-5.8-1.5l-2.9,0l2.2,1C638,252.2,641.4,252.4,642,251.4z"/>
	<path class="st3" d="M664.6,250.2c0.4-1.1-0.7-1.4-1.4-0.3c-0.2,0.4-1.1,0.7-1.9,0.7c-1.4,0-1.8,0.8-1,1.7
		C661,252.9,664.1,251.3,664.6,250.2z"/>
	<path class="st3" d="M619.3,172.2c1.5,0.6,1.8,0.5,1.8-0.6c0-0.6-0.6-1-1.3-0.9C618.2,170.8,617.9,171.7,619.3,172.2z"/>
	<path class="st3" d="M927.2,399.5c1,0.6,2,0.9,2.2,0.7c0.5-0.5-1.6-1.7-2.9-1.7C925.9,398.5,926.2,399,927.2,399.5z"/>
	<path class="st3" d="M971.6,341.3c-0.4,0.2-0.7,0.8-0.7,1.2s0.3,0.5,0.7,0.3c0.4-0.2,0.7-0.8,0.7-1.2
		C972.4,341.2,972,341.1,971.6,341.3z"/>
	<path class="st3" d="M961.6,227.5c1.5,0.4,2,0.2,2-0.5c0-0.6,0.7-1.3,1.5-1.5c2.1-0.7,1.1-1.6-3-2.8c-2-0.6-4.8-1.9-6.2-3
		c-2.8-2.2-3.1-2-1.4,1.2c1,1.9,1,2.3,0,3.7c-1,1.4-0.9,1.8,0.4,3.6c1.8,2.5,2.3,2.6,2,0.4C956.7,226.8,957.8,226.6,961.6,227.5z"/>
	<path class="st3" d="M942.9,259.6c1,1.2,1.8,2.6,1.8,3.1c0,1.4,1.2,1.3,1.7-0.1c0.7-1.9-0.3-4.5-2.3-5.8
		C941.4,255,940.6,256.8,942.9,259.6z"/>
	<path class="st3" d="M925,350.1l-2.3-2.4c-1.3-1.3-2.7-2.4-3.2-2.4c-0.5,0-1.7,1.1-2.8,2.5c-1,1.4-3,2.9-4.4,3.3
		c-1.7,0.5-2.8,1.5-3.4,3c-0.5,1.3-2,2.8-3.6,3.6c-1.5,0.7-3.1,2.2-3.5,3.3c-0.8,1.7-1.1,1.8-2.5,1.1c-1.3-0.7-1.8-0.6-2.6,0.5
		c-0.6,0.8-0.8,2.1-0.6,3.2c0.9,3.8,2.6,9.1,3.1,10c0.7,1.1,7.9,2.6,9.7,2c0.7-0.2,2.2,0.1,3.3,0.6c1.4,0.7,2.3,0.8,3.2,0.3
		c1.2-0.7,5.8-10.3,5.8-12c0-0.5,0.8-1.4,1.8-2.1l1.8-1.2l-1.5-2c-2.4-3.4-2.5-5.8-0.4-8.7L925,350.1z"/>
	<path class="st3" d="M949.6,205.8c2.1,0.8,0.5-1.4-2.7-3.8c-3.9-2.9-6.4-5.2-8.4-7.9c-0.8-1.1-1.9-1.9-2.4-1.7
		c-0.6,0.2,1,2.4,4,5.8c2.7,3,5.9,7.4,7.1,9.8c1.2,2.4,2.7,4.9,3.3,5.6c1,1.1,3.8,1.8,3.8,0.9c0-0.2-1.5-2-3.3-4
		C947.8,207,947.2,204.8,949.6,205.8z"/>
	<path class="st3" d="M918.1,395.5c-0.2,0.4,0,0.8,0.5,1.1c0.5,0.2,1.6,0.2,2.4,0.1c0.8-0.2,1.9-0.3,2.4-0.3c0.5,0,0.8-0.3,0.5-0.7
		C923.4,394.7,918.7,394.6,918.1,395.5z"/>
	<path class="st3" d="M923.2,334c-1.8,2-3.2,3.9-3.2,4.2c0,1.3,1.8,0.4,4.1-2.1c1.4-1.5,2.5-3.4,2.4-4.2
		C926.4,330.7,925.8,331.1,923.2,334z"/>
	<path class="st3" d="M931.1,309.3c-1.9-4.1-4.6-4.2-4.6-0.3c0,1.2-0.3,2.8-0.8,3.6c-1.1,2-0.4,3.7,3.4,7.5c2.6,2.7,3.6,3.3,5,2.9
		c1-0.2,2.3-0.1,3.1,0.3c1.6,0.9,2.2-0.2,0.9-1.8c-0.6-0.7-1.6-1-2.5-0.7c-1.1,0.3-2.2-0.2-3.6-1.7c-1.9-2-2-2.1-0.9-4.7
		C932.2,312,932.2,311.5,931.1,309.3z"/>
	<path class="st3" d="M594.3,227.7c0-1.3-0.3-1.7-1.1-1.4c-1.1,0.4-1.5,1.8-0.6,2.7C593.6,230,594.3,229.4,594.3,227.7z"/>
	<path class="st3" d="M713.6,407.9l-1.2,2.5c-1.5,3.3-7.8,8.8-10.7,9.5c-3.1,0.7-4.2,3.5-3.6,8.8c0.5,3.7,0.3,4.3-1.8,7.7
		c-2.1,3.3-2.2,4.1-1.8,7.5c0.5,4.3,0.8,4.9,2.9,6.1c1.8,1,1.5,1,4.8,0c3.1-0.9,4.1-2.8,6-10.5c0.6-2.4,2.6-8.6,4.5-13.8
		c3.5-9.7,3.7-11.7,1.7-16.1L713.6,407.9z"/>
	<path class="st3" d="M698.9,410.1c0.2,0,0.3-0.3,0.3-0.7s-0.3-0.7-0.8-0.7s-0.6,0.3-0.3,0.7C698.4,409.8,698.7,410.1,698.9,410.1z"
		/>
	<path class="st3" d="M732,435.6c-0.4,0-0.7,0.3-0.7,0.7c0,0.4,0.3,0.7,0.7,0.7c0.4,0,0.7-0.3,0.7-0.7
		C732.7,436,732.4,435.6,732,435.6z"/>
	<path class="st3" d="M533.8,154.4c-1.6,0.5-3.5,0.7-4.3,0.4c-2.2-0.7-8.6,1.7-9,3.4c-0.3,1.1-0.1,1.3,0.8,1
		c0.7-0.2,2.2,0.3,3.4,1.1c1.2,0.8,2.7,1.3,3.3,1.1c6.6-1.8,9.4-2.8,10.9-4l1.8-1.4l-2-1.3C537,153.7,536.3,153.6,533.8,154.4z"/>
	<path class="st3" d="M609.8,244.2c0.3-0.7,0.5-1.4,0.5-1.7c0.1-0.7-4-1.3-5.8-0.8c-1.5,0.4-1.4,0.6,1.5,2.1
		C609,245.2,609.3,245.3,609.8,244.2z"/>
	<path class="st3" d="M591.4,355.1c-0.4,0.2-0.7,0.6-0.7,0.8c0,0.2,0.3,0.3,0.7,0.3c0.4,0,0.7-0.3,0.7-0.8S591.8,354.9,591.4,355.1z
		"/>
	<path class="st3" d="M587.1,363.9c-0.4,0.2-0.7,0.6-0.7,0.8s0.3,0.3,0.7,0.3c0.4,0,0.7-0.3,0.7-0.8
		C587.8,363.8,587.5,363.6,587.1,363.9z"/>
	<path class="st3" d="M734.9,383.9c-0.4,0-0.7,0.3-0.7,0.7c0,0.4,0.3,0.7,0.7,0.7c0.4,0,0.7-0.3,0.7-0.7
		C735.6,384.2,735.3,383.9,734.9,383.9z"/>
	<path class="st3" d="M591.5,235.9c1,3,2.9,2.4,2.9-0.9c0-2.8-1.1-3.9-2.6-2.4C590.9,233.4,590.8,234.1,591.5,235.9z"/>
	<path class="st3" d="M575.2,237.4c0.7-0.1,1.3-0.6,1.5-1.1c0.4-1.3-1.8-1.1-2.3,0.2C574.1,237.3,574.3,237.5,575.2,237.4z"/>
	<path class="st3" d="M941.8,328.8c2,2.6,4.2,2.7,2.5,0.2c-1.1-1.7-3.1-3-3.7-2.4C940.4,326.8,941,327.7,941.8,328.8z"/>
	<path class="st3" d="M807.6,337.4c-0.6,1.6-0.1,7.5,0.7,8.8c0.4,0.7,3.3-0.1,4-1.2c0.7-1.1,0-3.2-2.2-6.5
		C808.2,335.8,808.2,335.7,807.6,337.4z"/>
	<path class="st3" d="M521.4,143c-0.6-0.7-1.7-0.9-3.6-0.6c-3,0.5-4.9-0.9-2.2-1.6c1.2-0.3,1.4-0.6,0.7-1.4c-1.7-2,1.5-2,4.3,0
		c2.1,1.5,3.2,1.8,4.4,1.3l1.7-0.6l-1.8-1.4c-1-0.8-2.9-2-4.2-2.7c-2.7-1.5-2.4-2.3,1.2-2.4c3.2-0.1,9.6-3.1,10.1-4.7
		c0.2-0.7,1.3-2.1,2.5-3.3c1.6-1.6,2-2.4,1.5-3.3c-1.2-2.2,3.2-5.6,8-6.2c2.2-0.3,4.7-1,5.5-1.6c1.3-1,1-1-3.4-0.6
		c-4,0.4-5.3,0.2-7.7-1c-4.1-2.1-14.4-3.4-18.4-2.3c-1.7,0.5-4.7,0.6-6.8,0.4c-2.5-0.3-7,0.1-13.2,1.1c-6.7,1.1-11.8,1.5-17.5,1.4
		c-17.8-0.4-18.4-0.4-25.9,2.8c-4.8,2.1-8.7,3.2-13.1,3.7c-3.4,0.4-6.3,0.8-6.6,0.8c-0.2,0-0.4,0.8-0.5,1.8
		c-0.1,2.4,1.4,2.8,9.7,2.9c6.1,0,6.9,0.2,8.6,1.9c2.4,2.3,4.8,6.9,4.3,8.2c-0.2,0.6,0.3,1.3,1.4,1.8c2,0.9,3.1,4.7,1.9,6.8
		c-0.4,0.8-2.3,2.4-4.2,3.6c-4,2.5-5.6,5.1-4.4,7.4c0.6,1.1,0.6,2-0.1,3.6c-1.3,3.2,0.9,7.1,5.5,9.6c2,1.1,4.1,2,4.7,2
		c2.2,0,4.4-1.9,7.9-7c4.4-6.3,6.9-7.9,14.3-9.3c3.5-0.7,6.5-1.7,7.9-2.8c4.3-3.3,7.3-4.5,11.4-4.5c2.2,0,6.9-0.7,10.4-1.4
		C521.2,144.3,522.1,143.9,521.4,143z"/>
	<path class="st3" d="M737.1,433.1c-0.4,0.2-0.7,0.6-0.7,0.8s0.3,0.3,0.7,0.3c0.4,0,0.7-0.3,0.7-0.8
		C737.8,433,737.5,432.8,737.1,433.1z"/>
	<path class="st3" d="M858.7,315.3c0.5,1.9,1.7,5.2,2.7,7.3c1.5,3,1.8,4.5,1.4,6.6c-0.3,1.5-0.6,4.3-0.7,6.3
		c-0.2,3.5-0.1,3.7,2.8,5.8c2.4,1.7,3.2,3,4,5.8c1.7,6.6,3.8,10.3,7.1,12.7c3.2,2.3,4.7,2.8,4.7,1.5c0-0.4-0.8-3.3-1.8-6.4
		c-1.7-5.4-2.1-6-6.1-9.2c-2.4-1.9-4.5-4.3-4.8-5.3c-0.3-1-1.1-2.8-2-3.9c-1.4-1.8-1.4-2.4-0.7-5.6c0.4-1.9,0.7-4.7,0.6-6.1
		c-0.1-1.7,0.1-2.5,0.8-2.5c1.9,0,8.8,5.5,11.2,9c1,1.4,1.4,1.6,2.6,0.9c1.2-0.6,1.5-0.5,1.9,0.4c0.2,0.7,0.3,1.8,0,2.5
		c-0.2,0.7-0.2,1.7,0,2.1c0.6,1,3.8-1.2,4.4-2.9c0.2-0.7,1.7-1.9,3.3-2.6c3.4-1.5,4.7-4.2,4-8.1c-0.8-4.6-4.4-10.8-7.5-13.3
		c-3.8-3-6.2-6.8-5.5-9c0.7-2.4,2.5-4.3,5.3-5.4c3-1.3,5.1-0.7,6,1.7l0.7,1.8l1.5-1.9c1.9-2.4,4.1-3.6,6.8-3.7
		c1.2-0.1,4.2-0.9,6.7-1.8c6.3-2.3,8.7-5.5,11.3-14.9c2.2-7.8,2.2-9.2-0.1-9.2c-1.9,0-2.6-1.2-1.1-2c1.5-0.9,0.8-2.5-1.9-4.1
		c-1.2-0.7-2.9-2.7-3.7-4.4c-0.8-1.7-2.3-3.5-3.3-4c-1.5-0.7-1.7-1.2-1.3-2.8c0.5-2,1.5-3.2,4.8-5.4l1.8-1.2l-3.2-0.9
		c-2.7-0.7-3.4-0.7-4.3,0.2c-0.9,0.9-1.5,0.8-4.2-0.7c-1.7-1-3.6-2.3-4.1-2.9c-0.8-1-0.8-1.3,0.4-2c0.8-0.4,2.5-2,3.9-3.5
		c2-2.2,2.7-2.6,3.9-2c0.7,0.4,1.4,1.2,1.4,1.8c0,0.6,0.3,1.8,0.8,2.6c0.8,1.4,0.8,1.4,3.3-0.1c2.5-1.5,2.5-1.5,4.9-0.2
		c1.6,0.9,2.4,1.9,2.4,3.1c0,1.3,0.5,1.9,2.1,2.3c3.1,0.8,4.8,2.7,6.8,7.4l1.8,4.2l3-1.5c1.7-0.8,3.1-1.6,3.3-1.8
		c0.2-0.1-0.3-1.5-0.9-3c-0.9-1.9-2.8-3.8-6.3-6.2c-2.8-1.9-5.1-3.8-5.1-4.2s0.8-1.1,1.8-1.5c2.1-1,2.9-2.6,1.8-3.9
		c-0.6-0.7-0.3-1.8,0.8-3.9c0.9-1.6,1.7-3,1.8-3c0.1,0,1.1,0.3,2.2,0.7c2.8,1.1,4.8-0.5,6.5-5.2c2.5-6.8,1.9-17.3-1.1-18.9
		c-0.8-0.4-2.1-2-2.8-3.5c-1.9-3.7-7.9-8.4-9.9-7.7c-2.6,0.9-5.9,0.5-9-1.1c-2.9-1.5-3-1.6-2-3.2c0.6-0.9,1.4-3.2,1.9-5
		s1.7-4.2,2.7-5.1c1.6-1.5,2.6-1.7,7.8-1.8c3.3,0,6.8-0.3,7.8-0.6c1.2-0.3,2.9-0.1,4.7,0.6c1.6,0.7,3.6,1,4.8,0.7
		c1.7-0.4,2-0.7,1.6-2.4c-0.2-1.1,0-2.9,0.4-4c0.8-2,1-2.1,3.9-1.6c1.7,0.3,3.8,1,4.8,1.6c2.2,1.4,4,0.8,3.4-1.1
		c-0.7-2.1,2-3.4,3.4-1.7c2.2,2.6,2.7,4.1,1.6,6c-0.6,1-1,2.6-1,3.5c0,0.9-0.5,2.6-1.1,3.8c-1,2-1,2.2,2.2,6.4
		c1.8,2.4,4.5,5.2,6,6.3c1.5,1.1,3.9,3.3,5.4,4.9c2.1,2.3,3,2.8,4.2,2.4c1.1-0.4,1.5-0.9,1.1-1.7c-0.3-0.7-0.6-2-0.7-3
		c-0.1-1-0.4-2.4-0.7-3.1c-0.3-0.8-0.1-1.4,0.7-1.7c1-0.4,1.1-0.6,0.1-2.4c-0.6-1.1-1.4-2.8-1.8-3.8c-0.4-1.2-1.9-2.5-3.8-3.4
		c-3.6-1.8-6.2-5.3-4.8-6.5c0.5-0.4,1.9-1,3.1-1.3c1.2-0.3,3.1-1,4.2-1.5c1.7-0.9,2.3-0.9,4.1,0.1c1.9,1,2.2,1,3.6-0.4
		c0.9-0.8,1.6-1.8,1.6-2.1c0-1.1,4.4-3.1,6.2-2.7c1.6,0.3,3.9-0.5,3.2-1.2c-0.2-0.2-3.3-1.5-6.9-2.9c-6.6-2.6-7.9-3.9-3.4-3.6
		c2.4,0.2,2.4,0.1,1.2-1.3c-1.9-2,0-2.6,4-1.2c1.7,0.6,3.4,0.9,3.8,0.7c0.3-0.2,1-0.1,1.5,0.3c1.6,1.3,6.4,2.5,8.2,2l1.8-0.4
		l-2.4-2.1c-3.8-3.3-5.4-3.9-7.9-3.1c-1.8,0.6-2.8,0.5-5.6-1c-1.9-1-5.4-2-7.8-2.3c-2.4-0.3-5.8-1.1-7.6-1.8
		c-3.5-1.3-13.7-3.2-22.2-4.1c-5.1-0.5-5.1-0.5-3.8,1c1.8,2.1,0.5,2.6-2.9,1.1c-2.1-0.9-5.2-1.2-12.3-1.3c-7.6-0.1-9.9-0.3-12-1.4
		c-2-1.1-4.6-1.4-12.8-1.6c-8.7-0.2-10.9-0.5-13.9-1.9c-1.9-0.9-4.7-1.7-6.1-1.8c-1.4-0.1-4.6-0.6-7.2-1c-5.6-1-10.1-0.4-8.8,1.1
		c0.7,0.8,0.4,1.2-1.4,2.1c-1.8,0.9-2.9,1-6.1,0.4c-3.2-0.6-4.4-0.5-6.5,0.4c-2.6,1.1-2.7,1.1-6.4-0.9c-2.1-1.1-5.2-2.8-6.8-3.7
		c-3.3-1.8-9.1-2.2-13.8-0.9c-2.1,0.6-3.7,0.5-7-0.4c-3.1-0.8-4.9-0.9-6.7-0.4c-1.8,0.5-3.4,0.4-6.1-0.4c-3.2-1-4.1-0.9-8,0.1
		c-6,1.6-7,0.4-2.1-2.4c2-1.1,3.7-2.3,3.7-2.5c0-0.3-0.9-1.1-2-1.8c-1.6-1.1-3.4-1.4-8.9-1.4c-5.1,0-7.5-0.4-9.3-1.3
		c-1.3-0.7-3.2-1.3-4.2-1.3c-1,0-1.7-0.3-1.5-0.6c0.4-0.7-6.6-2.3-10.2-2.3c-1.3,0-2.6-0.3-2.8-0.7s-1.5-0.7-2.8-0.7
		c-1.3,0-3.4-0.5-4.7-1.2c-3.1-1.6-6.9-1.6-8.4-0.1c-1.7,1.7-0.6,2,13.9,3.1c5.3,0.4,5.9,0.6,5.7,1.8c-0.3,1.4,0.7,1.9,1.5,0.6
		c0.6-0.9,6.9-1,6.9-0.1c0,0.4-1.2,1.5-2.6,2.6c-2.2,1.7-3,1.9-5.7,1.5c-2.8-0.4-14.8,1.3-15.7,2.2c-0.2,0.2,0.1,0.8,0.5,1.4
		c1.2,1.5-0.2,2.2-4.4,2.3c-2.1,0-4.2,0.6-5.4,1.5c-5.3,3.8-7.3,4.7-9.7,4.2c-1.6-0.3-2.4-0.1-2.4,0.4c0,1.7,1.5,3.7,3.6,4.8
		c2.7,1.4,3.8,3.4,3.2,5.8c-0.5,2-4.2,4.3-5.9,3.7c-0.9-0.3-0.8-0.8,0.5-2.6c1.8-2.5,1.9-2.1-3.5-9.3c-4.1-5.5-5.4-6.4-8.4-5.6
		c-5.2,1.3-4.8,5.6,0.7,8.2c1.8,0.9,3.2,1.9,3.2,2.3c0,1.2-2.6,2.3-3.4,1.4c-1.2-1.2-21.5-5.9-22.2-5.2c-0.7,0.7,2.7,1.9,3.7,1.3
		c0.9-0.5,2.5,1.6,1.9,2.5c-0.3,0.4-0.8,0.6-1.2,0.3c-0.4-0.2-3-0.1-5.8,0.4c-4,0.7-5.3,0.7-6.2,0c-1.5-1.2-5.4-0.4-10.5,2.3
		c-3.5,1.8-4.5,2.1-5.7,1.4c-0.8-0.5-1.5-1.2-1.4-1.7c0.1-0.5-0.8-1-1.9-1.1c-2.2-0.2-2.2-0.4-0.7,3.3c0.4,1,0,1.1-4.8,2.4
		c-2.2,0.6-3,1.1-2.8,1.8c0.6,1.6-2,2.7-4.3,1.8c-2.9-1.1-3.9-0.8-1.6,0.4c2.5,1.3,2.5,1.6,0.1,2.5c-2.4,0.9-7.2-1.4-8.6-4.2
		c-0.6-1.1-1.9-2.4-3-2.9c-1.5-0.7-1.8-1.1-1.2-1.7c0.6-0.6,1.9-0.6,5,0.1c2.3,0.5,5.4,1.1,7,1.3c3.3,0.5,7.2-0.9,6.6-2.4
		c-0.6-1.5-14-5.6-16.5-5.1c-1.4,0.3-2.9-0.1-4.7-1.3c-3.7-2.3-8.2-3.2-15.1-3.1c-3.9,0.1-7,0.6-9.5,1.7c-2,0.8-5.2,2.1-7.1,2.7
		c-1.9,0.7-3.5,1.6-3.5,2c0,0.4-1.3,1.9-3,3.4c-1.6,1.5-3.4,3.5-3.9,4.5c-1.2,2.3-8.1,7.1-11.5,8c-3.4,0.9-6.7,4-6,5.6
		c0.3,0.7,0.6,2.2,0.7,3.3c0.2,2.3,2.9,4.8,5.2,4.8c0.8,0,2.6-0.7,4-1.5l2.5-1.5l2,2.4c1.1,1.3,2.2,3.3,2.4,4.4
		c0.2,1.1,1.1,2.6,1.9,3.3c1.4,1.3,1.6,1.3,4.1-0.2c1.8-1.1,3-2.5,3.8-4.5c0.6-1.7,1.9-3.6,2.9-4.2c3.2-2.2,3.6-3.5,1.4-4.2
		c-0.8-0.3-2-1.2-2.6-2.2c-1-1.5-1-1.9,0-3.8c0.6-1.2,2.1-2.5,3.3-3c1.2-0.5,3.6-2.5,5.4-4.5c3.4-3.7,4.8-4.3,6.3-2.5
		c1,1.2,0.4,2.8-3.1,7.6c-2.7,3.8-2.3,5.9,1.7,7.7c2.6,1.2,3.4,1.2,6.8,0.5c3.8-0.8,8.2-0.5,8.9,0.7c0.8,1.4-4,2.9-7.9,2.5
		c-2.1-0.2-4.3-0.1-4.9,0.3c-0.9,0.6-0.8,1,0.7,2.6c1.6,1.7,1.6,2,0.7,2.9c-0.9,0.9-1.5,0.9-3.5,0.2c-2.9-1.1-4,0-3.4,3.5
		c0.4,2.3-0.5,3.6-3.8,5.3c-1.2,0.6-2.1,0.6-3.3,0c-1.3-0.6-2.6-0.5-5.6,0.7c-3.5,1.3-4.1,1.4-5.9,0.4c-1.6-0.8-2.5-0.9-4.4-0.2
		c-2.2,0.8-2.5,0.7-4-1.3c-0.9-1.1-1.5-2.3-1.3-2.5c0.2-0.2,0.6,0.1,1,0.6c0.4,0.7,0.7,0.7,1.1,0.1c0.4-0.6,0.8-0.6,1.5-0.1
		c1.2,1,2.9-0.9,2.3-2.5c-0.4-0.9-0.7-1-2.1-0.2c-0.9,0.5-2.2,1-2.9,1.1c-1.1,0.2-1.2-0.2-0.8-2.8l0.5-3l-1.9,1.2
		c-1,0.7-2.1,1.7-2.3,2.3c-0.5,1.3,0.2,4.8,1.1,5.4c1.4,0.9-1.6,3.4-4.6,3.8c-2.4,0.3-3.9,1.1-6.8,3.8c-2,1.9-4.4,3.6-5.2,3.8
		c-0.9,0.2-2.1,1.2-2.7,2.1c-1.3,2-5.2,4.2-6.2,3.6c-0.4-0.2-1.6,0.2-2.6,0.9c-1.1,0.7-3.1,1.3-4.5,1.3c-3.7,0-3.6,1.4,0.2,2.9
		c2.6,1,3.4,1.8,4.1,3.7c1,2.9,0.2,8.1-1.3,9.7c-1.1,1.1-6,1.1-14.4-0.2c-3.6-0.6-5.8,1.1-5.1,3.8c0.2,0.9-0.1,3.8-0.6,6.4
		c-1.4,6-1.1,10.2,0.8,10.5c3.5,0.5,4.5,1,6.3,2.7c1.9,1.9,1.9,1.9,2.7,0.4c0.6-1.1,1.5-1.5,3.7-1.5c1.6,0,3.7-0.4,4.5-0.8
		c2.7-1.4,5.6-4.5,5.6-6.1c0-1.6,2.5-6.2,3.4-6.2c0.3,0,1.5-0.8,2.7-1.8c1.2-1,2.6-1.8,3.1-1.8c0.7,0,0.9-0.5,0.6-1.8
		c-0.6-2.3,1.7-3.6,5.4-3c2.8,0.5,5.4-0.3,8.9-2.7c2.3-1.6,4-1,5.5,1.8c1.4,2.7,6.7,7.8,8.1,7.8c3.8,0,8.3,4.9,7.7,8.4l-0.4,2.2
		l1.7-1.6c1.4-1.4,1.6-1.9,0.8-3.4c-1-2.2-0.2-2.9,2.8-2.2c3.3,0.7,2.6-0.1-2.2-2.6c-4.5-2.3-13.8-10.8-13.8-12.7
		c0-0.6,0.6-1.4,1.4-1.8c1.1-0.6,1.6-0.5,2.4,0.6c0.5,0.8,2.1,1.9,3.6,2.5c1.4,0.6,3.1,1.8,3.6,2.5c0.6,0.8,2.4,1.9,4.1,2.4
		c3.3,1,6,4.2,6,7.1c0,3.7,2.4,6.1,6.9,6.8c2,0.3,1.8,1.6-0.2,1.9c-1.6,0.2-1.6,0.3-0.4,2.3c1.8,3,2.9,3.2,4.1,0.7
		c1-2,0.9-2.4-0.6-5.4c-1.5-2.8-1.6-3.4-0.7-4.1c0.6-0.5,1.5-0.7,2.1-0.4s1.1,0.1,1.1-0.3c0-1.3,2.7-2.1,4.8-1.6
		c1.2,0.3,3.6,0.3,5.3-0.1l3.2-0.7l-1.8-1.3c-1.7-1.3-1.7-1.5-0.8-4.8c1.9-7.2,8.5-14.5,10.6-11.7c0.4,0.6,1.4,1.3,2.1,1.6
		c1.1,0.4,1.2,0.7,0.5,1.5c-0.7,0.8-0.5,1.3,1,2.2c1.7,1.1,2,1.1,4.6-0.3c2.2-1.1,2.4-1.5,1.2-1.5c-0.9,0-1.9-0.5-2.4-1.1
		c-0.7-0.9-0.2-1.4,3.1-2.8c5.8-2.6,7-2.9,6.8-1.8c-0.1,0.5-0.4,1.4-0.7,1.9c-0.3,0.5-0.4,1.1-0.2,1.4c0.2,0.2-0.1,1.3-0.6,2.4l-1,2
		l5.4,3.1c3,1.7,5.9,3.9,6.6,4.8c1,1.5,1,1.9-0.1,3.5c-2,3.1-7.1,3.3-12.8,0.4c-4.2-2.1-9.7-2.6-12.1-1c-1.1,0.7-3.2,1.4-4.6,1.5
		c-1.7,0.1-3.3,0.8-4.5,2.1c-1.3,1.3-2.4,1.8-3.6,1.5c-0.9-0.2-2.1-0.1-2.7,0.3c-0.9,0.6-0.8,0.9,0.5,1.9c0.9,0.6,1.6,1.8,1.6,2.5
		c0,2,1.4,4.7,2.8,5.6c2,1.3,5.7,1.9,6.3,1c0.7-1.1,3.2-0.9,5.6,0.5c1.8,1.1,2.4,1.1,4.5,0.3c4.3-1.8,6.2-1.8,7.1-0.1
		c0.5,1,0.6,1.5,0.1,1.5c-0.4,0-0.8,1.2-0.8,2.7c-0.1,4.6-0.3,6.7-0.8,6.7c-0.2,0-0.6,1.2-0.9,2.6c-0.7,4.2-3.3,5.4-8.3,3.9
		c-1.5-0.5-3.2-0.5-5,0c-3.7,1-14-0.9-19.4-3.7c-5-2.5-8.2-2.7-9.3-0.6c-0.4,0.8-0.6,2.1-0.4,2.8c0.3,0.8-0.2,1.9-1.3,2.9
		c-1.6,1.5-1.9,1.6-3.9,0.6c-1.2-0.6-3.3-1.3-4.8-1.6c-1.9-0.4-3.1-1.1-4-2.6c-1.2-2-2.9-2.8-8.7-4c-1.2-0.2-3.1-1.3-4.2-2.4
		c-1.7-1.7-1.8-2.3-1.1-4c0.5-1.4,0.5-2.3,0-2.9c-0.4-0.5-0.6-1.4-0.3-2c0.8-2.1-2.1-2.9-5.5-1.5c-2.3,0.9-4.4,1.1-9.2,0.8
		c-7.2-0.4-11.1,0.4-17.4,3.8c-3.7,2-4.8,2.3-7.3,1.8c-1.6-0.3-3.6-0.9-4.4-1.5c-2-1.4-2.3-1.3-4,1.5c-0.8,1.4-3.1,3.5-5.1,4.8
		c-3.6,2.3-5.9,6.1-5.9,9.8c0,1.7-5,7-6.5,7c-1.4,0-6.5,6.1-8.8,10.4c-1.3,2.5-3.2,5.6-4.1,6.8c-2.5,3.3-3.3,6.6-2.1,8.9
		c2.5,4.9,1.8,12.6-1.5,16.2c-1.1,1.2-1,1.5,0.4,3.9c1,1.7,1.2,2.6,0.6,2.6c-0.6,0-0.5,0.3,0.2,0.7c0.9,0.6,0.9,0.7-0.2,0.7
		c-1.8,0-1.6,1.5,0.2,2c1.2,0.3,1.3,0.5,0.5,1c-0.7,0.5-0.6,0.7,0.6,1.1c1.9,0.5,7.5,7.7,8.4,10.8c1.2,4,9.3,11.3,14,12.6
		c2.3,0.6,3.8,0.5,8-0.6c4.1-1.1,5.7-1.3,7.7-0.7c2.1,0.6,3.5,0.4,8.4-1.2c3.2-1.1,6.5-2.2,7.3-2.5c3.5-1.4,4.8-1.4,7.6,0
		c2.2,1.1,3.1,2.1,3.4,3.7c0.4,2.1,0.5,2.2,3.5,1.7c7.7-1.2,10.8,4.7,7.9,14.7c-1.4,4.9-0.8,6.7,3.8,11.2c2.4,2.4,3.6,4.3,4.4,7.2
		c0.6,2.2,1.8,5,2.5,6.3c0.9,1.5,1.2,2.9,0.9,4.2c-0.3,1,0.1,3.4,0.8,5.5l1.2,3.7l-2.2,4.2c-3.3,6.3-4.7,11.5-4.1,15
		c0.3,1.6,1.7,5.3,3.3,8.1c3.1,5.7,5.4,13.6,6.2,20.9c0.4,4.1,0.9,5.4,3.3,8.7c1.6,2.1,2.9,4.2,2.9,4.6c0,0.4,0.8,2,1.8,3.4
		c1.4,2,1.7,3.2,1.4,5.2c-0.3,2.1-0.1,2.9,1.5,4.5c2.2,2.2,1.6,2.2,7.3,0.7c3.5-0.9,5.2-1,7.3-0.4c2.4,0.7,3.2,0.5,6.5-1.1
		c3.9-2,12.5-10.3,15.5-15c0.9-1.5,2.4-3,3.1-3.5c1.1-0.6,1.3-1.3,1-3.3c-0.6-3.8,0.2-5.9,2.7-7c5.9-2.5,7.6-6,5.1-10.8
		c-0.8-1.6-1.5-3.3-1.5-3.7c0-0.4,1.5-2.4,3.3-4.4c1.8-2,3.3-4,3.3-4.4c0-0.4,1.7-1.6,3.8-2.6c4.8-2.4,6.2-3.6,7.9-7
		c1.2-2.3,1.3-3.2,0.6-6.4c-0.4-2-0.6-4.5-0.3-5.5c0.3-1.2-0.2-3-1.4-5.5c-4.9-9.7-3.9-16.9,3.5-25.1c2.5-2.8,5.3-6.1,6.2-7.3
		c0.9-1.2,4.1-4.2,7.3-6.7c5.5-4.4,5.8-4.7,11.4-15.4c5.2-9.9,5.7-11.2,5.2-13.8l-0.5-2.9l-2.1,1.1c-1.1,0.6-5.2,1.7-9,2.6
		c-6.4,1.4-7.1,1.4-9.2,0.4c-1.3-0.7-2.4-1.9-2.7-3.1c-0.7-3.2-3.7-7.1-8.3-10.7c-3-2.4-4.4-4.1-4.8-5.7c-0.3-1.3-1.5-3.6-2.8-5.2
		c-3.2-4-4-5.7-4-8.4c0-1.3-0.7-3.3-1.7-4.6c-0.9-1.2-3-4.9-4.6-8.1c-1.6-3.2-4.3-8.1-6-10.9c-3.6-5.9-3.1-8,0.7-3.2l2.5,3.1
		l0.4-2.1c0.5-3,1.6-2.3,3,1.7c1,3.1,3,6,9.7,14.3c1,1.2,2.3,4,2.9,6.3c0.8,2.8,2.1,5,4.1,7.1c1.6,1.7,2.9,3.3,2.9,3.7
		c0,0.4,0.9,1.8,2.1,3.1c1.5,1.7,2.2,3.5,2.6,6.4c0.3,2.2,1.2,5.2,1.9,6.8c1.3,2.6,1.5,2.7,4,2.3c2.3-0.4,10.7-3.9,17.6-7.4
		c1.4-0.7,3-2,3.6-2.9c1.3-2,4.5-3.8,6.7-3.8c1.9,0,7.4-5.5,9.4-9.2c0.8-1.5,2.3-3.6,3.3-4.6c1-1,1.9-2.1,1.9-2.6
		c0-1-4.5-4.7-7.8-6.4c-2.1-1.1-3.4-3-3.1-4.6c0.4-2.4-0.4-2.2-3,0.7c-1.6,1.8-3.7,3.5-4.7,3.8c-2,0.5-6.2-1.6-5.8-2.8
		c0.1-0.4-0.1-1.2-0.5-1.8c-0.6-0.9-0.8-0.9-1.7,0.3c-1.5,2-3.2,1-4.1-2.3c-0.4-1.5-1.8-4.2-3-5.9c-1.8-2.4-2.2-3.5-1.8-5.2
		c0.3-1.2,1-2.3,1.6-2.5c1.9-0.7,5.1,1.5,6.5,4.7c1.1,2.5,2.2,3.4,5.8,5.3c4.2,2.1,4.6,2.2,7.7,1.3c3.3-0.9,3.3-0.9,5.5,1.6
		c1.2,1.4,3,2.7,3.9,3c2.6,0.8,18.5,1,20.2,0.2c1.9-0.9,5.8,1,6.5,3.1c0.3,0.8,0.7,1.5,1.1,1.5s1.6,0.8,2.8,1.9
		c1.2,1,2.8,1.8,3.4,1.6c1.9-0.3,2.1,1.5,0.2,2.2l-1.7,0.6l1.9,1.9c2.9,2.9,6.7,2.4,6.7-0.9c0-0.6,0.4-1.2,0.9-1.3
		c1.2-0.4,2.5,3.3,2,5.7c-0.8,3.6,0.6,7.4,9.9,27.4c1.5,3.3,3,7.1,3.3,8.5c0.3,1.6,1.1,2.7,2.3,3.3c2.2,1,2.4,0.9,5-2.9
		c2.7-3.9,3.8-10.4,3.1-18.1c-0.1-1.3,0.6-2.4,3.1-4.3c1.8-1.4,3.8-3.4,4.5-4.5c0.7-1.1,1.9-2.2,2.6-2.5c0.8-0.2,1.8-1.3,2.2-2.3
		c0.5-1,2-2.4,3.4-3.1c1.8-0.8,2.5-1.6,2.3-2.4c-0.6-2.2,0.9-3.5,5.2-4.3c2.3-0.5,4.7-1.1,5.3-1.4c1.6-0.9,3.3,0.3,4.7,3.6
		c0.8,1.9,2.1,3.2,3.5,3.8c2.5,1,6.8,8.7,6.1,10.8c-0.4,1.2,1.2,3.7,2.4,3.7c0.2,0,1.3-0.8,2.4-1.8
		C856.2,310.4,857.7,311.1,858.7,315.3z M716.2,235.1c0.6,1.2,1.6,2.6,2.3,3.1c0.7,0.6,1.1,2.1,1.1,4.1c0,2.8-0.3,3.3-2.1,4.3
		c-1.2,0.6-2.2,1.1-2.4,1.1c-0.1,0-2.5-1.2-5.2-2.6l-5-2.6l0.4-3.8c0.5-4.7-0.2-6.5-3.9-10.4c-1.6-1.7-2.9-3.6-2.9-4.2
		c0-0.6-0.7-1.4-1.5-1.9c-2.2-1.2-1.8-2.1,2-5.6c5.9-5.4,10.7-5.7,14.1-0.9c1.4,2,0.9,3.5-0.8,2.5c-1.3-0.8-4.2,0.3-5.1,1.9
		c-1.1,2,0.2,4,3.7,5.8c1.6,0.8,2.9,1.8,2.9,2.2c0,0.5,0.5,0.5,1.4,0c1.2-0.6,1.7-0.4,2.9,1.4c0.8,1.2,1.5,2.4,1.5,2.8
		c0,1-2,1.6-3.4,1.1C715.2,233,715.2,233.1,716.2,235.1z"/>
	<path class="st3" d="M1049.4,401.4c-0.5,0-0.4,0.4,0.2,1.1c0.5,0.6,1.1,1,1.2,0.8C1051.4,402.8,1050.3,401.4,1049.4,401.4z"/>
	<path class="st3" d="M1061.2,440.9c0-0.3-1-1.5-2.2-2.7c-1.2-1.2-3-3.5-4-5.2c-2.1-3.6-2.5-3.8-2.5-1.4c0,1.1,1.4,3.3,3.7,5.8
		C1059.7,441.2,1061.2,442.3,1061.2,440.9z"/>
	<path class="st3" d="M1071.4,368.2c-0.4,0.2-0.7,0.6-0.7,0.8c0,0.2,0.3,0.3,0.7,0.3c0.4,0,0.7-0.3,0.7-0.8
		C1072.2,368.1,1071.8,368,1071.4,368.2z"/>
	<path class="st3" d="M1008.9,438.2c-1.3-2.8-3.5-6.3-4.8-7.7c-2.3-2.4-2.5-2.8-1.8-5.1c1-3.5-0.3-9.5-2.6-11.6
		c-1-0.9-2.3-3.4-2.9-5.6c-0.6-2.1-1.4-3.9-1.8-3.9c-1,0-3.1,5.9-3.5,10.2c-0.3,3-1,4.9-2.9,7.4c-1.4,1.9-2.9,3.5-3.3,3.7
		c-0.5,0.2-3.4-1.5-6.5-3.7c-6.7-4.7-7.4-6.3-4.7-10.4c2.1-3.2,1.9-3.5-3.8-5c-2.6-0.7-3.5-0.6-5.8,0.6c-1.5,0.8-3.6,1.6-4.6,1.8
		c-1.9,0.5-5.7,5.2-4.8,6.1c0.3,0.3,0.1,0.9-0.3,1.4c-0.9,1.1-2.8,0.4-5.5-2c-1.4-1.3-1.7-1.3-4.4-0.3c-1.6,0.6-3.6,2.2-4.5,3.7
		c-0.9,1.4-2.3,2.7-3.1,2.9c-0.9,0.3-1.3,1-1.2,2c0.2,1.6-0.3,1.7-2.4,0.9c-0.8-0.3-1.6,0.6-2.9,3c-2.1,3.9-5.8,6.8-8.8,6.8
		c-1.1,0-5.6,1.5-10.1,3.4c-7.8,3.3-8.1,3.5-9.2,6.5c-0.7,1.7-1,3.8-0.8,4.7c0.2,0.9,0.1,4.5-0.4,8.1c-0.6,4.7-0.5,7.7,0.1,10.7
		c0.7,3.7,0.7,4.6-0.6,7.5c-0.8,1.8-1.9,3.5-2.6,3.7c-1.7,0.7-0.6,2.5,2.1,3.4c2,0.7,3.1,0.5,7.1-1c2.6-1,7-2,9.7-2.3
		c2.8-0.3,6.5-1.3,8.3-2.2c4.1-2.1,10.4-3.7,16.9-4.3c4.4-0.4,5.2-0.3,7.5,1.2c1.5,1,3.3,3.1,4.2,5.2c0.9,1.9,1.8,3.2,1.9,2.8
		c0.1-0.4,1.7-1.7,3.5-2.9c4.2-2.8,5.4-1.8,2.3,1.8c-1.3,1.5-2.1,2.9-1.9,3.1c0.3,0.3,0.8-0.1,1.2-0.8c0.9-1.7,2.1-1.6,2.1,0.2
		c0,0.8,0.4,2.2,0.8,3.2c0.6,1.3,0.6,2.2-0.1,3.4c-0.8,1.5-0.7,1.8,0.8,3c2.8,2.2,6.4,2.9,8.2,1.7c1.5-1,1.8-0.9,3.3,0.7h0l1.7,1.8
		l2.6-2c1.8-1.4,3.5-2,5.7-2c2.9-0.1,3.4-0.4,6.1-3.8c1.6-2.1,3.3-3.8,3.7-3.8c0.4,0,1.9-1.6,3.3-3.6c1.4-2,3.2-3.8,4-4.1
		c2.2-0.7,6.3-5.3,9-10.2c1.8-3.2,2.7-6,3.3-10.1l0.8-5.7l-2.8-3.7C1012.5,444.9,1010.2,441,1008.9,438.2z"/>
	<path class="st3" d="M1085.6,341.7c-0.2,0-0.3,0.3-0.3,0.7s0.3,0.7,0.8,0.7c0.4,0,0.6-0.3,0.3-0.7
		C1086.1,342,1085.8,341.7,1085.6,341.7z"/>
	<path class="st3" d="M1043.7,504.9c-2.6,2-7.2,4.6-10.2,5.8c-10.8,4.5-15.1,7.4-13,8.7c3,1.9,9.5-0.3,14.7-4.9
		c1.5-1.3,3.4-2.5,4.2-2.5c0.8,0,2.1-0.8,3-1.7c0.8-1,2.8-2.3,4.3-3c3.2-1.5,4-2.8,2.7-4.7C1048.5,501.4,1048.1,501.5,1043.7,504.9z
		"/>
	<path class="st3" d="M1018.4,400.3c-4.3-3.2-8.4-9-7.4-10.3c1.3-1.6-1-4.4-6.2-7.8c-2.7-1.8-6.5-3.8-8.4-4.5
		c-1.9-0.7-5.5-2.2-8.1-3.3l-4.7-2.1l-3.4,1.9c-1.8,1.1-3.9,2.6-4.5,3.4c-1.1,1.4-1.2,1.4-2.7-0.6c-0.9-1.1-1.6-2.5-1.6-3.2
		c0-2-2.2-4.4-3.9-4.4c-0.9,0-2.3,0.4-3.2,0.9c-1.6,0.9-1.6,1,1.8,2.6c3.2,1.5,3.3,1.8,2.1,2.6c-2,1.5-0.9,4,1.8,4
		c1.2,0,4.7,1.3,7.8,2.8c4.5,2.3,5.9,3.4,6.9,5.5c1.2,2.6,1.2,2.6-0.6,3.8c-1.6,1-1.7,1.3-0.7,1.9c0.6,0.4,1.8,0.4,2.7,0.2
		c1.1-0.3,2.1,0.1,3.4,1.3c1.1,1,3.2,2,4.7,2.3c2.6,0.5,2.8,0.3,4.2-2.1c0.8-1.4,2.1-2.8,2.9-3c1.9-0.6,5.7,1.7,7.8,4.8
		c1.8,2.7,3.9,4,8.5,5.5C1023.1,404.2,1023.2,403.9,1018.4,400.3z"/>
	<path class="st3" d="M1100.5,423.2c0.6,0.4,1.6,0.3,2.4-0.2c1.3-0.8,1.2-0.9-0.6-1.1C1100.1,421.6,1099.1,422.3,1100.5,423.2z"/>
	<path class="st3" d="M1091.8,362.1c-0.4,0-0.6,0.3-0.3,0.7c0.2,0.4,0.6,0.7,0.8,0.7c0.2,0,0.3-0.3,0.3-0.7
		S1092.2,362.1,1091.8,362.1z"/>
	<path class="st3" d="M1130.1,411.7c-1.6-0.3-2.2,0.2-1.5,1.3c0.4,0.6,0.8,0.5,1.7-0.1C1131.3,412,1131.3,411.9,1130.1,411.7z"/>
	<path class="st3" d="M1105.7,398.8c-0.4,0.2-0.7,0.6-0.7,0.8c0,0.2,0.3,0.3,0.7,0.3c0.4,0,0.7-0.3,0.7-0.8
		C1106.4,398.7,1106.1,398.6,1105.7,398.8z"/>
	<path class="st3" d="M1115.2,433.8c-0.4,0.3-0.6,0.8-0.3,1.2c0.3,0.5,0.7,0.4,1.1-0.2C1116.6,433.6,1116.3,433.1,1115.2,433.8z"/>
	<path class="st3" d="M979.1,503.3c-0.3-0.1-1.7-0.1-3.1-0.2c-1.4-0.1-3.3-0.4-4.2-0.7c-1.5-0.5-1.6-0.3-1.6,1.7
		c0,1.3-0.4,3-0.8,3.8c-0.6,1.2-0.6,1.6,0.2,2.1c1.3,0.8,1.2,0.9,4.6-1.1C977.1,507.2,980.3,503.5,979.1,503.3z"/>
	<path class="st3" d="M1098.1,424.9c-2-0.9-2.9-0.3-2.2,1.6c0.5,1.4,1.1,1.4,2.8,0.2C1099.9,425.8,1099.8,425.7,1098.1,424.9z"/>
	<path class="st3" d="M954.1,363.8c-0.6-1.5-0.5-2.2,0.5-3.3c1.1-1.2,1.1-1.4,0-1.4c-1.3,0-3,2.6-2.3,3.6c0.2,0.4,0.1,1.3-0.3,2.1
		c-0.5,0.9-0.5,1.6,0.1,2.2C954,368.9,955.3,366.8,954.1,363.8z"/>
	<path class="st3" d="M928.7,324c0,0.5,0.5,1.4,1.2,2c0.6,0.6,1.4,1,1.6,0.8c0.2-0.2-0.3-1.1-1.2-2
		C929.4,323.9,928.7,323.5,928.7,324z"/>
	<path class="st3" d="M943,398.5c1.9-1.2,4.3-2.2,5.3-2.3c1.7-0.1,1.7-0.1-0.5-0.8c-3-1-6.2,0.3-8.3,3.2
		C937.6,401.2,938.7,401.2,943,398.5z"/>
	<path class="st3" d="M937.2,336.2c0.7-1,0.8-1.6,0.1-2.3c-0.7-0.9-0.9-0.9-1.4,0.1c-0.3,0.6-0.4,1.6-0.1,2.3
		C936.2,337.4,936.2,337.4,937.2,336.2z"/>
	<path class="st3" d="M922.6,286.9c-1.1,1.9-1.2,2.6-0.4,3.9c0.5,0.9,1.2,1.9,1.7,2.2c1.1,0.7,2.7-4.9,2.2-7.2
		C925.5,283.6,924.3,284,922.6,286.9z"/>
	<path class="st3" d="M934.7,328.7c-1.5-0.3-2.5,1.4-1.5,2.6c0.7,0.8,1,0.7,1.7-0.7C935.7,329.2,935.7,328.9,934.7,328.7z"/>
	<path class="st3" d="M935.9,341c-0.8,1.5-0.7,1.5,1.4,1.1c2.1-0.5,2.3-0.3,3.7,2.9c1.1,2.5,1.8,3.3,2.6,3c0.6-0.2,1.5-0.4,1.9-0.4
		c0.4,0,0.4-0.5-0.2-1.1c-1.4-1.7,0.2-3.1,1.9-1.7c1.1,0.9,1.2,0.8,0.7-1.7c-0.6-3.3-3.3-9.5-3.3-7.6c0,0.7-0.9,2.1-2,3.1
		c-1.5,1.4-2.4,1.7-4,1.4C937.2,339.5,936.6,339.7,935.9,341z"/>
	<path class="st3" d="M966.5,249.2c0.6-1.2,0.5-2.2-0.4-4.7c-0.7-1.8-1-3.7-0.8-4.3c0.7-1.7-1.6-5.8-4-7.3c-3.3-2-4-0.5-1.7,3.9
		c2.3,4.6,1.8,6-3.9,10.3c-3,2.2-4.4,2.9-5.7,2.5c-1.2-0.3-2.4,0.1-3.9,1.4c-1.2,1-2.6,1.9-3,1.9c-0.5,0-0.3,0.4,0.4,0.8
		c0.9,0.5,2.1,0.5,4,0c4.6-1.3,6.6-1,8,1.2l1.3,2l0.7-2.3c0.5-1.9,1-2.3,2.7-2.3C963,252.1,965.6,250.9,966.5,249.2z"/>
	<path class="st3" d="M951.1,257.8c1.1-1.1,1.1-2.8,0-2.8c-1.7,0-2.8,1.2-2.3,2.4C949.3,258.9,949.9,258.9,951.1,257.8z"/>
	<path class="st3" d="M906.8,394.7c2.6,0.4,5.1,0.7,5.6,0.8c0.5,0.1,1-0.2,1.2-0.5c0.4-0.6-4-3-5.4-3c-0.4,0-1.6-0.7-2.8-1.5
		c-1.8-1.3-2.4-1.4-5.4-0.7c-2.7,0.6-3.8,0.6-5.1-0.3c-3.5-2.2-10-2.1-10,0.3c0,1,7.1,3.1,8.8,2.6c0.8-0.3,3,0,4.9,0.6
		C900.5,393.5,904.2,394.3,906.8,394.7z"/>
	<path class="st3" d="M886,379.5c-0.3-1.2-1.4-3.2-2.6-4.5c-1.2-1.3-2.9-3.2-3.8-4.2c-0.9-1-1.7-2.1-1.7-2.5c-0.1-2.1-1.4-3.8-4-5.5
		c-2.7-1.7-3.9-2.8-9.8-8.9c-2.1-2.2-7-4.9-8.9-5c-1.5,0,0.7,3.5,4.2,6.9c1.7,1.6,3.5,3.9,4.2,5.1c0.6,1.2,2.4,3.8,3.9,5.8
		c1.5,2,3.5,5.3,4.3,7.2c1.6,3.7,6.4,9.6,9.1,11.1C883.8,386.8,886.9,383.4,886,379.5z"/>
	<path class="st3" d="M890.9,305.8c1.2,1.2,2.2,0.8,3.7-1.9c1.3-2.3,1.3-2.3-0.2-2.3C890.9,301.6,889,303.9,890.9,305.8z"/>
	<path class="st3" d="M954.7,378.3c1.9,0.5,2.6,0.5,4.2-0.2c1.2-0.5,1.1-0.6-1-1c-1.3-0.3-2.9-0.5-3.4-0.5
		C953,376.6,953.2,377.9,954.7,378.3z"/>
	<path class="st3" d="M940.2,330.7c-0.4,0-0.6,0.2-0.4,0.5c0.2,0.3,0.5,1.2,0.8,1.9c0.3,0.8,0.6,1.2,0.8,1.1
		C941.9,333.7,940.9,330.7,940.2,330.7z"/>
	<path class="st3" d="M1068.7,492.3c-1.3,0.7-1.8,0.5-3.4-1.5c-1.5-1.8-1.8-2.8-1.5-4.6c0.3-1.7,0.1-2.6-0.8-3.3
		c-1.1-0.9-1.2-0.7-0.7,2.8c0.7,5.1,0.1,7.2-2.5,8.2c-3.2,1.3-4.6,3.2-3.7,5c0.7,1.2,0.5,1.7-1,2.9c-1,0.8-1.6,1.6-1.3,1.9
		c0.3,0.3,0.6,0.5,0.8,0.5c0.8,0,3.8-2,6.8-4.4c1.8-1.5,4.3-3.3,5.6-3.9c1.3-0.7,2.4-1.3,2.4-1.5c0-0.2,0.2-0.8,0.5-1.5
		C1070.1,491.7,1070,491.7,1068.7,492.3z"/>
	<path class="st3" d="M398.8,119c2.9,0.6,4,0.5,6.6-1.1c2.5-1.5,2.6-1.6,1.3-2.6c-1.6-1.2-5.2-0.7-9,1.3
		C395.1,117.9,395.2,118.2,398.8,119z"/>
	<path class="st3" d="M396.6,130.2c4.8,0.4,9.2,0.7,9.8,0.8c0.6,0,2.2-0.5,3.6-1.3l2.5-1.4l-2.1-0.5c-1.1-0.3-4.4-0.4-7.3-0.1
		c-4.3,0.3-5.7,0.1-8-1.1c-2.4-1.2-3.1-1.3-4.9-0.6c-1.7,0.7-3.4,2.7-2.7,3.3C387.8,129.5,391.8,129.9,396.6,130.2z"/>
	<path class="st3" d="M389,141.7c1.4-0.3,4-0.1,5.9,0.3c2.8,0.6,3.9,0.6,5.7-0.4c2.1-1.1,2.4-1,4.7,0.4c1.4,0.8,3.3,3,4.4,4.8
		c1,1.8,2.2,3.3,2.5,3.3c0.3,0,1.2,0.5,2,1c1.4,1,1.3,1.1-0.8,1.9c-1.5,0.6-2.6,0.6-3.9,0.1c-2-0.9-5.5,0.5-6.3,2.6
		c-0.4,1-1.1,1.1-4.4,0.7c-4.3-0.5-8.2,0.6-6.1,1.9c0.6,0.3,2.2,0.3,3.6-0.1c4.1-1.2,5.5-0.9,7,1.5c0.8,1.2,2.7,3,4.3,4
		c2.8,1.7,6.4,2.3,7.1,1.2c0.2-0.3-0.6-1.2-1.8-1.9c-3.8-2.2-1.1-3.6,3-1.5c2.1,1.1,2.2,1,2.9-0.6c0.6-1.4,0.5-2.2-0.4-4
		c-1.1-2.1-1.1-2.3,0.3-3c1.1-0.6,2.1-0.4,4.3,0.7c3.2,1.6,4.4,1.5,5.8-0.9c1.1-1.7,1.2-1.5-3.7-5c-1.2-0.8-1.7-1.9-1.7-3.6
		c0-2.3-0.2-2.5-3.6-3.6c-2.1-0.7-4.2-2-5.2-3.2c-1.4-1.7-1.9-1.9-3.1-1.2c-2.1,1.1-2.4,1.1-6.2-1.4c-2.8-1.9-3.8-2.1-6-1.7
		c-1.5,0.3-3.8,1.5-5.1,2.6c-3.1,2.7-4.2,1.3-1.3-1.7l2.1-2.2l-2.9,0.5c-3.7,0.7-9.8,5-9.8,7C382.4,141,386.7,142.2,389,141.7z"/>
	<path class="st3" d="M559.4,189.4c0-0.4-0.3-0.6-0.7-0.3c-0.4,0.2-0.7,0.6-0.7,0.8c0,0.2,0.3,0.3,0.7,0.3
		C559,190.2,559.4,189.8,559.4,189.4z"/>
	<path class="st3" d="M404.9,123.5c-4.5,0-4.9,0.1-3.4,0.9c1.1,0.6,3.1,0.8,5.7,0.6c2.8-0.3,4.6,0,5.8,0.7c1,0.6,1.8,1.1,1.8,1.1
		c0,0,1.9-1,4.3-2.2c2.4-1.2,4.7-2.2,5.3-2.2s2.8-1,5.1-2.2c2.3-1.2,4.8-2.2,5.7-2.2c3.7,0,12.6-2.6,18.1-5.2l5.9-2.8l-3.6,0.4
		c-2,0.2-8,0.7-13.5,1.1c-10.5,0.7-26.5,2.1-26.9,2.5c-0.5,0.5,10.8,1.1,12.5,0.7c2.4-0.6,3.2,0.8,1.1,1.9c-1.1,0.6-3.7,0.7-7.9,0.5
		c-6.8-0.4-8.9,0.1-7,1.6c1.8,1.5,0.5,2.4-2.8,1.9c-2.5-0.3-2.7-0.3-1.3,0.3C413.1,122.3,410.6,123.5,404.9,123.5z"/>
	<path class="st3" d="M424.8,209.8c2.5-0.7,2.7-0.9,1.9-2.5c-0.5-1-1.7-2-2.9-2.2c-2.8-0.6-3.8-2.5-2.3-4.2c0.7-0.7,0.8-1.3,0.3-1.3
		c-0.4,0-3.1,2.3-5.9,5.1l-5.1,5.1l2.7,0.3C419,210.6,422.1,210.5,424.8,209.8z"/>
	<path class="st3" d="M546.6,189c-1.9,0.5-2.3,1.5-1.1,2.2c0.5,0.3,0.3,1.2-0.4,2.5c-0.6,1.2-0.9,2.6-0.6,3.3c0.3,0.8,0.9,1,1.6,0.7
		c0.6-0.3,2.6-1,4.3-1.6c2.6-0.9,3.1-1.4,3.1-3c0-1.1,0.5-2.7,1.1-3.6c0.6-0.9,0.9-1.9,0.7-2.3c-0.7-1.1-5.2-0.9-6.1,0.3
		C548.8,188.1,547.6,188.8,546.6,189z"/>
	<path class="st3" d="M360.5,145.8c2.4-1.3,2.4-1.4,0.9-1.9c-0.9-0.3-2.6-0.1-3.8,0.4c-1.7,0.7-2,1.1-1.3,1.9
		C357.3,147.4,357.4,147.4,360.5,145.8z"/>
	<path class="st3" d="M322.7,136.1c-2.5,1.1-2.5,1.1-0.7,1.6c2.5,0.6,2.3,1.8-0.4,2.2c-1.6,0.2-1,0.4,2.2,0.7
		c2.4,0.2,4.4,0.7,4.4,1.1c0,0.4-2.3,0.9-5.1,1.1l-5.1,0.4l3.6,1.6c2,0.9,4.4,1.7,5.4,1.9c3.6,0.6,4.3,0.5,7.7-1
		c3-1.3,3.9-1.4,6.9-0.7c3.1,0.7,3.8,0.7,7.3-0.9l3.9-1.8l-2.3-1.2l-2.4-1.2l1.4-2.4c0.8-1.3,1.4-2.6,1.4-2.9c0-1.2-2.8-0.4-4.4,1.3
		c-1.7,1.8-3.2,2-3.4,0.5c0-0.5-0.1-1.2-0.2-1.7c-0.1-0.5-0.7-0.4-1.9,0.3c-1.6,1-2.1,1-5.5,0C331.7,133.9,327,134.2,322.7,136.1z"
		/>
	<path class="st3" d="M557.9,201.3c1.4-0.3,5.1-0.8,8.2-1.3c4.2-0.6,5.5-1,4.8-1.6c-0.6-0.6-0.4-1.1,1.1-2.1
		c2.1-1.4,1.8-2.9-0.4-2.3c-1.1,0.3-1.7-0.3-2.6-2.3c-1.9-4.3-3.8-6.7-5.8-7.5l-1.8-0.7l1.6-1.7l1.6-1.7l-1.7-0.3
		c-0.9-0.1-1.6-0.7-1.5-1.2c0.1-0.5-0.1-0.9-0.4-0.9c-2,0-4.2,3.8-3.2,5.6c0.4,0.7,0.5,1.7,0.3,2.2c-0.3,0.9,0.6,1.2,2.5,1
		c0.8-0.1,2.4,2.7,2.4,4.4c0,0.4-1,1.1-2.2,1.5c-1.2,0.4-2,1.1-1.7,1.5c0.3,0.4-0.1,1.2-0.9,1.7c-1.2,0.9-1.2,1,1,1.4
		c3.1,0.6,3.5,1.6,1.1,2.5c-1.1,0.4-2.7,1.1-3.5,1.5C555.7,201.6,556,201.7,557.9,201.3z"/>
	<path class="st3" d="M311.7,139.5c6-2.5,13.6-5,17.1-5.7l4.4-0.9l-3.3-1c-5.9-1.8-9.2-1.3-15.8,2.3c-5.6,3.1-5.9,3.3-4.7,4.5
		C310,139.4,311.1,139.7,311.7,139.5z"/>
	<path class="st3" d="M417.3,212.4c0,0.6,0.1,1.1,0.3,1.1s0.5-0.5,0.7-1.1c0.2-0.6,0.1-1.1-0.3-1.1S417.3,211.8,417.3,212.4z"/>
	<path class="st3" d="M362,137.7c0,2.2,6.9-0.8,8.4-3.7c0.6-1.2,0.9-2.2,0.6-2.2c-1.8,0-6.5,1.8-7,2.6c-0.4,0.7-1.4,0.9-3.3,0.6
		l-2.7-0.4l2,1.1C361.1,136.5,362,137.4,362,137.7z"/>
	<path class="st3" d="M375,135.8c0.7-0.3,2.6-0.7,4.3-1c3.8-0.6,5.3-1.8,3.1-2.5c-3-1-10.2,1.7-9.1,3.3
		C373.6,136,374.3,136.1,375,135.8z"/>
	<path class="st3" d="M1049.4,399.5c0.1-0.4-0.1-1.5-0.4-2.5c-0.5-1.2-0.7-1.3-0.8-0.5c0,0.7,0.2,1.8,0.4,2.5
		C1048.9,399.6,1049.2,399.9,1049.4,399.5z"/>
	<path class="st3" d="M1045.4,396.3c0.4,0,0-0.8-1-1.8c-2-2.1-3.1-1.8-1.1,0.4C1044.1,395.6,1045,396.3,1045.4,396.3z"/>
	<path class="st3" d="M1038.6,394.1c-0.4,0-0.3,0.6,0.2,1.5c0.5,0.8,1.2,1.5,1.5,1.5c0.3,0,0.2-0.7-0.2-1.5
		C1039.7,394.8,1039,394.1,1038.6,394.1z"/>
	<path class="st3" d="M1039.6,392.7c0.4,0,0.1-0.7-0.6-1.5c-0.7-0.8-1.7-1.5-2.1-1.5s-0.1,0.7,0.6,1.5
		C1038.3,392,1039.2,392.7,1039.6,392.7z"/>
	<path class="st3" d="M498.9,315.4c-0.4,0-0.7,0.3-0.7,0.7s0.3,0.7,0.7,0.7c0.4,0,0.7-0.3,0.7-0.7S499.3,315.4,498.9,315.4z"/>
	<path class="st3" d="M1069.8,420.5c0.2-0.5,0.2-1.2-0.1-1.4c-0.2-0.2-0.4,0.2-0.4,1C1069.3,420.9,1069.5,421,1069.8,420.5z"/>
	<path class="st3" d="M1068,422.5c0.8,0,0.7-0.1-0.9-3.3c-1.5-3.1-2.1-1.9-0.6,1.4C1067,421.6,1067.7,422.5,1068,422.5z"/>
	<path class="st3" d="M191.8,178.2c-3.1,0.8-5.3,1.7-5.3,2.2c0,0.3,0.6,0.2,1.3,0c0.7-0.3,2.2-0.7,3.3-0.9c1.1-0.2,2.2-0.7,2.4-1.1
		C193.7,178,193,177.9,191.8,178.2z"/>
	<path class="st3" d="M1033,390.3c0.4,0.5,1.1,0.7,1.5,0.5c0.4-0.2,0.3-0.9-0.4-1.6c-0.6-0.7-1.4-1.9-1.9-2.7
		c-0.8-1.3-0.8-1.2-0.4,0.7C1032,388.4,1032.6,389.8,1033,390.3z"/>
	<path class="st3" d="M690.9,140.8c1.6,0.6,3.9,1.2,5.1,1.2l2.2,0l-1.6-1.1c-2.1-1.5-2.1-3.3,0.3-6c2.2-2.6,5.6-4.2,11.2-5.2
		c5.7-1,6.6-1.4,6.1-2.2c-0.3-0.4-1.7-0.5-3.5-0.3c-1.7,0.3-5.1,0.6-7.8,0.8c-2.6,0.2-5.7,0.8-6.9,1.4c-2.1,1-5.1,3.8-5.1,4.9
		c0,0.3-0.7,1-1.5,1.6c-0.8,0.6-1.2,1.1-0.8,1.1c0.3,0,0.2,0.5-0.3,1.1C687.2,139.4,687.1,139.3,690.9,140.8z"/>
	<path class="st3" d="M602,123.2c1.5,0.5,2.3,0.4,2.7-0.3c0.4-0.7,0.8-0.7,1.4,0c0.5,0.5,1.4,0.7,2,0.5c1-0.3,1-0.3,0.1,0.4
		c-0.6,0.4-2,0.8-3.1,0.8c-2.8,0-2.5,0.8,1.1,2.7l3.1,1.6l2.4-2.6c1.3-1.4,2.4-2.9,2.4-3.2c0-1,2.7-0.7,3.6,0.5
		c0.5,0.6,0.7,1.4,0.4,1.9c-0.3,0.6,0.3,0.7,2.1,0.3c1.7-0.3,2.6-0.2,2.6,0.3c0,0.4,0.5,0.6,1.1,0.4c0.9-0.4,0.9-0.6,0.1-1.4
		c-0.6-0.6-1.3-1-1.7-1c-1.1,0-5.2-2.5-5.2-3.1c0-0.3,0.6-0.4,1.3-0.2c3.4,1,6.6,1.2,8.4,0.5c3.5-1.3,2.2-2.3-3-2.3
		c-2.9,0-5.3-0.4-5.8-0.9c-0.7-0.7-0.9-0.7-0.9,0c0,0.5-0.5,0.9-1,0.9c-0.6,0-1.2,0.7-1.4,1.6l-0.3,1.6l-0.5-1.6
		c-0.5-1.6-2.6-2.3-2.6-0.9c0,0.5-2.4,0.6-6.9,0.3c-6-0.4-6.9-0.3-6.9,0.6C597.3,121.6,598.1,122.1,602,123.2z"/>
	<path class="st3" d="M557.7,143.5c0.9,0,1.6-0.3,1.6-0.7c0-0.9-0.8-0.9-2.2,0C556.3,143.4,556.4,143.5,557.7,143.5z"/>
	<path class="st3" d="M1022.6,387.2c2.7-2,3.6-3.2,3.6-4.6c0-0.6-1-0.1-2.5,1.2c-1.4,1.2-3.7,2.4-5.3,2.7l-2.8,0.5l1.8,1
		C1019.9,389.3,1019.8,389.3,1022.6,387.2z"/>
	<ellipse class="st3" cx="558.3" cy="164.5" rx="1.1" ry="0.6"/>
	<path class="st3" d="M1023.3,377.7c1.2,0.6,2.8,2,3.5,3.1c0.7,1.1,1.4,1.5,1.5,1c0.5-1.6-5.8-6.8-6.9-5.6
		C1021.2,376.4,1022,377,1023.3,377.7z"/>
	<path class="st3" d="M1045.2,399.6c1,1.2,2.2,1.4,2.2,0.4c0-0.4-0.5-0.8-1.2-1.1C1044.5,398.2,1044.2,398.4,1045.2,399.6z"/>
	<path class="st3" d="M330.7,305.9c0,0.4,0.4,0.8,0.9,1c0.5,0.2,1.9,0.4,3.1,0.4c2.1,0,2.1,0,0.8-1
		C333.9,305.1,330.7,304.9,330.7,305.9z"/>
	<path class="st3" d="M357.6,324.6c0,0.4,0.2,1,0.5,1.2c0.3,0.3,0.7,0.3,0.9,0.1c0.2-0.2,0-0.8-0.5-1.2
		C358,324.2,357.6,324.2,357.6,324.6z"/>
	<path class="st3" d="M343,300.2c2.1-0.6,2.1-0.6-4.4-4c-7.8-4.2-10.1-5-14.1-5.3c-4.2-0.3-10,1.4-10,2.9c0,0.8,0.3,0.8,3.6-0.5
		c3.5-1.4,6.5-0.7,11.7,2.7c2.7,1.7,3.5,2.6,2.9,3.3c-0.6,0.7,0,0.9,2.3,0.9c1.7,0,3.2,0.2,3.4,0.5C339,301,340.7,300.9,343,300.2z"
		/>
	<path class="st3" d="M354.3,324.2c-0.2,0-0.3,0.3-0.3,0.7c0,0.4,0.3,0.7,0.8,0.7c0.4,0,0.6-0.3,0.3-0.7
		C354.8,324.5,354.5,324.2,354.3,324.2z"/>
	<path class="st3" d="M375.5,310.4c0.2,0.4,0.8,0.7,1.1,0.7c1,0,0.8-0.5-0.4-1C375.5,309.8,375.2,309.9,375.5,310.4z"/>
	<path class="st3" d="M364,307c0.8,0.8,3.3,0.2,3.7-0.8c0.2-0.6-0.4-0.9-1.5-0.9C364.2,305.2,363.1,306.1,364,307z"/>
	<path class="st3" d="M360.1,304.5c-0.8-1.3-5.7-2.9-9-2.9c-3.5,0-3.7,0.1-3,1.4c1,1.8,0,2.5-3.9,2.4c-2.6-0.1-2.8,0-1.2,0.6
		c1,0.4,2.7,0.5,3.8,0.3c1.1-0.2,2.6-0.1,3.2,0.2C351.3,307.3,360.7,305.4,360.1,304.5z"/>
	<path class="st3" d="M371.1,305c-0.6,0.2-1.1,0.5-1.1,0.7c0,0.2,0.5,0.3,1.1,0.3s1.1-0.3,1.1-0.7S371.7,304.8,371.1,305z"/>
	<path class="st3" d="M350,292.6c1-0.1,1.8-0.3,1.8-0.7c0-0.8-2.7-0.7-3.2,0.1C348.3,292.4,349,292.7,350,292.6z"/>
	<path class="st3" d="M491.6,309.6c-0.4,0-0.6,0.3-0.3,0.7c0.2,0.4,0.6,0.7,0.8,0.7c0.2,0,0.3-0.3,0.3-0.7S492,309.6,491.6,309.6z"
		/>
	<path class="st3" d="M346,294.3c0-0.9-0.8-0.9-2.2,0c-0.9,0.6-0.8,0.7,0.5,0.7C345.2,295,346,294.7,346,294.3z"/>
	<path class="st3" d="M334.2,285c0.6,0.7,1.3,1.1,1.5,0.8c0.2-0.3,0.1-0.6-0.4-0.8c-0.5-0.2-0.7-0.9-0.5-1.7c0.2-0.8,0-1.4-0.4-1.4
		C333.2,281.9,333,283.7,334.2,285z"/>
	<path class="st3" d="M339.2,280.2c0.2-0.2,0.2-0.9-0.1-1.6c-0.3-0.7-0.6-1.1-0.8-0.9c-0.2,0.2-0.2,0.9,0.1,1.6
		C338.6,280,339,280.4,339.2,280.2z"/>
	<path class="st3" d="M335.5,278.7c1-1,0.9-1.1-0.3-1.1c-0.8,0-1.4,0.5-1.4,1.1s0.1,1.1,0.3,1.1
		C334.3,279.8,334.9,279.3,335.5,278.7z"/>
	<path class="st3" d="M234.9,184.3c-0.9,0.7-0.9,1.1-0.2,2c0.8,0.9,1,0.9,1.6-0.5C237.1,183.9,236.4,183.1,234.9,184.3z"/>
	<path class="st3" d="M380.9,257.9c0-0.4-0.3-0.6-0.7-0.3c-0.4,0.2-0.7,0.6-0.7,0.8s0.3,0.3,0.7,0.3S380.9,258.3,380.9,257.9z"/>
	<path class="st3" d="M234.9,200.8c-1.7,0.6-1.4,1.6,1.1,4c1.2,1.2,2.9,2.1,3.6,2.1c1.6,0,1.6-0.1,0.5-2.5
		C239.2,202.1,236.4,200.2,234.9,200.8z"/>
	<path class="st3" d="M234.2,179.2c-0.6,0.5-0.9,1.2-0.6,1.6c0.3,0.4,0.7,0.3,1.1-0.3C235.6,179,235.3,178.2,234.2,179.2z"/>
	<path class="st3" d="M396.7,542.6c-2.4-1.5-4.8-2.8-5.3-2.8c-0.5,0-1.3,0.9-1.7,1.9c-0.9,2.3,0.2,3.7,3.9,5.1
		c1.3,0.5,3.3,0.8,4.5,0.6c1.2-0.2,3.3-0.3,4.7-0.4l2.6-0.1l-2.1-0.8C402,545.7,399.1,544.1,396.7,542.6z"/>
	<path class="st3" d="M414.1,534.7c-3.6-0.2-4.8,0-4.4,0.7c0.2,0.4,0,0.7-0.5,0.8c-0.5,0-0.3,0.4,0.4,0.8c1.1,0.6,1.6,0.6,2.3-0.4
		c0.5-0.7,1.1-1.2,1.5-1.2c0.3,0,0.2,0.4-0.3,0.9c-0.5,0.5-0.9,1.1-0.9,1.5c0,1,1.5,0.6,3.4-0.8
		C417.6,535.4,417.3,534.9,414.1,534.7z"/>
	<path class="st3" d="M454.8,383.6c-2.7-0.8-4.9-2.1-6.9-4c-2.6-2.6-3.3-2.9-8.8-3.7c-5.1-0.7-6.2-0.7-7.7,0.3
		c-1.9,1.3-2.6,0.6-2.3-2.1c0.1-1-0.8-1.9-3-3.2c-3.4-1.9-4.3-1.8-8.2,1.3c-1.5,1.2-2.2,1.4-3.6,0.8c-1-0.4-1.3-0.7-0.6-0.8
		c0.6,0,1.9-0.8,2.8-1.8c1.5-1.6,1.5-1.8,0.4-2.9c-1.8-1.8-3-1.5-6.6,1.8c-2.5,2.3-3.5,2.8-4.1,2.2c-0.6-0.6-0.1-1.5,2.1-3.7
		c3.5-3.3,5.1-5.9,4-6.6c-0.4-0.2-1.1-1.9-1.6-3.7c-1.6-6.1-8.4-11-13.4-9.8c-2.4,0.6-7.9-1.9-9.6-4.4c-3.6-5.3-13.2-11.1-16.8-10.2
		c-2.3,0.6-10.5-1.6-12-3.3c-2.1-2.2-4-2.4-6.4-0.6c-2.3,1.7-2.7,2.8-1.5,4c0.5,0.5,0.3,1.3-0.6,2.5c-1.3,1.7-1.4,1.7-2.1,0.3
		c-0.9-1.7-0.1-7,1.3-8.7c1.6-2-1.7-1.3-3.6,0.7c-0.9,1-2.4,1.8-3.2,1.8c-2,0-4.4,2-5.8,4.8c-0.6,1.2-1.9,2.8-2.8,3.4
		c-1.6,1-1.9,1-3.9-0.6c-2.5-2-4.5-2.2-8.1-0.7c-2.3,0.9-2.8,1-4.6,0c-1.1-0.6-2.8-2.2-3.6-3.6c-1.6-2.5-1.6-2.7-0.5-9.6
		c0.6-3.8,0.9-7.4,0.7-8c-0.5-1.4-5-1.9-9.9-1.2c-5.4,0.8-5.6,0.2-2.5-6.6c4.6-9.9,4.9-10.9,3.9-11.6c-1.2-0.8-2.6-0.8-5.8,0.1
		c-2.1,0.6-2.9,1.3-3.5,3.3c-1,3.2-3.9,5.2-8.6,6.2c-6.3,1.3-9.3-1.2-11.4-9.5l-1.2-4.5l2.3-7c1.3-3.9,2.6-7.9,3-8.9
		c0.4-1.2,2.1-2.6,4.5-3.8c2.1-1.1,4.9-2.6,6.3-3.4c3-1.7,4.5-1.8,7.1-0.5c1.1,0.6,3,1.2,4.2,1.5c1.9,0.4,2.4,0.2,3-1.3
		c0.5-1,1.9-2.1,3.3-2.6c2.1-0.7,3-0.6,6,0.7c1.9,0.8,4.1,1.3,4.9,1c0.9-0.3,2,0.1,3.2,1.2c1.5,1.4,1.7,2.1,1.4,4.1
		c-0.5,2.9,1.4,9.3,2.9,9.9c0.7,0.3,1.5-0.4,2.1-1.7c0.9-1.8,1-3.1,0.3-8.5c-0.7-5.7-0.7-6.6,0.5-8.8c1.4-2.5,8.1-7.8,12.8-10
		c4.6-2.2,6.7-5,6.8-9.1c0.1-4,1.5-6.4,2.4-4c0.5,1.3,0.6,1.2,1-0.4c0.2-1,1.6-2.5,2.9-3.4c1.4-0.9,3.4-2.5,4.4-3.5
		c1-1.1,3.3-2.4,5.1-2.9c5.6-1.7,7.1-2.7,7.6-4.8c0.4-1.7,1.5-2.5,8-5.3c4.1-1.8,8.7-3.5,10.1-3.8c3.6-0.7,4.1,0.8,0.8,2.2
		c-3.7,1.6-5,2.6-3.8,3.3c0.5,0.3,2.4-0.2,4.2-1.1c1.8-0.9,4.3-1.9,5.5-2.1c1.2-0.3,3.2-1.1,4.4-2l2.2-1.5l-2.8,0.5
		c-3.6,0.6-6.6-0.6-7.7-3.1c-0.8-1.7-0.7-2.1,0.5-3.1c0.8-0.6,1.8-1.9,2.3-2.7c0.8-1.5,0.7-1.6-1.9-1.6c-1.5,0-4.8,0.9-7.2,2.1
		c-4.2,2-5.3,2.1-5.3,0.6c0-0.4,2.9-2,6.4-3.7c6-2.9,6.8-3.1,12.9-3.1c8.3-0.1,11.2-0.7,17.5-3.7c5.9-2.8,7.7-5.1,5.5-7.1
		c-1.5-1.4-3.9-1.5-6-0.4c-2.1,1.1-3.4-0.3-1.4-1.7c1.5-1,1.5-1-0.2-4c-1.2-2.1-1.5-3.3-1-4.1c0.4-0.7,0.4-1.7-0.1-2.6
		c-0.4-0.8-0.6-1.9-0.4-2.4c0.2-0.6,0.1-1.7-0.2-2.6l-0.6-1.6l-2.5,1.9c-1.4,1-3.7,2.5-5.2,3.3l-2.6,1.4l-1.6-1.7
		c-1.3-1.4-1.5-2-0.8-3.3c0.5-0.9,0.6-2.1,0.4-2.9c-0.6-1.7-5.1-4.2-9-4.8c-4.4-0.7-6.9,0.5-8.6,4.1c-0.7,1.6-2.3,3.6-3.4,4.4
		c-1.8,1.3-2.1,1.8-1.7,4c0.6,3.3-1.7,6.3-7.3,9.3c-3.8,2-4.4,2.7-5.7,6.2c-1.4,3.6-3.6,5.9-6,5.9c-0.5,0-1.4-0.9-2-2.1
		c-1-2-1-2.5,0.3-5.8c1.5-3.9,1.5-4-1.8-4.7c-1.2-0.3-4.2-1.4-6.6-2.6c-2.4-1.2-5.3-2.3-6.4-2.6c-1.3-0.3-2.3-1.1-2.9-2.4
		c-0.5-1.1-1.3-2.2-1.8-2.6c-2.7-1.7,4.8-8.2,13.6-11.8c2.7-1.1,4-2,4-2.9c0-1,0.7-1.3,3.3-1.4c1.8-0.1,4.7-0.5,6.5-1l3.2-0.9
		l-1.6-1.7c-1.9-2-1-3,1.6-1.8c1.4,0.6,2.3,0.6,4-0.4c1.3-0.7,4-1.2,6.3-1.2c4.8,0,6.4-0.7,9.6-4.2c2.7-2.9,2.8-3.5,1.2-4.1
		c-2.5-1-5.2-0.4-6.9,1.4c-4.2,4.6-10.5,5.8-7.7,1.5c1-1.5,1-1.8,0.1-2.2c-0.6-0.2-1.5-0.2-2.1,0c-1.6,0.6-2.9-2.3-1.8-4.2
		c0.6-1.1,0.6-1.8,0-2.3c-0.6-0.6-1.9-0.2-4.9,1.2c-4,2-4.1,2-2.5,3.1c2.2,1.5,0.9,3.6-2.6,4.6c-1.5,0.4-3.5,1.4-4.5,2.1
		c-1.8,1.4-1.8,1.4-3.8,0c-1.6-1.1-2.7-1.3-5.1-1c-1.9,0.3-4.4,0-6.6-0.6c-3-0.9-3.9-0.9-6.9,0c-2,0.6-4.1,1.9-5,3l-1.6,2l-1.2-2.3
		c-1.2-2.3-1.2-2.3-5.5-1.9c-2.4,0.2-4.9,0.2-5.6-0.1c-1.3-0.5-1.3-0.6,0.1-1.6c1.4-1,1.4-1-0.2-1c-0.9,0-3.7-0.7-6.1-1.5
		c-3.3-1.1-5.5-1.4-8.1-1.1c-2.4,0.3-4.2,0.1-5.7-0.7c-1.6-0.8-2.5-0.9-3.6-0.3c-0.8,0.4-2.1,0.6-2.8,0.4c-0.8-0.2-4,0.2-7.2,1.1
		c-7.3,1.9-11.5,1.9-18,0.1c-2.8-0.8-7.1-1.6-9.5-1.9c-2.4-0.3-7.2-1-10.8-1.5c-5.7-0.9-7.3-0.9-14.9,0.1c-4.7,0.6-10.6,2-13.2,2.9
		c-2.6,1-5.6,1.8-6.7,1.8c-2.2,0-6.6,1.4-6.6,2c0,0.2,0.7,1.2,1.5,2.1l1.5,1.6l-2.3,1.2c-1.6,0.8-3.2,1.1-5.1,0.7
		c-3-0.5-7.6,0.5-9.9,2.1c-1.3,1-1.2,1.1,1.8,1.9c2.4,0.7,3.6,0.7,5.3,0c3.5-1.4,4,0.2,0.8,2.4c-1.8,1.2-4.6,2.1-8.2,2.7
		c-6.7,1-9.8,2.7-9.2,4.9c0.6,2.3-0.2,3.8-2.7,5.1l-2.2,1.2l2.1,1.1c1.6,0.8,2.5,0.9,3.8,0.3c1.9-0.9,3.4-0.4,2.7,0.7
		c-0.6,0.9-6.9,4.1-13.1,6.6c-3.6,1.4-4.5,2-3.2,2.1c2.1,0,9.7-2.7,15.1-5.3c1.9-0.9,4.6-2,6-2.3c1.4-0.3,5-1.9,8.1-3.4
		c4.5-2.4,5.8-2.8,7-2.1c1.6,0.8,5.5,0.1,9.1-1.8c1.8-0.9,2.7-0.9,7.8,0.4c3.2,0.8,6.3,1.5,7,1.5s2.3,0.8,3.6,1.8
		c1.3,1,3.5,2.3,5,2.9c2.7,1.1,3.5,2.7,3.3,6.3c-0.1,2.3,0.3,3.9,1.2,4.5c0.4,0.3,0.2,0.5-0.5,0.5c-1.7,0-3.2,3.9-2.2,5.6
		c0.5,1,0.5,1.6-0.4,2.6c-1,1.1-0.8,1.5,2.2,4.5c1.8,1.8,3.4,3.8,3.4,4.4c0,0.6,0.3,1.2,0.7,1.3c0.4,0.1-0.2,1.6-1.3,3.2
		c-1.9,2.7-3.5,3.4-3.3,1.3c0.1-0.5-0.6-0.9-1.5-0.9c-1.2,0-2,1-3.3,4c-1,2.2-3.2,5.6-4.9,7.6c-1.7,1.9-3.7,4.8-4.3,6.3
		c-0.6,1.5-2,3.7-3,4.7c-1,1.1-1.6,2.3-1.4,2.7c0.2,0.4,0.1,1.6-0.4,2.6c-0.7,1.5-0.6,2.2,0.3,3.7c0.7,1,0.9,2,0.5,2.2
		c-0.4,0.2-0.4,1.4-0.1,2.8c0.3,1.3,0.8,3.6,1,5c0.3,2.1,0.9,2.9,2.7,3.6c3,1.2,4.6,4.4,4,8c-0.4,2.2-0.1,3.6,1.4,6.5
		c1.5,2.9,1.7,4.1,1.1,5.1c-1,1.8-0.4,3.1,2.3,5.1c1.8,1.3,2.1,2,1.8,3.4c-0.3,1.3,0.1,2.5,1.8,4.7c2.9,3.6,4.1,3.7,2.2,0.1
		c-0.8-1.5-1.6-4.4-1.9-6.3c-0.3-2-1.5-5.6-2.6-8c-2.8-6-3.1-7.8-1.9-9.5c0.9-1.2,1.3-1.3,2.9-0.6c1.5,0.7,1.9,1.5,2.3,4.4
		c0.3,2.2,1.6,5.3,3.3,8.2c1.6,2.5,2.6,4.9,2.4,5.2c-0.2,0.3,0.9,2,2.4,3.7c1.6,1.7,3.6,4.6,4.5,6.6c1.5,3.1,1.6,3.9,0.9,6.6
		c-0.7,2.9-0.7,3.2,1.6,5.5c1.4,1.5,6.1,4.3,12.1,7.2l9.7,4.7l3.2-1.2c2.9-1.1,3.4-1.1,5.3-0.1c1.2,0.6,2.9,2.2,3.8,3.4
		c0.9,1.3,3.3,3,5.5,4c4.3,1.9,6.1,2.1,7.3,0.9c0.6-0.6,1-0.1,1.6,1.7c0.5,1.4,1.5,3.1,2.3,3.8c0.8,0.7,1.4,2,1.4,3s0.4,2,0.9,2.4
		c0.5,0.4,2.3,1.9,3.9,3.3s3.4,2.6,3.8,2.6s2.1,0.7,3.8,1.5c3,1.6,4,1.4,4-0.7c0-1.8,3.5-2.8,5.8-1.7c1.6,0.7,1.8,1.1,1.1,2.3
		c-0.4,0.8-0.5,1.5-0.1,1.5s0.7,0.4,0.7,0.9c0,0.5,0.4,2.4,0.9,4.2c1.2,4.7-0.1,8.8-4.3,14.2c-6.4,8.1-7.9,12.8-4.3,13.8
		c1.5,0.4,1.4,0.5-0.7,3.6c-2,2.9-2.1,3.5-1.5,5.8c0.4,1.4,1.5,3.1,2.5,3.8c1.9,1.2,4.6,6,6.1,10.8c0.5,1.5,2.1,4.3,3.6,6.2
		c1.5,1.9,3.6,5.3,4.7,7.6c1.8,3.8,2.5,4.4,7.2,6.9c6.6,3.5,11.9,8.7,13,12.8c0.5,1.7,0.8,5.1,0.7,7.6c-0.4,11.7,0.4,24.6,1.7,31.5
		c0.9,4.6,1.1,8,0.8,13.4c-0.3,5-0.2,7.5,0.4,8.2c0.5,0.6,0.9,2.5,1,4.3c0.1,2.8,0.6,3.8,3.2,6.4c2.1,2.1,2.9,3.5,2.6,4.3
		c-0.3,0.7,0.2,2.1,1.1,3.3c1.8,2.6,1.4,6.4-0.7,7c-1.9,0.6-1.7,1.2,0.7,2.6c1.4,0.8,2.5,2.4,3.4,4.7c1.7,4.6,4.8,9.6,6.2,10.1
		c0.6,0.2,1.6,1.2,2.1,2.2c0.7,1.3,1.4,1.7,2.3,1.4c0.7-0.2,1.9-0.1,2.6,0.3c1.8,1,5.8-1.8,4.6-3.2c-1.3-1.6-1-4.9,0.6-8.1
		c1.7-3.3,1.3-6.2-0.9-7c-0.6-0.2-1.7-1.3-2.3-2.3c-1.2-1.8-1.1-2,0.7-4.4c1.1-1.5,1.7-3,1.5-3.7c-0.2-0.6,0.1-1.8,0.8-2.5
		c1.2-1.3,1.2-1.4-0.3-1.8c-0.8-0.3-2-1.5-2.7-2.7c-1.6-3-0.5-4,2.6-2.4c1.3,0.7,2.4,1.1,2.5,1c1.3-1.6,1.8-3.7,1.1-5
		c-1.1-2.1-0.3-2.9,2.9-2.9c3.7,0,7.6-1.9,8.7-4.2c0.7-1.5,0.5-2.4-0.8-4.9c-0.9-1.7-2.3-3.5-3.3-3.9c-1-0.4-1.7-1.1-1.7-1.5
		c0-1.1,2.1-0.9,6,0.5c4.5,1.6,6.4,0.7,9.5-4.8c1.3-2.2,3.1-5.1,4-6.3c0.9-1.2,1.7-3.1,1.7-4c0-1,0.5-2.5,1.1-3.4
		c2-2.8,2.6-6.1,1.7-8.8c-0.8-2.4-0.7-2.6,1.6-4.6c1.4-1.2,3.8-2.7,5.5-3.4c1.7-0.7,3.2-1.7,3.5-2.2c0.3-0.5,1.5-0.7,3.2-0.4
		c2,0.3,3.1,0.1,4.3-1c3.9-3.3,7.9-18.6,7-26.8c-0.4-4.2-0.3-4.6,1.4-6.4c1-1,2.4-2.9,3.1-4.2c0.7-1.3,2.3-3.7,3.6-5.3
		c3.1-3.8,4.2-7.8,3.2-11.4C458.9,385,458.5,384.6,454.8,383.6z M358,221.3c1.1,0.6,1,0.8-0.5,1.9c-2.1,1.5-5.8,1.6-5.8,0.2
		C351.8,222,356.5,220.4,358,221.3z M344.6,228.7c-1.6,0.8-3.6,1.5-4.5,1.5c-2.7,0-1.6-2.1,1.9-3.6c3-1.3,3.6-1.4,4.5-0.5
		S347.2,227.4,344.6,228.7z M323.4,211.2c1-0.8,2.1-1.4,2.4-1.4c0.3,0,0.4-0.3,0.2-0.7c-0.2-0.4,0.2-0.7,0.9-0.6
		c0.7,0,2.8-0.4,4.6-0.9c5-1.4,7.3-1.2,8.8,0.8c0.7,1,1.2,2.4,0.9,3.2c-0.6,2.2,2,4.3,4,3.3c2.8-1.5,6.5,1.9,5.1,4.5
		c-0.5,0.9-1.2,1.1-2.4,0.8c-1.3-0.3-1.8-0.1-2.2,1c-0.2,0.8-1.2,1.8-2.2,2.2c-1.4,0.6-2.1,0.6-3.3-0.5l-1.5-1.3l1.5-1.9
		c1.9-2.4,1.9-2.8-0.2-2.8c-2.9,0-6.5,3-8.5,7.1c-1,2.1-2.5,4.3-3.4,4.9c-1.4,1-1.7,1-2.7-0.2c-1-1.1-0.9-1.7,1.7-6
		c3.1-5.2,5.3-6.9,9.6-7.7c1.6-0.3,2.6-0.8,2.3-1.2c-0.2-0.4-1.2-0.5-2.2-0.3c-0.9,0.2-2.8-0.1-4.2-0.7c-2.3-1.1-2.7-1.1-4.7,0
		c-1.8,0.9-2.7,1-4.3,0.4l-2-0.8L323.4,211.2z"/>
	<path class="st3" d="M372.7,158.7c-1.7,1.9-0.5,2.6,2.9,1.7c2-0.6,3.1-0.5,4.6,0.3c1.6,0.9,2,0.8,2.5-0.1c0.8-1.4-0.5-2.9-3.5-3.9
		C376.4,155.8,374.9,156.2,372.7,158.7z"/>
	<path class="st3" d="M378.6,334.4c0.8,0,1.6-0.6,1.8-1.5c0.3-1.1,0-1.5-1.1-1.5c-0.8,0-1.3,0.2-1,0.5c0.3,0.3,0.1,0.9-0.3,1.5
		C377.3,334.2,377.4,334.4,378.6,334.4z"/>
	<path class="st3" d="M388.5,322.7c-0.2,0-0.3,0.3-0.3,0.7s0.3,0.7,0.8,0.7c0.4,0,0.6-0.3,0.3-0.7
		C389,323.1,388.7,322.7,388.5,322.7z"/>
	<path class="st3" d="M379.1,309.6c0.2,0,0.3-0.3,0.3-0.7c0-0.4-0.3-0.7-0.8-0.7c-0.4,0-0.6,0.3-0.3,0.7
		C378.6,309.3,379,309.6,379.1,309.6z"/>
	<path class="st3" d="M382.7,308.9c-0.2-0.4-0.6-0.7-0.8-0.7s-0.3,0.3-0.3,0.7c0,0.4,0.3,0.7,0.8,0.7S383,309.3,382.7,308.9z"/>
	<path class="st3" d="M382.4,313.6c0.4-0.2,0.7-0.8,0.7-1.2c0-0.4-0.3-0.5-0.7-0.3s-0.7,0.8-0.7,1.2
		C381.7,313.7,382,313.9,382.4,313.6z"/>
	<path class="st3" d="M384.6,318c-0.4,0.2-0.7,0.6-0.7,0.8c0,0.2,0.3,0.3,0.7,0.3c0.4,0,0.7-0.3,0.7-0.8
		C385.3,317.9,385,317.7,384.6,318z"/>
</g>
</svg>
