<svg width="1261" height="657" fill="none" xmlns="http://www.w3.org/2000/svg"><path fill="#276F86" d="M0 0h1261v657H0z"/><path d="M526.344 230.488l-.215-.539.095-.134.11-.072.138.017.548.577.237.158.35.418.789.051.947-.451.442.184.21-.034.695-.427.452-.122.304-.316.307.341.686.396.217.414.29.196.097.131-.419.435-.052.47-.449-.032-.536.771-2.015 1.292-1.807-1.103-.785-.745-.527-1.032-.109-.844zm38.866 26.7l.067.306.32.296.252-.282-.132-.244-.04-.459-.324-.414-.139.351-.133.082-.124.28.253.084zm13.315 6.072l.259.004.421-.139.219-.295.229.076.457-.539.307-.265.817-.088-.551-.685-.099-.048-.762.265-.981.175-.379.368-.391.604-.089.539.07.171.473-.143zm17.296-39.649l.143-.411-.255-.2-.303.419.261.354.154-.162zm-32.893 7.317l.844-1.101.23-1.09-.289.073-.027.48-.099.322-.133.116-.229.204-.526.876-.225.217.029.269.425-.366zm-24.245-1.286l.472.924.118-.093.212-.8-.191-.374-.021-.651-.087-.172-.242.355-.318.053.192.472-.135.286zm22.949 2.511l.539-.442.052-.259-.179.127-1.075.534-.514.603.935-.447.242-.116zm2.761 24.433l.095-.044.162-.189-.078-.527-.185.253.006.507zm31.211-30.07l-.031.166.067.379.32.179.492-.343-.454-.674-.394.293zm-33.242 29.801l.067.269.099.032.354-.025.128-.514-.155-.063-.375.057-.118.244zm2.26-8.419l-.58-.238-.219-.259-.028-.256.253-.769.158-.231.166-.066.37-.421-.088-.244-.12-.139-.149-.078-.24.554-.276.017-.255-.251-.111-.469.035-.27-.273-.033-.429.273-.291.438-.646.432-.078.884.097.697-.21.299-.335.219.164.103.573.033 1.117.278.669-.044.775.12.219-.284.115-.375-.098-.031-.285.111zm84.774 59.575l.136-.086.204-.27-.128-.332-.269-.472.067-.417-.166-.105-.186.019-.201-.162-.512-.194-.158.446.893 1.35.32.223zm10.714 12.962l.149-.179.038-.446.341-1.106 1.234-2.922.052-.553-.362-.405-.095-1.145-.147-.061-.2.07-.25.164-.219.324.252.116.329.581-.087.539-.225.421-.892.794.133.709-.055.339-.307.613-.133.669.179 1.158.265.32zm2.178 10.199l.129-.098-.095-.758.238-1.08-.204-.053-.31.128-.088.59.067.638.263.633zm-.118 1.158l-.029 1.057.181.274.154.036.509-1.826-.101-.092-.509-.114-.205.665zm-17.034-33.596l.189-.099-.16-.499-.198-.112-.021.362-.132.255.151.107.171-.014zm-3.475-.822l-.002-.277-.093-.638-.219.16-.035.484.141.463.208-.192zm-22.519-24.424l.444.436.263.543.373.21.166-.223.088-.301-.254-.457-.123-.587-.172-.034-.107.095-.261.086-.52-.021.103.253zm-22.66-48.742l.351-.37-.236-.31-.473.055-.139.297.124.217.373.111zm39.316 60.295l.122-.094.069-.567-.217.154-.147.206-.116.261.156.068.133-.028zm.305.95l.191.004.141-.069.009-.089-.24-.352-.139-.425-.248.815.286.116zm-56.279-20.166l-.301.255.078.252.221-.105.659-.124-.064-.322-.395-.316-.198.36zm35.601 142.724l-.355-.305-.775.036-.055.166-.033.372.328.228.89-.497zm16.603 12.381l-.162-.146-.543-.217-1.05-1.387-.396-.242-.555.808-.425.297.267.308.379-.038.174.505-.09.331.791 1.21.133.314.158.217.189.164.619-.219.526-.472.082.009.057-.224-.427-.347.229-.263.044-.608zm-.357 4.082l-.11-.078-.149-.015-.449.141.057.175.36.377.291-.6zM613.31 409.31l.84-.059.496.28-.035-.141-.207-.356-.155-.139-.413-.101-.526.516zm-2.033 15.098l.038-.513-.044-.043-.19.274-.242.116.221.806.217-.64zm-50.942-179.297l-.149.099-.072.166.005.219.536.116.139-.067.223-.203-.105-.511-.248-.253-.329.434zm134.299 302.411l-.36 2.015.055.463.197-.402.396-1.373.078-1.042-.366.339zm-62.435-124.659l-.758.394-.823-.007-.286.184.057.181.486.366.659.046.623-.177.198.485.303-.083.414-.418-.315-.506-.558-.465zm.086 14.118l-.076-.297-.155-.268v-.284l.082-.606-.165-.884.053-1.337-.057-.718.017-.707.133-.906-.036-.913-.086-.457-.038-.463.044-1.314-.459-.718-1.077-.574-.381-.011-.566.724-.327-.006-1.157-.211-.251.24-.465.691-.271.292-.396-.126-.398-.225-.305.025-.297.185-.667.085-.684-.015-.414.198-.373.316-.122.398.072.458-.369-.425-.368-.278-.431.299-.451.204-1.517.165-1.219-.354-1.711-.731-.271-.214-.246-.274-.283-.179-.648-.271-.252-.312-.286-.088-.329.044-.473-.249-.394-.438-.347-.037-.387.197-.684-.029-1.326-.505-.59-.383-.052.858-.377 1.541.097.765.21.873.394 1.181.01.381.072.226.812 1.77.827 1.442 1.08 1.526.124.695-.141.712.352-.047.217-.349.05.347.122.293.922 1.01.063.268-.349.836-.198-.691-.366-.541-1.027-.857.225 1.79.183.709 1.296 3.063.177.198.295.135.25.244.423.625.716 1.356.416.391.602-.124.886.276.303-.076.188.116.109.316-.694-.006-.676.174-.073.263.185.297.177.832.848-.28 1.338.054.8-.088.89.756.798.141.233-.055.478-.894.297-1.076.183-.411.246-.349-.53-.461-.017-.234.07-.269 1.039.804.425-.324.089-.723v-.446l.124-.318.261-.147.105-.396.03-.305-.27-.691-.025-.398.652.828.261 1.122.499-.297.072-.177-.078-.777.223-.259.707.211.629.451.044.208-.042.21-.155.186-.512-.19-.233.329.303.821.513.787.31-.202.631-.107.21-.2-.134-1.584-.253-1.157-.017-1.266.072-.688.29-.531.213-.559-.027-.723.105-.682.259-.707.362-.528.168-.123-.088-.147.153-.457.274-.334.166.41-.219.16-.128.179.429.301.128.267.045.295-.045.366.078.283.242.052.068-.368-.07-.447.057-.378zm30.919-100.305l-.714-1.28-.158-1.004-.25-.859-1.109-2.412-.48-1.392.267-1.398-.461-4.465.478-2.223-.231-.271-.575-.344-.255-.351-.381-.834-.042-1.669-.736-1.027-.796-.47-.538-.842-.362-.701-.051-.39-.219-.659-.61-.452-.419-.215-.899-.659-.44-.665-.902-1.893-.419-.503-.834-.543-.682-.031-.439-.135-1.562-1.204-.486-.263-.392-.565-.585-.606-.339-.446-.519-.474-.356-1.8v-1.747l-.114-2.082-.541-1.004-.292-.325-.32.108-.025.648.088.442-.225.021-.804-.572-1.006-.611-.543-.682-.396-.64-.328.025-.232.101-.231.788.377 1.358-.185.185-.318-.314-.579-.709-.301.231-.398.091-.347-.712-.293-.448-.423-1.484-.379-1.634-.035-1.181-.739-.648-.288-1.114-.23-.309-.216-.79-.853-1.031-.875-.729-.726-.688-.626-.975.274-.705.444.149.472-.067-.377-.718-.366-.482-.937-.903-.436-.228-.942-.132-1.048-.823-.642-.356-.453-.057-.524-.128-.37-.466-.655-.153-.922-.92-.452-.926-.227-.341-.31-.257-.454.153-.375.07-.825-.131-.271-.377-.533-.477-1.025-.127-.81-.301-.619-.297-.627-.379-.577-.631-.511-.844.088-1.082.129-.701-.653-.272-1.126-1.467-.054-.6.303-1.226.307-2.109-.448-1.566-.874-1.91.059-.968-.44-.013-.488-.189-.688-.941-.522-.619-.352-.571-.381-.772.061-.619.091-.417.038-1.103-.486-1.072-.154-1.096-.461-1.371.128-.909-.1-.75-.144-.648.15-.413.061-.524-.636-.524-.682-.4-.879-.708-1.581-1.103-.364-.833-.669-.746-.895.289-.658.137-.615.562-.85.415-.825-.375-.392-.316-.29-1.116-.377-1.217-.32-.61-.24-.737.226-1.796-.337-.844-.105-1.261-.32-1.44-.356-.72.025-.579-.661-.848-.21-.608-.375-.219-.475-.348-.068-.465.036-.339.284-.562.154-.728-.663-.181-.461-.032-.322-.229-.362-.356-.13-1.133.012-1.2-.095-.749-.197-.558-.139-.59-.335-.627-1.006-.815.074-.328.233-.425-.355-.245h-.522l-.295.569-.476.488-.932.373-.175 1.954-.578 2.147-.526 1.585.096.48-.042.47-.284-.211-.25-.263-.383.627-.693 1.627-.063.845.406.227.284.223.339.074.154.208.086.409.219.351-.055.381-.263-.149-.553.002-.282.33-.714.661.188 1.904-.335 1.002-.322.776-.364 1.474.048.781.322.556.347.813-.21 1.119-.213.803.476 2.324.133 1.238-.261.844-.766 2.496-.345 1.828.111 1.008-.333.926-.378 1.483-.428 1.119-1.496 2.261-.297 1.095-.503 1.364-1.075.796-.812.497-1.781.492-1.027-.01-.53-.301-.306-.261-1.21-.436-1.471-.985-1.132-.32-.56-.99-.055-.41-.202-.535-.593-.703-1.12-.238-1.149-.507-.709.071-1.539-.435-1.025-.621-.936-.861-1.235-1.491-1.048-.402-1.341-.617-.77-.513-.468-.249-.517-.385-.472.086-.814.011-.512-.362-.065-.285.078-.223.029-.406-.178-.061h-.181l-.15.109-.208.08-.72-.311-1.008-.52-.19-.457-.317-.558-1.394-.81-.808-.67-1.785-.97-.456-.47-.15-.41-.132-.592.4-.615.389-.435 1.214-1.809.365-.315.456-.491.419-1.32.208-.754-.355-1.141-.013-1.915 1.41-.743.394-.097.364-.164.417.231.279.36.291-.065.787-1.335-.126-.556-.327-.473.114-.293 2.425-2.613-.297-.639-.36-.148-.69.044-.651-.558-.408-1.054-.572-.038-1.023 1.082-.12.248.248.141.217.657-.4.771-.4.006-.656-.076-.299-.549-.135-.838-.417-.236-.475.158-.394.295-.278.084-.231-.192-.013-.349.6-.581.503-.373.04-.139-.366-.113.054-.27.468-.478-.219-.025-.571.512-.608.294-.808.628-1.16.41-.795.556-1.109-.168-1.034-.548-.225-.288-.509-.423-1.134.459-.714-.049-.393-.162-.672-.109-.577-.407-1.389-.648-1.475-.124-.715.029-.533-.335-.513-.191-1.009-.135-.418-.503-.529-1.013-.378-.271-.613-.097-.65.465-.381.219-.743-.831-1.32-.859-.421-.118-.221.208-.159.396-.251.038-.292-.179-.516-.507-.337-.093-.884.541.061.185.722.276.758.756.36.156.85-.198 1.166.143 1.176.943-.172.469-.089.653.032.712-.027.482.484.53-.217.04-.547-.12-.432.148-.406.25-.181.714-.229-.337-.703-.32-.417.246-.699.324-.635-.13-.404-.164-.956.278-1.702-.009-.569-.4-.166-.686-.133-.169-.155.308-.268.354-1.029.071-.153.145.061.343-.04.432-.396.032-.488.113.052.529.091.412-.181.207-.537-.377-.24-.406-.376-.127-.295.145-.076.363.044.934-.267.106-.697-.036-.319.177-.482 1.174-.886.449-.135.612-.059.522.737.946-.356.484-.375.396-.374.168-.796.154-.585.431-.246.455-.047.434-.162.555-.254.659-.051.356-.532.354-.947 1.059-.478 1.084.623.589.732.424.533-.013.004.107-.556.436.346.446.532.417.324.061.238.177-.503.099-.745.036-.143.454.09.525.133.454-.093.322-.277-.221-.123-.341-.639-.694-.459-.213-.672-.164-.202.21.028 1.059-.133.487-.238-.276-.059-.775-.633-.627-2.496-.628-.354-.04-.58.082-.398.249-.04.244-.265.198-.432.225-.396.345-.256.289-.013.36.32.676.187.195-.025.323-.312-.335-.273-.108-.259.527-.248.105.065-1.469.259-.996.21-.588.232-.458-.112-.243-1.73-1.374-.732-1.127-.537-.631-.835-.609-.436-.383-.97-.585-1.145-.406-.551-.55-.609-.195-.753.267-.063.511.094.497-.599.813-.646.434-.516-.497-.469-.362-.474.261-.143.448-.238.166-.179-.305-.259-.673-.385-.268-.385.118.116.535.221.294-.061.426-.278.196-.053.402-.166.534.025.748-.44.158-.328.591-.238-.126-.061-.385-.12-.394-.48-.15-.176.367-.108.124-.17.025.116-.299v-.56l.138-.585-.454-.21-.181.13.006.505-.109.737-.451.116-.399.33-.592.007-.301.16-.107.389-.52.402.011.482.349.489.023.425.831.432-.048.433-.118.202-.313-.08-.672-.374-.684-.08-.206-.173-.082.124-.004.289-.266.21-.38.021-.444.31.315.484-.057.191.156.232.678.042.288-.061.03.413-.087.412-.275.148-.264-.379-1.307-.727-.342-.069-.072.227.061.297-.276.36-.486.472-.33-.129-.392.112-.252.806-.089.806.434.565.29.743.604-.914.246-.105.003.396-.236.41-.139.505-.046.571-.396.015-.444-.076-.107.181-.167.425.097.588.295.221.684-.021.583.042.52.212.086.179-.469-.101-.96.055-.457-.08-.907.055-.673-.335-.333-.335-.503-.086-.49.135-.274.469-.33.114-.768-1.162-.482-.078-.238.271.231.729-.122.448-.263.335-.332-.021-.207.141.164.307.527.781.431.341.383.474.196.408.463-.019.107.331-.265.48.008.762-.189.04-.267-.168-.531-.47-.273-.09-.141.134-.044.322.128.842-.272 1.203.055.351-.048.299-.223-.217-.274-.465-.566-.722-.692-1.573-.733-1.065-.398-.907-.612-1.708-.318-.025-.406.735-.448.966-.306.476-.723.474-.447.48-.534.168-.587.547-.423.47-.594 1.095-.101.705.025.743.259 1.055.274 1.532.402.164.324.259-.091.463-.492.293-1.511 1.451-1.017.517-.29.365-.373.768-.538.971-.245.612-.566 1.187-.921 1.327-.933.985-1.075.789-.705.377-2.627 1.103-1.401.421-2.532.308-1.074.499-1.342-.162-1.503-.108-2.086 1.668-1.73.406-1.532.305-.659.274-1.506.962-.878.44-1.637.492-.672-.05-.907-.453-.848.106-.939-.066-.766.042-.595.375-3.513 1.992-.694.543-.722.789-1.036.731-.827.842-1.738.878-1.789.665-.884.554-.629.751-1.097 2.021-.231.512-.438.532-.581.194-.377.173.133-1.015-.419-.901.295-1.72-.11-.514-.598.335-.38.366-.966 2.493-.661 1.943.501 1.116.162.648-.002.697-.177 1.002.012.653-.059.869-1.203 2.017-.375.878-.404 1.688-.049.783.03 1.173.507 1.027.387.636.6 1.84.72 1.223 1.185 2.465 1.307 2 .084.766-.147 1.032.071 1.067-.233.314-.505.368-.579-.473-.295-.411-.37-1.511-.152-.087-.248.661-.274.289-.248-.196-.19-.251-.046-.261.084-.311.091-1.133-.543-.646-.482-.695-.52-.17-.32.313-.01.432.696 1.208.449 1.31.692.819.408.21.457.499-.099 1.105-.33.413-.276.211-.899-.245-.208-.795-.703-1.565-.227-.606-.194-.164-.078.299.015.539-.13.231-.137-.023-.278-.282-.251-.151-.151.052.274.39.601 1.153 2.223 2.83 1.884 3.296.414 1.306.208 2.871.188.695 1.111 1.429 1.088 1.657.32.825-.006.708.221.671 1.351 1.823.602 1.958.073.716-.172 1.229.158 2.175.151 1.183.49 2.345.586 1.693.692 1.052.947 2.341 1.44 2.703.233 1.337-.073 3.564-.104 1.162-.315.2-.213.491.307 2.345.072 1.339-.465 1.263-.526 1.122-.924.766-1.046.026-.486-.447-.621-.456-.11 2.04-.012 1.751.189.667.021.788.703.612.396-.238.488-.033 1.698.867.954.716 1.536 1.924 1.36.507 1.772.876 2.058.278 1.646.051 2.587.461.553-.165 1.107-.143.846-.299.762-.191 2.273-1.787 2.216-1.84 1.096-.146.983-.021 1.2-.627 1.09-1.901.556-.423.739-.474 2.098-.278 1.235.196.661-.307 1.677-.344 3.49-.315 1.915.254 1.28-.042.677.127.531.831 3.702-.716 1.052-.05.659.12.829.621.93-.587.836.077.846-.566 1.286-1.697.585-1.059.936-2.229.695-.8.764-.398.896-.128 1.383-.402 2.999-1.876 1.164-.404.614-.354 2.065-1.455 1.294-.28 3.797.377 1.799-.097 1.394-.227 2.115-.783 2.302-.59 2.827-1.237 2.361-1.28 1.429-.295 2.25-.225 3.312-.333 3.858.173.977-.264.48-.233.675-.251.834.175.639.189 1.937 1.021 2.917 2.15.644.09 1.919-.49.642.048 2.685 1.579 1.114.034.89-.04.673.17.716.43.848.994 1.795.953.091.771-.133.501-.404.019-.343.107.432 1.615.753 1.305 1.81.177.659.457.423.515.33.819.246 1.282.907 1.07.846.913.198.377.398 1.295.152.379.33 1.282.482 1.465-.133.15-.286-.032-.509-.372-.448-.415-.24.065-.274.284-.04.352.4-.093.234.051.553.448.516.522.408.305.985 1.301.385-.29.472-.259.749.707.299.141.17-.271-.284-1.27-.284-.307-.068-.451.352-.322.17-.385.836-.949 1.829-2.836.562-.324.648-.621.875-.474.905-.562.577-.219.566-.116.634-.52.69-1.406.52-1.665.556-.733.85-.781.654-1.084-.052-.848.008-.866.471.668.297.678.47 2.267-.402.499-.426.25.083.796.284 1.038.105.832-.892.877-.771 1.104-.924 2.143-.059.648-.145.901.055.794.143.768-.227 1.192-.373 1.065-.488.027-.333-.04-.73.095-.673-.063-.773 2.328.491.11.374-.133h.676l.755-.417 1.105-.341.632.12.741-.038 1.077-2.981.267-1.939.55-.869.17-.6.284-.568.573.976.461.95 1.014 1.541.318.768.126 1.87-.659 2.168-.395.621-.478.541-.4.912 1.21.231.785-.017 1.227-.663.242-.088.617-.011.236-.347.604-.331.45-.387.583-.305.53.202.12.175.133.195-.196.43-.017.907-.347-.099-.309-.539-.388.139-.269.407-.579-.129.097.265.31.52 1.222 1.002 1.307 1.329.486.627 1.065 2.002.758 2.129-.061.629-.373 1.137-.267 1.156.023.606.247.768.536.788 1.991 2.149 1.052 1.895 1.4.983 2.267.362 1.197.712 1.244 1.435.396.122.604.059.774-.873 1.181.092 1.553.868.924-.207.659.108.921.49 1.35.971 1.431.488.85.735.661.109 1.185.478.871-.408.741-.514 1.711-1.779 1.34-.857.705-.332.567-.148.717-.555-.446-.392-.423.065-.724-.221.413-.257.431-.191 2.084-1.322.553.391.383.438.415.6-.312.849-.278.4-.642.642-.774.025-.368-.053.764.72.661.485 1.367-.881.341-.692.259-.402.434-.089.648.135.251.507.14.619-.469.169-.227.459-.16.435.817.56.418.356.506-.008.582.086.442.823.413.95.488-.263.305-.249.522.238.569.747.46.849.047.358.353.164.335-.253.16-.358-.013-.658-.09-1.04-.234-.158-.532.564-.303-.409-.409-.433.007-.419.444-.209.376.091h.472l2.487-.364 3.183-3.337 1.393-1.223 1.448-.907 1.498-.584.781-.187 4.024-.314 2.094.101 1.078-.229.498-.307.846-.84.594-.514.728-.143.177-.628.002-.671.139-.701-.213-1.316.057-1.728.164-.901.44-1.266.194-1.298.198-1.84.174-1.091.219-.996.571-1.096.484-.71 1.143-2.669.395-.263h.331l.143-.163.044-.147-.097-.107-.145-.31.097-.25.347-.249.109.095.177-.053.028-.136-.165-.731.24-1.023.293-1.787.33-.802.196-.638.764-.958.835-.943-.237-.101-.392-.072.253-.225.2-.068.254.15.211-.415.046-.65.204-.96-.181-.836.387-.261.44-.158.186-.876.122-.351.273-.327.459-.696.36-.727.852-1.385.834-.566 1.241-.438.139-.251-.315-.153.012-.152h.467l.19-.484.492-.358.823-.825.274-.758.17-.606.082-1.371 1.339-1.798.932-2.427.225-1.556.232-.84.156-1.229-.141-1.28.04-1.072.93-2.719.212-1.123.287-.72.44-2.679.008-1.39.673-1.617.84-1.315.072-1.217-.282-.935.04-1.975zM524.728 233.602l1.098-.318 1.095.383.612-.114-.021-.259-.135-.216-.223-.205-.486-.141-.156-.524-.279-.492-.051-.539-.221-.497h-.261l-.259.141-.581.701.204.383.062.701-.346.232-.395-.097-.171.64.198.227.316-.006zm-100.406 87.967l-.002-.454-.211-.44-.671-1.922-.211.073-.227.251.33 1.389 1.135 2.036.156-.269-.205-.518-.094-.146zm13.326-32.575l.343-.491.065-.448-.134-.303-.474.49-.271.406.054.249.417.097zm53.962-33.66l.21.052.221-.172.047-.276-.24-.278-.08-.246-.188-.017-.09.152-.127.292.243.257.004.236zm3.984-5.118l-.032-.164.028-.472-.226-.113-.25.219-.154.606.257.303.377-.379zm130.853 194.516l-.149.276-.049.248-.135.133.247.174.065.396.135.068h.37l-.219-.99-.265-.305zm-.238 1.614l-.168-.01-.295.417-.084.33-.126.063-.082.232-.129.181-.345-.141.002.147.289.56.458-.136.459.143.278-.842-.08-.411-.177-.533zm4.906-5.342l-.415-.184-.296.379.048.183-.008.413.111.036.331-.072-.024-.238.407-.231-.154-.286zm-60.33-52.371l-.55.261-1.414-.171.011-.12.218-.476-.298-.263-.322-.109-1.16-.091-1.431.516-2.675.617-.354.433-.225.592.288.328.979.712.93.097.668-.166.719.111.366-.413 1.019.28.391.394.838-.347.19-.646.288-.293.972-.219 1.042.288.322-.05.337-.352-.455-.705-.694-.208zm36.573 30.22l-.174-1.127-.535-.442-.307.028-.057.568-.354.32-.103.291.019.659-.156.612.291.611-.07.616.135.434.173-.031.631-.291.457-.432.17-.526-.206-.612.086-.678zM486.123 237.271l-.004-.061-.133-.01.005.061.132.01zM571.48 107.538l-.45.473-.03-.154.135-.284.191-.324.177-.193.231-.056.165.268-.186.233-.233.037zm81.557 12.01l-.104.031-.046-.029.023-.148.034-.051.097-.004.169.041.013.037-.186.123zm-1.388.497l-.048.076-.362-.029-.051-.043.032-.033.173-.035.021-.105-.088-.023.076-.055.141-.011.081.066.044.095-.019.097zm39.578 3.081l-.345.13-.433-.06-.133-.471-.199-.126.044-.233.305-.189.645.154.239.336-.152.222.029.237zm27.712 8.594l.061.28-.379-.136-.05-.099.22-.099.148.054zM801.862 238.168l-.229.06-.37-.049-.076-.096.117-.021.243-.062.297.031.052.062-.034.075zM819 259.953l-.257.116v-.093l.18-.162h.144l-.067.139zm.157 2.132l-.414.225V262l.331-.286.25-.06-.154.288-.013.143zm5.707 4.663l-.148.207-.13-.074.165-.349.026-.15-.255-.183-.017-.128.075-.079.305.205.186.16.038.087-.057.156-.188.148zM829 270.88l-.326.065-.297-.26.188-.274.264.064.15.266.021.139zm-4.322.146l-.177.091-.124-.021-.144-.097-.088-.173.184-.145.285.164.064.181zm1.327 1.568l-.069.112-.313-.183-.121-.125.334-.095.163.031.006.26zm-6.087 4.317l.015.181-.088-.011-.105-.077-.052.038-.038.056-.018.127-.015.07-.081-.025-.015-.124.027-.088.04-.128.146-.117.184.098zm7.419 1.383l-.065.056-.161-.062-.132-.085-.017-.088.055-.112.127-.058.065.023-.038.037-.077.04.013.11.1.066.096.019.034.054zm-1.037 9.256l.013.016-.034-.002-.046-.02-.038-.042-.008-.046.019-.045.019.002.031.041.029.046.015.05zm-7.561-27.481l-.886.804-.317.415-.27.459-.754.492-.322.661.023.666.756-.698.842-.569.259-.116.266.006-.023.195-.121.194-.094.504.221.47-.629-.046-.623.039-.737.262-.725.116-.272.002-.259-.087-.169-.135-.132-.311-.134-.046-.575.015-.861.61-.286.523-.33.023-.393-.108-.474.401-.567.143-.242-.34-.159-.416-.203-.305-.622-.077.096-.373.165-.154.15-.222.092-.254.299.16.305.104.341-.189.355-.017.356-.552.557-.347.767-.274.782-.195.403-.04.387-.112.679-.519.449-.266.489-.16.468-.093.433.083.349-.044.89-.369v.087zm.004 2.243l-.075.006-.014-.116.089-.202v.312zm.818.895l-.193.075-.625.515-.403.546-.201.531.17.221.434-.227.147-.23.629-.451.267-.515-.225-.465zm-17.038 2.778l-.303.102.161-.482.169-.151.109-.031.173-.033-.067.34-.242.255zm12.833 1.334l-.196.164-.092-.835.202.006.147.087.083.212-.144.366zm-6.698.031v.268l.172.116.171.019.422.515.658.442.402.339.023.288-.124.306.172.548.081.567.293.901-.412.172-.65.021-.15.162-.22-.089-.539.068-.514.297-.489.403h-.566l-.638.083-.635-.056-.447-.216-.788-.234-1.051-.2-.435-.168-.363-.262-.339-.662-.05-.328.052-.314.307-.106.257-.158.036-.207.115-.146.146-.052.073-.099-.104-.337-.03-.305.611-.561.662-.477 1.175-.441.716.042 1.1-.339.353-.159.349.097.198.262zm3.21 2.168l-.303.108-.167-.372.23-.374.259-.033.127.38-.146.291zm3.06 2.274l-.053.05-.508-.486.017-.193.09-.173.205-.162.184.277.144.461-.079.226zm-5.051 5.327l-.003.263-.754.175-.253-.216-.163-.04-.449.387-.132.157-.044.119-.117.06-.827.185-.364-.185.245-.125.303-.251.305.037.305-.234.305-.357.433-.077.305-.137.503.099.402.14zm-22.63 16.812l-.044.069-.17-.023-.033-.139.098-.079.138.052.011.12zM840.675 449.766l-.212.212-.362-.01-.632.831.04-.621-.189-.242-.541.057-.103.137.363.164.08.09-.347.361.361.772.315-.027.307.604-.002.189-.701.234-.37.326-.33-.012-.155-.064-.185-.583-.015-.244.406-.427.229-.436-.185-.4-.468-.259-1.021.118-.235-.086.51-.539.554.059.597-.387 2.291.183zm.006 4.761l-.261.072.038-.47-.088-.303.441-.099.189.36-.319.44zm-62.192-71.908l.088.328.326-.234.243-.368.393-.375-.052.604.201.133 1.302.421.269.352.277.101.155-.198.185-.108.471.221 1.062.615.088.213-.054.315.052.335.145.268.353.061.47-.396.22-.049.311.563.118.317-.049-.01.204.316.269.311.464.924-.069.324-.137.293.426.857-.279.059-.838-.146.028.173.489.629.411.891.33.537 1.163 1.669-.174.594.027.393-.149.339.397.889-.248.275-.163.912-.181.16.023.332.471.089.283.141.244.271.151-.326.206-.088.56.435 1.168.436.321.162.157.352.12.85.227.375.447.071.481-.113.151-.31-.097-.833-.346-1.331-.002-.431.048-.434-.08-.429-.174-.404-.187-.31-.239-.261.084-.406.359-.183.218.343.179.415.905 1.229.535-.086.048.509.364.518.201.608.265 1.821.405 1.72.735.749.086.36-.447-.185-.137.107.046.181.414.331.487.162.307-.023.288.12 1.904 1.124.915.438 2.31.718.659.056.366-.019.691-.248.619-.446.535-.667.462-.76.502-.369.569-.29.288-.27.302-.191 1.548.088.523.383.678.308.355.24-.12.488-.405.72-.311.789-.277 1.798-.187 1.823-.281.806-.513.621-.567.455-.64.215-.261 1.042-.128 1.223.038.307.206.244.084.364-.336.737-.195-.107-.277-.615-.25-.257-.769-.191-.783-.089-.678.055-.655.263-.989.533-.307.269-.269.343-.453.767-.109.938.021.493.161.381.842.52-.835 1.819-.741 1.898-.42.543-.483.504-.456 1.147-.796.989-.537.758-.42.787-.368.838-.783 1.185-.346.786-.454.654-.844.836-.899.718-1.415.993-.395.329-.415.242-.517-.284-.103-.31-.124-.68-.113-.248-.657-.206-.872.328-.145-.07-.037-.155v-.988l.147-.277-.204-.154-.202.061-.069.253.128.218-.495.272-.517.006-.155-.107-.044-.181.126-.299.166-.263.959-1.242.997-1.644.859-1.756.223-.901.315-1.667-.258-.695-.32-.65-.863-1.25-1.152-.706-.746-.099-.705-.263-.664-.595-.605-.701-1.199-.575-1.264-.451-.72-.635-.172-.377-.113-.438.017-.406.09-.413.143-.316.224-.229 1.338-.819 1.417-.455.26.009.25-.074.355-.278.634-.636.185-.427.126-1.355.204-1.331.367-1.522.555-.941.18-.577-.225-.949.208-.347.252-.211.286-.122-.483-.888-.569-1.341-.12-.415.086-.41.139-.402-.355-.101-.206-.386-.51-1.294.139-.206.296.138.438.933.072-.48.336-.297.357-.153.382-.034-.865-1.04-.29.042-.382.166-.393.101-.384-.09-.359-.23-.185-.437-.225-.84-.14-.31-1.138-1.711.334-.055.919.857.179-.274.132-.393-.044-.438-.218-.333-.326-.215-.006-.389.248-.356-.015-.248-.527-.508-.21-.054-.095.235.152.352-.141.04-1.279-.922-.395-.741-.323-.812-.034.33.049.465.506.933.821 1.044.14.278-.121.36-.286.103-.252-.228-.376-.894-.27-.446-3.14-4.598.401-.604.622-.509.143-.226.094-.275-.262-.047-.235.127-.269.233-.246.265-.311.592-.147.137-.367-.411-.141-.252.007-.303-.099-.192-.273-.061-.401-.602-.254-.307.424-.588.01-.772-.432-.809-.517-.743-.995-1.198-.913-1.265.989-.16 1.003-.027-.472.758.214.438.319.37.689 1.137.059.328.348.333.168.255zm13.397 9.727l.046.398-.452-.141-.176-.301-.506-.312-.074-.092-.056-.604.266-.293.044-.124.118-.049.208.318.401.453.181.747zm-14.306 37.765l.678.038.632-.573.647-.465.678-.385 1.033-.882.271-.131.67-.168.292-.209.325-.048-.294.522-.369.175-.059.187.208.303-.321.423.012.529-.382.625.584-.257.216-.406-.111-.23.252-.454.392-.217-.155-.343.011-.272.48.101.238-.01.189-.108.346-.042.069.303.467-.038-.171.383-.354.445-.084.269-.569.448-.38.192.585.048.857-.6.508-.528-.015.661-.413.594-.353.374-.399.118-.397.306-.193.499.023.332.114.263.405.444-.456.859.508-.107.277.162.391.495-.235.572-.164.293-.991 1.21-.433.615-.506.394.007.646-.29.471-1.478 1.619-.259.352-1.165 2.587-.743 1.09-.426.373-.452.301-1.081.516-.479.593-.527.493-.556.111.016.219.357.122.28.325-.208.364-.397.227-.412.065-.21.234.983-.166.277.189.051.402.105.362.237.48.827.308.743.143.145.223.112.768-.135.377-.166.248-.25.089-.604.048-.607-.175-.401-.465-1.149.15-.306.099-.158-.084.637-.489-.332-.278-.277-.103-.301.162-.201.257-.059.421-.208.244-.315.07-.447-.352-.443-.501-.651-.505.101.311.499.765.25.507-.581.406-.609.316-.513.185-.482.291-.569.452-.313.16-.832.011-.445.143-.147.598-.311.381-.73.076.264.12.162.191-.483 1.806-.105.752-.09 1.288-.305 1.2-.867-.006.139.212.657.339-.124.512-.722.936-.303.541-.294 1.318-.441 1.219-.674 1.389-.006.251.237.355.288.308.017.434-.088.229-.322.059-.281.149-1.503.383-.492.43-.405.77-.475.666-1.578 1.477-.929 1.242-.186.356-.25.259-2.031.589-1.436.089-.781-.152-.754-.299-.418-.101-.798.183-.348.2-.626-.197-.495.149-.147-.145-.185-.364.103-.485-.137-.358-.315-.242-.212-.282-.241-.2-.66-.077-1.041.126-.344-.013-.708-1.185-.233-.29-.842-.377-.288.052-.451.632-.267.107-1.583.068-1.587-.205-.584-.235-.116-.546 1.206-1.496-.357.2-.744.608-.474-.093.456-.663.039-.296-.094-.329-.619.558-.706.074-.09-.518.063-.6.143-.171 1.904-.313.687-.204.3-.323-1.14-.109-.072-.45.164-.36.974-.598-.718.151-.796-.052.053-.632.208-.492.833-.015-.26-.339-.04-.472.231-.031.846.636.611.231-.258-.478.036-.301.161-.134.5-.095-.138-.084-.469-.123-.558-.362-.059-.383.021-.442.6-.608.355.362.42-.099-.321-.284-.195-.425.132-.28 1.275-1.127.325 1.085.076-.36.018-.341-.153-.297.023-.299.147-.257.546-.255.71-.825.525-.383.426.246.292.331-.044-.329-.208-.271-.057-.756.954-1.17 1.047-1.112 1.006-1.162.536-.421 1.14-.478.73.2.187-.038 1.084-.833.449-.217.409.297.252.107-.254-.762.2-.349.905-.615 1.134-.634.861-.263.634-.429.382-.011-.057-.324.065-.309.328.021.101-.122-.29-.169.934-.619.508-.684.265-.141.241-.206.298-.472.353-.155.328.073.237.232-.13-.385-.42-.219.451-.333.469-.231.455.166.448.269-.448-.412-.073-.255.544-.295.294-.09.411.551-.059-.438.097-.387.581-.633.763-1.045.243.365.04.44-.038.532.158-.183.052-.482-.117-.848.953-1.564.189-.175.21-.105.332-.043-.103-.235-.258-.228.26-.791.155-.903.221-.868.355-.846.388-1.41.296-.295.8-.101.351-.198.584-.507.69-.918.37-.739.485-1.905.273-1.985.785-1.467 1.153-1.059 1.014-.804.416-.168.701-.051.668.221-1.243.194-.128.477-.04.485.143.433.222.388.603.364.705.217.315.821.057.974.097.838.285.735zm4.71-3.244l-.79.452.034-.313.153-.684.359-.346.177-.023.361-.259-.04.573-.254.6zm-40.869 34.773l.254 1.004-.54-.191-.224-.305.411-.504.099-.004zm-1.373 3.996l-.032.414-.069.209-.206.002-.306-.046-.301-.192-.193.055-.159-.07.207-.467.7-.248.268.199.091.144zm8.241 10.274l.004.344-.615-.123.013.386.485.204.178.278.504-.08.114.414-.118.373-.336.272-.995.136-.647.541-.559-.082-.151.049-.64.581-.716.179-.195-.045.098-.517.534-.491.01-.471.137-.377.51-.265.008-.489.345-.436-.21-.936.111-.84 1.012-.046 1.119 1.441zm-11.336 34.904l.128.785-.324.003-.674-.219-.212-.335-.142-.082-.246.389-.395.019-.088-.13.155-.415.93-.783.175-.983-.013-.316.731-.074.172.12.078.135-.046.173-.296.324-.011.375.076.391-.242.19.126.336.118.097zm17.425 16.479l.326.492-.626.215-.304-.179-.215-.225-.107-.318.338.034.292-.133.296.114zM550.62 120.909l-.361.124-.17-.442.057-.514.238-.395.261-.125.051-.045.255-.512.049.282-.159.937-.208.364-.013.326zm-20.399 25.066l-.134.025-.087-.019.011-.082.089-.084.123-.037.093.029-.01.078-.085.09zM662.723 231.086l.985.309.334.343-.355.156-.861.106-.202-.21-.828-.212-.132-.382-.412.131.21-.268-.519-.304-.161-.405-.021-.164.609.189 1.353.711zm4.39-.678l-.086.322-.216-.108-.641.167-.336-.038-.193-.289-.046-.133.556.104-.092-.32.802.165.252.13zm-19.941-4.697l-.084.461-.483-.137-.099-.1.08-.291.429-.012.157.079zm1.074-3.211h.25l.418-.438.363-.133.238.2-.387 1.4-.325-.212-1.276-.391-.04-.554-.332-.179-.205-.54-.423-.599-.079-.384.239.158.269.39 1.115.802-.044.26.219.22zm-3.259-3.958l.832.48.456-.139.248.079.534.557.029.407.086.349-.027.154-.296.208.027-.237-.227-.046-.775.01-.601-.147-.828-.04.349-.369.078-.152-.435-.594-.019-.283.036-.156.363-.085.17.004zm-1.077.865l-.082.145-.345-.106-.962-.812.149-.603.433-.312.657.341.219.499.065.278-.134.57zm13.477-3.138l.342.087.712-.043.236.336.325.117.282.151.25.221-.002.135-.059.116-.152.106.045.237-.261-.035-.323.124-.639-.276-.231-.062-.07-.237-.413-.397-.725-.285.365-.233.318-.062zm-53.305-1.909l.107.257-.857-.351-.819-.588-.414-.16-.277-.388.508.288.886.271.866.671zm44.317.586l.101.419-.46-.448.206-.507.036-.275-.024-.153-.46-.262.244-.428.258-.146.162-.041-.008.604.132.27-.187.967zm-44.338-1.476l-.256.019-1.04-.397-.265-.289 1.216.065.313.073.066.405-.034.124zm26.172-15.504l-.237.044-.103-.264-.553-.229-.55-.71.008-.609.072-.175.307-.008 1.226.702.128.225-.092.667-.206.357zM677 202.98l-.143.546-.109.094-.135-.206-.512.199-.244.227-.26.166-.601-.041-.569-.15-.553-.276-.49-.356-.491-.559-.307-.577.151-.671-.191-.607-.928-.43-.204-.139-.412-.603-.41-.262-.523-.527-.132-.229-.223-.669-.071-.403.189-1.174-.069-.586.254.056.271.231.307.16.745.108.57.467.548.912.065.3.175.216.563.388.294.25.556.995.307.212.366.085.338.143.565.437.521.494.351.52.269.556.172.703zm-51.775-7.31l-.33.033-.538-.552-.136-.206.052-.289.685-.386.443.353.093.756-.269.291zm44.048.004l-.118.046-.256-.736-.044-.544-.078-.401-.134-.239.386-.44.16-.123.292.233.044.517.223.438-.17.958-.305.291zm-50.87-4.108l-.395.173-.283-.131-.122-.382.097-.368.346-.291.219-.087.246.197.094.391-.202.498zm34.765-2.495l.307.116.882-.606.473.424.603.205.626.117-.248.872.073.403.162.401-.021.593-.288.527-.552.771-.248.141-.29.084-.903.062-.175.409.059.434.488.57.39.64-.388.588-.641.411-.607.21-1.006-.125-1.061.052-.2.225-.004.372-.149.282-.194.258-.538.534-.602.471-.822.447-.275.106-.729.071-.653.257-.292.252-.318.203-.693.223-.674.44-.267.075-1.401.077-2.005.021-.592.045-.576-.06-.317-.172-.681-.792-.592-.272-.647.008-.861.281-.162-.063-1.719-1.169-.521-.287-.556-.212-.679-.15-.641-.234-.378-.557.044-.725.515-.426.784.209.3-.002.294-.12.347.039.349.106 1.27-.158.736.221.716.295.668.062.687-.062.92-.333.292.044.887.002.775-.445.29-1.793.198-.611.264-.133.189.038.284.305-.363.38-.16.293-.053.715.2.694.454.551.68.07.624-.363.679-.077.626.353.643-.06.294-.231.342-.099.341-.038.309-.137.409-.601.273-.675.408-.532 1.111-.887.322-.11.346-.06.782.039.582-.316.044-.71-.084-.721-.664-1.694-.044-.268.094-.301.194-.27.653-.004.681.097.269.256.302.214zm10.28-1.147l-.053.137-.347-.158.286-.297.137-.021-.023.339zm-5.828-5.606l-.143.509-.361-.299-.246-.43.155-.191.406-.114.189.525zm-3.37-1.078l-.063.293-.185-.017-.506-.573-.099-.15.12-.143.588.422.145.168zm-.836-.682h-.141l-.021-.463.097-.243.327.17.055.414-.317.122zm-46.198 5.716l.744.017.746-.089.307.039.302.092.275.174.139.335.464.465.656.21.624.422.561.502.411.507.469.428.708.181.746.029 2.55 2.546.124.392.029 1.671-.281 1.305.634.401.866.149 1.214.279 1.168.415 3.721 1.762.51.15.75.058.757-.025.271.089.567.32.284.21.508.57.454.619.195.176.229.137.132.337.177 1.039-.053.648-.208.241-.594.117-2.084.11-1.395-.121-.977.655-.027.286.069.266.849 1.39.5 1.235.414.5.619.408.553.482.508.554 1.057.967.574.359.674.22 1.122.75.149.331.319 1.043.139.708.021.293.08.262.987.644.219.179.439 1.429.338.665.569.235.662-.014 1.801-.426.26-.015.334.098.292.232.097.645-.284.677-.078.65.355.534.918.416.336.114 1.652.133.649.112.636.181.219.162-.153.287-.332.141-.378.056-.608.208.011.37.342.384.313.464.263.168.286.114.714.16.695.22.458.219.473.157 1.029.1.757.297 1.075-.124-.93.482-.322.118-1.124-.181-.212.187.464.511.687.343.246.2-.172.232-.8.468-.335.069-.624.037-1.046-.202-.741-.257-.208-.351-.198-.206-.668-.495-.477-.27-.605-.091-.632.004-1.13-.287-2.452-.203-.584-.125-.735-.395-.347-.056-.372.125-.947.077-.278-.036-.676-.336-.696-.125-.291.102-.295.023-.951-.241-.717-.102-.588-.337-.319-.313-.362-.279-.334-.717-.519-.679-.647-.559-1.382-.902-.277-.224-.542-.825.029-.549.198-.552-.299.189-.336-.025-.941-.366-.389-.434-.628-1.18-.401-.624-.939-1.101-.271-.652-.395-.572-.242-.212-.201-.245-.179-.318-.267-.22-1.311-.488-.229-.154-.254-.081-.975-.05-.565-.081-1.063-.401-.55-.12-.66-.077-.641-.152-.311-.15-.21-.251-.124-.596-.537.064-.526-.104-.508-.21-.519-.126-.355.18-.109.476-.164.025-.305-.098-.151.059-.33.218-.262.297-.488-.046-.998-.299-.445-.187-.378-.339-.324-.384-.327-.303-.404-.221.513.524 1.183 2.304-.297.044-.304-.058.279.442-.321.067-.32-.004-.672-.192-.668-.064-.197.094.14.166.236.49.187.513-.967.231-.991.141-1.103.277-1.116.018-.571-.158-.586-.089-.555.089-.536.202-.452-.033-.285-.362-.133-.272-.17-.237-.422.037-.408.129.698.015.21.303.181.366.493.332.595-.197 1.309.054 1.271.58.302.066.278.114.655.572.494.519.416.595.088.232-.03.624-.126.309-.821.439-.876.332-1.292.646-1.25.736-.658-.144-.592-.39-.229-.106-.611-.212-.372-.077-1.479.166-1.481.085-.626-.006-.605-.125-.666-.23-.66.102-.452.27-.493.041-.925-.602-.002-.077v-3.574l-.002-1.19v-4.757l-.002-1.188v-2.163l-.328-.38-.336-.584.071-.75.408-.927.183-.619v-2.874l-.002-1.184V192.198l-.002-1.182V186.295l-.003-1.18v-2.36l-.002-1.178V179.274l.177.002.597.007.479.095 2.953 1.259.883.505.302.119.296.004.284.058 1.332.696 1.989.702 2.101.674.651.141.675.058 1.462.233.771.207 1.128.825.57.256.533.465.754.501.299.127.327.066zm52.143 5.467l-.437.443-.271-.414-.349-.361-.275-.37-.351-.798-.016-.401.092-.426.021-.43-.168-.873-.412-.796-1.43-1.897-.45-.496-.515-.445-.329-.108-.666-.106-.297-.089-.55-.31-.511-.359-1.266-1.07-.669-.304-.352-.374-1.994-1.205-.582-.285h-.71l-.599-.236.475-.15.099-.403-.105-.409 1.002.669 1.056.584.307.471.521.029.948.391.651.351.613.405.692.58 1.331.455.19.166.674.756.884.642.303.354 3.75 3.04.634.851.049.582-.124.229-.395.492.006.582-.132.521-.343.522zm-14.912-12.159l-1.176.079-.422-.088-.378-.334-.343-.522-.344-.122-.139-.102.832-.399.737-.12 1.191.498.122.25.011.162-.034.53-.057.168zm-15.092-2.194l-.191.305-.445-.027-.198-.089.322-.058.13-.252.138-.089.244.21zm-4.773-1.872l1.966.376.131-.004-.023-.136.033-.037.118.098-.038.274-.309.069-.29-.027-.206.143-.563.53-.378-.088-.462.119-.811.01-1.053-.232-.289.197-.374-.054-.372.216-.154-.01-.09-.316.006-.162.442-.135-.066-.497.355-.249.614.021.571-.169 1.242.063zm15.91-2.361l-.015.21-.424-.106-.118.033-.74-.606.013-.37.195-.316.307.05.544.397.238.708zM863.681 243l.673.649.271.86-.292.822-.637-.202-.927.175-.308-.06-.74-1.008-.515-.453-.206-.426.654.048.957-.283 1.07-.122zm5.295 3.995l-1.651.005-.817-.311-.29-.003-.699-.651-.107-.343.367-.225.761-.117 1.531.496.232.44.352.048.274.192.071.309-.024.16zM685.774 206.257l.189.208-.46.353-.607-.191-.134-.2-.015-.105-.424.068-.842-.175-1.176-.844-1.243-1.59-1.195-.88-.222-.273-.03-.454.161-.174.743.189.961.727 1.576.754.429.384.273.922.268.275.851.708.449.166.238.031.21.101zm-9.807-1.375l-.598.14-.369-.189.163-.449.204-.233.749.413-.149.318zm24.05 8.493l.011.137-.8-.494-.607-.605-1.729-.657-.371-.338-.312-.042-.887-.551-.872-.371-.531-.479-.135-.196-.319-.117-.547-.525-.532-.349-.189-.636-.514-.437-.129-.191 1.648.353.764.697.654.395.227.285.587.393.529.036.528.395.482.105.379.205 2.451 1.763-.293.468.325.34.182.416zm-19.002-3.617l-.114.082-.2-.319-.144-.099.004-.355-.6-.577-.049-.399.348-.391.469.227.464.491.546.16-.113.326-.49.586-.121.268zm2.884 1.095l-.132.088-.649-.034-.493-.611.005-.452.388-.413.469-.074.257.16.237.346.087.441-.053.391-.116.158zm-3.385.376l-.072.147-.31-.731.015-.368.053-.235.115-.071.25.812-.051.446zm6.907.418l.373.483.431 1.079-.079.372-.307.021-.087.233-.416-.525-.556-.141-.405-.321-.138-.636-.041-.402-.318-.069-.912.101-.291.342-.416-.109-.089-.309.064-.302.556-.298.114-.385.552-.659.341-.114.646.238.078.938.231.307.669.156zm17.78.424l1.476 1.764-.057.313-.201.202-.058.592.187.227.403.105.685.632.274.775.026.237.286.351.011.741.651 1.029.057.496-.059.223-.272-.13-.778-1.168-.891-.504-.102-.217-.9-.68-.602-1.145-.654-2.033.308-.481-.737-.985.036-.262.31.061.217-.013.104-.118.28-.012zm-6.323 1.149l-.284.079-.423-.218-.182-.197.087-.309.246-.118.28.208.03.212.246.343zm-13.687 1.218v.086l-.329-.166-.724-.8.13-.267.664-.519.204-.069.186.321-.161.475-.218.12-.09.445.338.374zm4.281-.175l-.585.469-.429-.158-.346-.401.115-.483.064-.128.171-.027.172-.099.187-.214.639.17.157.117-.38.297.127.094.083.141.025.222zm.552.815l-.134.023-.138-.235.325-.638.157.514.102.194-.312.142zm-3.308-.371l-.013.208-.341-.066-.76-.312-.027-.143.433-.053.314.04.263.183.131.143zm9.189 2.161l-.078.015-.28-.074-.34-.023-.208-.206.247-.294.309-.191.142.048.134.124.312.046.034.378-.272.177zm5.833-.761l.344.085.165-.013.393.319.524.471-.214.243-.427-.126-.142.051-.045-.034-.089-.235-.464-.233-.416-.019-.053-.277.424-.232zm-2.487 1.645l1.312.954.564-.089 1.723.017 1.016.681.596.313.336.609.413.138.255.311.146.567-.104.093-.526.212-.382.088-.999-.202-.955-.437-1.899-.052-.885-.124-.305-.166-.282-.223-.446-.529-.348-.622-.057-.365-.03-.693.108-.254.363-.252.386.025zm10.702 2.096l.066.636-.029.219-.452-.466-.213.166-.197-.221.015-.483.032-.515-.089-.39-.225-.563.252.09.84 1.527zm1 4.528l.749.351.437-.059.647.242.49-.137.308.311.774 1.216.007.395.507.281-.429.053-.596-.145-.463.099-.483-.235-.815-.122-.709-.284-1.481-.897.009-.447-.24-.218-.07-.555-.531-.174-.619-.034-.049-.262.115-.465.462.007.556.193 1.061.676.263.116.1.094zm26.305 2.208l-.475.103-.151-.03-.356.055-.384.43-.283-.061-.22.017-.168-.353-.004-.172.271.027.143-.344.292-.172.684-.08.606.113.217.078-.191.311.019.078zm-33.091 6.21l-.413.206-.38-.103-.289-.155-.233-.46-.505-.288-.719-.12-.295-.199-.077-.099-.498-.088-.142-.25.042-.258.081-.137.46.126 2.213 1.214.526.376.229.235zM742 232l-.526.097-.21-.023-.348-.517.259-.117.386.044.117.304.322.212zM853.822 275.433l-.21.345-.101-.004-.243-.201-.089-.134.372-.407.192-.032.257.137-.012.115-.166.181zm-6.709 14.896h.08l.087-.174.298-.064-.033.189-.404.611-.253-.238-.74-.391-.148-.302.245-.228-.026.185.125.083.417.032.372.164-.231.054.211.079zm1.383.778l-.032.893-.271-.409-.031-.19.275-.276.059-.018zM745.427 245.224l-.082.06-.131-.047-.333-.749.084-.249.42-.239.374.415.036.23-.004.196-.056.17-.249.071-.059.142zm.541 2.187l-.235.314-.635-.103-.151-.084.042-.521.159-.178.38-.161.52.256-.08.477zm-4.729 3.508l.364 2.054.422-.005.215-.109.249-.482.112-.755.219-.108.277.082-.12.241.08.604.213.336.141.06.285 1.581.106.331-.006.267-.596.591-.886-.017-.625.355-.379-.024.002-.4-.338-.318-.381-.682.094-1.211-.681-2.243-.006-.561.233-.732.227-.034.309.611.47.568zm8.137 3.116l-.098.385-.233-.447-.149-1.88.061-.174.122-.013.285 1.307.012.822zm-1.568.667l-.378.286-.699-.028-.259-.162.858-.868.992-.179-.514.951zm1.701 3.331l-.094.006-.097-.286-.317-1.527.209-1.363.13.288.476 2.394-.064.391-.243.097zm-5.604-1.536l-.103.162-.598-.405.136-.389.651.14-.086.492zm1.093 2.319l.259.135h.14l.085.304.807.606.221-.017.187.331.347.168.095.337.247.345-.432.417-.838-.112-.478.473-.434-.12-.076-.25.06-.084-.259-.634-.116-.968-.175-.57-.191-.243-.39.213-.158.037-.378-.467.179-.949.094-.271.304-.051.462.249.438 1.121zm4.983 1.503l-.645.065-.906-.196-.365-.271-.157-.271.313-.202.45-.095.561-.621.195.236.209.697.225.211.126.211-.006.236zm.846 2.768l.168.093-.094.26-.773-.297-.625.116-.175-.013-.185-.239-.136-.475.062-.331.261-.232.099-.037.197.286.178.196.173.084.394.466.456.123zm-.006 4.794l.56.897.223.071-.339.643-.707.056-.834-.166.305-.222-.159-.249-.251-.049-.289.118-.132-.041.184-.413.463-.583.136-.045.125-.006.122.051.593-.062zm5.011 8.83l-.261.308-.227-.034-1.47-.71.062-.293-.06-.746.161-.404.405-.166.316.086.193.596.439.243-.307.204.536.45.213.466zm.884 3.814l-.297.692-.514-.161-.48-.501-.252-.437.169-.837.245-.146.257.047.131.818.741.525zm2.284 4.122l-.199.353-.305-.004-.392-.25.074-.312.446-.056.129.022.247.247z" fill="#27AE60"/></svg>