<svg width="1261" height="657" fill="none" xmlns="http://www.w3.org/2000/svg"><path fill="#276F86" d="M0 0h1261v657H0z"/><g clip-path="url(#clip0)" fill="#27AE60"><path d="M505.763 143.454l.047-.057.411.537.253.498.544.265.558.42.51.474.427.12.407.484.531.109.103-.009-.161.535-.367.553.553.368.512-.097.156-.587.006-.522-.056-.046-.102-.564-.201-.504.006-.52-.252-.5-.459-.48-.526-.057.213-.54.503-.201.498-.252.55-.257.471-.563.475-.511.419-.558.55-.256.48-.46.058-.525.363-.605.057-.527.363-.605.546-.308.48-.46.202-.07.507-.149.521.006.206-.019.504-.2.264-.545.058-.526-.309-.545-.521-.006.264-.545.109-.53.161-.534.072-.371.001-.574.213-.539-.578-.054-.489.357.48-.46.161-.535.503-.201-.046-.517.002-.573-.046-.517.471-.562.484-.408.537-.412.173.194-.023-.259.02-.367.493-.304.541-.36.363-.605.476-.511.419-.558.047-.057.582.106.53.108.53.11.531.11.525.057.564-.103.508-.148.051-.005.005.052-.555.205-.563.102-.212-.034-.034.213.149.507-.52-.006-.264.544.538.213.11-.53.356.489.103-.009.499-.253.156-.587.17-.432.166-.483.047-.056.259-.596-.149-.508.058-.526.419-.558.507-.149.512-.097.535.16.535.161 1.085-.096.564-.101.309-.028.512-.098.564-.102.503-.2.489-.356.415-.61.484-.407.489-.357.541-.36.184-.277.239-.229.486-.408.149-.065.504-.201.55-.257.498-.252.554-.206.485-.407.489-.357.264-.543.213-.541.105-.582-.201-.503.508-.149.507-.148.315.023-.157.587.493-.303.162-.536.058-.526.53.109.471-.562.512-.098-.521-.005.554-.206.512-.097.587.156.529.109.536.161.538.212.057.047.304.494.356.49.101.564-.479.459-.489.356-.27.492-.311.601-.488.356-.508.149-.555.205-.507.149-.503.202-.55.257-.503.201-.156.586.149.507.201.504.36.541.407.484.562.471.535.162-.508.149-.14.168.355.49.201.503.005.052.294.391.108.042.108.042.304.495-.109.53.005.052-.105.581-.081.268-.531.464-.419.557-.214.541-.131.271-.047.057-.532.463-.213.54-.085.217-.259.596-.368.552.253.499.51.475.356.49.097.512.535.161.548.316.005.052.474.062.045.517-.531.463.31-.027.154.559.609.415.474.062.559-.154.499-.252.502-.2.4-.193.381-.398.085-.216.42-.558.493-.303.033-.212-.148-.508-.014-.155-.149-.508.165-.483.006-.521-.2-.504-.042-.465-.116-.145-.563-.472-.272-.132-.205-.554-.408-.485-.163-.09-.108-.042-.108-.043-.295-.39-.225-.188-.412-.537-.018-.207-.309-.546-.229-.239.057-.527-.05-.568-.22-.136-.066-.151-.051.005.559-.154.316-.549.14-.168-.591-.209.55-.256.522.005.352-.136.494-.303.493-.305.546-.309.489-.356.541-.359.502-.201.504-.202.511-.097.512-.098.495-.303.554-.206.498-.252.503-.201.447-.248.053-.578.53.11-.304-.495-.127-.249.541.213.366.02.276.184.272.132.581.104.49-.355-.097-.513-.201-.503-.535-.161-.503.202-.356.082-.509.15-.451.197-.149.064-.259.023-.045-.517.024-.314-.169-.141-.412-.536.057-.526.213-.54.11-.53.554-.206.485-.408.3-.131.591.208.408.485.256.55.098.513.101.564.305.494.201.503.36.541.557.419.494-.304.564-.103.521.007.494-.305.525.058.526.057.591.209.517-.046.511-.098.362-.032.609.415.522.006.605.363.543.264.596.261.463.531.113.095.308.545.202.502-.264.545.153.56.122.197.308.546.004.051.563.472.525.057.517-.046.578.054.465-.041.497-.252.513-.099.563-.101.15-.065.509-.15.559-.153.31-.028.511-.098.563-.102.509-.148.55-.257.563-.103.512-.097.512-.097.564-.103.563-.102.516-.046.512-.097.573.001.521.006.094-.113.56-.153.534.161.531.109-.264.545.225.188.548.316.165.09.548.315.567.523.578.053-.601-.312.582.105.53.11.535.16.525.058.531.109.572.002.526.057.521.006.587.156-.47-.01.536.161.502-.201.55-.257.573.002.508-.15.273-.441.48-.458.559-.155.15-.064.517-.046.489-.357-.521-.006.527-.515.503-.2.498-.253.545-.309.536.161.511-.097.573.001.517-.046.498-.253-.548-.316-.526-.056-.587-.157-.516.046-.559.153-.503.202-.554-.368.555-.206.578.053.498-.253.526.058.511-.098.532-.463.539.212.578.053.521.006.503-.201.512-.096.559-.154.512-.098.489-.355.578.052.516-.046.526.058.502-.201.559-.154.513-.097.521.006.516-.046.578.053.521.006.525.057.564-.101.513-.098.511-.098.564-.101.507-.149-.414.61-.559.153-.513.097-.572-.001-.499.252-.527.516-.521-.006-.516.046-.578-.053-.521-.006-.512.097-.559.154-.507.15-.48.458.489-.355.512-.098.098.513-.508.149-.508.149-.006.521.265-.544.53.109.554-.205.563.471.304.494.256.55-.475.51-.517.046-.512.098-.591-.209-.408.089.562.471.061.099.051-.005.494-.304.277.184.155-.014.489-.355.55-.258.006-.521.498-.252.407.484.253.498.07.203.036.413.553.368.304.494-.019.366.051-.005.005.052.061.099.311-.601.109-.53-.149-.507.511.475.097.512.102.564-.222.437.202-.071.11-.53-.102-.564-.149-.508.577.053.423.067-.554-.368h-.572l-.239-.345.568-.05.578.054.548.316.558.42.51.475-.052.577.014.156.207-.592.263.029.201.504.027.31.002-.573-.464-.533.55-.257.526.058.361-.032-.459-.481.568-.05.549.316.356.489.557.42.605.363.319.076.108.043.517-.046.563-.103.54.214.554.367.561.471.149.508-.488.355-.49.356-.541.361-.094.112-.316.549.476-.511.153.559-.532.465-.085.215-.019.366.061.099-.26.596-.213.54.046.517-.555.205-.525-.058-.517.046-.559.154-.535-.161-.31.027-.085.216.591.208.527.058.548.316.525.058.592.208.475-.511.564-.103.097.513.471-.563.522-.566.155-.014.564-.103.507-.149.531.11.582.104.525.058.16.037.282-.336.485-.409.573.002.521.006.535.161.535.161.211.033.056.048.562.471.459.479.432.171.535.161.591.207.54.213.552.368.221.136-.562-.47-.536-.161-.6-.311-.544-.265.512-.097.545.263.596.26.539.213.544.264.544.265.596.259.544.264.51.477.277.183.609.414.558.419.562.471.356.49.535.161.408.484.51.477.412.536-.058.525.097.513.014.155-.006.522-.17.431-.316.549-.156.586.05.569-.058.526-.006.521.037.414-.265.544-.099.061.009.104.499-.253.127-.324.002-.573.006-.522.211-.539.312-.601.476-.511.508-.149.267.081.544.264.169.141.512-.097.526.057.605.363.117.147.553.367.614.467 1.107.735.252.499.355.488.541-.36.54.213.548.316.563.471.304.494.036.413.056.047.098.512-.054.578-.109.531.096.512-.053.577-.315.549-.005-.051.49-.356.105-.583.005-.521.105-.582.212-.54.02-.365.3-.132.043-.108.559-.154.522.006.525.059.573.001.582.105.409-.088.526.057.53.109.578.053.53.109.531.11.535.161.582.104.539.213.05.568.133-.272-.206-.555.029-.262-.041-.466.489-.355.517-.046.507-.149.573.001.573.002.521.005.526.058.536.161.168.141.409-.088.303.494.279-.39.586.157.315.024.564-.102-.376-.123-.512.097-.535-.161-.61-.414.509-.15.878-.077.521.006.522.005.576.053.418.016.531.109.526.057.573.002.525.057.527.058.525.057.54.213.605.363-.059.526-.16.535.046.518-.415.609-.265.544.104-.009.48-.46.133-.272.26-.596-.046-.516.213-.54.549-.257.419.015.524.058.6.311.541.212.605.364.159.037.531.11.582.104.582.105.521.006.315.024.591.208.244-.178.601.312.614.466.458.48.558.42.51.475.606.363.542.265.357.489.109.042.089-.164.54.213-.26.596-.161.535.142-.169.165-.483.498-.252.459.479.544.265.516.527.2.504.149.507.046.517-.527.515.249-.126.489-.356-.1-1.137.161-.534.544.263.356.489.149.508.46.48-.059.526.412.537-.001.573-.11.53.423-.506.317-.549.309.546.303.494.361.541-.257-.551-.309-.545-.206-.555-.251-.498.155-.587.605.363.554.368.614.466.463.532.305.494.096.512.055.62-.058.526.102.564.015-.418.057-.526.359-.657.102.564.097.512-.001.574.045.516.102.564.046.517.101.564.258.55.05.569.256.55.361.541.253.498.149.508.355.489.257.55.05.569.408.485.154.559.252.498.257.551-.363.605.451-.197.567.523.361.541.355.489.554.368.517-.046.572.002.578.053.582.104.539.213.221.137.407.484.2.504.108.615-.008.522-.155.586-.545.309-.254.074-.498.253.262.029.513-.098.619-.055-.058.526-.484.408-.151.065-.471.563-.532.464-.493.304-.213.54-.471.562-.485.408-.259.596-.53 1.088-.518.619-.413.61-.499.252-.563.102-.533.464-.362.605-.179.329-.292.234-.551.257-.338.29-.358.657-.156.587-.472.562-.311.601-.475.511-.416.61-.366.553-.054.578.051.568-.105.582-.523.567-.502.201-.142.169.102.564-.209.591-.483.408-.578-.053-.554-.368-.54.361-.555.205-.541.36-.55.258-.507.149-.504.201-.037.159.009.103.155-.013.559-.154.569-.05.572.001.504-.201.511-.097.357.489-.11.53.532-.463.512-.098.512-.097.545-.309.541-.36.49-.356.536-.412.151-.066.507-.149.55-.257.472-.563.568-.05.484-.408.419-.557.494-.305.54-.36.054-.578.512-.097.634.1-.001.573.097.512.102.564-.106.582-.005.522.205.554.304.494.567.523.154.559-.212.54.224.188.456-.144.545.264.585.157.258.55.502-.201.494-.304.564-.102.555-.206.507-.149.32.076.548.316.154.559.159.611-.05-.568.367-.554.559-.153.559-.154.536-.412.49-.356.516-.046.54.213-.315.549-.208.591-.265.544-.006.522-.255.647-.213.54.206.555.096.512-.211.539.06.099.056.047.231-.333.109-.53.106-.582.264-.545.311-.6.105-.582.161-.535.367-.554.499-.252.507-.15.504-.201.362-.605.315-.549.468-.614.466-.615.568-.05.234.292.464.532.557.419-.096-.512.053-.578.521.006.508-.149.568-.05-.483-.166-.568.05-.513.098-.543-.265.058-.525.502-.201.513-.098.109-.53-.056-.047.316-.549-.361-.541.058-.526.363-.605.503-.201.312-.601.494-.304.558.419.48-.459.493-.304.539.213.24.343.527-.515.53.109.257.55.568-.05-.458-.48.311-.601-.001.573.531-.464.147-.117.591.208-.105.582.563-.102.102.564.368-.553.355.489.48-.459.206.555-.11.53.311-.6.541-.361-.053.578.526.058.2.503.157-.587.597.259-.467.615.549.316.576.053.573.001.521.006.536.161.058-.526.484-.408-.212.54.046.517-.161.535.55-.257.521.006-.057.526.343-.239.419-.558-.162.535.304.494.546-.309-.058.526.508-.149.536-.412.15.508-.002.573.517-.046.475-.511.464.532.48-.459-.419.558-.212.539.406.485-.045-.517.486-.407.259-.596.257.55-.316.549.097.512-.001.573-.057.526.571.001.27-.492-.149-.508.47-.563.569-.05.526.058.05.568.216.085-.014-.155.213-.54.494-.304-.266.545.15.507.54.213.36.541-.16.535.526.057.54-.36-.212.54.559-.154-.109.531.53.109.102.564-.368.553-.212.54-.531.464-.504.2.549.316.149.508-.045-.517.471-.562.471-.563.526.058.303.494.15.507-.363.605-.559.154-.316.549-.428.454.512-.097-.316.549-.156.587-.006.521-.213.54-.057.526.407.484-.471.563-.48.459-.006.521.16.038.098-.06.007-.522.502-.201.42-.558.475-.511.532-.463.161-.535.109-.531.001-.573.161-.535-.045-.517.404-.14.132-.272.512-.097.545-.309.531.109-.006.521-.419.558-.466.615-.555.205-.057.526.558-.154-.058.526.395-.243.503-.201-.013-.155.109-.53.475-.511.527.057.48-.459.48-.459.582.104.531.11.161-.535.548.315-.009-.103.212-.54.563-.102.531.11.526.057.596.26.54.213.586.156.544.264.535.161.605.363.554.368.52.006.408.485.535.16.508-.149.501.373.578.053 1.059.218.138-.22-.511-.476.521.006.587.156.052-.004.543.264.459.48.104-.009.535.161.578.053.516-.046.554.368.608.415-.032-.362-.101-.564.522.006.521.006.568-.051.522.006.564-.102.266.081.508-.149.568-.051.513-.097.559-.154.53.109.573.002.577.053.539.212.306-.079.526.058.493.268.548.317.558.419.539.212.604.364.55.315.544.265.54.212.605.363.557.42.558.419.527.058.509.475.408.485.601.311.557.42.554.367.539.213.596.26.252.498.407.485.549.316.712.979.463.531.51.476.553.368.516.527.585.157.136.352.309.546.562.471.535.161.536.16.591.209.557.419.206.555.13.301.554.367.259-.023.525.058.526.057.554.368.514.527.54.213.671-.059.522.005.573.002.53.109.527.057.521.006.558-.153.513-.098.525.058.536.161.581.104.588.157.53.109.6.311.394.33.304.494.2.503.308.546.309.545.149.508.206.555.05.568.122.198.154.559.256.55-.001.573.046.517-.156.587.6.311.046.517.355.489.155 1.757.118.146-.001.573.154.56.308.545-.053.578-.265.544.532-.464.046.517.2.503-.057.526-.006.522-.053.577-.006.522-.517.045-.094.113.534.161-.26.596-.104.582-.015.418.408.485-.002.573-.312.6-.112-.094-.038.16.004.051.109.043-.161.535-.208.591-.005.522-.49.356.102.564-.213.539-.211.54-.11.53-.311.601-.11.53-.042.108-.363.605-.311.601-.316.549-.419.558-.49.356-.419.558-.366.553-.537.412-.317.549-.168-.141-.445-.325-.053.577-.591-.208.407.485.31-.028-.471.563-.419.558-.414.61-.368.553-.531.464-.489.356-.467.614-.311.6-.419.558-.353.136-.508.149-.544.309-.499.252-.541.361-.489.356-.523.567-.503.201-.097-.513-.553-.367-.034.211.023.258.061.099.496.321-.157.587-.225.384-.503.201-.595-.26.13.301.61.415-.26.596-.467.614-.212.54-.572-.002.264-.544.156-.587-.26.596-.531.464.308.546-.494.304.206-.018.554-.206-.418.558-.26.596-.212.54-.185.277-.221.436-.212.54-.265.544-.264.544-.418.558-.363.605-.42.558-.47.563-.213.539-.367.554-.486.407-.465.615-.477.511-.474.51-.504.201-.582-.104.157-.587-.046-.517-.257-.55-.544-.264-.559-.42-.207.592-.161.535-.512.097-.412-.536.127.249.304.494.055.047.526.058.046.516-.363.605-.051.005-.494.304.463.532-.546.309-.367.553.051.569-.544-.265-.11.531-.16.535-.054.578.009.103.108-.53.528.057-.002.573.098.512-.477.511-.562-.471.464.532-.058.526.201.503.252.499-.316.549.476-.511.311-.601-.054.578-.057.526-.213.539-.162.536.076.253-.161.535-.11.531-.057.526-.208.591-.006.522.153.559.097.512.098.512.046.517-.058.526-.006.522.051.568.101.564.046.517.096.512.11 1.24.253.499.154.559-.174.38-.213.539-.161.536-.058.526-.312.6-.005.522-.316.549-.11.53-.104.582-.11.531-.212.539-.058.527v.573l-.162.535-.109.53-.26.596-.006.522-.001.573.097.512-.006.521-.001.573.253.498-.213.54-.475.511-.532.464-.507.149-.472.563-.367.554-.278.389-.316.548-.157.587-.165.484-.161.535-.105.583-.057.526-.054.577-.005.522-.002.572.187 2.12-.005.522-.006.521-.208.591-.264.544-.265.544-.151.066-.502.2-.494.305-.048.057-.315.548-.212.54-.368.554-.033.211-.109.531-.161.534-.316.55-.775.069.407.485-.211.54-.318.549-.31.599-.49.356-.471.564-.498.253-.503.201-.471.562-.001.573-.213.54-.522.568-.212.539.004.052-.059.526-.367.553-.207.591.303.496-.062.472-.002.574.05.568.151.508-.109.532-.5.252-.546.308-.497.253-.507.149-.509.149-.558.155-.508.149-.498.253-.49.356-.527.515-.472.562-.479.46-.058.525.149.508.544.266-.55.257-.418.557.102.564-.436-.222-.578-.053-.525-.058-.522-.005-.578-.054-.521-.005-.516.046-.254.073-.517.046-.522-.004-.568.05-.53-.111-.515-.527.137-.22.26-.595.264-.546-.512.098-.507.15-.485.408.303.494.01.103.267.081.061.098-.213.54-.507.151-1.085.096-.499.252-.582-.104-1.601.142-.503.2.171-.432.516-.046.535.162.517-.046.559-.155-.114-.094-.548-.316-.553-.368-.517.046-.512.098-.49.355-.544.31-.545-.266-.549-.316-.54.362-.509.148-.511.098-.528.514.357.491-.059.525.495-.303.05.568-.508.15-.512.097-.047.056-.564.102-.544-.265-.486.409-.522.566-.498.253-.536.412-.507.149-.494.304.149.508-.058.527-.512.097-.544-.265-.582-.104-.578-.054-.526-.058-.512.097-.551.258-.502.201-.48.459.503-.201-.467.614-.498.252.085-.216-.201-.503-.521-.006.01.105-.129.323.114.095.065.151-.508.148-.996.505-.541.361-.498.252-.542.362-.47.562-.265.545-.54.361-.481.459-.493.303-.495.305-.051.004-.55.258-.503.2-.442.3-.536.412-.485.408-.471.561-.367.554-.146.118.521.006-.16.535-.486.408-.098.061-.368.553-.485.407-.419.559.058-.527.316-.548-.512.096-.526-.058-.586-.156.045.517-.053.577-.512.098-.517.046-.549-.316.051.568.535.162.516-.046.346.386.532.109-.473.562-.263.545-.264.545-.578-.054-.499.252.527.059.53.109-.161.535-.127.325.097.512-.26.596-.508.149-.201-.503-.252-.498.097.512.149.507-.057.527.553.367.109.042.294.391-.212.539-.208.592-.02.367.098.512.544.265-.316.548.045.518.257.551-.212.539.515.528-.499.252.046.516.154.559-.418.558.251.499-.207.592.097.513.201.502.101.564-.264.545.097.513-.208.591-.109.531-.212.539-.209.591-.16.536-.276-.184-.009-.104-.357-.488.206.554.032.361.201.503-.489.357-.499.253-.485.407-.489.356-.536.412-.48.46-.481.459-.471.562-.466.614-.419.558-.316.551-.141.168-.419.558-.316.548-.316.55-.26.596-.212.54-.278.389-.213.54-.161.535-.169.432-.213.541-.156.586-.161.535-.213.539-.264.545-.311.601-.368.554-.264.544-.363.605-.367.554-.091.165-.264.544-.42.557-.418.558-.47.564-.467.615-.476.509-.532.464-.475.511-.532.463-.48.459-.49.357-.493.303-.494.305-.495.304-.47.562-.367.553-.472.563.161-.535-.046-.517.053-.577-.303-.494.512-.097.554.367.522-.568.522.006.48-.459.418-.558.54-.361.008-.522.524.059.541-.362.369-.553.103-.582.007-.521-.051-.569.489-.356.559-.154.11-.531.161-.535.541-.361.498-.253.265-.543.104-.583-.096-1.085.162-.537.552.368-.018-.206.162-.535-.102-.564-.591-.209-.368.555-.498.253-.531-.111-.419.559-.2-.504-.408-.485-.54-.212-.256-.55-.046-.517-.4.191-.005.523.201.503.463.532.205.555-.48.459-.161.534-.109.531.097.512-.053.578-.046-.517-.356-.489-.11.53.051.569-.006.522-.549.257-.006.521.149.508-.555.205-.484.408-.001.573-.513.097-.319-.075-.494.303-.528.515-.108.531-.002.573-.212.54-.48.459-.476.511-.16.535.566.522-.536.413.356.489.522.006-.006.521-.485.409-.471.563-.213.539-.26.596-.16.535-.161.536-.105.582-.321 1.069-.261.596-.265.545-.264.545-.363.605-.475.51-.527.516-.48.459-.481.459-.47.563-.481.459-.536.412-.476.51-.156.587-.111.531-.108.531-.471.562-.523.567-.16.537-.11.53-.493.304-.541.361-.471.562-.316.549-.522-.005-.096-.514-.486.41.051.567-.494.304-.545.309-.4.191-.503.201-.49.357-.554.206-.531-.11-.487-.217-.512.097-.521-.006-.51-.475-.418-.016-.521-.006-.531-.109-.512.098-.508.149-.55.257-.489.356-.104.01-.55.256-.53-.109-.536-.161-.096-.512-.161-.038-.53-.11-.577-.052-.535-.161-.531-.109-.59-.209-.465-.531-.562-.471-.544-.266-.314-.022-.513.096h-.573l-.512.096h-.573l-.554.205-.508.149-.065-.151-.233-.291-.305-.495-.463-.532-.562-.471-.601-.311-.412-.537-.51-.476-.252-.499-.132-.301-.137-1.55.109-.53.059-.526-.088-.409.264-.545-.097-.513.311-.6.522.006.489-.356.161-.536.105-.582-.459-.48-.149-.507-.05-.569-.15-.507-.201-.505-.079-.305-.067.422.05.569.098.512.149.507.101.564.202.503-.002.574-.316.549-.572-.001-.518.046-.012 1.043-.104.582-.213.54-.104.582.046.516-.054.578.097.512.356.491.196.45.06.673.402.432-.005.522-.029.262-.081.268-.24.229-.558.154.055.047.408.485-.053.577.303.496.545.264.298.441.554.368.587.156.534.161.596.26.591.208.549.316.557.42.488.215.553.368.559.419.412.537.407.485.303.494-.108.531-.736 1.106-.26.596.005.052-.128.323.046.518.102.564.304.494.36.541.459.48.562.471.591.208.521.006.547-.309.172.193.005.052.257.55-.006.521.149.508.142 1.602-.054.578-.418.558-.632 1.097-.265.545-.311.6-.212.54-.363.605-.471.564-.471.562-.419.558-.311.6-.161.536-.006.522.046.516-.471.563-.536.412-.486.408-.497.252-.442.3-.49.355-.498.253-.546.309-.507.149-.495.304-.554.205-.508.151-.498.253-.55.257-.494.302-.563.102-.508.149-.507.151-.555.205-.512.098-.499.253-.55.256-.517.046-.507.149-.099.061-.512.097-.507.149-.56.154-.507.151-.564.101-.507.149-1.015.298-.563.102-.517.046-.507.149-.573-.001-.521-.005-.554.206-.513.097-.526-.059-.568.051-.53-.11-.526-.057-.544-.265-.463-.532-.516.046-.55.257.406.484.206.555-.265.545.098.513.153.559.526.057.582.106.562.471-.521-.006-.582-.105.515.527.408.485-.006.522-.012 1.042-.161.535-.197.123-.582-.105.046.518-.054.577-.047.056.096 1.086-.47.562-.007.521.206.555.553.367.459.481-.105.583.498-.252-.212.539-.161.535-.212.54-.49.357-.493.303-.537.412-.498.253-.79.486-.489.356-.564.102-.516.045-.512.098-.573-.001-.559.155-1.033.091-.605-.364-.54-.212-.529-.109-.592-.208-.535-.161-.591-.208-.525-.057-.535-.161-.578-.054-.535-.161.522.006-.2-.502-.541.359-.513.099-.527.514-.115 1.051.298 1.016.2.503.206.554.2.504.516.527-.006.521-.058.528.258.55-.054.577-.161.535.097.512.239.344.234.292.554.368.525.057.531.109.525.059.577.053-.419.558-.105.582.513-.096h.572l.503-.201.521.006.489-.356-.045-.517-.544-.265-.531-.109.503-.201.546-.308.493-.305.495-.303.543.264.304.494.413.536.045.518.097.512.102.565-.001.572-.058.526-.213.54-.554.206-.503.202-.512.096-.507.149-.511-.475-.149-.509.053-.577-.553-.367-.59-.208-.518.046-.507.149-.536.412-.48.459-.476.512.051.568.525.057.54.213.544.264.582.105.531.109.543.265-.489.356-.494.304-.498.252-.55.258-.48.459-.523.566-.038.16-.001.573-.419.559-.368.554-.212.539-.001.573.148.508.305.495.257.55.097.513-.265.543.257.55.253.499-.368.554.103.565-.541.359-.476.511-.419.558-.109.531.303.494.554.367-.161.536.009.104-.508.149-.529-.11-.259.023.061.101-.521-.007-.168-.141-.522-.007-.493.306-.396.242-.545.308-.161.536-.484.408-.559.153-.513.098-.484.407-.264.545-.208.591-.213.54-.42.558-.161.535.051.568-.264.545-.363.605-.161.536-.047.056-.002.573.098.513.205.554.253.498.252.499.459.481.463.532.591.207.549.316.459.481.554.367.561.472.553.368.578.053.512-.098.521.006.577.053.568-.05.504-.201.53.109.614.467.201.503.256.55.092 1.034-.058.527-.156.586-.208.592-.573-.003-.48.46-.494.304-.511.097.469.011.493-.304.546-.309.512-.098.257.551.355.49-.494.304-.057.525-.555.206-.259.596-.532.464-.213.54-.527.515-.498.252-.419.558-.48.459-.54.361-.481.459-.161.536-.367.554-.471.561-.631 1.099.045.517-.105.582-.316.549-.161.535.476-.511.212-.539.046.516-.001.573-.002.573-.057.527.091 1.034-.006.52-.053.578-.419.558-.236.282-.536.412-.494.304-.534-.16-.563-.472-.298-.442-.512-.476-.191-.4-.432-.17.381.175.195.451.169.142-.002.573-.507.148-.511.099-.302.13-.197.123-.042.107.356-.083.099-.06.095-.114.253-.073 1.136-.101.356.49.544.263-.367.555-.55.256-.489.357-.475.51-.265.545-.264.544-.058.525-.001.573-.006.523.149.508-.157.586-.366.554-.265.543.042-.107.471-.562.545.264.096.512.304.495.257.55.253.498.356.489.149.508-.494.304-.569.05-.529-.108-.504.2-.536.412.15-.065.503-.201.512-.097.563.472.485-.408.525.057.464.532.355.49.356.49.407.485.464.532.563.471.458.481.05.568-.042.107-.178-.244-.22-.137-.357.084-.475-.063-.671.06-.526-.058-.544-.264-.263-.029-.554.206-.494.304-.052.577-.161.535.018.207-.048.056-.042.108-.489.356-.587-.155-.479.458-.151.065-.493.305-.486.407-.483.408-.509.149-.554.206-.494.303.535.161-.212.54.154.559-.007.523-.005.521-.162.535.098.513-.002.573.149.508.258.55.149.507-.002.573-.005.522-.481.458-.493.305-.587-.156-.572-.002-.522-.005-.591-.208-.53-.109-.53-.109-.6-.312-.559-.419-.557-.419-.149-.509.058-.525.484-.407.582.104.201.503-.419.558.536-.412.058-.527.104-.582.596.261.149.508.154.559-.265.545.476-.511-.154-.56-.149-.507.006-.521.485-.408.493-.304.527-.515.105-.582.264-.546-.149-.507-.53-.109-.544-.265.041.465-.48.459-.48.459-.528.515-.263.544-.42.559-.548-.316-.517.046-.502.201.534.161.408.484-.564.102-.517.046.258.55.045.516-.54-.211.464.531.53.11.252.499-.568.05-.543-.265-.587-.155-.549-.317-.534-.16-.54-.213-.407-.485.507-.15.508-.149.591.208.553.367-.304-.494-.2-.503-.541-.212-.251-.499-.154-.559.005-.522.532-.463.517-.046-.161.535.503-.201.489-.357.419-.557.368-.554.582.105 1.033-.092.555-.205.541-.361-.506-.423-1.086.096-.507.149-.526-.058-.508.149-.536.413-.109.531-.596-.261.213-.54-.493.305-.568.05-.527-.059-.005.523.046.517.316-.549.557.419-.42.557-.522.568.201.504.257.55-.367.553-.545-.264.149.507-.525-.057-.305-.495.156-.587-.6-.312-.548-.316.53.11.161-.535.213-.539.264-.545.26-.596.516-.045-.525-.059-.545.309.101.564-.212.54-.549-.316-.42.557-.568.05-.096-.511.108-.531.007-.522-.527-.057.261-.596-.202-.503-.515-.528-.149-.508.459.481.508-.15.553.368.494-.305.311-.6.521.005.304.495.507-.149-.153-.56-.209.592-.252-.499.11-.531.156-.587.553.368.361.541.557.419.045.517-.16.535-.494.304-.368.553.49-.355.517-.046.572.001-.355-.49.104-.582-.097-.512-.333-.231-.563-.471.11-.531.367-.554-.148-.508-.305-.493-.543-.265-.563-.472-.578-.052-.538-.214-.558-.418-.141.169-.481.459.513-.097.586.156.534.161.527.057.566.523.591.209-.316.548-.52-.006-.536-.16-.59-.208-.522-.006-.6-.311.511.475.596.261-.053.577.516-.045-.489.356-.057.526-.265.545-.2-.504-.253-.499-.149-.507-.361-.541.201.503.202.503.153.559.257.55-.058.527-.549-.317-.596-.259-.252-.499.007-.521.557.418-.257-.55-.562-.471.26-.596-.55.257-.499.253-.252-.5-.525-.057.263-.544-.614-.468.007-.522.6.312.562.472.459.48-.257-.55-.355-.49-.361-.541.006-.522-.562-.47-.481.459-.462-.532-.503.201-.253-.499.006-.522-.512.097.006-.521.498-.252.573.001.503-.201.005-.522-.096-.512.419-.558.548.316-.253-.5-.529-.109-.046-.515.058-.527-.321.496-.11.531-.005.522.154.559-.369.554-.506.149-.563-.471-.356-.489-.101-.564-.202-.503.511.475-.201-.503.54.211.564-.1-.582-.106-.545-.264.157-.587-.48.459-.587-.155-.149-.509-.057.527-.582-.105-.562-.472-.596-.261.363-.605.512-.096.568-.051.558.42.53.108.591.209.513-.098-.527-.058-.6-.311-.525-.058-.305-.494-.605-.363.322-.497.548.316.112.095.522.006.559-.155-.531-.109-.065-.15.16-.536-.47.563-.549-.316-.568.051-.309-.546.49-.357.489-.355-.503.2-.531-.108-.101-.564.536-.413.502-.201.536.161.614.467.605.363-.357-.49-.544-.265-.2-.503-.569.051-.552-.367-.098-.513.26-.596.591.206-.436-.22-.205-.555-.252-.499.108-.531.564-.101-.521-.006-.315.549.096.512-.31.6.149.509-.007.522-.311.6-.553-.367-.149-.508-.206-.555-.096-.513-.408-.485.058-.526-.098-.512-.356-.49.467-.614.498-.252.573.001-.112-.094-.522-.006-.503.201-.412-.537.11-.53.47-.564.545.265.587.157-.408-.486.005-.522-.521-.005-.304-.495-.511.099-.515-.528-.535-.161-.563-.471-.591-.209.471-.561.531.109.614.466.458.48-.308-.545-.253-.499.513-.097.563-.101.539.212.522.005.525.059.582.104.154.56.54-.361.54.211.006-.52-.512.097-.553-.367-.557-.42-.051-.568.553.367.568-.05.508-.15-.568.051-.6-.312-.305-.494-.417-.015-.563-.471.057-.526-.36-.541.202.503-.106.583.149.507-.484.408-.512.097-.539-.212-.513.097-.582-.105-.497.253-.564.102-.535-.161.109-.531.517-.045-.357-.491.504-.2.587.156-.053.578.529.109.527.058-.541-.212.363-.605.56-.154-.573-.001-.503.2-.553-.368-.148-.506-.509.148.002-.573.368-.554.419-.557.539.212.057-.527.509-.149-.202-.503.161-.536-.543-.264-.517.046-.563-.472-.407-.484-.516.045-.573-.001-.006.522.549.316-.517.046-.521-.006-.554-.368-.52-.005-.592-.208-.407-.485.161-.535.002-.574-.264.545-.467.615-.507.149-.55.257-.541.36-.006.522.471-.563.609.415.304.494-.466.614-.53-.11-.515-.527-.408-.484-.102-.564.213-.541.475-.509.49-.357.057-.527.521.007.212-.54.517-.046-.54-.212.157-.588.512-.097.466-.614.057-.527-.05-.568-.311.6-.476.512-.557-.42.489-.355-.582-.106-.252-.498.516-.046.55-.257.481-.459.525.058.554.368.591.207-.357-.489.312-.601.522.006.512-.097.045.517.539.212-.363.605.54.213-.046-.518.51.477-.161.535-.474.511-.55.256-.508.151.517-.046.502-.202.545-.309.46.481.525.059-.561-.472-.154-.56.535.161.561.472.046.517-.212.539-.212.541.096.512.495-.305.104-.582.109-.529.472-.564.005-.522.057-.526.106-.583-.264.545-.162.536-.311.601.006-.522.053-.578-.149-.508-.253-.498.161-.536.058-.526.316-.548.527-.516.503-.201-.582-.105-.49.356-.483.408-.098-.513.006-.52-.05-.569.415-.609.367-.555.582.106.543.263.541.214.568-.051.023-.316-.417-.014-.521-.006-.605-.364-.549-.316-.484.408-.591-.207.466-.615-.252-.498-.305-.494.387-.347.506-.15.542-.36.484-.408.363-.605.48-.459-.097-.512.005-.522.209-.592-.252-.498-.058.526-.531-.109-.596-.26-.51-.476-.525-.058-.591-.208-.221-.138-.201-.501.481-.461-.206-.555.213-.539.264-.545.146-.117.503-.201-.53-.109-.527-.058.124-.376.156-.586-.151.066-.557-.42-.356-.49.001-.573.264-.544.368-.554-.256-.55.16-.535.503-.201-.06-.673-.609-.414-.2-.503.053-.577-.304-.495.16-.536.513-.097.595.261.137-.22-.475-.063-.458-.481-.459-.479-.154-.559.499-.254.502-.2.309.546.355.488.304.494.103-.009-.135-.352-.308-.546-.097-.512-.103-.563-.108-.044-.096-.512-.309-.545-.48.459-.513.097-.543-.266-.05-.568.315-.548.419-.559.508-.149.546-.309.161-.535.053-.578-.31-.545.051.568-.006.522-.311.6-.494.304-.535-.16-.407-.484-.507-.425-.577-.052-.47.561-.007.522-.005.522-.364.605-.52-.006-.55.257-.512.098-.052.004-.53-.11-.554-.367.264-.545.499-.252.058-.526-.209.591-.465.041-.577-.053-.562-.471-.045-.518-.202-.501-.307-.546-.357-.49-.252-.499-.206-.555.369-.554-.202-.503.058-.526.034-.212.053-.577.16-.535-.149-.507-.097-.513-.05-.569.058-.526-.08-.306.161-.534-.355-.491.367-.553.481-.46.545-.308-.131-.301-.205-.555.212-.54.161-.535.058-.527-.103-.563.091-.165-.155-.559-.096-.512-.03.263-.2-.504-.308-.546-.305-.493-.303-.494-.309-.546-.192-.4-.154.014-.254-.498-.252-.5-.204-.554-.178-.244-.05-.568-.099-.514.157-.587-.045-.516-.15-.507-.36-.542-.407-.484-.46-.482-.308-.545-.2-.503.316-.549-.15-.508-.514-.528.057-.526.311-.6.6.311.508-.148.498-.253.265-.544.005-.523-.101-.564-.046-.517-.205-.554-.161-.038.106-.582.212-.54.149.508.507-.15-.05-.568.115-1.052.053-.578.114-.477-.097-.514-.045-.517v-.572l-.05-.569.363-.605.368-.554-.045-.516-.361-.541-.15-.509.528-.514.057-.527.208-.591-.014-.155.025-.314.363-.606.42-.558.005-.522-.059-.672.104-.582.161-.535.03-.263.053-.577-.15-.509-.096-1.086.227-.384-.149-.508-.258-.549.162-.536.264-.545.053-.578.046-.055.007-.523.213-.539.531-.464.001-.573.053-.578-.458-.48-.103-.564-.046-.516-.303-.495-.304-.494.362-.605.495-.303v-.574l.012-.469.057-.526.156-.587-.097-.513-.2-.503.109-.53-.046-.518-.407-.485-.412-.536-.005-.051-.098-.513.002-.573-.149-.507-.091-1.035-.305-.494-.251-.497-.042-.466-.252-.499-.252-.497-.154-.56-.201-.504-.206-.554-.045-.518-.097-.511-.252-.5-.201-.503-.098-.512-.065-.15-.098-.513-.046-.518.002-.573-.102-.564.368-.553.541-.36.47-.564.002-.573-.304-.494.236-.28.315-.55-.074-.254-.36-.54.005-.522.058-.525-.355-.49.052-.578-.252-.499-.459-.48-.549-.316-.078-.305-.15-.509-.046-.517-.204-.555.212-.539.368-.554.311-.601-.046-.517.161-.534.156-.587.085-.217.067-.422-.149-.507.002-.573-.149-.508.085-.216-.096-1.086.161-.536.104-.582.006-.52.502-.202.059-.526.057-.527-.304-.493-.098-.513-.069-.201-.149-.509-.098-.512.48-.46.265-.543-.206-.555-.05-.568.212-.541.115-1.052-.149-.507.058-.527.11-.53-.149-.508-.103-.563-.046-.517.11-.532-.257-.55-.407-.485-.149-.507.058-.527.208-.592-.15-.507.485-.408.16-.534.317-.549.005-.523-.204-.555-.356-.489.109-.53-.412-.536-.253-.5-.149-.508-.205-.555.006-.52-.097-.513.001-.573-.102-.563.006-.523.11-.531-.098-.511-.205-.555.058-.528-.05-.567-.085-.357.317-.55.104-.582-.046-.516-.51-.477-.481.459-.304-.494-.101-.564-.098-.511.058-.527.002-.572.109-.532.539.213.103-.009.476-.511.104-.582-.046-.518-.148-.507.053-.577-.051-.569.058-.527-.097-.512-.05-.568.005-.522.002-.573.005-.521.007-.522.053-.578.057-.526-.101-.564-.098-.512.11-.532.156-.587.058-.526-.014-.155-.066-.149-.298-1.016-.257-.551-.201-.502-.257-.55.058-.526-.356-.49-.148-.508-.051-.569-.098-.511.054-.578-.097-.513.052-.577-.046-.518-.097-.512.054-.577-.046-.517-.131-.302-.097-.513-.201-.502-.051-.568-.303-.496-.15-.507-.06-.098-.046-.519-.355-.488-.309-.547.005-.52-.153-.56-.253-.498-.101-.564-.149-.508-.257-.551.006-.522-.098-.511.058-.526.006-.521-.126-.25-.548-.316-.221-.136-.553-.368-.591-.208-.549-.316-.605-.363-.544-.265-.458-.48-.545-.264-.055-.047-.582-.105-.55-.316-.117-.146-.591-.208-.557-.419-.102-.564-.205-.555-.253-.498-.552-.368-.225-.188-.531-.11-.534-.16-.522-.006-.534-.161-.052.004-.614-.466-.539-.213-.522-.006-.239-.343-.548-.316-.548-.316-.46-.481-.539-.212-.531-.109-.582-.105-.515.046-.573-.001-.221-.137-.384-.227-.53-.109-.535-.161-.591-.208-.221-.137-.521-.005-.61-.415-.529-.109-.526-.058-.53-.109-.526-.058-.531-.109-.587-.156-.543-.265-.549-.316-.562-.471-.535-.161-.582-.105-.534-.16-.522-.006-.563-.471-.595-.26-.164-.09-.525-.057-.596-.26-.53-.109-.6-.312-.531-.109-.535-.161-.056-.047-.592-.208-.092-.461-.459-.48-.553-.367-.544-.265-.407-.485-.112-.094-.459-.48-.54-.213-.535-.16-.596-.26-.539-.213-.548-.316-.201-.503-.356-.489-.567-.523-.562-.471-.097-.512-.553-.368-.527-.057.002-.573-.098-.513-.251-.498-.578-.053.213-.54.591.208.053-.577.058-.526.038-.16.001-.573-.05-.569-.201-.503-.407-.484-.117-.146-.563-.471-.51-.476-.502-.372-.304-.494-.102-.564-.407-.485-.562-.471-.309-.545-.51-.476-.356-.489-.257-.55-.558-.42-.544-.264-.544-.264-.304-.494-.586-.157.089-.164.024-.314-.149-.508-.308-.546.006-.521-.309-.546-1.124-.942-1.088-.528-.582-.105-.515-.527.264-.545-.304-.493-.074-.254-.253-.499-.361-.541-.355-.489-.459-.48-.566-.523-.005-.052-.407-.484-.464-.532-.355-.49-.459-.48-.412-.536-.201-.503-.252-.499-.304-.494-.149-.507-.305-.494-.515-.528-.304-.493-.149-.508-.36-.541-.2-.503-.549-.316.053-.578-.521-.006-.149-.507-.351-.438-.122-.198-.023-.258-.463-.532-.459-.48.053-.578-.201-.503-1.124-.942-.253-.498-.308-.546-.563-.471-.553-.368-.609-.414-.549-.316-.562-.471-.407-.485-.257-.55-.36-.541-.511-.476-.252-.498-.201-.503-.187-.348-.618-.519-.01-.103-.252-.498-.562-.471-.605-.364-.454-.428-.005-.052-.356-.489-.22-.137-.609-.415-.535-.16-1.173-.313-.54-.213-.591-.208-.604-.363-.484-.165-.577-.053-.535-.161-.586-.157-.531-.109-.586-.156-.526-.058-.046-.517-.2-.503.104-.582.537-.412.539.212.527-.515.058-.526-.05-.568-.314-.598-.304-.494-.562-.471-.553-.367-.605-.363-.097-.513-.046-.516.503-.201-.154-.56-.604-.363-.459-.48-.558-.419-.097-.512.053-.578-.145-.456.114-.479.024-.315-.102-.563.128-.324.24-.23.235-.281.222-.436.386-.347.165-.484.363-.605.527-.515.053-.578.467-.614.536-.412.471-.563.212-.539.499-.253.55-.257.104-.582-.004-.052.047-.056.494-.304.352-.136.357-.083.09-.165.493-.304.137-.22.099-.061.24-.23.057-.526.213-.539.033-.212.002-.573.209-1.164.161-.535.255-.648-.046-.517-.613-.466-.309-.546-.102-.564-.205-.554-.009-.104.316-.549.212-.539-.339.29-.367.554-.015.418.018.206.117.146.205.555.102.564-.053.578-.208.591-.15.065-.292.235-.488-.218.359-.656.263.028.197-.121-.474-.062-.173-.193.042-.108.076-.32-.018-.206-.24.229-.109.531-.208.591-.467.614-.536.413-.161.535-.605-.363-.591-.209-.557-.419-.614-.466-.54-.213-.568.05-.324-.127-.496-.321-.206-.554.216.085.343-.239.518-.619.053-.578.058-.526-.205-.554-.201-.503-.412-.537-.004-.052-.257-.55.109-.53.212-.54.054-.578-.304-.493-.511-.476-.304-.494.058-.526.363-.605.507-.149.559-.154.494-.304.161-.535.006-.522.212-.539.208-.592.549.316.512-.097-.164-.09-.573-.001-.36-.541-.408-.485.11-.53.367-.554.26-.596.489-.356.368-.553.47-.563.038-.159.208-.591.058-.526-.097-.513.208-.591.051-.005-.023-.258-.342-.334.058-.526-.097-.512-.061-.099-.515-.528.109-.53.494-.304.103-.009.489-.356.494-.304.471-.563.573.001.2.503.117.146-.07-.202-.168-.141.259-.596.494-.304.48-.46.512-.097.559-.154.512-.097.471-.563.489-.356.304.494.099-.06.053-.578.471-.563.057-.526.213-.539-.304-.494-.549-.316-.258.023-.539-.213.316-.549.414-.609.541-.361.526.058.563-.102.526.057.109-.53-.304-.494-.149-.508-.412-.536-.2-.503.255-.648.26-.596.48-.459.367-.554.544.265.978-.712.591.208.48-.459.508-.149.071-.371.544.264.555-.205-.051-.569-.304-.494.386-.346.471-.563.264-.544-.539-.213.48-.459.404-.14.208-.591.006-.522.489-.356.085-.215.006-.522.54.213-.356-.49.208-.591.212-.54.443-.299.48-.459-.459-.481.489-.355.311-.601-.512.098-.545.308-.544-.264.053-.578.516-.045.058-.526-.521-.006-.312.6-.512.098-.201-.503-.097-.513.471-.562.517-.046.231-.333-.58.051-.407-.484.161-.535.053-.578.006-.521.104-.583-.045-.516-.412-.537-.149-.508-.032-.361-.098-.513-.05-.568.006-.521-.154-.56-.2-.503-.562-.47-.201-.504.493-.304.573.001.415-.609.108-.531-.303-.494-.356-.488-.411-.537-.511-.476-.257-.55-.046-.517.54.212.218-1.061-.097-.512.105-.582-.512-.476-.59-.208-.511-.475-.604-.363-.252-.479.007-.523-.553-.367-.061-.099-.83-.551-.056-.047.406-1.546.354-.397-.043-1.255 1.168.789 1.338-1.172.224-1.347.82-.302-2.246-3.669.557-.809zm82.439-30.9l-.309-.546.361.541-.052.005zm-13.742 1.791l.507-.15-.507.15zm39.087-.131l.156-.586.48-.46.504-.2.554-.205.046.516-.499.253-.555.205-.493.305-.193.172zm-29.528 4.597l-.527-.058.481-.46.539.214-.493.304zm8.109-.719l-.511-.476-.512.098-.573-.002-.525-.057-.098-.513.503-.2.508-.15.605.364.53.109.419-.557.471-.564.558.42.408.485-.541.36-.541.361-.504.201-.197.121zm1.05.688l-.587-.156.508-.149.079.305z"/><path d="M617.431 541.231l-.144-.455-.023-.259.108.043.356.489.488-.355.499-.253.253.498.582.104.525.06.531.109.525.057.563-.101.476-.511-.563-.471.54.213.544.264.296-.182-.346-.386-.057-.048.55.316.201-.069.541-.362.151-.064.319.076.529.109.573.002.522.006.516-.046.559-.155.522.006 1.084-.096.525.057.522.007.591.208.544.264.522.006.531-.464.511-.098.55-.257.481-.458.52.005.526.059.541-.362.573.002.157-.587.057-.526-.304-.494-.559.154-.512.098-.503.2-.578-.053-.534-.161-.586-.157-.531-.109-.543-.264-.545-.264-.544-.265-.515-.528-.539-.212-.591-.208-.549-.316-.534-.161-.545-.264-.549-.317-.548-.316-.2-.503-.536-.161-.238-.344-.548-.315-.559-.419-.36-.541-.2-.503-.356-.49-.53-.109-.512.096-.591-.206-.253-.5.311-.6.317-.55.557.42-.205-.554-.356-.49-.553-.367-.463-.532-.169-.142-.29-.339-.056-.047-.108-.042-.441-.274-.498.252-.485.408-.493.303-.609-.413-.46-.481-.535-.161-.099.06-.295.183-.058.527-.058.526-.161.534.005.053-.494.304-.494.303-.216-.085-.562-.471-.503.201-.489.356.517-.046.361.541.557.42-.475.51-.545-.265-.212.54.205.555-.058.526.202.504.35.436.6.312.512-.098.532-.463.339-.291.559-.153.554-.207.517-.045.525.059.202.503-.261.595-.484.408-.489.357-.546.307-.489.357-.146.117-.484.407.153.559.253.5.356.49.463.532.484.165.53.109.526.058.591.208.53.109.534.161.591.208.553.367-.145.118-.503.201.102.563-.512.098-.208.591.002-.573.263-.544-.411-.536-.544-.265-.54.361-.559-.419-.526-.058.305.494.36.541.045.516-.562-.47-.411-.537-.305-.494-.323-.129-.368.555.545.264-.513.098-.549-.316-.586-.156-.53-.11-.591-.208-.526-.058.154.559.563-.101.522.005.411.537.605.363.535.16.544.266-.498.251-.558-.418-.596-.26-.512.097-.109.531.412.536-.573-.001.058-.526-.051-.568.007-.522-.526-.058-.546.308.098.513-.42.557-.557-.418-.499.252-.525-.058-.563.102.252.499-.554-.368-.554.206.517-.046.562.472-.502.2-.554-.367-.502.2.543.265-.104.583.545-.309.53.109.49-.356.529.11-.05-.569.535.161.045.516.555-.204.507-.15.202.504.516-.046.502-.201.316-.55.499-.252-.363.605-.489.357-.058.526.48-.46.577.054.495-.304.263-.544-.109.53.201.503.531-.464.535.159zm.437 1.993l.103-.009.512-.098.2.504.541-.36.508-.151-.316.55-.494.303.577.054.554.368.553.366.053-.577.361.541.54-.36-.586-.157-.413-.536-.605-.364.564-.1-.304-.496.573.002.54.213.543.264.536-.412-.16.535-.057.527.52.005-.541.361.554.367.541-.36.507-.149.539.212.568-.051.563.472.6.311-.205-.554-.15-.509-.51-.475-.568.05-.548-.317-.508.15-.511-.475.6.311.508-.149.484-.408-.548-.316-.564.101-.521-.004-.568.05-.54-.213-.407-.484.54.211.543.265.481-.459.577.053.48-.458-.459-.482-.521-.004-.559.153-.494.305-.517.045-.559.154-.512.098-.48.459-.498.252-.057.526-.098-.512-.521-.006-.502.201-.536.412.074.254zm.32 1.273l-.087-.408-.32-.076.407.484zm36.103-30.333l-.018-.207.018.207z"/></g><defs><clipPath id="clip0"><path fill="#fff" transform="translate(469 112)" d="M0 0h323v433H0z"/></clipPath></defs></svg>