<svg width="1261" height="657" fill="none" xmlns="http://www.w3.org/2000/svg"><path fill="#276F86" d="M0 0h1261v657H0z"/><path d="M393.47 546.785c-3.7-1.385-4.735-2.741-3.856-5.052.407-1.071 1.189-1.947 1.738-1.947.549 0 2.951 1.262 5.338 2.805 2.387 1.542 5.306 3.156 6.486 3.584l2.146.779-2.64.058c-1.452.031-3.583.194-4.735.361-1.151.167-3.166-.098-4.477-.588zm-8.398-7.108c-.697-.39-1.858-.521-2.581-.291-.91.288-1.613-.142-2.287-1.401-.535-.999-1.494-1.996-2.131-2.216-1.461-.502-4.524-5.465-6.229-10.093-.862-2.337-2.02-3.952-3.394-4.734-2.44-1.388-2.615-2.017-.726-2.616 2.16-.686 2.562-4.494.743-7.048-.867-1.219-1.324-2.65-1.063-3.331.309-.804-.543-2.215-2.605-4.316-2.603-2.652-3.084-3.616-3.2-6.411-.076-1.809-.516-3.745-.979-4.303-.583-.703-.702-3.225-.387-8.211.341-5.405.142-8.74-.798-13.389-1.397-6.904-2.11-19.767-1.747-31.503.077-2.504-.247-5.941-.721-7.639-1.155-4.134-6.466-9.352-13.031-12.802-4.695-2.467-5.355-3.099-7.19-6.889-1.112-2.295-3.236-5.725-4.721-7.622-1.485-1.897-3.099-4.683-3.587-6.191-1.55-4.787-4.282-9.596-6.144-10.816-.991-.65-2.121-2.338-2.512-3.753-.632-2.288-.465-2.927 1.513-5.802 2.144-3.117 2.17-3.244.72-3.623-3.561-.932-2.063-5.692 4.329-13.758 4.249-5.362 5.494-9.446 4.317-14.165-.449-1.798-.85-3.679-.893-4.18-.042-.501-.361-.91-.709-.91s-.281-.657.148-1.46c.663-1.237.495-1.591-1.096-2.316-2.319-1.056-5.821-.012-5.834 1.741-.017 2.101-.941 2.256-3.988.668-1.632-.851-3.327-1.547-3.767-1.547-.44 0-2.151-1.164-3.802-2.586-1.651-1.422-3.412-2.91-3.912-3.306-.501-.397-.911-1.476-.911-2.4 0-.924-.643-2.262-1.429-2.973-.786-.712-1.805-2.431-2.264-3.822-.603-1.828-1.055-2.308-1.63-1.733-1.2 1.2-2.976.972-7.289-.935-2.254-.997-4.603-2.7-5.541-4.017-.895-1.258-2.606-2.793-3.802-3.411-1.973-1.02-2.467-1.012-5.341.085l-3.167 1.21-9.715-4.708c-5.977-2.896-10.615-5.659-12.052-7.178-2.227-2.356-2.3-2.612-1.558-5.532.679-2.675.563-3.502-.913-6.553-.93-1.921-2.961-4.871-4.514-6.556-1.553-1.684-2.647-3.348-2.432-3.697.216-.349-.878-2.7-2.431-5.225-1.763-2.868-3.008-5.94-3.317-8.188-.397-2.882-.859-3.764-2.321-4.431-1.55-.706-1.983-.616-2.871.597-1.25 1.707-.894 3.51 1.869 9.482 1.123 2.427 2.284 6.025 2.58 7.995.295 1.971 1.168 4.82 1.939 6.332 1.827 3.58.647 3.517-2.233-.12-1.699-2.145-2.158-3.322-1.821-4.667.361-1.436.006-2.128-1.76-3.434-2.678-1.98-3.245-3.257-2.261-5.095.574-1.072.311-2.248-1.146-5.123-1.48-2.92-1.789-4.334-1.423-6.502.599-3.545-.991-6.753-3.956-7.98-1.711-.709-2.301-1.502-2.65-3.563a76.119 76.119 0 00-1.05-5.012c-.344-1.351-.319-2.536.058-2.769.363-.225.126-1.224-.527-2.221-.963-1.468-1.029-2.163-.347-3.659.462-1.015.637-2.175.388-2.578-.25-.403.371-1.608 1.379-2.677s2.35-3.202 2.983-4.739c.632-1.536 2.58-4.386 4.329-6.331 1.749-1.945 3.967-5.353 4.928-7.573 1.334-3.081 2.116-4.038 3.305-4.048.857-.006 1.512.398 1.457.898-.232 2.087 1.418 1.444 3.271-1.274 1.093-1.603 1.682-3.023 1.31-3.157-.372-.133-.676-.736-.676-1.339 0-.604-1.508-2.563-3.351-4.354-3.057-2.971-3.253-3.365-2.237-4.488.824-.91.921-1.577.371-2.559-.965-1.724.558-5.586 2.21-5.602.682-.006.876-.239.457-.546-.939-.69-1.365-2.258-1.233-4.542.211-3.647-.587-5.172-3.299-6.305-1.462-.611-3.694-1.901-4.959-2.866-1.265-.965-2.87-1.754-3.567-1.754-.697 0-3.863-.663-7.037-1.474-5.103-1.303-6.002-1.354-7.77-.444-3.663 1.885-7.543 2.653-9.126 1.807-1.186-.635-2.481-.243-6.997 2.119-3.048 1.594-6.689 3.146-8.091 3.448-1.403.303-4.086 1.324-5.963 2.27-5.326 2.684-12.955 5.389-15.065 5.342-1.362-.03-.441-.628 3.182-2.064 6.158-2.443 12.486-5.623 13.071-6.57.721-1.166-.844-1.585-2.723-.728-1.384.63-2.237.571-3.834-.265l-2.054-1.077 2.234-1.155c2.526-1.306 3.32-2.784 2.74-5.096-.562-2.239 2.537-3.885 9.212-4.891 3.587-.541 6.314-1.442 8.15-2.691 3.237-2.204 2.681-3.87-.809-2.424-1.653.684-2.856.692-5.303.033-2.974-.801-3.08-.915-1.75-1.888 2.226-1.627 6.829-2.606 9.853-2.095 1.914.323 3.482.097 5.091-.735l2.325-1.202-1.531-1.629c-.842-.896-1.53-1.822-1.53-2.058 0-.675 4.385-2.027 6.577-2.027 1.095 0 4.095-.792 6.667-1.76 2.573-.969 8.507-2.291 13.189-2.938 7.593-1.05 9.2-1.063 14.894-.119 3.51.582 8.349 1.277 10.753 1.543 2.403.266 6.658 1.112 9.454 1.879 6.494 1.782 10.724 1.76 17.98-.092 3.203-.818 6.441-1.292 7.195-1.052.754.239 2.036.079 2.849-.356 1.119-.6 1.988-.527 3.586.299 1.443.747 3.225.96 5.651.676 2.56-.3 4.801.011 8.073 1.117 2.491.842 5.258 1.531 6.148 1.531 1.578 0 1.583.027.205 1.041-1.35.994-1.354 1.063-.086 1.555.73.283 3.265.312 5.633.064 4.276-.446 4.313-.434 5.505 1.872l1.201 2.321 1.558-1.954c.896-1.123 3.024-2.395 5.003-2.991 2.992-.9 3.9-.897 6.905.023 2.121.65 4.66.886 6.561.612 2.421-.35 3.546-.132 5.125.992 1.994 1.421 2.05 1.421 3.819.05.987-.765 3.018-1.731 4.513-2.148 3.581-.998 4.795-3.123 2.645-4.629-1.521-1.065-1.454-1.146 2.543-3.107 2.98-1.461 4.322-1.793 4.903-1.212.581.581.576 1.22-.021 2.334-1.017 1.901.249 4.773 1.835 4.164.57-.219 1.516-.214 2.102.011.92.353.905.653-.108 2.2-2.801 4.274 3.478 3.063 7.728-1.491 1.728-1.851 4.406-2.413 6.915-1.45 1.621.622 1.469 1.131-1.215 4.074-3.198 3.508-4.835 4.225-9.639 4.225-2.322 0-5.063.503-6.34 1.163-1.768.915-2.63.991-4.025.355-2.6-1.184-3.505-.198-1.64 1.787l1.592 1.694-3.176.902c-1.747.495-4.651.949-6.454 1.007-2.614.085-3.278.369-3.282 1.403-.004.884-1.276 1.815-4.006 2.931-8.849 3.617-16.355 10.138-13.637 11.848.509.32 1.317 1.475 1.796 2.566.551 1.255 1.614 2.131 2.898 2.388 1.115.224 3.995 1.375 6.398 2.559 2.404 1.183 5.354 2.366 6.556 2.628 3.308.721 3.337.797 1.796 4.707-1.318 3.344-1.345 3.822-.323 5.797.612 1.185 1.515 2.142 2.005 2.128 2.387-.069 4.625-2.272 6.015-5.921 1.326-3.477 1.93-4.126 5.734-6.158 5.614-2.998 7.948-5.952 7.326-9.268-.405-2.16-.194-2.667 1.654-3.984 1.166-.829 2.708-2.815 3.429-4.412 1.61-3.571 4.197-4.808 8.559-4.095 3.869.632 8.445 3.089 8.997 4.83.227.715.039 1.998-.418 2.853-.693 1.293-.562 1.84.783 3.271l1.614 1.719 2.636-1.367c1.45-.752 3.774-2.218 5.165-3.258l2.528-1.892.594 1.606c.326.883.419 2.06.206 2.616-.214.556-.048 1.647.368 2.425.469.874.505 1.864.096 2.595-.461.824-.153 2.075 1.019 4.139 1.68 2.957 1.68 2.959.205 3.992-1.941 1.36-.696 2.801 1.434 1.661 2.116-1.132 4.537-.985 6.031.367 2.208 1.998.372 4.388-5.488 7.145-6.374 2.998-9.214 3.592-17.534 3.666-6.143.054-6.956.25-12.928 3.113-3.506 1.681-6.374 3.344-6.374 3.696 0 1.503 1.105 1.372 5.342-.632 2.497-1.182 5.716-2.125 7.248-2.125 2.619-.001 2.714.08 1.897 1.608-.474.884-1.495 2.122-2.27 2.749-1.219.987-1.29 1.403-.527 3.077 1.143 2.51 4.13 3.718 7.703 3.115l2.823-.477-2.171 1.498c-1.194.824-3.161 1.712-4.37 1.973-1.21.261-3.696 1.229-5.525 2.15-1.856.935-3.722 1.43-4.223 1.121-1.152-.713.064-1.782 3.809-3.346 3.331-1.392 2.799-2.871-.791-2.197-1.398.262-5.932 1.97-10.075 3.795-6.467 2.849-7.595 3.601-7.972 5.315-.463 2.107-2.042 3.104-7.593 4.792-1.771.539-4.065 1.841-5.098 2.894-1.034 1.052-3.013 2.628-4.398 3.502-1.385.873-2.711 2.404-2.947 3.401-.389 1.643-.479 1.682-.965.416-.912-2.372-2.285-.053-2.364 3.991-.081 4.144-2.181 6.97-6.788 9.134-4.723 2.22-11.443 7.463-12.805 9.991-1.202 2.233-1.252 3.102-.512 8.84.691 5.352.65 6.696-.259 8.454-.679 1.313-1.471 1.941-2.131 1.688-1.562-.6-3.474-7.031-2.938-9.887.372-1.984.125-2.736-1.353-4.124-1.191-1.12-2.291-1.545-3.226-1.248-.78.247-2.986-.222-4.905-1.045-2.939-1.26-3.878-1.366-5.976-.673-1.423.47-2.837 1.583-3.3 2.599-.688 1.512-1.145 1.706-3.047 1.297-1.23-.265-3.122-.933-4.204-1.486-2.664-1.361-4.156-1.266-7.149.454-1.396.803-4.244 2.339-6.33 3.414-2.397 1.235-4.043 2.642-4.475 3.822-.376 1.026-1.719 5.029-2.985 8.895l-2.301 7.028 1.175 4.537c2.16 8.335 5.165 10.83 11.427 9.487 4.72-1.012 7.554-3.063 8.596-6.22.662-2.006 1.376-2.668 3.513-3.262 3.216-.893 4.559-.926 5.794-.142 1.019.647.661 1.711-3.903 11.592-3.131 6.779-2.906 7.386 2.459 6.612 4.888-.705 9.355-.164 9.877 1.196.204.53-.127 4.108-.735 7.95-1.088 6.874-1.08 7.028.486 9.561.875 1.416 2.516 3.053 3.646 3.638 1.804.933 2.371.931 4.641-.018 3.608-1.507 5.567-1.348 8.072.657 2.004 1.603 2.287 1.648 3.862.616.934-.612 2.209-2.13 2.833-3.372 1.406-2.802 3.776-4.771 5.766-4.792.832-.009 2.282-.836 3.223-1.837 1.91-2.034 5.275-2.697 3.631-.716-1.381 1.663-2.17 7.012-1.28 8.674.741 1.384.8 1.376 2.148-.289.959-1.185 1.153-1.944.628-2.469-1.251-1.251-.874-2.291 1.454-4.012 2.417-1.787 4.287-1.603 6.372.625 1.529 1.634 9.694 3.843 12.034 3.256 3.564-.895 13.193 4.96 16.81 10.221 1.723 2.505 7.226 5.025 9.646 4.418 4.978-1.249 11.802 3.738 13.398 9.791.476 1.803 1.192 3.482 1.593 3.732 1.062.662-.529 3.278-4.009 6.588-2.224 2.115-2.755 3.026-2.129 3.651.625.626 1.654.077 4.122-2.198 3.591-3.31 4.789-3.646 6.588-1.847 1.094 1.094 1.06 1.317-.439 2.913-.894.951-2.141 1.75-2.772 1.775-.665.027-.396.346.64.76 1.423.568 2.165.408 3.641-.785 3.846-3.107 4.751-3.256 8.167-1.348 2.221 1.241 3.11 2.186 2.998 3.184-.311 2.778.344 3.393 2.269 2.131 1.531-1.002 2.581-1.05 7.702-.349 5.447.746 6.16 1.043 8.774 3.657 1.94 1.94 4.122 3.216 6.864 4.013 3.681 1.07 4.081 1.396 4.748 3.875.968 3.595-.166 7.584-3.233 11.373-1.31 1.619-2.916 3.995-3.569 5.28-.653 1.286-2.04 3.192-3.084 4.235-1.767 1.767-1.865 2.209-1.425 6.403.861 8.195-3.148 23.484-7.014 26.754-1.259 1.064-2.336 1.314-4.332 1.005-1.641-.254-2.855-.09-3.176.429-.286.462-1.876 1.436-3.535 2.166-1.658.729-4.127 2.275-5.487 3.436-2.352 2.01-2.431 2.233-1.639 4.632.913 2.766.298 6.041-1.659 8.834-.632.903-1.15 2.439-1.15 3.414 0 .975-.76 2.787-1.688 4.026-.929 1.24-2.721 4.078-3.982 6.306-3.103 5.483-4.968 6.433-9.467 4.821-3.904-1.4-5.986-1.567-5.986-.481 0 .409.778 1.099 1.729 1.532.952.434 2.434 2.198 3.294 3.921 1.282 2.566 1.417 3.457.75 4.922-1.035 2.271-4.991 4.177-8.668 4.177-3.257 0-4.065.797-2.94 2.899.694 1.297.227 3.385-1.116 4.985-.108.13-1.249-.308-2.534-.972-3.068-1.587-4.154-.576-2.603 2.422.63 1.22 1.829 2.434 2.664 2.699 1.435.456 1.451.557.284 1.846-.679.75-1.032 1.89-.784 2.535.266.694-.328 2.191-1.454 3.667-1.83 2.4-1.856 2.567-.683 4.358.671 1.024 1.718 2.053 2.326 2.286 2.194.842 2.557 3.718.885 6.996-1.676 3.285-1.933 6.578-.636 8.141 1.179 1.421-2.789 4.189-4.573 3.19zm-53.681-315.472c1.946-4.067 5.568-7.096 8.484-7.096 2.099 0 2.124.341.202 2.784l-1.511 1.922 1.55 1.255c1.25 1.012 1.894 1.1 3.319.451.972-.443 1.968-1.439 2.214-2.214.335-1.053.878-1.299 2.161-.978 1.187.298 1.93.043 2.419-.83 1.48-2.644-2.287-6.026-5.059-4.543-1.984 1.062-4.576-1.05-4.023-3.278.205-.826-.217-2.263-.947-3.227-1.506-1.987-3.796-2.196-8.809-.804-1.803.5-3.859.887-4.568.86-.71-.028-1.1.258-.868.634.233.376.158.692-.166.7-.324.009-1.405.643-2.402 1.409l-1.812 1.393 2.035.774c1.591.605 2.529.518 4.297-.396 2.077-1.074 2.462-1.073 4.729.008 1.365.651 3.229.985 4.174.748.938-.235 1.907-.103 2.153.295.251.406-.775.929-2.344 1.194-4.263.721-6.477 2.496-9.569 7.67-2.583 4.323-2.731 4.844-1.702 5.986 1.01 1.121 1.289 1.139 2.675.17.851-.595 2.366-2.794 3.368-4.887zm13.233 4.496c2.593-1.323 2.843-1.655 1.929-2.569-.914-.914-1.491-.854-4.464.461-3.49 1.544-4.598 3.627-1.928 3.627.817 0 2.825-.684 4.463-1.519zm12.916-5.504c1.517-1.063 1.573-1.271.503-1.87-1.575-.881-6.257.637-6.257 2.03 0 1.435 3.62 1.334 5.754-.16zm54.702 314.549c0-.32.393-.976.874-1.457.481-.48.599-.874.262-.874-.336 0-1.004.538-1.485 1.195-.689.943-1.166 1.024-2.265.386-.786-.456-.977-.818-.439-.83.525-.013.751-.35.504-.751-.476-.769.774-.979 4.37-.733 3.209.219 3.532.688 1.548 2.248-1.848 1.454-3.369 1.822-3.369.816zm608.298-18.281c-2.08-1.32 2.26-4.235 13.02-8.743 3-1.259 7.58-3.891 10.17-5.85 4.41-3.331 4.77-3.475 5.65-2.229 1.32 1.893.54 3.263-2.7 4.722-1.54.698-3.49 2.05-4.32 3.005-.83.955-2.17 1.737-2.97 1.737-.8 0-2.69 1.104-4.19 2.453-5.15 4.618-11.67 6.8-14.66 4.905zm-50.973-9.462c-.757-.48-.8-.973-.183-2.126.442-.826.804-2.529.804-3.784 0-2.052.165-2.224 1.639-1.705.901.317 2.786.619 4.188.671 1.402.053 2.803.143 3.113.201 1.207.227-2.02 3.9-4.919 5.599-3.453 2.023-3.31 1.988-4.642 1.144zm84.163-6.369c-.25-.254.35-1.096 1.34-1.873 1.48-1.169 1.66-1.663 1.01-2.877-.94-1.757.45-3.643 3.69-4.983 2.51-1.038 3.14-3.144 2.46-8.228-.46-3.497-.4-3.715.73-2.783.88.732 1.1 1.654.78 3.335-.34 1.843-.03 2.801 1.5 4.628 1.67 1.973 2.16 2.188 3.45 1.496 1.29-.689 1.44-.626 1.03.43-.26.681-.47 1.366-.47 1.523 0 .157-1.07.831-2.37 1.498s-3.84 2.43-5.64 3.918c-2.93 2.421-5.95 4.376-6.75 4.376-.16 0-.5-.207-.76-.46zm-77.02-9.408c-1.533-1.633-1.817-1.695-3.29-.73-1.878 1.231-5.407.512-8.235-1.678-1.509-1.168-1.614-1.544-.836-2.998.664-1.241.686-2.11.087-3.426-.442-.97-.803-2.403-.803-3.185 0-1.765-1.146-1.849-2.095-.154-.39.697-.918 1.06-1.173.805-.255-.256.588-1.663 1.874-3.127 3.165-3.605 1.93-4.584-2.251-1.784-1.801 1.207-3.392 2.525-3.534 2.929-.143.404-1.009-.844-1.924-2.774-.993-2.093-2.707-4.196-4.248-5.211-2.315-1.525-3.099-1.65-7.545-1.208-6.521.649-12.811 2.257-16.929 4.327-1.871.941-5.524 1.904-8.34 2.199-2.756.289-7.139 1.327-9.74 2.306-3.978 1.497-5.11 1.654-7.125.989-2.704-.892-3.827-2.731-2.078-3.402.633-.243 1.783-1.915 2.554-3.714 1.235-2.882 1.303-3.779.571-7.501-.606-3.08-.623-5.997-.062-10.738.423-3.581.585-7.215.36-8.076-.225-.862.127-2.971.782-4.687 1.156-3.027 1.436-3.224 9.25-6.534 4.432-1.877 8.969-3.413 10.081-3.413 3.011 0 6.739-2.865 8.794-6.757 1.271-2.406 2.152-3.321 2.914-3.027 2.127.823 2.547.661 2.383-.916-.105-1.015.331-1.753 1.198-2.028.75-.238 2.136-1.564 3.079-2.947.967-1.416 2.953-3.011 4.547-3.651 2.659-1.068 2.924-1.052 4.37.263 2.669 2.426 4.56 3.134 5.463 2.045.44-.529.591-1.17.336-1.425-.834-.834 2.981-5.62 4.846-6.08 1.001-.247 3.058-1.069 4.569-1.826 2.358-1.181 3.187-1.259 5.827-.55 5.695 1.528 5.884 1.779 3.766 4.979-2.724 4.116-2.002 5.726 4.68 10.429 3.084 2.171 5.996 3.818 6.471 3.66.474-.158 1.975-1.821 3.334-3.694 1.852-2.554 2.57-4.411 2.867-7.413.422-4.266 2.462-10.198 3.507-10.198.346 0 1.139 1.754 1.763 3.898.623 2.144 1.929 4.647 2.902 5.561 2.273 2.136 3.593 8.11 2.573 11.64-.68 2.338-.55 2.714 1.77 5.098 1.38 1.416 3.56 4.869 4.84 7.673 1.29 2.805 3.6 6.772 5.15 8.818l2.81 3.718-.8 5.746c-.58 4.168-1.48 6.946-3.27 10.12-2.74 4.863-6.85 9.502-9.01 10.189-.78.247-2.58 2.072-4.008 4.056-1.425 1.983-2.912 3.606-3.304 3.606-.392 0-2.058 1.702-3.702 3.783-2.743 3.47-3.248 3.787-6.106 3.841-2.193.041-3.872.636-5.673 2.01l-2.558 1.951-1.678-1.787h-.001zm-355.176-15.314c-1.542-1.543-1.8-2.332-1.455-4.456.324-2 .015-3.176-1.371-5.215-.984-1.448-1.789-2.989-1.789-3.424 0-.436-1.288-2.519-2.862-4.629-2.433-3.261-2.933-4.564-3.334-8.69-.708-7.28-3.033-15.16-6.157-20.872-1.536-2.808-3.012-6.453-3.279-8.101-.569-3.507.854-8.726 4.106-15.05l2.162-4.206-1.215-3.659c-.68-2.047-1.012-4.469-.754-5.497.302-1.204-.022-2.638-.94-4.153-.771-1.274-1.916-4.118-2.545-6.321-.839-2.943-2.009-4.857-4.409-7.212-4.616-4.529-5.216-6.312-3.784-11.24 2.917-10.033-.234-15.884-7.931-14.73-2.997.449-3.112.393-3.535-1.724-.325-1.625-1.206-2.58-3.417-3.708-2.873-1.466-4.102-1.471-7.63-.034-.801.326-4.079 1.457-7.284 2.513-4.819 1.587-6.266 1.792-8.364 1.184-1.987-.576-3.661-.427-7.727.688-4.202 1.153-5.725 1.277-7.996.65-4.737-1.308-12.877-8.644-14.035-12.65-.896-3.1-6.468-10.324-8.364-10.844-1.205-.331-1.353-.587-.615-1.063.742-.479.613-.722-.547-1.025-1.841-.481-2.024-1.986-.243-2.001 1.089-.01 1.115-.114.182-.717-.688-.445-.765-.711-.207-.718.578-.007.358-.905-.634-2.588-1.398-2.367-1.427-2.68-.359-3.86 3.259-3.601 3.973-11.354 1.495-16.238-1.182-2.332-.422-5.554 2.102-8.902.95-1.261 2.805-4.329 4.122-6.818 2.305-4.354 7.441-10.407 8.831-10.407 1.538 0 6.501-5.336 6.501-6.99 0-3.733 2.233-7.456 5.872-9.792 1.956-1.255 4.248-3.4 5.093-4.768 1.729-2.798 1.974-2.889 3.987-1.485.791.55 2.754 1.222 4.364 1.492 2.455.412 3.629.115 7.284-1.84 6.289-3.363 10.176-4.203 17.372-3.754 4.746.296 6.883.107 9.183-.814 3.388-1.356 6.318-.553 5.525 1.513-.239.621-.093 1.539.323 2.041.524.631.52 1.535-.013 2.936-.67 1.761-.521 2.285 1.137 4.016 1.049 1.095 2.928 2.195 4.175 2.445 5.854 1.17 7.518 1.928 8.727 3.975.885 1.499 2.046 2.269 3.966 2.629 1.492.28 3.66.998 4.816 1.596 1.964 1.016 2.218.979 3.856-.56 1.101-1.034 1.601-2.129 1.342-2.943-.226-.713-.054-1.964.383-2.78 1.127-2.106 4.327-1.899 9.323.602 5.443 2.725 15.764 4.669 19.424 3.658 1.76-.486 3.452-.492 4.993-.018 5.033 1.546 7.61.336 8.297-3.898.228-1.406.618-2.557.866-2.557.471 0 .717-2.114.786-6.738.022-1.502.377-2.731.789-2.731.49 0 .466-.528-.07-1.53-.896-1.674-2.713-1.636-7.06.148-2.062.847-2.636.811-4.483-.28-2.395-1.415-4.853-1.627-5.562-.481-.527.853-4.251.255-6.271-1.006-1.451-.906-2.807-3.604-2.807-5.585 0-.759-.738-1.9-1.639-2.535-1.395-.983-1.476-1.261-.546-1.87.601-.393 1.837-.54 2.746-.326 1.161.273 2.228-.184 3.575-1.531 1.268-1.268 2.81-1.968 4.537-2.059 1.439-.077 3.524-.737 4.633-1.468 2.407-1.586 7.871-1.145 12.111.977 5.717 2.862 10.795 2.694 12.839-.425 1.063-1.623 1.069-1.964.06-3.504-.615-.938-3.568-3.1-6.563-4.803l-5.444-3.098 1.02-1.973c.561-1.085.836-2.156.612-2.38-.225-.225-.139-.84.19-1.367.33-.528.663-1.383.742-1.9.167-1.103-1.008-.799-6.8 1.763-3.363 1.487-3.863 1.943-3.117 2.842.489.588 1.586 1.085 2.438 1.102 1.196.025.913.369-1.238 1.504-2.612 1.378-2.903 1.396-4.601.283-1.452-.951-1.642-1.394-.954-2.223.683-.823.581-1.14-.498-1.545-.746-.281-1.708-.978-2.138-1.551-2.086-2.781-8.705 4.534-10.63 11.749-.904 3.386-.874 3.562.827 4.845l1.766 1.332-3.239.668c-1.781.367-4.182.41-5.335.095-2.127-.581-4.823.295-4.823 1.567 0 .374-.496.49-1.102.257-.606-.233-1.568-.036-2.138.437-.884.734-.784 1.335.681 4.09 1.586 2.984 1.636 3.392.646 5.376-1.24 2.486-2.394 2.301-4.146-.665-1.221-2.067-1.213-2.115.403-2.344 2.04-.29 2.171-1.588.193-1.904-4.513-.722-6.92-3.1-6.92-6.837 0-2.917-2.704-6.132-5.982-7.114-1.704-.51-3.556-1.582-4.116-2.382-.56-.799-2.199-1.947-3.642-2.55-1.444-.603-3.059-1.717-3.59-2.475-.763-1.088-1.264-1.219-2.38-.622-.777.416-1.413 1.226-1.413 1.799 0 1.891 9.284 10.446 13.822 12.737 4.812 2.429 5.563 3.296 2.22 2.562-2.98-.654-3.792.001-2.773 2.238.716 1.572.599 2.05-.841 3.434l-1.674 1.608.381-2.17c.604-3.444-3.937-8.391-7.703-8.391-1.38 0-6.684-5.145-8.073-7.832-1.485-2.871-3.137-3.426-5.477-1.839-3.526 2.391-6.169 3.199-8.934 2.732-3.674-.621-5.985.66-5.399 2.992.305 1.218.135 1.761-.551 1.761-.547 0-1.946.819-3.11 1.82-1.164 1.002-2.367 1.821-2.673 1.821-.901.002-3.444 4.604-3.447 6.238-.003 1.564-2.851 4.645-5.6 6.057-.875.45-2.912.817-4.526.817-2.222 0-3.132.366-3.742 1.505-.798 1.491-.822 1.488-2.689-.379-1.751-1.751-2.759-2.189-6.294-2.736-1.857-.287-2.17-4.491-.781-10.48.594-2.56.885-5.428.647-6.375-.69-2.75 1.471-4.371 5.085-3.816 8.346 1.282 13.228 1.353 14.373.208 1.572-1.572 2.281-6.757 1.322-9.665-.626-1.896-1.487-2.672-4.055-3.653-3.778-1.442-3.857-2.838-.164-2.875 1.407-.014 3.436-.601 4.51-1.305 1.074-.703 2.262-1.088 2.639-.855 1.03.637 4.929-1.611 6.224-3.587.625-.955 1.858-1.92 2.738-2.144.88-.225 3.239-1.935 5.242-3.801 2.84-2.645 4.33-3.475 6.765-3.765 3.017-.36 6.051-2.841 4.626-3.783-.885-.586-1.624-4.113-1.131-5.398.233-.608 1.265-1.657 2.291-2.33l1.867-1.223-.479 2.997c-.416 2.602-.31 2.969.803 2.783.706-.118 2.025-.622 2.933-1.121 1.381-.759 1.72-.722 2.084.227.624 1.627-1.111 3.54-2.309 2.545-.662-.549-1.082-.529-1.451.069-.381.617-.68.584-1.118-.125-.329-.532-.765-.8-.969-.596-.205.204.378 1.312 1.294 2.46 1.544 1.937 1.838 2.029 4.039 1.262 1.885-.657 2.79-.613 4.395.217 1.811.937 2.423.892 5.905-.431 3.051-1.159 4.253-1.307 5.603-.692 1.242.566 2.163.554 3.317-.042 3.276-1.693 4.183-2.97 3.777-5.313-.603-3.473.501-4.611 3.409-3.513 1.979.747 2.557.717 3.452-.177.947-.947.865-1.297-.687-2.949-1.493-1.589-1.597-1.984-.687-2.598.59-.399 2.803-.541 4.917-.318 3.869.41 8.69-1.101 7.85-2.46-.736-1.191-5.176-1.534-8.938-.693-3.337.747-4.212.687-6.769-.466-3.972-1.791-4.44-3.887-1.716-7.683 3.506-4.887 4.148-6.444 3.149-7.648-1.479-1.782-2.932-1.201-6.311 2.524-1.785 1.968-4.218 3.98-5.406 4.472-1.188.493-2.657 1.857-3.266 3.033-.99 1.915-.988 2.317.015 3.849.617.94 1.785 1.921 2.597 2.178 2.235.71 1.792 2.041-1.403 4.227-.983.673-2.295 2.576-2.914 4.229-.776 2.071-1.957 3.484-3.797 4.547-2.595 1.498-2.713 1.504-4.147.207-.812-.735-1.673-2.233-1.914-3.33-.241-1.097-1.335-3.068-2.431-4.381l-1.993-2.388-2.527 1.541c-1.39.847-3.183 1.534-3.984 1.527-2.311-.021-4.987-2.518-5.166-4.821-.089-1.144-.387-2.641-.661-3.327-.653-1.631 2.609-4.691 5.999-5.627 3.402-.939 10.301-5.775 11.477-8.044.523-1.009 2.295-3.04 3.938-4.513 1.643-1.473 2.987-3.003 2.987-3.4 0-.396 1.557-1.276 3.46-1.954a188.881 188.881 0 007.102-2.734c2.459-1.014 5.534-1.55 9.469-1.65 6.875-.176 11.371.735 15.081 3.056 1.861 1.165 3.331 1.562 4.736 1.281 2.515-.503 15.921 3.652 16.479 5.108.562 1.463-3.283 2.844-6.591 2.368-1.515-.219-4.649-.802-6.963-1.297-3.116-.666-4.421-.688-5.028-.081-.606.606-.303 1.054 1.168 1.724 1.092.498 2.46 1.821 3.039 2.941 1.475 2.852 6.198 5.176 8.634 4.25 2.341-.89 2.325-1.171-.145-2.511-2.285-1.24-1.23-1.508 1.639-.417 2.291.871 4.887-.212 4.282-1.787-.283-.738.513-1.271 2.759-1.846 4.805-1.232 5.157-1.408 4.759-2.382-1.508-3.686-1.529-3.58.664-3.33 1.171.134 2.026.635 1.929 1.129-.096.489.514 1.257 1.355 1.708 1.265.677 2.262.436 5.739-1.387 5.098-2.672 9.067-3.543 10.547-2.315.825.685 2.193.69 6.154.022 2.801-.473 5.411-.663 5.8-.422.389.24.922.089 1.184-.336.574-.928-1.013-3.036-1.882-2.499-1.049.649-4.494-.513-3.745-1.262.755-.755 21.026 3.969 22.239 5.182.818.818 3.407-.273 3.407-1.436 0-.391-1.446-1.414-3.213-2.273-5.478-2.661-5.83-6.924-.678-8.217 2.99-.751 4.283.115 8.419 5.637 5.369 7.168 5.233 6.803 3.478 9.267-1.299 1.824-1.377 2.251-.476 2.597 1.708.655 5.363-1.638 5.877-3.687.603-2.402-.522-4.448-3.21-5.838-2.113-1.092-3.642-3.094-3.642-4.768 0-.57.793-.712 2.368-.425 2.361.432 4.314-.425 9.661-4.235 1.223-.872 3.29-1.446 5.375-1.494 4.228-.095 5.596-.805 4.379-2.271-.477-.575-.715-1.197-.53-1.383.93-.93 12.922-2.606 15.683-2.192 2.658.398 3.48.183 5.667-1.485 1.406-1.073 2.557-2.239 2.557-2.592 0-.891-6.365-.811-6.919.086-.763 1.235-1.752.805-1.474-.64.235-1.22-.382-1.419-5.687-1.832-14.487-1.128-15.665-1.393-13.927-3.131 1.528-1.528 5.276-1.498 8.413.067 1.285.641 3.414 1.166 4.731 1.166 1.317 0 2.597.327 2.845.728.248.401 1.523.728 2.835.728 3.633 0 10.657 1.57 10.216 2.283-.215.347.465.631 1.51.631s2.949.564 4.231 1.254c1.724.928 4.133 1.262 9.251 1.282 5.502.022 7.33.305 8.923 1.379 1.101.743 1.998 1.559 1.992 1.814-.005.254-1.687 1.387-3.735 2.517-4.948 2.73-3.902 3.92 2.083 2.369 3.876-1.004 4.767-1.011 7.976-.058 2.634.782 4.278.883 6.064.371 1.782-.512 3.612-.402 6.717.403 3.24.839 4.919.924 6.972.354 4.686-1.301 10.451-.934 13.795.88 1.663.901 4.728 2.569 6.813 3.706 3.695 2.016 3.856 2.038 6.419.889 2.145-.962 3.342-1.042 6.506-.437 3.145.601 4.289.528 6.06-.388 1.733-.896 2.012-1.337 1.351-2.134-1.279-1.541 3.258-2.114 8.834-1.115 2.553.457 5.79.914 7.192 1.015 1.402.1 4.142.899 6.088 1.775 2.968 1.336 5.207 1.639 13.891 1.877 8.24.227 10.863.556 12.85 1.616 2.018 1.075 4.318 1.348 11.967 1.423 7.037.069 10.19.402 12.278 1.3 3.37 1.448 4.718.917 2.883-1.137-1.319-1.477-1.311-1.479 3.777-.973 8.526.847 18.754 2.713 22.216 4.052 1.803.698 5.239 1.509 7.635 1.802 2.397.293 5.894 1.312 7.772 2.263 2.85 1.444 3.776 1.604 5.606.966 2.502-.872 4.126-.244 7.947 3.075l2.38 2.063-1.79.449c-1.8.451-6.569-.73-8.213-2.032-.483-.383-1.16-.522-1.505-.309-.345.214-2.049-.102-3.786-.7-4.069-1.402-5.876-.876-4.023 1.172 1.266 1.398 1.239 1.428-1.175 1.26-4.517-.316-3.276 1.018 3.356 3.605 3.605 1.406 6.709 2.706 6.898 2.889.684.662-1.57 1.482-3.21 1.168-1.801-.344-6.238 1.589-6.238 2.717 0 .375-.701 1.335-1.558 2.133-1.431 1.334-1.727 1.364-3.642.374-1.791-.927-2.364-.936-4.087-.069-1.101.555-2.984 1.246-4.184 1.534-1.199.289-2.589.864-3.088 1.278-1.466 1.216 1.119 4.758 4.759 6.52 1.983.96 3.419 2.246 3.845 3.444.375 1.052 1.169 2.78 1.765 3.84.971 1.727.963 1.973-.081 2.373-.765.294-.99.882-.657 1.715.279.698.594 2.088.701 3.09.106 1.001.427 2.365.713 3.03.373.865.065 1.353-1.083 1.717-1.278.406-2.139-.083-4.241-2.406-1.45-1.603-3.87-3.811-5.376-4.906-1.507-1.094-4.206-3.941-5.998-6.326-3.162-4.206-3.227-4.398-2.178-6.427.595-1.15 1.093-2.845 1.108-3.766.014-.922.476-2.489 1.027-3.484 1.052-1.901.646-3.418-1.603-5.998-1.476-1.694-4.104-.424-3.441 1.663.61 1.924-1.263 2.547-3.416 1.137-.934-.611-3.084-1.332-4.777-1.602-2.908-.465-3.124-.375-3.877 1.602-.439 1.151-.623 2.971-.409 4.045.333 1.672.101 2.014-1.619 2.392-1.171.257-3.176-.047-4.81-.73-1.794-.75-3.485-.976-4.701-.63-1.045.297-4.578.566-7.85.599-5.185.051-6.184.278-7.759 1.758-.995.934-2.19 3.229-2.656 5.099-.466 1.87-1.32 4.129-1.898 5.021-.998 1.541-.902 1.697 1.953 3.153 3.098 1.581 6.476 1.997 9.037 1.114 1.975-.681 8.001 4.017 9.883 7.705.77 1.511 2.044 3.091 2.831 3.512 2.975 1.592 3.579 12.039 1.091 18.869-1.722 4.729-3.65 6.275-6.481 5.199-1.082-.411-2.076-.748-2.21-.748-.134 0-.944 1.345-1.801 2.988-1.125 2.158-1.344 3.246-.789 3.914 1.061 1.279.276 2.943-1.847 3.91-.979.446-1.78 1.128-1.78 1.516 0 .388 2.278 2.274 5.064 4.191 3.543 2.438 5.437 4.312 6.305 6.237.683 1.514 1.108 2.873.945 3.02-.163.147-1.652.95-3.308 1.786l-3.013 1.518-1.812-4.16c-2.029-4.657-3.769-6.529-6.835-7.354-1.543-.416-2.081-1.005-2.081-2.28 0-1.169-.756-2.163-2.361-3.103-2.338-1.37-2.385-1.369-4.873.169-2.491 1.54-2.52 1.54-3.285.111-.424-.793-.771-1.943-.771-2.556s-.612-1.443-1.361-1.843c-1.112-.596-1.815-.236-3.86 1.977-1.376 1.488-3.138 3.068-3.916 3.511-1.207.686-1.272.976-.439 1.979.536.647 2.388 1.966 4.116 2.931 2.747 1.536 3.273 1.623 4.199.696.881-.88 1.598-.912 4.256-.191l3.196.868-1.781 1.19c-3.304 2.209-4.346 3.368-4.818 5.361-.387 1.636-.156 2.128 1.313 2.797.98.446 2.47 2.228 3.311 3.958.84 1.731 2.52 3.733 3.732 4.449 2.666 1.575 3.439 3.248 1.899 4.11-1.435.803-.749 2.003 1.145 2.003 2.268 0 2.281 1.354.089 9.164-2.656 9.459-5.053 12.615-11.325 14.909-2.47.904-5.474 1.697-6.676 1.764-2.793.155-4.96 1.338-6.85 3.74l-1.5 1.908-.7-1.841c-.913-2.401-3.006-3.004-6.01-1.733-2.754 1.165-4.569 3.022-5.301 5.424-.655 2.15 1.665 5.93 5.506 8.972 3.153 2.498 6.691 8.765 7.522 13.325.722 3.966-.558 6.57-3.993 8.119-1.564.705-3.029 1.862-3.254 2.571-.54 1.702-3.774 3.82-4.367 2.861-.247-.4-.257-1.333-.021-2.075.235-.741.223-1.879-.026-2.529-.359-.935-.757-1.02-1.907-.404-1.198.641-1.66.478-2.627-.924-2.377-3.447-9.267-8.986-11.177-8.986-.673 0-.932.81-.818 2.55.093 1.402-.193 4.136-.634 6.075-.72 3.159-.646 3.738.71 5.572.832 1.125 1.72 2.87 1.972 3.877.257 1.023 2.364 3.358 4.773 5.29 4.015 3.22 4.438 3.856 6.128 9.206.998 3.16 1.815 6.057 1.815 6.437 0 1.235-1.521.735-4.697-1.546-3.283-2.357-5.379-6.087-7.128-12.679-.759-2.863-1.591-4.09-3.953-5.827-2.897-2.131-2.985-2.318-2.751-5.844.132-2.003.461-4.842.729-6.309.378-2.065.066-3.545-1.385-6.555-1.031-2.139-2.25-5.423-2.708-7.299-1.026-4.19-2.474-4.892-5.034-2.439-1.058 1.014-2.128 1.843-2.378 1.843-1.16 0-2.752-2.467-2.37-3.671.694-2.187-3.574-9.808-6.071-10.842-1.366-.566-2.615-1.939-3.451-3.793-1.453-3.221-3.082-4.453-4.71-3.562-.591.323-2.955.973-5.254 1.444-4.214.865-5.726 2.141-5.15 4.347.213.813-.524 1.597-2.293 2.441-1.434.683-2.978 2.058-3.432 3.055-.455.997-1.455 2.012-2.223 2.256-.768.244-1.953 1.358-2.633 2.477-.681 1.119-2.706 3.163-4.502 4.543-2.458 1.889-3.226 2.946-3.103 4.275.714 7.767-.382 14.266-3.057 18.125-2.608 3.765-2.792 3.87-4.999 2.864-1.215-.554-1.962-1.635-2.272-3.285-.254-1.353-1.721-5.165-3.26-8.471-9.314-20.004-10.691-23.821-9.898-27.433.537-2.441-.75-6.124-1.993-5.707-.498.167-.914.767-.925 1.334-.062 3.324-3.797 3.835-6.715.917l-1.933-1.933 1.663-.615c1.872-.693 1.7-2.559-.204-2.217-.676.121-2.224-.616-3.44-1.639-1.216-1.023-2.491-1.86-2.834-1.86-.343 0-.832-.659-1.088-1.465-.671-2.115-4.535-3.955-6.472-3.082-1.742.786-17.553.622-20.199-.21-.954-.299-2.717-1.67-3.919-3.045-2.172-2.486-2.205-2.496-5.463-1.617-3.086.832-3.535.753-7.693-1.346-3.593-1.813-4.669-2.792-5.778-5.251-1.415-3.138-4.558-5.41-6.469-4.677-.602.231-1.304 1.378-1.562 2.55-.369 1.682.008 2.775 1.793 5.204 1.244 1.69 2.599 4.327 3.011 5.859.886 3.29 2.635 4.268 4.086 2.285.875-1.197 1.111-1.238 1.703-.3.379.599.583 1.417.454 1.817-.405 1.259 3.798 3.331 5.759 2.839.991-.249 3.109-1.937 4.706-3.751 2.517-2.859 3.395-3.052 2.965-.651-.29 1.616.982 3.509 3.086 4.597 3.251 1.681 7.779 5.424 7.779 6.43 0 .464-.852 1.639-1.892 2.61-1.041.971-2.538 3.026-3.328 4.566-1.919 3.743-7.482 9.218-9.365 9.218-2.177 0-5.415 1.838-6.704 3.806-.611.932-2.217 2.247-3.568 2.921-6.924 3.457-15.259 6.961-17.605 7.401-2.508.47-2.711.356-4.04-2.264-.769-1.517-1.642-4.562-1.94-6.765-.387-2.866-1.137-4.687-2.636-6.399-1.152-1.316-2.095-2.709-2.095-3.095 0-.386-1.314-2.056-2.921-3.712-2-2.062-3.293-4.299-4.104-7.102-.651-2.252-1.975-5.077-2.943-6.278-6.684-8.302-8.664-11.229-9.66-14.286-1.321-4.051-2.438-4.705-2.953-1.729l-.366 2.112-2.464-3.111c-3.797-4.794-4.276-2.615-.711 3.238 1.686 2.769 4.375 7.657 5.975 10.862 1.599 3.205 3.673 6.841 4.608 8.081.963 1.276 1.7 3.272 1.7 4.6 0 2.745.819 4.458 4.035 8.442 1.294 1.603 2.572 3.942 2.841 5.199.344 1.613 1.75 3.298 4.773 5.723 4.593 3.684 7.57 7.53 8.308 10.735.278 1.204 1.329 2.439 2.662 3.129 2.031 1.05 2.746 1.021 9.166-.369 3.829-.83 7.886-1.986 9.014-2.57l2.052-1.061.487 2.883c.443 2.62-.033 3.882-5.219 13.827-5.575 10.693-5.836 11.047-11.379 15.423-3.121 2.464-6.386 5.48-7.257 6.703-.871 1.222-3.656 4.525-6.19 7.338-7.395 8.211-8.4 15.432-3.496 25.111 1.246 2.458 1.733 4.319 1.437 5.496-.245.978-.088 3.449.35 5.491.69 3.216.612 4.075-.582 6.414-1.722 3.374-3.092 4.587-7.906 7-2.104 1.054-3.824 2.227-3.824 2.608 0 .38-1.475 2.352-3.278 4.382s-3.278 4.021-3.278 4.424c0 .403.676 2.058 1.502 3.677 2.476 4.853.812 8.37-5.123 10.829-2.503 1.036-3.324 3.152-2.705 6.967.324 1.998.118 2.663-1.014 3.269-.782.419-2.196 1.976-3.141 3.461-2.986 4.689-11.569 12.986-15.468 14.953-3.254 1.641-4.086 1.786-6.477 1.126-2.107-.582-3.808-.49-7.342.398-5.724 1.438-5.116 1.497-7.333-.719zm95.939-232.322c1.881-.972 2.149-1.507 2.149-4.281 0-1.988-.425-3.523-1.14-4.116-.628-.521-1.644-1.92-2.259-3.109-1.017-1.968-1.013-2.122.048-1.715 1.401.537 3.351-.109 3.351-1.111 0-.396-.677-1.672-1.506-2.835-1.247-1.752-1.747-1.986-2.913-1.362-.943.505-1.408.51-1.408.014 0-.406-1.3-1.402-2.889-2.213-3.516-1.794-4.768-3.781-3.671-5.831.83-1.551 3.796-2.638 5.062-1.855 1.707 1.055 2.211-.5.802-2.479-3.416-4.797-8.173-4.481-14.072.935-3.807 3.495-4.138 4.424-1.985 5.576.801.429 1.457 1.267 1.457 1.863 0 .596 1.296 2.489 2.879 4.206 3.647 3.957 4.316 5.765 3.865 10.448l-.364 3.769 5.005 2.568c2.752 1.412 5.102 2.584 5.222 2.604.12.019 1.185-.465 2.367-1.076zm-20.067 203.462c-2.056-1.167-2.349-1.782-2.886-6.082-.429-3.435-.25-4.182 1.805-7.522 2.089-3.395 2.24-4.049 1.779-7.736-.665-5.325.467-8.123 3.561-8.801 2.916-.64 9.224-6.209 10.736-9.478l1.155-2.498.803 1.762c2.02 4.434 1.814 6.381-1.7 16.105-1.88 5.203-3.898 11.426-4.483 13.83-1.873 7.693-2.937 9.548-6.005 10.467-3.267.978-2.95.981-4.765-.047zm358.804-12.664c-2.32-2.543-3.71-4.725-3.71-5.827 0-2.444.39-2.231 2.49 1.356 1.01 1.715 2.82 4.071 4.04 5.235 1.21 1.164 2.21 2.383 2.21 2.709 0 1.401-1.55.33-5.03-3.473zm-324.934-1.034c0-.4.328-.728.729-.728.4 0 .728.328.728.728a.73.73 0 01-.728.729.731.731 0 01-.729-.729zm383.574-1.328c-.25-.416-.11-.976.32-1.244 1.09-.669 1.47-.137.75 1.032-.39.626-.77.701-1.07.212zm-378.475-1.178c0-.177.328-.524.729-.771.4-.248.728-.104.728.321 0 .424-.328.771-.728.771-.401 0-.729-.144-.729-.321zm359.535-7.393c-.71-1.849.19-2.497 2.2-1.582 1.73.79 1.77.911.56 1.794-1.69 1.235-2.22 1.194-2.76-.212zm4.62-3.239c-1.43-.88-.44-1.582 1.82-1.302 1.78.219 1.82.299.55 1.08-.81.5-1.78.59-2.37.222zm-34.01-2.673c-1.5-3.221-.97-4.458.57-1.358 1.61 3.227 1.64 3.332.88 3.324-.3-.003-.95-.888-1.45-1.966zm2.79-.517c-.03-.768.14-1.198.38-.956s.27.87.06 1.396c-.24.581-.41.409-.44-.44zm59.29-6.993c-.66-1.079-.03-1.63 1.53-1.326 1.13.222 1.15.34.12 1.192-.82.679-1.29.717-1.65.134zm-430.465-3.629c-.248-.401-.103-.729.321-.729s.771.328.771.729c0 .401-.144.728-.321.728-.176 0-.524-.327-.771-.728zm319.765-6.843c-4.61-1.454-6.7-2.804-8.52-5.5-2.07-3.081-5.86-5.412-7.8-4.797-.78.248-2.099 1.599-2.927 3.002-1.409 2.389-1.68 2.52-4.241 2.065-1.505-.267-3.607-1.298-4.671-2.29-1.353-1.261-2.389-1.659-3.445-1.324-.831.264-2.035.186-2.675-.172-1.001-.56-.903-.823.698-1.872 1.856-1.216 1.858-1.232.614-3.842-1-2.096-2.379-3.189-6.889-5.456-3.101-1.559-6.607-2.835-7.791-2.835-2.708 0-3.827-2.497-1.787-3.989 1.214-.887 1.037-1.108-2.13-2.646-3.362-1.634-3.41-1.703-1.804-2.595.907-.504 2.369-.928 3.248-.942 1.706-.027 3.865 2.435 3.865 4.409 0 .658.708 2.097 1.574 3.197 1.551 1.972 1.591 1.98 2.731.556.637-.794 2.669-2.31 4.516-3.369l3.358-1.924 4.654 2.1c2.56 1.155 6.194 2.654 8.075 3.332 1.882.679 5.647 2.694 8.367 4.479 5.19 3.41 7.44 6.285 6.15 7.843-1.05 1.27 3.09 7.057 7.37 10.304 4.72 3.568 4.64 3.899-.54 2.266zm31.7-.059c-.58-.692-.63-1.11-.15-1.11.88 0 1.91 1.382 1.4 1.887-.18.183-.75-.167-1.25-.777zm-122.388-2.965c-1.055-.584-1.361-1.013-.727-1.022 1.301-.017 3.381 1.195 2.891 1.685-.189.189-1.163-.109-2.164-.663zm12.315-.963c2.066-2.901 5.299-4.142 8.287-3.182 2.178.699 2.212.757.483.827-1.023.04-3.411 1.057-5.306 2.259-4.325 2.743-5.369 2.772-3.464.096zm105.683.997c-.98-1.186-.75-1.335 1.04-.651.63.243 1.15.735 1.15 1.093 0 1.007-1.18.769-2.19-.442zm3.41-.643c-.27-.714-.47-1.844-.45-2.513.03-.804.29-.621.75.544.39.967.59 2.098.45 2.512-.14.415-.47.171-.75-.543zm56.32.686c0-.177.33-.524.73-.772.4-.247.73-.103.73.321 0 .425-.33.772-.73.772-.4 0-.73-.145-.73-.321zm-186.29-3.06c-.503-.212-.73-.685-.503-1.052.556-.9 5.225-.85 5.788.062.248.401.021.733-.503.739-.524.005-1.609.151-2.41.324-.801.172-1.869.14-2.372-.073zm10.814-.546c-1.324-1.595.201-2.081 3.633-1.157 3.457.931 3.445 1.077-.138 1.724-1.861.335-2.884.17-3.495-.567zm109.366-.444c-.51-.806-.6-1.456-.21-1.456s1.06.655 1.49 1.456c.43.802.52 1.457.2 1.457-.31 0-.98-.655-1.48-1.457zm4.56-.732c-1.95-2.152-.91-2.491 1.1-.357.94 1 1.37 1.818.96 1.818-.41 0-1.34-.658-2.06-1.461zm-136.572-.127c-2.604-.361-6.275-1.162-8.159-1.78-1.883-.618-4.102-.908-4.931-.645-1.667.529-8.761-1.556-8.761-2.576 0-2.328 6.529-2.505 9.999-.27 1.296.834 2.317.89 5.056.276 3.034-.68 3.666-.597 5.449.722 1.109.82 2.347 1.491 2.75 1.491 1.44 0 5.812 2.436 5.443 3.033-.207.335-.767.563-1.244.507-.477-.056-2.998-.397-5.602-.758zm130.742-3.511c-.72-.801-.99-1.457-.59-1.457s1.33.656 2.05 1.457c.73.801.99 1.457.59 1.457s-1.32-.656-2.05-1.457zm-4.59-.922c-.41-.499-.96-1.888-1.22-3.088-.42-1.932-.37-2.015.41-.724.48.801 1.34 1.997 1.91 2.659.61.701.75 1.381.35 1.631-.39.235-1.04.02-1.45-.478zm-15.43-2.316l-1.81-1.002 2.81-.526c1.54-.29 3.91-1.5 5.27-2.69 1.48-1.299 2.46-1.77 2.45-1.178-.01 1.481-.91 2.623-3.63 4.631-2.85 2.098-2.71 2.078-5.09.765zm-136.63-2.836c-2.676-1.525-7.503-7.423-9.074-11.089-.848-1.978-2.79-5.235-4.317-7.238-1.527-2.003-3.279-4.625-3.894-5.827-.615-1.202-2.484-3.496-4.152-5.099-3.518-3.378-5.681-6.929-4.207-6.903 1.911.033 6.831 2.768 8.941 4.971 5.822 6.077 7.015 7.159 9.763 8.852 2.652 1.634 3.908 3.335 4.034 5.463.023.401.778 1.548 1.676 2.549.898 1.002 2.593 2.885 3.766 4.186 1.173 1.301 2.344 3.33 2.603 4.51.848 3.861-2.261 7.264-5.139 5.625zm-146.72-.481a.73.73 0 01.728-.729c.401 0 .729.328.729.729a.73.73 0 01-.729.728.73.73 0 01-.728-.728zm192.655-.007c-.25-.404-.252-1.372-.007-2.152.247-.78-.053-2.185-.67-3.126-1.015-1.548-1.005-1.872.103-3.453.672-.96 1.465-3.537 1.762-5.728.367-2.702 1.091-4.532 2.253-5.694 1.59-1.59 1.99-1.661 5.563-.983 3.068.582 4.276.51 5.946-.354 2.797-1.446 3.001-1.381 2.072.657-1.18 2.592-3.539 3.42-6.027 2.116-4.442-2.327-10.336 1.132-7.226 4.241 1.143 1.143 1.775 1.247 3.892.64 3.629-1.041 5.059-.85 2.806.375-2.551 1.385-3.035 2.923-1.72 5.465.598 1.157 1.087 2.95 1.087 3.986 0 1.658-.174 1.789-1.458 1.102-.802-.429-1.958-1.978-2.57-3.443-1.105-2.644-1.124-2.653-2.538-1.239-1.239 1.239-1.323 1.79-.644 4.247.613 2.22.571 2.954-.194 3.439-1.286.816-1.884.792-2.433-.096h.003zm99.935-3.885c-.69-1.048-2.26-2.428-3.49-3.067-1.24-.638-2.09-1.325-1.89-1.525 1.14-1.133 7.46 4.011 6.92 5.627-.17.497-.83.052-1.54-1.035zm-114.383-2.424c-1.099-.576-2.58-.862-3.29-.637-1.812.575-9.011-.89-9.724-1.979-.567-.866-2.235-6.203-3.128-10.006-.246-1.046 0-2.403.573-3.188.834-1.139 1.265-1.226 2.585-.519 1.394.745 1.689.618 2.453-1.059.478-1.049 2.069-2.519 3.535-3.267 1.552-.792 3.045-2.275 3.573-3.552.61-1.472 1.724-2.461 3.39-3.011 1.366-.45 3.337-1.94 4.382-3.309 1.045-1.37 2.288-2.49 2.763-2.49.474 0 1.912 1.082 3.193 2.404l2.331 2.405-1.868 2.512c-2.122 2.854-2.011 5.308.393 8.685l1.456 2.045-1.814 1.188c-.998.654-1.813 1.591-1.811 2.083.007 1.668-4.661 11.284-5.831 12.015-.814.509-1.763.413-3.161-.32zm42.313-.014c-1.507-.393-1.717-1.683-.273-1.683.551 0 2.092.219 3.425.485 2.053.411 2.207.57 1.002 1.042-1.582.618-2.285.645-4.154.156zm116-9.288c0-.176.32-.523.72-.771.4-.248.73-.103.73.321s-.33.772-.73.772c-.4 0-.72-.145-.72-.322zm-118.552-1.975c-.582-.583-.616-1.258-.112-2.2.401-.749.534-1.675.297-2.059-.657-1.063.988-3.642 2.323-3.642 1.071 0 1.067.125-.047 1.355-.962 1.063-1.069 1.767-.497 3.271 1.156 3.041-.102 5.138-1.964 3.275zm-365.831-2.395c0-.177.328-.524.728-.771.401-.248.729-.103.729.321s-.328.771-.729.771c-.4 0-.728-.144-.728-.321zm505.133-1.864c-.24-.401-.1-.728.33-.728.42 0 .77.327.77.728 0 .401-.15.728-.32.728-.18 0-.53-.327-.78-.728zm-500.763-6.877c0-.176.328-.524.729-.771.4-.248.728-.103.728.321s-.328.771-.728.771c-.401 0-.729-.144-.729-.321zm350.363-10.951c-1.389-3.241-1.575-3.387-3.713-2.917-2.131.468-2.205.411-1.407-1.081.662-1.236 1.275-1.481 2.842-1.137 1.51.332 2.475-.004 3.955-1.375 1.077-.998 1.965-2.404 1.974-3.124.022-1.838 2.727 4.327 3.344 7.623.469 2.503.411 2.639-.728 1.697-1.689-1.4-3.316.052-1.93 1.722.553.667.624 1.124.175 1.124-.417 0-1.274.198-1.904.439-.846.325-1.529-.454-2.608-2.971zm-132.806 1.287c-.815-1.323-1.278-7.258-.689-8.834.623-1.67.67-1.65 2.526 1.093 2.224 3.287 2.936 5.395 2.202 6.52-.702 1.078-3.59 1.95-4.039 1.221zm162.662-3.768c0-.401.328-.931.729-1.178.4-.248.728-.123.728.278 0 .4-.328.931-.728 1.178-.401.248-.729.123-.729-.278zm114.354-.086c0-.401.15-.728.32-.728.18 0 .53.327.78.728.24.401.1.728-.33.728-.42 0-.77-.327-.77-.728zm-165.341-4.208c0-.312 1.461-2.196 3.245-4.188 2.616-2.919 3.252-3.332 3.278-2.126.018.823-1.077 2.708-2.433 4.188-2.299 2.511-4.09 3.441-4.09 2.126zm15.777-1.944c-.266-.691-.212-1.741.119-2.333.513-.917.727-.926 1.446-.06.644.776.615 1.328-.12 2.334-.903 1.234-.993 1.238-1.445.059zm-557.794-2.838c.446-.537.596-1.193.332-1.456-.263-.264.2-.48 1.031-.48 1.151 0 1.419.346 1.129 1.457-.221.846-.994 1.457-1.842 1.457-1.14 0-1.283-.215-.65-.978zm562.681-.193c-.271-.758-.626-1.624-.788-1.925-.163-.3.013-.546.391-.546.727 0 1.75 2.991 1.209 3.532-.175.175-.54-.302-.812-1.061zm-7.381-1.9c-1.023-1.233-.026-2.987 1.504-2.646.959.214.994.517.225 1.942-.743 1.375-1.064 1.506-1.729.704zm8.612-2.503c-.836-1.063-1.399-2.054-1.25-2.203.592-.592 2.64.713 3.729 2.375 1.675 2.557-.449 2.409-2.479-.172zm-11.975-2.82c-.648-.649-1.179-1.557-1.179-2.018 0-.461.719-.118 1.598.761.879.879 1.41 1.787 1.18 2.017-.231.231-.95-.111-1.599-.76zm-571.751-.104c-.267-.267-.485-.824-.485-1.238 0-.457.339-.414.862.109.474.474.692 1.031.485 1.238-.207.207-.594.158-.862-.109zm-4.127-.971c0-.401.144-.729.321-.729.177 0 .524.328.772.729.247.4.103.728-.322.728-.424 0-.771-.328-.771-.728zm34.234-1.457c0-.401.145-.728.321-.728.177 0 .524.327.772.728.247.401.103.728-.321.728-.425 0-.772-.327-.772-.728zm548.971-.111c-.73-.412-2.115-.551-3.077-.31-1.41.354-2.382-.213-5.022-2.93-3.73-3.837-4.455-5.455-3.361-7.499.423-.79.769-2.422.769-3.627 0-3.954 2.648-3.794 4.589.277 1.076 2.255 1.083 2.74.072 5.159-1.088 2.604-1.067 2.72.874 4.746 1.402 1.464 2.454 1.96 3.562 1.682.937-.235 1.947.057 2.498.721 1.311 1.58.739 2.708-.904 1.781zm-553.341-4.581c0-.176.328-.523.728-.771.401-.248.729-.103.729.321 0 .425-.328.772-.729.772-.4 0-.728-.145-.728-.322zm114.357-2.592a.73.73 0 01.728-.728.73.73 0 01.729.728.73.73 0 01-.729.728.73.73 0 01-.728-.728zm-116.542-2.828c0-.4.327-.93.728-1.178.401-.248.728-.122.728.278 0 .401-.327.931-.728 1.179-.401.247-.728.122-.728-.279zm-6.186-2.991c-.256-.413.037-.535.685-.286 1.262.484 1.493 1.006.445 1.006-.377 0-.886-.324-1.13-.72zm115.808-.008c-.247-.401-.103-.728.321-.728.425 0 .772.327.772.728 0 .401-.145.728-.321.728-.177 0-.524-.327-.772-.728zm-112.9-1.457c-.248-.4-.103-.728.321-.728s.772.328.772.728c0 .401-.145.729-.322.729-.176 0-.523-.328-.771-.729zm3.278 0c0-.4.144-.728.321-.728.177 0 .524.328.771.728.248.401.103.729-.321.729s-.771-.328-.771-.729zm-50.077-1.939c-.501-.202-.911-.668-.911-1.035 0-1.05 3.216-.78 4.778.402 1.343 1.016 1.305 1.067-.771 1.035-1.202-.019-2.595-.2-3.096-.402zm18.431-.413c-.653-.366-2.096-.465-3.207-.221-1.11.244-2.819.123-3.796-.268-1.571-.628-1.432-.702 1.202-.641 3.873.091 4.907-.54 3.917-2.389-.702-1.313-.491-1.413 2.984-1.413 3.361 0 8.21 1.542 9.032 2.872.547.884-8.827 2.79-10.132 2.06zm13.972.46c-.863-.863.21-1.75 2.117-1.75 1.145 0 1.726.344 1.539.911-.336 1.019-2.889 1.606-3.656.839zm526.972-1.158c-1.928-1.929-.019-4.234 3.507-4.234 1.563 0 1.564.013.223 2.309-1.563 2.677-2.496 3.158-3.73 1.925zm-520.953-.15c0-.157.492-.475 1.093-.705.601-.231 1.093-.102 1.093.286 0 .388-.492.706-1.093.706s-1.093-.129-1.093-.287zm-31.486-5.221c-.225-.225-1.763-.427-3.417-.45-2.283-.032-2.83-.256-2.27-.931.541-.652-.236-1.52-2.914-3.255-5.25-3.402-8.182-4.067-11.709-2.656-3.308 1.324-3.561 1.361-3.561.528 0-1.525 5.797-3.202 9.971-2.884 3.992.303 6.228 1.153 14.066 5.346 6.443 3.447 6.45 3.454 4.37 4.047-2.361.673-4.025.767-4.536.255zm5.264-6.147c1.413-.912 2.186-.912 2.186 0 0 .401-.738.724-1.639.718-1.325-.009-1.43-.147-.547-.718zm580.089-1.291c-.441-.291-1.198-1.284-1.684-2.205-.732-1.39-.656-2.065.444-3.948 1.699-2.909 2.846-3.272 3.398-1.075.58 2.311-1.097 7.928-2.158 7.228zm-575.306-.971c.486-.787 3.23-.876 3.229-.105 0 .301-.817.594-1.816.651-.999.058-1.635-.188-1.413-.546zm-14.404-7.02c-1.165-1.337-.995-3.1.298-3.1.414 0 .585.64.381 1.422-.205.782.003 1.556.461 1.721.458.165.64.51.404.768-.236.257-.931-.108-1.544-.811zm4.231-5.722c-.259-.676-.307-1.393-.107-1.593.201-.2.577.189.836.864.259.676.307 1.392.107 1.593-.2.2-.576-.189-.836-.864zm-4.564-.656c0-.601.624-1.093 1.387-1.093 1.233 0 1.266.122.295 1.093-.601.601-1.225 1.093-1.387 1.093-.163 0-.295-.492-.295-1.093zm610.875-15.969c0-.57-.795-1.982-1.768-3.138-2.308-2.743-1.491-4.574 1.243-2.783 1.966 1.288 2.993 3.919 2.268 5.808-.55 1.432-1.743 1.51-1.743.113zm-565.229-4.383c0-.177.327-.524.728-.771.401-.248.728-.103.728.321s-.327.771-.728.771c-.401 0-.728-.144-.728-.321zm569.289-.895c-.472-1.231.643-2.394 2.314-2.414 1.157-.015 1.179 1.614.036 2.756-1.187 1.188-1.797 1.099-2.35-.342zm6.655-2.659c-1.414-2.158-3.412-2.455-7.985-1.184-1.86.516-3.141.522-4.007.018-.699-.408-.887-.751-.417-.764.47-.012 1.842-.853 3.049-1.868 1.557-1.311 2.698-1.72 3.928-1.412 1.304.328 2.711-.299 5.671-2.523 5.762-4.329 6.284-5.695 3.939-10.321-2.25-4.441-1.623-5.87 1.711-3.901 2.427 1.434 4.713 5.54 4.049 7.271-.239.623.118 2.579.792 4.345.955 2.501 1.046 3.552.409 4.742-.936 1.749-3.539 2.917-6.499 2.917-1.659 0-2.155.425-2.697 2.316l-.664 2.316-1.279-1.952zm-295.078-2.486c-.869-.869-.407-1.651.977-1.651.778 0 1.616-.328 1.864-.728.677-1.096 1.832-.876 1.394.265-.449 1.171-3.603 2.745-4.235 2.114zm-24.838-1.26l-2.185-1.001 2.914-.049c3.628-.061 6.302.619 5.776 1.47-.586.948-3.997.728-6.505-.42zm-29.424-7.266c-2.915-1.493-3.052-1.679-1.531-2.077 1.823-.477 5.857.116 5.775.849-.028.25-.274.998-.547 1.661-.447 1.09-.802 1.049-3.697-.433zm-14.6-7.881c-.63-1.808-.58-2.5.239-3.319 1.481-1.481 2.631-.441 2.631 2.38 0 3.331-1.827 3.929-2.87.939zm-17.08.605c.517-1.346 2.733-1.574 2.287-.235-.167.501-.848 1.017-1.515 1.146-.845.164-1.078-.112-.772-.911zm380.585-8.314c-1.333-1.872-1.37-2.217-.385-3.623.967-1.381.963-1.795-.033-3.721-1.639-3.169-1.408-3.361 1.433-1.193 1.405 1.071 4.177 2.43 6.16 3.019 4.098 1.217 5.087 2.172 2.951 2.85-.807.256-1.468.942-1.468 1.523 0 .793-.502.929-2.003.545-3.843-.983-4.935-.743-4.688 1.031.302 2.174-.189 2.067-1.967-.431zm-362.334.856c-.845-.845-.527-2.256.607-2.691.789-.303 1.092.08 1.092 1.379 0 1.748-.713 2.299-1.699 1.312zm357.712-15.357c-.618-.701-2.107-3.242-3.31-5.646-1.202-2.405-4.381-6.82-7.064-9.812-2.998-3.343-4.521-5.56-3.952-5.75.51-.17 1.604.592 2.431 1.693 2.004 2.668 4.471 4.985 8.365 7.855 3.228 2.379 4.824 4.58 2.742 3.781-2.402-.922-1.803 1.266 1.305 4.765 1.812 2.04 3.295 3.862 3.295 4.049 0 .886-2.816.196-3.812-.935zm-533.011-1.274c0-.601.317-1.093.705-1.093.388 0 .517.492.287 1.093-.231.601-.549 1.092-.706 1.092-.157 0-.286-.491-.286-1.092zm-3.806-2.351l-2.714-.285 5.106-5.055c2.809-2.781 5.474-5.056 5.922-5.056.474 0 .332.535-.338 1.275-1.516 1.676-.482 3.558 2.289 4.167 1.21.265 2.416 1.192 2.881 2.215.748 1.642.622 1.809-1.902 2.51-2.647.735-5.808.799-11.244.229zm-177.486-5.226c-2.523-2.356-2.805-3.349-1.132-3.991 1.499-.575 4.265 1.299 5.313 3.6 1.1 2.414 1.08 2.505-.539 2.505-.759 0-2.398-.951-3.642-2.114zm320.778-3.7c.802-.395 2.378-1.051 3.504-1.457 2.481-.895 2.069-1.849-1.068-2.476-2.152-.43-2.228-.54-.997-1.44.733-.536 1.12-1.32.859-1.743-.267-.431.482-1.101 1.709-1.529 1.202-.419 2.185-1.085 2.185-1.481 0-1.682-1.519-4.512-2.362-4.402-1.945.254-2.846-.089-2.532-.964.179-.5.031-1.484-.329-2.185-.938-1.823 1.217-5.593 3.22-5.634.3-.005.464.391.364.882-.1.492.587 1.01 1.527 1.153l1.71.259-1.634 1.739-1.633 1.739 1.841.7c1.977.751 3.882 3.199 5.821 7.481.93 2.051 1.541 2.587 2.626 2.304 2.226-.583 2.49.926.401 2.294-1.414.927-1.683 1.45-1.063 2.069.619.62-.602 1.036-4.839 1.647-3.117.45-6.815 1.031-8.217 1.29-1.95.361-2.207.303-1.093-.246zm-12.283-4.024c-.249-.649.035-2.124.632-3.278.684-1.324.817-2.263.359-2.546-1.263-.78-.789-1.776 1.065-2.241.985-.248 2.172-.909 2.639-1.471.97-1.169 5.457-1.384 6.131-.294.247.4-.062 1.456-.686 2.347-.624.891-1.134 2.492-1.134 3.557 0 1.624-.5 2.11-3.096 3.011-1.703.591-3.627 1.305-4.276 1.585-.762.33-1.342.092-1.634-.67zm13.376-7.236c0-.177.328-.524.728-.772.401-.247.729-.103.729.321 0 .425-.328.772-.729.772-.4 0-.728-.145-.728-.321zm-323.259-3.51c-.714-.86-.668-1.26.227-2.004 1.48-1.228 2.214-.395 1.353 1.536-.594 1.332-.81 1.396-1.58.468zm-1.139-5.478c-.246-.398.04-1.129.637-1.624 1.184-.983 1.432-.212.436 1.359-.38.601-.802.705-1.073.265zm-47.081-.465c0-.512 2.209-1.408 5.342-2.167 1.188-.288 1.89-.219 1.654.163-.225.365-1.318.847-2.428 1.071-1.11.224-2.592.629-3.293.9-.701.272-1.275.286-1.275.033zm432.846-8.19c-1.344-.542-1.106-1.378.425-1.493.734-.056 1.335.366 1.335.937 0 1.085-.252 1.164-1.76.556zm-160.064-3.723c-4.609-2.513-6.813-6.375-5.477-9.6.632-1.526.651-2.485.072-3.568-1.206-2.254.367-4.895 4.392-7.371 1.911-1.177 3.82-2.783 4.241-3.57 1.167-2.18.128-5.916-1.903-6.841-1.028-.468-1.587-1.208-1.36-1.8.517-1.348-1.908-5.95-4.323-8.205-1.778-1.659-2.542-1.825-8.629-1.864-8.289-.055-9.834-.515-9.696-2.894.057-.988.276-1.796.486-1.797.211 0 3.161-.342 6.556-.759 4.334-.534 8.22-1.633 13.052-3.693 7.48-3.19 8.05-3.253 25.898-2.833 5.635.132 10.82-.285 17.481-1.406 6.203-1.045 10.767-1.439 13.231-1.142 2.094.252 5.126.086 6.838-.375 3.972-1.07 14.293.217 18.352 2.288 2.4 1.224 3.67 1.386 7.719.983 4.375-.436 4.705-.378 3.39.587-.801.589-3.259 1.307-5.463 1.598-4.781.629-9.174 4.037-8.01 6.213.503.938.142 1.739-1.481 3.295-1.181 1.131-2.319 2.6-2.53 3.265-.507 1.598-6.946 4.572-10.139 4.683-3.547.123-3.917.877-1.175 2.387 1.296.714 3.187 1.93 4.203 2.702l1.847 1.405-1.67.617c-1.28.474-2.319.169-4.449-1.308-2.89-2.003-6-2.013-4.341-.014.647.78.491 1.083-.72 1.399-2.706.708-.792 2.108 2.193 1.604 1.9-.321 2.969-.152 3.563.564.707.852-.215 1.246-5.52 2.361-3.503.736-8.172 1.366-10.375 1.399-4.093.061-7.043 1.236-11.382 4.534-1.415 1.075-4.422 2.141-7.941 2.814-7.354 1.407-9.84 3.035-14.271 9.345-3.559 5.068-5.705 6.957-7.924 6.974-.601.005-2.732-.885-4.735-1.977zm-51.646-4.871c-1.564-.962-3.481-2.754-4.26-3.984-1.52-2.401-2.921-2.706-7.025-1.529-1.389.399-2.948.437-3.572.088-2.156-1.207 1.739-2.394 6.078-1.852 3.3.412 4.034.295 4.419-.708.773-2.015 4.311-3.459 6.279-2.562 1.211.552 2.312.536 3.859-.054 2.082-.795 2.11-.866.751-1.864-.778-.571-1.665-1.039-1.972-1.039-.308 0-1.416-1.463-2.465-3.251-1.048-1.789-3.012-3.936-4.365-4.772-2.299-1.421-2.603-1.446-4.659-.383-1.798.93-2.837.995-5.681.356-1.915-.429-4.588-.574-5.94-.321-2.347.439-6.646-.71-6.646-1.775 0-1.958 6.169-6.35 9.833-7.002l2.914-.519-2.083 2.219c-2.873 3.061-1.792 4.47 1.327 1.73 1.324-1.161 3.611-2.338 5.083-2.614 2.249-.422 3.213-.147 6.037 1.724 3.758 2.489 4.047 2.555 6.167 1.421 1.276-.683 1.749-.495 3.135 1.243.958 1.202 3.099 2.511 5.187 3.172 3.326 1.052 3.554 1.281 3.554 3.576 0 1.72.496 2.806 1.665 3.642 4.888 3.496 4.781 3.351 3.724 5.045-1.451 2.322-2.596 2.49-5.806.853-2.233-1.139-3.208-1.295-4.332-.694-1.376.736-1.39.894-.283 3.035.909 1.757.992 2.644.374 4-.761 1.67-.882 1.695-2.948.627-4.062-2.1-6.797-.718-3.008 1.52 1.187.701 1.993 1.543 1.791 1.87-.706 1.141-4.31.536-7.132-1.198zm149.614.943c0-.334.492-.607 1.093-.607s1.093.273 1.093.607c0 .334-.492.607-1.093.607s-1.093-.273-1.093-.607zm-177.078-3.917c-1.436-.755-2.551-.82-4.562-.265-3.419.944-4.615.253-2.88-1.664 2.221-2.454 3.728-2.937 6.407-2.053 3.015.996 4.353 2.475 3.54 3.913-.519.917-.873.927-2.505.069zm144.665-.332c-1.202-.79-2.731-1.264-3.399-1.053-.92.291-1.124.039-.842-1.041.433-1.657 6.833-4.049 8.997-3.362.754.239 2.682.042 4.284-.438 2.515-.753 3.181-.696 4.882.418l1.969 1.29-1.754 1.367c-1.481 1.153-4.226 2.154-10.859 3.958-.601.164-2.076-.349-3.278-1.139zm-197.757-13.597c-1.002-.159-3.442-1.015-5.422-1.904l-3.601-1.616 5.058-.365c2.781-.2 5.057-.692 5.057-1.092 0-.401-1.967-.904-4.37-1.119-3.174-.283-3.772-.483-2.185-.728 2.656-.411 2.848-1.562.364-2.189-1.789-.452-1.776-.48.74-1.564 4.361-1.879 9.006-2.239 13.121-1.017 3.379 1.004 3.907 1 5.5-.044 1.127-.738 1.795-.862 1.853-.343.05.447.132 1.195.182 1.662.169 1.578 1.622 1.374 3.356-.471 1.605-1.709 4.387-2.527 4.381-1.289-.002.301-.65 1.607-1.44 2.904l-1.438 2.357 2.351 1.226 2.35 1.226-3.859 1.762c-3.483 1.589-4.197 1.68-7.319.932-3.026-.727-3.895-.644-6.944.664-3.445 1.476-4.171 1.571-7.735 1.008zm29.212-.514c-.657-.792-.386-1.182 1.314-1.887 1.184-.49 2.881-.653 3.791-.365 1.578.501 1.541.58-.857 1.857-3.059 1.629-3.212 1.644-4.248.395zm200.958-3.371c1.413-.912 2.186-.912 2.186 0 0 .401-.738.724-1.639.718-1.326-.009-1.43-.147-.547-.718zm133.66-2.02c-3.724-1.471-3.648-1.391-2.564-2.696.507-.611.635-1.121.286-1.134-.35-.013.02-.518.821-1.124.801-.605 1.462-1.332 1.469-1.615.026-1.078 2.991-3.919 5.087-4.874 1.201-.547 4.315-1.164 6.919-1.371 2.604-.207 6.092-.586 7.751-.842 1.766-.272 3.205-.161 3.471.269.516.836-.47 1.191-6.123 2.207-5.61 1.007-8.982 2.578-11.203 5.217-2.34 2.781-2.418 4.537-.269 6.035l1.639 1.144-2.185-.033c-1.202-.018-3.497-.55-5.099-1.183zm-381.49-2.112c-1.175-1.175-.907-1.431 4.729-4.516 6.603-3.615 9.921-4.095 15.844-2.291l3.278.997-4.371.867c-3.574.709-11.148 3.242-17.13 5.728-.61.254-1.663-.098-2.35-.785zm52.622-.943c0-.388-.901-1.222-2.003-1.855l-2.003-1.15 2.682.422c1.906.3 2.854.121 3.278-.616.503-.878 5.139-2.634 6.988-2.647.31-.003.057.978-.564 2.178-1.462 2.828-8.378 5.855-8.378 3.668zm11.341-2.127c-1.044-1.688 6.083-4.302 9.111-3.341 2.207.7.732 1.904-3.117 2.543-1.722.287-3.672.751-4.332 1.033-.661.281-1.409.176-1.662-.235zm23.258-5.363c-4.808-.383-8.831-.779-8.94-.881-.652-.604.973-2.571 2.721-3.295 1.719-.712 2.511-.618 4.864.58 2.294 1.167 3.773 1.361 8.034 1.054 2.872-.207 6.15-.141 7.284.146l2.061.522-2.549 1.362c-1.402.749-3.041 1.327-3.642 1.285-.601-.043-5.026-.391-9.833-.773zm209.614-2.977c-3.578-1.832-3.923-2.663-1.113-2.678 1.102-.007 2.495-.365 3.096-.798.944-.679.932-.735-.094-.409-.652.206-1.567-.006-2.033-.472-.644-.644-.98-.633-1.401.048-.389.63-1.189.704-2.701.252-3.841-1.151-4.697-1.661-4.697-2.802 0-.966.963-1.054 6.92-.636 4.536.319 6.919.231 6.919-.256 0-1.434 2.021-.726 2.557.895l.542 1.639.322-1.639c.177-.901.791-1.638 1.364-1.638.574 0 1.042-.394 1.042-.874 0-.68.195-.68.874 0 .509.508 2.946.874 5.828.874 5.207 0 6.43.931 2.957 2.251-1.805.686-4.944.492-8.384-.518-.701-.206-1.273-.107-1.27.221.005.672 4.098 3.144 5.205 3.144.397 0 1.181.46 1.743 1.022.877.877.87 1.08-.052 1.434-.59.227-1.073.058-1.073-.374 0-.509-.927-.613-2.621-.295-1.836.344-2.472.25-2.123-.315.274-.444.102-1.284-.382-1.868-.934-1.125-3.615-1.47-3.615-.464 0 .327-1.065 1.773-2.367 3.213l-2.368 2.617-3.075-1.574zm-193.226-1.603c-1.262-.741-3.049-.956-5.827-.7-2.596.239-4.593.033-5.674-.585-1.49-.853-1.126-.95 3.423-.913 5.689.046 8.187-1.172 5.106-2.489-1.463-.626-1.25-.682 1.259-.335 3.275.454 4.548-.424 2.764-1.905-1.903-1.579.189-2.069 6.959-1.63 4.19.271 6.822.119 7.898-.457 2.062-1.103 1.253-2.508-1.103-1.917-1.629.409-12.931-.262-12.454-.739.341-.341 16.353-1.824 26.868-2.488 5.453-.345 11.517-.825 13.475-1.068l3.559-.442-5.876 2.822c-5.509 2.647-14.467 5.226-18.148 5.226-.896 0-3.471.984-5.724 2.185-2.252 1.202-4.546 2.186-5.098 2.186-.552 0-2.935.979-5.295 2.176a406.046 406.046 0 01-4.291 2.159c0-.009-.819-.498-1.821-1.086zm-14.203-6.654c-3.53-.781-3.66-1.075-1.066-2.42 3.782-1.96 7.36-2.462 8.987-1.261 1.288.95 1.213 1.097-1.317 2.59-2.636 1.555-3.706 1.732-6.604 1.091z" fill="#27AE60"/></svg>