<svg xmlns="http://www.w3.org/2000/svg" viewBox="0 0 362.17 462.78">
  <g id="f1bc5fb1-859d-4cf0-bbad-a817a25d4760" data-name="Layer 2">
    <g id="f7150734-6589-4298-b7df-fa646c9774f6" data-name="Output (Front)">
      <g>
        <rect x="342.05" y="442.66" width="20.12" height="20.12"/>
        <polygon points="321.93 442.65 321.93 422.54 301.81 422.54 301.81 442.65 281.69 442.65 281.69 462.78 301.81 462.78 321.93 462.78 342.05 462.78 342.05 442.65 321.93 442.65" style="fill: #724d33"/>
        <rect x="321.93" y="422.53" width="20.12" height="20.12"/>
        <polygon points="301.81 442.65 301.81 422.54 281.69 422.54 261.57 422.54 261.57 402.41 241.45 402.41 241.45 382.29 241.45 362.17 221.33 362.17 201.21 362.17 201.21 382.29 201.21 402.41 201.21 422.54 201.21 442.65 201.21 462.78 221.33 462.78 241.45 462.78 261.57 462.78 281.69 462.78 281.69 442.65 301.81 442.65" style="fill: #827587"/>
        <polygon points="281.69 221.33 281.69 241.45 281.69 261.57 261.57 261.57 261.57 281.69 241.45 281.69 241.45 301.81 261.57 301.81 281.69 301.81 301.81 301.81 321.93 301.81 321.93 281.69 301.81 281.69 301.81 261.57 321.93 261.57 321.93 241.45 301.81 241.45 301.81 221.33 301.81 201.21 281.69 201.21 281.69 221.33" style="fill: #2b2b2b"/>
        <polygon points="281.69 181.09 281.69 201.21 301.81 201.21 301.81 181.09 301.81 160.97 281.69 160.97 281.69 181.09"/>
        <polygon points="281.69 422.54 301.81 422.54 321.93 422.54 321.93 402.41 301.81 402.41 281.69 402.41 261.57 402.41 261.57 422.54 281.69 422.54"/>
        <polygon points="261.57 221.33 261.57 241.45 261.57 261.57 281.69 261.57 281.69 241.45 281.69 221.33 281.69 201.21 261.57 201.21 261.57 221.33"/>
        <polygon points="261.57 80.48 241.45 80.48 241.45 100.6 221.33 100.6 221.33 120.72 241.45 120.72 261.57 120.72 261.57 140.84 241.45 140.84 221.33 140.84 201.21 140.84 201.21 160.97 221.33 160.97 241.45 160.97 261.57 160.97 261.57 181.09 281.69 181.09 281.69 160.97 301.81 160.97 301.81 140.84 301.81 120.72 301.81 100.6 301.81 80.48 301.81 60.36 281.69 60.36 261.57 60.36 261.57 80.48" style="fill: #2b2b2b"/>
        <rect x="261.57" y="40.24" width="20.12" height="20.12" style="fill: #777"/>
        <polygon points="241.45 382.29 241.45 402.41 261.57 402.41 261.57 382.29 261.57 362.17 261.57 342.05 241.45 342.05 241.45 362.17 241.45 382.29"/>
        <rect x="241.45" y="261.57" width="20.12" height="20.12"/>
        <rect x="241.45" y="60.36" width="20.12" height="20.12" style="fill: #777"/>
        <polygon points="221.33 281.69 221.33 301.81 201.21 301.81 181.09 301.81 181.09 321.93 201.21 321.93 221.33 321.93 221.33 342.05 241.45 342.05 241.45 321.93 241.45 301.81 241.45 281.69 221.33 281.69"/>
        <rect x="221.33" y="160.97" width="20.12" height="20.12"/>
        <rect x="221.33" y="80.48" width="20.12" height="20.12" style="fill: #777"/>
        <path d="M201.21,321.93H181.09V301.81h40.24V281.69h20.12V261.57h20.12V201.21h20.12V181.09H261.57V161H241.45v20.12H221.33V161H201.21V140.84H181.09V161H161v40.24h40.24v20.12H161V201.21H120.72v60.36h20.12v20.12H161V402.41h20.12V342.05h40.24V321.93ZM161,241.45h40.24v20.12H161Z" style="fill: #724d33"/>
        <polygon points="201.21 140.84 221.33 140.84 241.45 140.84 261.57 140.84 261.57 120.72 241.45 120.72 221.33 120.72 201.21 120.72 201.21 140.84" style="fill: #724d33"/>
        <rect x="201.21" y="100.6" width="20.12" height="20.12" style="fill: #777"/>
        <polygon points="201.21 422.54 201.21 402.41 201.21 382.29 201.21 362.17 221.33 362.17 241.45 362.17 241.45 342.05 221.33 342.05 201.21 342.05 181.09 342.05 181.09 362.17 181.09 382.29 181.09 402.41 181.09 422.54 181.09 442.65 181.09 462.78 201.21 462.78 201.21 442.65 201.21 422.54" style="fill: #9f90a5"/>
        <polygon points="201.21 261.57 201.21 241.45 181.09 241.45 160.97 241.45 160.97 261.57 181.09 261.57 201.21 261.57" style="fill: #965656"/>
        <rect x="181.09" y="120.72" width="20.12" height="20.12" style="fill: #777"/>
        <polygon points="181.09 422.54 181.09 402.41 160.97 402.41 140.84 402.41 140.84 422.54 140.84 442.65 140.84 462.78 160.97 462.78 181.09 462.78 181.09 442.65 181.09 422.54" style="fill: #827587"/>
        <polygon points="181.09 221.33 201.21 221.33 201.21 201.21 181.09 201.21 160.97 201.21 160.97 221.33 181.09 221.33"/>
        <rect x="160.97" y="140.84" width="20.12" height="20.12" style="fill: #777"/>
        <polygon points="160.97 362.17 160.97 342.05 160.97 321.93 140.84 321.93 140.84 342.05 140.84 362.17 140.84 382.29 140.84 402.41 160.97 402.41 160.97 382.29 160.97 362.17" style="fill: #896349"/>
        <rect x="140.84" y="281.69" width="20.12" height="20.12" style="fill: #896349"/>
        <polygon points="160.97 140.84 181.09 140.84 181.09 120.72 201.21 120.72 201.21 100.6 201.21 80.48 181.09 80.48 181.09 100.6 160.97 100.6 140.84 100.6 140.84 120.72 120.72 120.72 120.72 140.84 140.84 140.84 160.97 140.84" style="fill: #724d33"/>
        <polygon points="140.84 422.54 120.72 422.54 120.72 442.65 120.72 462.78 140.84 462.78 140.84 442.65 140.84 422.54" style="fill: #606060"/>
        <rect x="120.72" y="402.41" width="20.12" height="20.12" style="fill: #e0e07e"/>
        <polygon points="120.72 382.29 120.72 402.41 140.84 402.41 140.84 382.29 140.84 362.17 140.84 342.05 120.72 342.05 120.72 362.17 120.72 382.29" style="fill: #9f90a5"/>
        <polygon points="140.84 321.93 160.97 321.93 160.97 301.81 140.84 301.81 140.84 281.69 120.72 281.69 120.72 301.81 120.72 321.93 120.72 342.05 140.84 342.05 140.84 321.93"/>
        <rect x="120.72" y="261.57" width="20.12" height="20.12" style="fill: #896349"/>
        <polygon points="140.84 201.21 160.97 201.21 160.97 181.09 160.97 160.97 160.97 140.84 140.84 140.84 120.72 140.84 100.6 140.84 100.6 160.97 100.6 181.09 100.6 201.21 120.72 201.21 140.84 201.21"/>
        <polygon points="120.72 422.54 100.6 422.54 100.6 442.65 100.6 462.78 120.72 462.78 120.72 442.65 120.72 422.54" style="fill: #827587"/>
        <rect x="100.6" y="402.41" width="20.12" height="20.12" style="fill: #9f90a5"/>
        <polygon points="120.72 382.29 120.72 362.17 120.72 342.05 100.6 342.05 100.6 362.17 100.6 382.29 100.6 402.41 120.72 402.41 120.72 382.29"/>
        <polygon points="100.6 281.69 100.6 261.57 80.48 261.57 80.48 281.69 60.36 281.69 60.36 301.81 80.48 301.81 100.6 301.81 120.72 301.81 120.72 281.69 100.6 281.69" style="fill: #2b2b2b"/>
        <rect x="100.6" y="261.57" width="20.12" height="20.12"/>
        <polygon points="120.72 241.45 120.72 221.33 100.6 221.33 100.6 241.45 100.6 261.57 120.72 261.57 120.72 241.45" style="fill: #896349"/>
        <rect x="100.6" y="201.21" width="20.12" height="20.12" style="fill: #777"/>
        <polygon points="100.6 422.54 80.48 422.54 60.36 422.54 60.36 442.65 80.48 442.65 80.48 462.78 100.6 462.78 100.6 442.65 100.6 422.54" style="fill: #9f90a5"/>
        <polygon points="100.6 241.45 100.6 221.33 100.6 201.21 80.48 201.21 80.48 221.33 80.48 241.45 80.48 261.57 100.6 261.57 100.6 241.45"/>
        <rect x="80.48" y="181.09" width="20.12" height="20.12" style="fill: #896349"/>
        <rect x="80.48" y="160.97" width="20.12" height="20.12" style="fill: #2b2b2b"/>
        <rect x="80.48" y="140.84" width="20.12" height="20.12" style="fill: #777"/>
        <polygon points="80.48 140.84 100.6 140.84 120.72 140.84 120.72 120.72 140.84 120.72 140.84 100.6 160.97 100.6 181.09 100.6 181.09 80.48 201.21 80.48 201.21 100.6 221.33 100.6 221.33 80.48 241.45 80.48 241.45 60.36 261.57 60.36 261.57 40.24 261.57 20.12 241.45 20.12 221.33 20.12 201.21 20.12 181.09 20.12 181.09 0 160.97 0 140.84 0 120.72 0 120.72 20.12 100.6 20.12 100.6 40.24 80.48 40.24 80.48 60.36 80.48 80.48 60.36 80.48 60.36 100.6 60.36 120.72 80.48 120.72 80.48 140.84" style="fill: #2b2b2b"/>
        <polygon points="60.36 442.65 40.24 442.65 40.24 462.78 60.36 462.78 80.48 462.78 80.48 442.65 60.36 442.65" style="fill: #724d33"/>
        <polygon points="80.48 422.54 100.6 422.54 100.6 402.41 80.48 402.41 60.36 402.41 40.24 402.41 40.24 422.54 60.36 422.54 80.48 422.54"/>
        <polygon points="80.48 221.33 80.48 201.21 60.36 201.21 60.36 221.33 60.36 241.45 60.36 261.57 80.48 261.57 80.48 241.45 80.48 221.33" style="fill: #2b2b2b"/>
        <polygon points="80.48 181.09 80.48 160.97 60.36 160.97 60.36 181.09 60.36 201.21 80.48 201.21 80.48 181.09"/>
        <rect x="60.36" y="140.84" width="20.12" height="20.12" style="fill: #2b2b2b"/>
        <rect x="60.36" y="120.72" width="20.12" height="20.12" style="fill: #777"/>
        <rect x="40.24" y="422.53" width="20.12" height="20.12" style="fill: #896349"/>
        <rect x="20.12" y="442.66" width="20.12" height="20.12" style="fill: #896349"/>
        <rect x="20.12" y="422.53" width="20.12" height="20.12"/>
        <rect y="442.66" width="20.12" height="20.12"/>
      </g>
    </g>
  </g>
</svg>
