<svg xmlns="http://www.w3.org/2000/svg" viewBox="0 0 402.41 482.9">
  <g id="a6d55d92-fb90-463b-8fca-ae68711d0284" data-name="Layer 2">
    <g id="eccaef71-f9ec-4f7d-88ac-112f783e6532" data-name="Output">
      <g>
        <rect x="382.29" y="462.78" width="20.12" height="20.12"/>
        <polygon points="362.17 462.78 362.17 442.65 342.05 442.65 321.93 442.65 301.81 442.65 281.69 442.65 281.69 422.53 281.69 402.41 261.57 402.41 261.57 422.53 241.45 422.53 221.33 422.53 221.33 442.65 221.33 462.78 221.33 482.9 241.45 482.9 261.57 482.9 261.57 462.78 281.69 462.78 301.81 462.78 321.93 462.78 321.93 482.9 342.05 482.9 362.17 482.9 382.29 482.9 382.29 462.78 362.17 462.78" style="fill: #686860"/>
        <rect x="362.17" y="442.66" width="20.12" height="20.12"/>
        <polygon points="301.81 462.78 281.69 462.78 261.57 462.78 261.57 482.9 281.69 482.9 301.81 482.9 321.93 482.9 321.93 462.78 301.81 462.78" style="fill: #828279"/>
        <polygon points="281.69 442.65 301.81 442.65 321.93 442.65 342.05 442.65 362.17 442.65 362.17 422.53 342.05 422.53 321.93 422.53 301.81 422.53 301.81 402.41 281.69 402.41 281.69 422.53 281.69 442.65"/>
        <polygon points="281.69 181.09 281.69 201.21 281.69 221.33 281.69 241.45 281.69 261.57 281.69 281.69 281.69 301.81 281.69 321.93 301.81 321.93 301.81 301.81 301.81 281.69 301.81 261.57 301.81 241.45 301.81 221.33 301.81 201.21 301.81 181.09 301.81 160.97 281.69 160.97 281.69 181.09"/>
        <rect x="261.57" y="321.93" width="20.12" height="20.12"/>
        <path d="M281.69,281.69V221.33H261.57V201.21H201.21v20.12H161V201.21H140.84V181.09H120.72v60.36h20.12v80.48h40.25v20.12h80.48V321.93h20.12V281.69Zm-60.36,0H201.21V261.57h40.24v20.12Zm20.12-60.36v20.12H221.33V221.33Z" style="fill: #d4b286"/>
        <rect x="241.45" y="402.41" width="20.12" height="20.12" style="fill: #828279"/>
        <polygon points="241.45 181.09 241.45 201.21 261.57 201.21 261.57 221.33 281.69 221.33 281.69 201.21 281.69 181.09 261.57 181.09 241.45 181.09" style="fill: #86a8a8"/>
        <polygon points="241.45 160.97 241.45 181.09 261.57 181.09 281.69 181.09 281.69 160.97 261.57 160.97 241.45 160.97" style="fill: #7f7f7f"/>
        <polygon points="241.45 382.29 241.45 362.17 221.33 362.17 201.21 362.17 181.09 362.17 181.09 342.05 160.97 342.05 160.97 362.17 160.97 382.29 160.97 402.41 181.09 402.41 181.09 422.53 201.21 422.53 201.21 442.65 221.33 442.65 221.33 422.53 241.45 422.53 241.45 402.41 241.45 382.29" style="fill: #d4b286"/>
        <polygon points="221.33 342.05 201.21 342.05 181.09 342.05 181.09 362.17 201.21 362.17 221.33 362.17 241.45 362.17 241.45 382.29 241.45 402.41 261.57 402.41 281.69 402.41 281.69 382.29 261.57 382.29 261.57 362.17 261.57 342.05 241.45 342.05 221.33 342.05"/>
        <polygon points="221.33 261.57 201.21 261.57 201.21 281.69 221.33 281.69 241.45 281.69 241.45 261.57 221.33 261.57" style="fill: #c16b6b"/>
        <rect x="221.33" y="221.33" width="20.12" height="20.12"/>
        <rect x="221.33" y="181.09" width="20.12" height="20.12" style="fill: #7f7f7f"/>
        <polygon points="221.33 140.84 201.21 140.84 181.09 140.84 160.97 140.84 140.84 140.84 140.84 160.97 160.97 160.97 181.09 160.97 201.21 160.97 221.33 160.97 221.33 181.09 241.45 181.09 241.45 160.97 261.57 160.97 281.69 160.97 281.69 140.84 261.57 140.84 241.45 140.84 221.33 140.84" style="fill: #d4b286"/>
        <polygon points="221.33 442.65 201.21 442.65 201.21 462.78 201.21 482.9 221.33 482.9 221.33 462.78 221.33 442.65" style="fill: #828279"/>
        <polygon points="201.21 181.09 181.09 181.09 160.97 181.09 140.84 181.09 140.84 201.21 160.97 201.21 160.97 221.33 181.09 221.33 201.21 221.33 201.21 201.21 221.33 201.21 221.33 181.09 201.21 181.09" style="fill: #86a8a8"/>
        <polygon points="201.21 442.65 201.21 422.53 181.09 422.53 181.09 402.41 160.97 402.41 140.84 402.41 140.84 422.53 120.72 422.53 120.72 442.65 100.6 442.65 80.48 442.65 60.36 442.65 60.36 462.78 40.24 462.78 40.24 482.9 60.36 482.9 80.48 482.9 100.6 482.9 100.6 462.78 120.72 462.78 140.84 462.78 160.97 462.78 160.97 482.9 181.09 482.9 201.21 482.9 201.21 462.78 201.21 442.65" style="fill: #686860"/>
        <rect x="160.97" y="321.93" width="20.12" height="20.12"/>
        <polygon points="140.84 462.78 120.72 462.78 100.6 462.78 100.6 482.9 120.72 482.9 140.84 482.9 160.97 482.9 160.97 462.78 140.84 462.78" style="fill: #828279"/>
        <rect x="140.84" y="382.29" width="20.12" height="20.12" style="fill: #828279"/>
        <polygon points="160.97 362.17 160.97 342.05 160.97 321.93 140.84 321.93 140.84 342.05 140.84 362.17 140.84 382.29 160.97 382.29 160.97 362.17" style="fill: #e7c8a7"/>
        <polygon points="160.97 140.84 181.09 140.84 201.21 140.84 221.33 140.84 241.45 140.84 261.57 140.84 261.57 120.72 241.45 120.72 241.45 100.6 221.33 100.6 201.21 100.6 181.09 100.6 160.97 100.6 160.97 120.72 140.84 120.72 140.84 140.84 160.97 140.84" style="fill: #ab272b"/>
        <rect x="140.84" y="100.6" width="20.12" height="20.12" style="fill: #bf5860"/>
        <polygon points="140.84 402.41 140.84 382.29 140.84 362.17 140.84 342.05 140.84 321.93 120.72 321.93 120.72 342.05 120.72 362.17 120.72 382.29 100.6 382.29 100.6 402.41 120.72 402.41 140.84 402.41"/>
        <polygon points="140.84 301.81 140.84 281.69 140.84 261.57 140.84 241.45 120.72 241.45 120.72 261.57 120.72 281.69 120.72 301.81 120.72 321.93 140.84 321.93 140.84 301.81" style="fill: #e7c8a7"/>
        <polygon points="140.84 181.09 160.97 181.09 181.09 181.09 201.21 181.09 221.33 181.09 221.33 160.97 201.21 160.97 181.09 160.97 160.97 160.97 140.84 160.97 120.72 160.97 100.6 160.97 80.48 160.97 80.48 181.09 100.6 181.09 120.72 181.09 140.84 181.09" style="fill: #7f7f7f"/>
        <rect x="120.72" y="140.84" width="20.12" height="20.12" style="fill: #e7c8a7"/>
        <rect x="120.72" y="120.72" width="20.12" height="20.12" style="fill: #bf5860"/>
        <polygon points="100.6 442.65 120.72 442.65 120.72 422.53 140.84 422.53 140.84 402.41 120.72 402.41 100.6 402.41 100.6 422.53 100.6 442.65" style="fill: #828279"/>
        <polygon points="120.72 281.69 120.72 261.57 120.72 241.45 120.72 221.33 100.6 221.33 100.6 201.21 100.6 181.09 80.48 181.09 80.48 201.21 80.48 221.33 80.48 241.45 100.6 241.45 100.6 261.57 100.6 281.69 100.6 301.81 100.6 321.93 120.72 321.93 120.72 301.81 120.72 281.69"/>
        <polygon points="120.72 181.09 100.6 181.09 100.6 201.21 100.6 221.33 120.72 221.33 120.72 201.21 120.72 181.09" style="fill: #e7c8a7"/>
        <polygon points="100.6 160.97 120.72 160.97 120.72 140.84 120.72 120.72 140.84 120.72 140.84 100.6 160.97 100.6 181.09 100.6 201.21 100.6 221.33 100.6 241.45 100.6 241.45 120.72 261.57 120.72 261.57 140.84 281.69 140.84 281.69 160.97 301.81 160.97 321.93 160.97 321.93 140.84 321.93 120.72 342.05 120.72 342.05 100.6 321.93 100.6 321.93 80.48 301.81 80.48 301.81 60.36 301.81 40.24 281.69 40.24 281.69 60.36 261.57 60.36 261.57 40.24 241.45 40.24 241.45 20.12 221.33 20.12 221.33 40.24 201.21 40.24 201.21 20.12 181.09 20.12 181.09 0 160.97 0 160.97 20.12 140.84 20.12 140.84 40.24 120.72 40.24 120.72 20.12 100.6 20.12 100.6 40.24 100.6 60.36 80.48 60.36 80.48 80.48 80.48 100.6 60.36 100.6 60.36 120.72 80.48 120.72 80.48 140.84 60.36 140.84 60.36 160.97 80.48 160.97 100.6 160.97" style="fill: #977143"/>
        <polygon points="80.48 442.65 100.6 442.65 100.6 422.53 100.6 402.41 80.48 402.41 80.48 422.53 60.36 422.53 40.24 422.53 40.24 442.65 60.36 442.65 80.48 442.65"/>
        <rect x="60.36" y="241.45" width="20.12" height="20.12" style="fill: #ab272b"/>
        <rect x="60.36" y="181.09" width="20.12" height="20.12" style="fill: #ab272b"/>
        <rect x="60.36" y="160.97" width="20.12" height="20.12" style="fill: #bf5860"/>
        <rect x="40.24" y="442.66" width="20.12" height="20.12" style="fill: #828279"/>
        <rect x="40.24" y="201.21" width="20.12" height="20.12" style="fill: #ab272b"/>
        <rect x="40.24" y="181.09" width="20.12" height="20.12" style="fill: #bf5860"/>
        <rect x="20.12" y="462.78" width="20.12" height="20.12" style="fill: #828279"/>
        <rect x="20.12" y="442.66" width="20.12" height="20.12"/>
        <rect x="20.12" y="221.33" width="20.12" height="20.12" style="fill: #ab272b"/>
        <rect y="462.78" width="20.12" height="20.12"/>
      </g>
    </g>
  </g>
</svg>
