<svg width="1261" height="657" viewBox="0 0 1261 657" fill="none" xmlns="http://www.w3.org/2000/svg">
<rect width="1261" height="657" fill="#276F86"/>
<path d="M393.47 546.785C389.77 545.4 388.735 544.044 389.614 541.733C390.021 540.662 390.803 539.786 391.352 539.786C391.901 539.786 394.303 541.048 396.69 542.591C399.077 544.133 401.996 545.747 403.176 546.175L405.322 546.954L402.682 547.012C401.23 547.043 399.099 547.206 397.947 547.373C396.796 547.54 394.781 547.275 393.47 546.785V546.785ZM385.072 539.677C384.375 539.287 383.214 539.156 382.491 539.386C381.581 539.674 380.878 539.244 380.204 537.985C379.669 536.986 378.71 535.989 378.073 535.769C376.612 535.267 373.549 530.304 371.844 525.676C370.982 523.339 369.824 521.724 368.45 520.942C366.01 519.554 365.835 518.925 367.724 518.326C369.884 517.64 370.286 513.832 368.467 511.278C367.6 510.059 367.143 508.628 367.404 507.947C367.713 507.143 366.861 505.732 364.799 503.631C362.196 500.979 361.715 500.015 361.599 497.22C361.523 495.411 361.083 493.475 360.62 492.917C360.037 492.214 359.918 489.692 360.233 484.706C360.574 479.301 360.375 475.966 359.435 471.317C358.038 464.413 357.325 451.55 357.688 439.814C357.765 437.31 357.441 433.873 356.967 432.175C355.812 428.041 350.501 422.823 343.936 419.373C339.241 416.906 338.581 416.274 336.746 412.484C335.634 410.189 333.51 406.759 332.025 404.862C330.54 402.965 328.926 400.179 328.438 398.671C326.888 393.884 324.156 389.075 322.294 387.855C321.303 387.205 320.173 385.517 319.782 384.102C319.15 381.814 319.317 381.175 321.295 378.3C323.439 375.183 323.465 375.056 322.015 374.677C318.454 373.745 319.952 368.985 326.344 360.919C330.593 355.557 331.838 351.473 330.661 346.754C330.212 344.956 329.811 343.075 329.768 342.574C329.726 342.073 329.407 341.664 329.059 341.664C328.711 341.664 328.778 341.007 329.207 340.204C329.87 338.967 329.702 338.613 328.111 337.888C325.792 336.832 322.29 337.876 322.277 339.629C322.26 341.73 321.336 341.885 318.289 340.297C316.657 339.446 314.962 338.75 314.522 338.75C314.082 338.75 312.371 337.586 310.72 336.164C309.069 334.742 307.308 333.254 306.808 332.858C306.307 332.461 305.897 331.382 305.897 330.458C305.897 329.534 305.254 328.196 304.468 327.485C303.682 326.773 302.663 325.054 302.204 323.663C301.601 321.835 301.149 321.355 300.574 321.93C299.374 323.13 297.598 322.902 293.285 320.995C291.031 319.998 288.682 318.295 287.744 316.978C286.849 315.72 285.138 314.185 283.942 313.567C281.969 312.547 281.475 312.555 278.601 313.652L275.434 314.862L265.719 310.154C259.742 307.258 255.104 304.495 253.667 302.976C251.44 300.62 251.367 300.364 252.109 297.444C252.788 294.769 252.672 293.942 251.196 290.891C250.266 288.97 248.235 286.02 246.682 284.335C245.129 282.651 244.035 280.987 244.25 280.638C244.466 280.289 243.372 277.938 241.819 275.413C240.056 272.545 238.811 269.473 238.502 267.225C238.105 264.343 237.643 263.461 236.181 262.794C234.631 262.088 234.198 262.178 233.31 263.391C232.06 265.098 232.416 266.901 235.179 272.873C236.302 275.3 237.463 278.898 237.759 280.868C238.054 282.839 238.927 285.688 239.698 287.2C241.525 290.78 240.345 290.717 237.465 287.08C235.766 284.935 235.307 283.758 235.644 282.413C236.005 280.977 235.65 280.285 233.884 278.979C231.206 276.999 230.639 275.722 231.623 273.884C232.197 272.812 231.934 271.636 230.477 268.761C228.997 265.841 228.688 264.427 229.054 262.259C229.653 258.714 228.063 255.506 225.098 254.279C223.387 253.57 222.797 252.777 222.448 250.716C222.201 249.258 221.729 247.003 221.398 245.704C221.054 244.353 221.079 243.168 221.456 242.935C221.819 242.71 221.582 241.711 220.929 240.714C219.966 239.246 219.9 238.551 220.582 237.055C221.044 236.04 221.219 234.88 220.97 234.477C220.72 234.074 221.341 232.869 222.349 231.8C223.357 230.731 224.699 228.598 225.332 227.061C225.964 225.525 227.912 222.675 229.661 220.73C231.41 218.785 233.628 215.377 234.589 213.157C235.923 210.076 236.705 209.119 237.894 209.109C238.751 209.103 239.406 209.507 239.351 210.007C239.119 212.094 240.769 211.451 242.622 208.733C243.715 207.13 244.304 205.71 243.932 205.576C243.56 205.443 243.256 204.84 243.256 204.237C243.256 203.633 241.748 201.674 239.905 199.883C236.848 196.912 236.652 196.518 237.668 195.395C238.492 194.485 238.589 193.818 238.039 192.836C237.074 191.112 238.597 187.25 240.249 187.234C240.931 187.228 241.125 186.995 240.706 186.688C239.767 185.998 239.341 184.43 239.473 182.146C239.684 178.499 238.886 176.974 236.174 175.841C234.712 175.23 232.48 173.94 231.215 172.975C229.95 172.01 228.345 171.221 227.648 171.221C226.951 171.221 223.785 170.558 220.611 169.747C215.508 168.444 214.609 168.393 212.841 169.303C209.178 171.188 205.298 171.956 203.715 171.11C202.529 170.475 201.234 170.867 196.718 173.229C193.67 174.823 190.029 176.375 188.627 176.677C187.224 176.98 184.541 178.001 182.664 178.947C177.338 181.631 169.709 184.336 167.599 184.289C166.237 184.259 167.158 183.661 170.781 182.225C176.939 179.782 183.267 176.602 183.852 175.655C184.573 174.489 183.008 174.07 181.129 174.927C179.745 175.557 178.892 175.498 177.295 174.662L175.241 173.585L177.475 172.43C180.001 171.124 180.795 169.646 180.215 167.334C179.653 165.095 182.752 163.449 189.427 162.443C193.014 161.902 195.741 161.001 197.577 159.752C200.814 157.548 200.258 155.882 196.768 157.328C195.115 158.012 193.912 158.02 191.465 157.361C188.491 156.56 188.385 156.446 189.715 155.473C191.941 153.846 196.544 152.867 199.568 153.378C201.482 153.701 203.05 153.475 204.659 152.643L206.984 151.441L205.453 149.812C204.611 148.916 203.923 147.99 203.923 147.754C203.923 147.079 208.308 145.727 210.5 145.727C211.595 145.727 214.595 144.935 217.167 143.967C219.74 142.998 225.674 141.676 230.356 141.029C237.949 139.979 239.556 139.966 245.25 140.91C248.76 141.492 253.599 142.187 256.003 142.453C258.406 142.719 262.661 143.565 265.457 144.332C271.951 146.114 276.181 146.092 283.437 144.24C286.64 143.422 289.878 142.948 290.632 143.188C291.386 143.427 292.668 143.267 293.481 142.832C294.6 142.232 295.469 142.305 297.067 143.131C298.51 143.878 300.292 144.091 302.718 143.807C305.278 143.507 307.519 143.818 310.791 144.924C313.282 145.766 316.049 146.455 316.939 146.455C318.517 146.455 318.522 146.482 317.144 147.496C315.794 148.49 315.79 148.559 317.058 149.051C317.788 149.334 320.323 149.363 322.691 149.115C326.967 148.669 327.004 148.681 328.196 150.987L329.397 153.308L330.955 151.354C331.851 150.231 333.979 148.959 335.958 148.363C338.95 147.463 339.858 147.466 342.863 148.386C344.984 149.036 347.523 149.272 349.424 148.998C351.845 148.648 352.97 148.866 354.549 149.99C356.543 151.411 356.599 151.411 358.368 150.04C359.355 149.275 361.386 148.309 362.881 147.892C366.462 146.894 367.676 144.769 365.526 143.263C364.005 142.198 364.072 142.117 368.069 140.156C371.049 138.695 372.391 138.363 372.972 138.944C373.553 139.525 373.548 140.164 372.951 141.278C371.934 143.179 373.2 146.051 374.786 145.442C375.356 145.223 376.302 145.228 376.888 145.453C377.808 145.806 377.793 146.106 376.78 147.653C373.979 151.927 380.258 150.716 384.508 146.162C386.236 144.311 388.914 143.749 391.423 144.712C393.044 145.334 392.892 145.843 390.208 148.786C387.01 152.294 385.373 153.011 380.569 153.011C378.247 153.011 375.506 153.514 374.229 154.174C372.461 155.089 371.599 155.165 370.204 154.529C367.604 153.345 366.699 154.331 368.564 156.316L370.156 158.01L366.98 158.912C365.233 159.407 362.329 159.861 360.526 159.919C357.912 160.004 357.248 160.288 357.244 161.322C357.24 162.206 355.968 163.137 353.238 164.253C344.389 167.87 336.883 174.391 339.601 176.101C340.11 176.421 340.918 177.576 341.397 178.667C341.948 179.922 343.011 180.798 344.295 181.055C345.41 181.279 348.29 182.43 350.693 183.614C353.097 184.797 356.047 185.98 357.249 186.242C360.557 186.963 360.586 187.039 359.045 190.949C357.727 194.293 357.7 194.771 358.722 196.746C359.334 197.931 360.237 198.888 360.727 198.874C363.114 198.805 365.352 196.602 366.742 192.953C368.068 189.476 368.672 188.827 372.476 186.795C378.09 183.797 380.424 180.843 379.802 177.527C379.397 175.367 379.608 174.86 381.456 173.543C382.622 172.714 384.164 170.728 384.885 169.131C386.495 165.56 389.082 164.323 393.444 165.036C397.313 165.668 401.889 168.125 402.441 169.866C402.668 170.581 402.48 171.864 402.023 172.719C401.33 174.012 401.461 174.559 402.806 175.99L404.42 177.709L407.056 176.342C408.506 175.59 410.83 174.124 412.221 173.084L414.749 171.192L415.343 172.798C415.669 173.681 415.762 174.858 415.549 175.414C415.335 175.97 415.501 177.061 415.917 177.839C416.386 178.713 416.422 179.703 416.013 180.434C415.552 181.258 415.86 182.509 417.032 184.573C418.712 187.53 418.712 187.532 417.237 188.565C415.296 189.925 416.541 191.366 418.671 190.226C420.787 189.094 423.208 189.241 424.702 190.593C426.91 192.591 425.074 194.981 419.214 197.738C412.84 200.736 410 201.33 401.68 201.404C395.537 201.458 394.724 201.654 388.752 204.517C385.246 206.198 382.378 207.861 382.378 208.213C382.378 209.716 383.483 209.585 387.72 207.581C390.217 206.399 393.436 205.456 394.968 205.456C397.587 205.455 397.682 205.536 396.865 207.064C396.391 207.948 395.37 209.186 394.595 209.813C393.376 210.8 393.305 211.216 394.068 212.89C395.211 215.4 398.198 216.608 401.771 216.005L404.594 215.528L402.423 217.026C401.229 217.85 399.262 218.738 398.053 218.999C396.843 219.26 394.357 220.228 392.528 221.149C390.672 222.084 388.806 222.579 388.305 222.27C387.153 221.557 388.369 220.488 392.114 218.924C395.445 217.532 394.913 216.053 391.323 216.727C389.925 216.989 385.391 218.697 381.248 220.522C374.781 223.371 373.653 224.123 373.276 225.837C372.813 227.944 371.234 228.941 365.683 230.629C363.912 231.168 361.618 232.47 360.585 233.523C359.551 234.575 357.572 236.151 356.187 237.025C354.802 237.898 353.476 239.429 353.24 240.426C352.851 242.069 352.761 242.108 352.275 240.842C351.363 238.47 349.99 240.789 349.911 244.833C349.83 248.977 347.73 251.803 343.123 253.967C338.4 256.187 331.68 261.43 330.318 263.958C329.116 266.191 329.066 267.06 329.806 272.798C330.497 278.15 330.456 279.494 329.547 281.252C328.868 282.565 328.076 283.193 327.416 282.94C325.854 282.34 323.942 275.909 324.478 273.053C324.85 271.069 324.603 270.317 323.125 268.929C321.934 267.809 320.834 267.384 319.899 267.681C319.119 267.928 316.913 267.459 314.994 266.636C312.055 265.376 311.116 265.27 309.018 265.963C307.595 266.433 306.181 267.546 305.718 268.562C305.03 270.074 304.573 270.268 302.671 269.859C301.441 269.594 299.549 268.926 298.467 268.373C295.803 267.012 294.311 267.107 291.318 268.827C289.922 269.63 287.074 271.166 284.988 272.241C282.591 273.476 280.945 274.883 280.513 276.063C280.137 277.089 278.794 281.092 277.528 284.958L275.227 291.986L276.402 296.523C278.562 304.858 281.567 307.353 287.829 306.01C292.549 304.998 295.383 302.947 296.425 299.79C297.087 297.784 297.801 297.122 299.938 296.528C303.154 295.635 304.497 295.602 305.732 296.386C306.751 297.033 306.393 298.097 301.829 307.978C298.698 314.757 298.923 315.364 304.288 314.59C309.176 313.885 313.643 314.426 314.165 315.786C314.369 316.316 314.038 319.894 313.43 323.736C312.342 330.61 312.35 330.764 313.916 333.297C314.791 334.713 316.432 336.35 317.562 336.935C319.366 337.868 319.933 337.866 322.203 336.917C325.811 335.41 327.77 335.569 330.275 337.574C332.279 339.177 332.562 339.222 334.137 338.19C335.071 337.578 336.346 336.06 336.97 334.818C338.376 332.016 340.746 330.047 342.736 330.026C343.568 330.017 345.018 329.19 345.959 328.189C347.869 326.155 351.234 325.492 349.59 327.473C348.209 329.136 347.42 334.485 348.31 336.147C349.051 337.531 349.11 337.523 350.458 335.858C351.417 334.673 351.611 333.914 351.086 333.389C349.835 332.138 350.212 331.098 352.54 329.377C354.957 327.59 356.827 327.774 358.912 330.002C360.441 331.636 368.606 333.845 370.946 333.258C374.51 332.363 384.139 338.218 387.756 343.479C389.479 345.984 394.982 348.504 397.402 347.897C402.38 346.648 409.204 351.635 410.8 357.688C411.276 359.491 411.992 361.17 412.393 361.42C413.455 362.082 411.864 364.698 408.384 368.008C406.16 370.123 405.629 371.034 406.255 371.659C406.88 372.285 407.909 371.736 410.377 369.461C413.968 366.151 415.166 365.815 416.965 367.614C418.059 368.708 418.025 368.931 416.526 370.527C415.632 371.478 414.385 372.277 413.754 372.302C413.089 372.329 413.358 372.648 414.394 373.062C415.817 373.63 416.559 373.47 418.035 372.277C421.881 369.17 422.786 369.021 426.202 370.929C428.423 372.17 429.312 373.115 429.2 374.113C428.889 376.891 429.544 377.506 431.469 376.244C433 375.242 434.05 375.194 439.171 375.895C444.618 376.641 445.331 376.938 447.945 379.552C449.885 381.492 452.067 382.768 454.809 383.565C458.49 384.635 458.89 384.961 459.557 387.44C460.525 391.035 459.391 395.024 456.324 398.813C455.014 400.432 453.408 402.808 452.755 404.093C452.102 405.379 450.715 407.285 449.671 408.328C447.904 410.095 447.806 410.537 448.246 414.731C449.107 422.926 445.098 438.215 441.232 441.485C439.973 442.549 438.896 442.799 436.9 442.49C435.259 442.236 434.045 442.4 433.724 442.919C433.438 443.381 431.848 444.355 430.189 445.085C428.531 445.814 426.062 447.36 424.702 448.521C422.35 450.531 422.271 450.754 423.063 453.153C423.976 455.919 423.361 459.194 421.404 461.987C420.772 462.89 420.254 464.426 420.254 465.401C420.254 466.376 419.494 468.188 418.566 469.427C417.637 470.667 415.845 473.505 414.584 475.733C411.481 481.216 409.616 482.166 405.117 480.554C401.213 479.154 399.131 478.987 399.131 480.073C399.131 480.482 399.909 481.172 400.86 481.605C401.812 482.039 403.294 483.803 404.154 485.526C405.436 488.092 405.571 488.983 404.904 490.448C403.869 492.719 399.913 494.625 396.236 494.625C392.979 494.625 392.171 495.422 393.296 497.524C393.99 498.821 393.523 500.909 392.18 502.509C392.072 502.639 390.931 502.201 389.646 501.537C386.578 499.95 385.492 500.961 387.043 503.959C387.673 505.179 388.872 506.393 389.707 506.658C391.142 507.114 391.158 507.215 389.991 508.504C389.312 509.254 388.959 510.394 389.207 511.039C389.473 511.733 388.879 513.23 387.753 514.706C385.923 517.106 385.897 517.273 387.07 519.064C387.741 520.088 388.788 521.117 389.396 521.35C391.59 522.192 391.953 525.068 390.281 528.346C388.605 531.631 388.348 534.924 389.645 536.487C390.824 537.908 386.856 540.676 385.072 539.677H385.072ZM331.391 224.205C333.337 220.138 336.959 217.109 339.875 217.109C341.974 217.109 341.999 217.45 340.077 219.893L338.566 221.815L340.116 223.07C341.366 224.082 342.01 224.17 343.435 223.521C344.407 223.078 345.403 222.082 345.649 221.307C345.984 220.254 346.527 220.008 347.81 220.329C348.997 220.627 349.74 220.372 350.229 219.499C351.709 216.855 347.942 213.473 345.17 214.956C343.186 216.018 340.594 213.906 341.147 211.678C341.352 210.852 340.93 209.415 340.2 208.451C338.694 206.464 336.404 206.255 331.391 207.647C329.588 208.147 327.532 208.534 326.823 208.507C326.113 208.479 325.723 208.765 325.955 209.141C326.188 209.517 326.113 209.833 325.789 209.841C325.465 209.85 324.384 210.484 323.387 211.25L321.575 212.643L323.61 213.417C325.201 214.022 326.139 213.935 327.907 213.021C329.984 211.947 330.369 211.948 332.636 213.029C334.001 213.68 335.865 214.014 336.81 213.777C337.748 213.542 338.717 213.674 338.963 214.072C339.214 214.478 338.188 215.001 336.619 215.266C332.356 215.987 330.142 217.762 327.05 222.936C324.467 227.259 324.319 227.78 325.348 228.922C326.358 230.043 326.637 230.061 328.023 229.092C328.874 228.497 330.389 226.298 331.391 224.205V224.205ZM344.624 228.701C347.217 227.378 347.467 227.046 346.553 226.132C345.639 225.218 345.062 225.278 342.089 226.593C338.599 228.137 337.491 230.22 340.161 230.22C340.978 230.22 342.986 229.536 344.624 228.701ZM357.54 223.197C359.057 222.134 359.113 221.926 358.043 221.327C356.468 220.446 351.786 221.964 351.786 223.357C351.786 224.792 355.406 224.691 357.54 223.197ZM412.242 537.746C412.242 537.426 412.635 536.77 413.116 536.289C413.597 535.809 413.715 535.415 413.378 535.415C413.042 535.415 412.374 535.953 411.893 536.61C411.204 537.553 410.727 537.634 409.628 536.996C408.842 536.54 408.651 536.178 409.189 536.166C409.714 536.153 409.94 535.816 409.693 535.415C409.217 534.646 410.467 534.436 414.063 534.682C417.272 534.901 417.595 535.37 415.611 536.93C413.763 538.384 412.242 538.752 412.242 537.746V537.746ZM1020.54 519.465C1018.46 518.145 1022.8 515.23 1033.56 510.722C1036.56 509.463 1041.14 506.831 1043.73 504.872C1048.14 501.541 1048.5 501.397 1049.38 502.643C1050.7 504.536 1049.92 505.906 1046.68 507.365C1045.14 508.063 1043.19 509.415 1042.36 510.37C1041.53 511.325 1040.19 512.107 1039.39 512.107C1038.59 512.107 1036.7 513.211 1035.2 514.56C1030.05 519.178 1023.53 521.36 1020.54 519.465ZM969.567 510.003C968.81 509.523 968.767 509.03 969.384 507.877C969.826 507.051 970.188 505.348 970.188 504.093C970.188 502.041 970.353 501.869 971.827 502.388C972.728 502.705 974.613 503.007 976.015 503.059C977.417 503.112 978.818 503.202 979.128 503.26C980.335 503.487 977.108 507.16 974.209 508.859C970.756 510.882 970.899 510.847 969.567 510.003V510.003ZM1053.73 503.634C1053.48 503.38 1054.08 502.538 1055.07 501.761C1056.55 500.592 1056.73 500.098 1056.08 498.884C1055.14 497.127 1056.53 495.241 1059.77 493.901C1062.28 492.863 1062.91 490.757 1062.23 485.673C1061.77 482.176 1061.83 481.958 1062.96 482.89C1063.84 483.622 1064.06 484.544 1063.74 486.225C1063.4 488.068 1063.71 489.026 1065.24 490.853C1066.91 492.826 1067.4 493.041 1068.69 492.349C1069.98 491.66 1070.13 491.723 1069.72 492.779C1069.46 493.46 1069.25 494.145 1069.25 494.302C1069.25 494.459 1068.18 495.133 1066.88 495.8C1065.58 496.467 1063.04 498.23 1061.24 499.718C1058.31 502.139 1055.29 504.094 1054.49 504.094C1054.33 504.094 1053.99 503.887 1053.73 503.634V503.634ZM976.71 494.226C975.177 492.593 974.893 492.531 973.42 493.496C971.542 494.727 968.013 494.008 965.185 491.818C963.676 490.65 963.571 490.274 964.349 488.82C965.013 487.579 965.035 486.71 964.436 485.394C963.994 484.424 963.633 482.991 963.633 482.209C963.633 480.444 962.487 480.36 961.538 482.055C961.148 482.752 960.62 483.115 960.365 482.86C960.11 482.604 960.953 481.197 962.239 479.733C965.404 476.128 964.169 475.149 959.988 477.949C958.187 479.156 956.596 480.474 956.454 480.878C956.311 481.282 955.445 480.034 954.53 478.104C953.537 476.011 951.823 473.908 950.282 472.893C947.967 471.368 947.183 471.243 942.737 471.685C936.216 472.334 929.926 473.942 925.808 476.012C923.937 476.953 920.284 477.916 917.468 478.211C914.712 478.5 910.329 479.538 907.728 480.517C903.75 482.014 902.618 482.171 900.603 481.506C897.899 480.614 896.776 478.775 898.525 478.104C899.158 477.861 900.308 476.189 901.079 474.39C902.314 471.508 902.382 470.611 901.65 466.889C901.044 463.809 901.027 460.892 901.588 456.151C902.011 452.57 902.173 448.936 901.948 448.075C901.723 447.213 902.075 445.104 902.73 443.388C903.886 440.361 904.166 440.164 911.98 436.854C916.412 434.977 920.949 433.441 922.061 433.441C925.072 433.441 928.8 430.576 930.855 426.684C932.126 424.278 933.007 423.363 933.769 423.657C935.896 424.48 936.316 424.318 936.152 422.741C936.047 421.726 936.483 420.988 937.35 420.713C938.1 420.475 939.486 419.149 940.429 417.766C941.396 416.35 943.382 414.755 944.976 414.115C947.635 413.047 947.9 413.063 949.346 414.378C952.015 416.804 953.906 417.512 954.809 416.423C955.249 415.894 955.4 415.253 955.145 414.998C954.311 414.164 958.126 409.378 959.991 408.918C960.992 408.671 963.049 407.849 964.56 407.092C966.918 405.911 967.747 405.833 970.387 406.542C976.082 408.07 976.271 408.321 974.153 411.521C971.429 415.637 972.151 417.247 978.833 421.95C981.917 424.121 984.829 425.768 985.304 425.61C985.778 425.452 987.279 423.789 988.638 421.916C990.49 419.362 991.208 417.505 991.505 414.503C991.927 410.237 993.967 404.305 995.012 404.305C995.358 404.305 996.151 406.059 996.775 408.203C997.398 410.347 998.704 412.85 999.677 413.764C1001.95 415.9 1003.27 421.874 1002.25 425.404C1001.57 427.742 1001.7 428.118 1004.02 430.502C1005.4 431.918 1007.58 435.371 1008.86 438.175C1010.15 440.98 1012.46 444.947 1014.01 446.993L1016.82 450.711L1016.02 456.457C1015.44 460.625 1014.54 463.403 1012.75 466.577C1010.01 471.44 1005.9 476.079 1003.74 476.766C1002.96 477.013 1001.16 478.838 999.732 480.822C998.307 482.805 996.82 484.428 996.428 484.428C996.036 484.428 994.37 486.13 992.726 488.211C989.983 491.681 989.478 491.998 986.62 492.052C984.427 492.093 982.748 492.688 980.947 494.062L978.389 496.013L976.711 494.226H976.71ZM621.534 478.912C619.992 477.369 619.734 476.58 620.079 474.456C620.403 472.456 620.094 471.28 618.708 469.241C617.724 467.793 616.919 466.252 616.919 465.817C616.919 465.381 615.631 463.298 614.057 461.188C611.624 457.927 611.124 456.624 610.723 452.498C610.015 445.218 607.69 437.338 604.566 431.626C603.03 428.818 601.554 425.173 601.287 423.525C600.718 420.018 602.141 414.799 605.393 408.475L607.555 404.269L606.34 400.61C605.66 398.563 605.328 396.141 605.586 395.113C605.888 393.909 605.564 392.475 604.646 390.96C603.875 389.686 602.73 386.842 602.101 384.639C601.262 381.696 600.092 379.782 597.692 377.427C593.076 372.898 592.476 371.115 593.908 366.187C596.825 356.154 593.674 350.303 585.977 351.457C582.98 351.906 582.865 351.85 582.442 349.733C582.117 348.108 581.236 347.153 579.025 346.025C576.152 344.559 574.923 344.554 571.395 345.991C570.594 346.317 567.316 347.448 564.111 348.504C559.292 350.091 557.845 350.296 555.747 349.688C553.76 349.112 552.086 349.261 548.02 350.376C543.818 351.529 542.295 351.653 540.024 351.026C535.287 349.718 527.147 342.382 525.989 338.376C525.093 335.276 519.521 328.052 517.625 327.532C516.42 327.201 516.272 326.945 517.01 326.469C517.752 325.99 517.623 325.747 516.463 325.444C514.622 324.963 514.439 323.458 516.22 323.443C517.309 323.433 517.335 323.329 516.402 322.726C515.714 322.281 515.637 322.015 516.195 322.008C516.773 322.001 516.553 321.103 515.561 319.42C514.163 317.053 514.134 316.74 515.202 315.56C518.461 311.959 519.175 304.206 516.697 299.322C515.515 296.99 516.275 293.768 518.799 290.42C519.749 289.159 521.604 286.091 522.921 283.602C525.226 279.248 530.362 273.195 531.752 273.195C533.29 273.195 538.253 267.859 538.253 266.205C538.253 262.472 540.486 258.749 544.125 256.413C546.081 255.158 548.373 253.013 549.218 251.645C550.947 248.847 551.192 248.756 553.205 250.16C553.996 250.71 555.959 251.382 557.569 251.652C560.024 252.064 561.198 251.767 564.853 249.812C571.142 246.449 575.029 245.609 582.225 246.058C586.971 246.354 589.108 246.165 591.408 245.244C594.796 243.888 597.726 244.691 596.933 246.757C596.694 247.378 596.84 248.296 597.256 248.798C597.78 249.429 597.776 250.333 597.243 251.734C596.573 253.495 596.722 254.019 598.38 255.75C599.429 256.845 601.308 257.945 602.555 258.195C608.409 259.365 610.073 260.123 611.282 262.17C612.167 263.669 613.328 264.439 615.248 264.799C616.74 265.079 618.908 265.797 620.064 266.395C622.028 267.411 622.282 267.374 623.92 265.835C625.021 264.801 625.521 263.706 625.262 262.892C625.036 262.179 625.208 260.928 625.645 260.112C626.772 258.006 629.972 258.213 634.968 260.714C640.411 263.439 650.732 265.383 654.392 264.372C656.152 263.886 657.844 263.88 659.385 264.354C664.418 265.9 666.995 264.69 667.682 260.456C667.91 259.05 668.3 257.899 668.548 257.899C669.019 257.899 669.265 255.785 669.334 251.161C669.356 249.659 669.711 248.43 670.123 248.43C670.613 248.43 670.589 247.902 670.053 246.9C669.157 245.226 667.34 245.264 662.993 247.048C660.931 247.895 660.357 247.859 658.51 246.768C656.115 245.353 653.657 245.141 652.948 246.287C652.421 247.14 648.697 246.542 646.677 245.281C645.226 244.375 643.87 241.677 643.87 239.696C643.87 238.937 643.132 237.796 642.231 237.161C640.836 236.178 640.755 235.9 641.685 235.291C642.286 234.898 643.522 234.751 644.431 234.965C645.592 235.238 646.659 234.781 648.006 233.434C649.274 232.166 650.816 231.466 652.543 231.375C653.982 231.298 656.067 230.638 657.176 229.907C659.583 228.321 665.047 228.762 669.287 230.884C675.004 233.746 680.082 233.578 682.126 230.459C683.189 228.836 683.195 228.495 682.186 226.955C681.571 226.017 678.618 223.855 675.623 222.152L670.179 219.054L671.199 217.081C671.76 215.996 672.035 214.925 671.811 214.701C671.586 214.476 671.672 213.861 672.001 213.334C672.331 212.806 672.664 211.951 672.743 211.434C672.91 210.331 671.735 210.635 665.943 213.197C662.58 214.684 662.08 215.14 662.826 216.039C663.315 216.627 664.412 217.124 665.264 217.141C666.46 217.166 666.177 217.51 664.026 218.645C661.414 220.023 661.123 220.041 659.425 218.928C657.973 217.977 657.783 217.534 658.471 216.705C659.154 215.882 659.052 215.565 657.973 215.16C657.227 214.879 656.265 214.182 655.835 213.609C653.749 210.828 647.13 218.143 645.205 225.358C644.301 228.744 644.331 228.92 646.032 230.203L647.798 231.535L644.559 232.203C642.778 232.57 640.377 232.613 639.224 232.298C637.097 231.717 634.401 232.593 634.401 233.865C634.401 234.239 633.905 234.355 633.299 234.122C632.693 233.889 631.731 234.086 631.161 234.559C630.277 235.293 630.377 235.894 631.842 238.649C633.428 241.633 633.478 242.041 632.488 244.025C631.248 246.511 630.094 246.326 628.342 243.36C627.121 241.293 627.129 241.245 628.745 241.016C630.785 240.726 630.916 239.428 628.938 239.112C624.425 238.39 622.018 236.012 622.018 232.275C622.018 229.358 619.314 226.143 616.036 225.161C614.332 224.651 612.48 223.579 611.92 222.779C611.36 221.98 609.721 220.832 608.278 220.229C606.834 219.626 605.219 218.512 604.688 217.754C603.925 216.666 603.424 216.535 602.308 217.132C601.531 217.548 600.895 218.358 600.895 218.931C600.895 220.822 610.179 229.377 614.717 231.668C619.529 234.097 620.28 234.964 616.937 234.23C613.957 233.576 613.145 234.231 614.164 236.468C614.88 238.04 614.763 238.518 613.323 239.902L611.649 241.51L612.03 239.34C612.634 235.896 608.093 230.949 604.327 230.949C602.947 230.949 597.643 225.804 596.254 223.117C594.769 220.246 593.117 219.691 590.777 221.278C587.251 223.669 584.608 224.477 581.843 224.01C578.169 223.389 575.858 224.67 576.444 227.002C576.749 228.22 576.579 228.763 575.893 228.763C575.346 228.763 573.947 229.582 572.783 230.583C571.619 231.585 570.416 232.404 570.11 232.404C569.209 232.406 566.666 237.008 566.663 238.642C566.66 240.206 563.812 243.287 561.063 244.699C560.188 245.149 558.151 245.516 556.537 245.516C554.315 245.516 553.405 245.882 552.795 247.021C551.997 248.512 551.973 248.509 550.106 246.642C548.355 244.891 547.347 244.453 543.812 243.906C541.955 243.619 541.642 239.415 543.031 233.426C543.625 230.866 543.916 227.998 543.678 227.051C542.988 224.301 545.149 222.68 548.763 223.235C557.109 224.517 561.991 224.588 563.136 223.443C564.708 221.871 565.417 216.686 564.458 213.778C563.832 211.882 562.971 211.106 560.403 210.125C556.625 208.683 556.546 207.287 560.239 207.25C561.646 207.236 563.675 206.649 564.749 205.945C565.823 205.242 567.011 204.857 567.388 205.09C568.418 205.727 572.317 203.479 573.612 201.503C574.237 200.548 575.47 199.583 576.35 199.359C577.23 199.134 579.589 197.424 581.592 195.558C584.432 192.913 585.922 192.083 588.357 191.793C591.374 191.433 594.408 188.952 592.983 188.01C592.098 187.424 591.359 183.897 591.852 182.612C592.085 182.004 593.117 180.955 594.143 180.282L596.01 179.059L595.531 182.056C595.115 184.658 595.221 185.025 596.334 184.839C597.04 184.721 598.359 184.217 599.267 183.718C600.648 182.959 600.987 182.996 601.351 183.945C601.975 185.572 600.24 187.485 599.042 186.49C598.38 185.941 597.96 185.961 597.591 186.559C597.21 187.176 596.911 187.143 596.473 186.434C596.144 185.902 595.708 185.634 595.504 185.838C595.299 186.042 595.882 187.15 596.798 188.298C598.342 190.235 598.636 190.327 600.837 189.56C602.722 188.903 603.627 188.947 605.232 189.777C607.043 190.714 607.655 190.669 611.137 189.346C614.188 188.187 615.39 188.039 616.74 188.654C617.982 189.22 618.903 189.208 620.057 188.612C623.333 186.919 624.24 185.642 623.834 183.299C623.231 179.826 624.335 178.688 627.243 179.786C629.222 180.533 629.8 180.503 630.695 179.609C631.642 178.662 631.56 178.312 630.008 176.66C628.515 175.071 628.411 174.676 629.321 174.062C629.911 173.663 632.124 173.521 634.238 173.744C638.107 174.154 642.928 172.643 642.088 171.284C641.352 170.093 636.912 169.75 633.15 170.591C629.813 171.338 628.938 171.278 626.381 170.125C622.409 168.334 621.941 166.238 624.665 162.442C628.171 157.555 628.813 155.998 627.814 154.794C626.335 153.012 624.882 153.593 621.503 157.318C619.718 159.286 617.285 161.298 616.097 161.79C614.909 162.283 613.44 163.647 612.831 164.823C611.841 166.738 611.843 167.14 612.846 168.672C613.463 169.612 614.631 170.593 615.443 170.85C617.678 171.56 617.235 172.891 614.04 175.077C613.057 175.75 611.745 177.653 611.126 179.306C610.35 181.377 609.169 182.79 607.329 183.853C604.734 185.351 604.616 185.357 603.182 184.06C602.37 183.325 601.509 181.827 601.268 180.73C601.027 179.633 599.933 177.662 598.837 176.349L596.844 173.961L594.317 175.502C592.927 176.349 591.134 177.036 590.333 177.029C588.022 177.008 585.346 174.511 585.167 172.208C585.078 171.064 584.78 169.567 584.506 168.881C583.853 167.25 587.115 164.19 590.505 163.254C593.907 162.315 600.806 157.479 601.982 155.21C602.505 154.201 604.277 152.17 605.92 150.697C607.563 149.224 608.907 147.694 608.907 147.297C608.907 146.901 610.464 146.021 612.367 145.343C614.27 144.665 617.466 143.435 619.469 142.609C621.928 141.595 625.003 141.059 628.938 140.959C635.813 140.783 640.309 141.694 644.019 144.015C645.88 145.18 647.35 145.577 648.755 145.296C651.27 144.793 664.676 148.948 665.234 150.404C665.796 151.867 661.951 153.248 658.643 152.772C657.128 152.553 653.994 151.97 651.68 151.475C648.564 150.809 647.259 150.787 646.652 151.394C646.046 152 646.349 152.448 647.82 153.118C648.912 153.616 650.28 154.939 650.859 156.059C652.334 158.911 657.057 161.235 659.493 160.309C661.834 159.419 661.818 159.138 659.348 157.798C657.063 156.558 658.118 156.29 660.987 157.381C663.278 158.252 665.874 157.169 665.269 155.594C664.986 154.856 665.782 154.323 668.028 153.748C672.833 152.516 673.185 152.34 672.787 151.366C671.279 147.68 671.258 147.786 673.451 148.036C674.622 148.17 675.477 148.671 675.38 149.165C675.284 149.654 675.894 150.422 676.735 150.873C678 151.55 678.997 151.309 682.474 149.486C687.572 146.814 691.541 145.943 693.021 147.171C693.846 147.856 695.214 147.861 699.175 147.193C701.976 146.72 704.586 146.53 704.975 146.771C705.364 147.011 705.897 146.86 706.159 146.435C706.733 145.507 705.146 143.399 704.277 143.936C703.228 144.585 699.783 143.423 700.532 142.674C701.287 141.919 721.558 146.643 722.771 147.856C723.589 148.674 726.178 147.583 726.178 146.42C726.178 146.029 724.732 145.006 722.965 144.147C717.487 141.486 717.135 137.223 722.287 135.93C725.277 135.179 726.57 136.045 730.706 141.567C736.075 148.735 735.939 148.37 734.184 150.834C732.885 152.658 732.807 153.085 733.708 153.431C735.416 154.086 739.071 151.793 739.585 149.744C740.188 147.342 739.063 145.296 736.375 143.906C734.262 142.814 732.733 140.812 732.733 139.138C732.733 138.568 733.526 138.426 735.101 138.713C737.462 139.145 739.415 138.288 744.762 134.478C745.985 133.606 748.052 133.032 750.137 132.984C754.365 132.889 755.733 132.179 754.516 130.713C754.039 130.138 753.801 129.516 753.986 129.33C754.916 128.4 766.908 126.724 769.669 127.138C772.327 127.536 773.149 127.321 775.336 125.653C776.742 124.58 777.893 123.414 777.893 123.061C777.893 122.17 771.528 122.25 770.974 123.147C770.211 124.382 769.222 123.952 769.5 122.507C769.735 121.287 769.118 121.088 763.813 120.675C749.326 119.547 748.148 119.282 749.886 117.544C751.414 116.016 755.162 116.046 758.299 117.611C759.584 118.252 761.713 118.777 763.03 118.777C764.347 118.777 765.627 119.104 765.875 119.505C766.123 119.906 767.398 120.233 768.71 120.233C772.343 120.233 779.367 121.803 778.926 122.516C778.711 122.863 779.391 123.147 780.436 123.147C781.481 123.147 783.385 123.711 784.667 124.401C786.391 125.329 788.8 125.663 793.918 125.683C799.42 125.705 801.248 125.988 802.841 127.062C803.942 127.805 804.839 128.621 804.833 128.876C804.828 129.13 803.146 130.263 801.098 131.393C796.15 134.123 797.196 135.313 803.181 133.762C807.057 132.758 807.948 132.751 811.157 133.704C813.791 134.486 815.435 134.587 817.221 134.075C819.003 133.563 820.833 133.673 823.938 134.478C827.178 135.317 828.857 135.402 830.91 134.832C835.596 133.531 841.361 133.898 844.705 135.712C846.368 136.613 849.433 138.281 851.518 139.418C855.213 141.434 855.374 141.456 857.937 140.307C860.082 139.345 861.279 139.265 864.443 139.87C867.588 140.471 868.732 140.398 870.503 139.482C872.236 138.586 872.515 138.145 871.854 137.348C870.575 135.807 875.112 135.234 880.688 136.233C883.241 136.69 886.478 137.147 887.88 137.248C889.282 137.348 892.022 138.147 893.968 139.023C896.936 140.359 899.175 140.662 907.859 140.9C916.099 141.127 918.722 141.456 920.709 142.516C922.727 143.591 925.027 143.864 932.676 143.939C939.713 144.008 942.866 144.341 944.954 145.239C948.324 146.687 949.672 146.156 947.837 144.102C946.518 142.625 946.526 142.623 951.614 143.129C960.14 143.976 970.368 145.842 973.83 147.181C975.633 147.879 979.069 148.69 981.465 148.983C983.862 149.276 987.359 150.295 989.237 151.246C992.087 152.69 993.013 152.85 994.843 152.212C997.345 151.34 998.969 151.968 1002.79 155.287L1005.17 157.35L1003.38 157.799C1001.58 158.25 996.811 157.069 995.167 155.767C994.684 155.384 994.007 155.245 993.662 155.458C993.317 155.672 991.613 155.356 989.876 154.758C985.807 153.356 984 153.882 985.853 155.93C987.119 157.328 987.092 157.358 984.678 157.19C980.161 156.874 981.402 158.208 988.034 160.795C991.639 162.201 994.743 163.501 994.932 163.684C995.616 164.346 993.362 165.166 991.722 164.852C989.921 164.508 985.484 166.441 985.484 167.569C985.484 167.944 984.783 168.904 983.926 169.702C982.495 171.036 982.199 171.066 980.284 170.076C978.493 169.149 977.92 169.14 976.197 170.007C975.096 170.562 973.213 171.253 972.013 171.541C970.814 171.83 969.424 172.405 968.925 172.819C967.459 174.035 970.044 177.577 973.684 179.339C975.667 180.299 977.103 181.585 977.529 182.783C977.904 183.835 978.698 185.563 979.294 186.623C980.265 188.35 980.257 188.596 979.213 188.996C978.448 189.29 978.223 189.878 978.556 190.711C978.835 191.409 979.15 192.799 979.257 193.801C979.363 194.802 979.684 196.166 979.97 196.831C980.343 197.696 980.035 198.184 978.887 198.548C977.609 198.954 976.748 198.465 974.646 196.142C973.196 194.539 970.776 192.331 969.27 191.236C967.763 190.142 965.064 187.295 963.272 184.91C960.11 180.704 960.045 180.512 961.094 178.483C961.689 177.333 962.187 175.638 962.202 174.717C962.216 173.795 962.678 172.228 963.229 171.233C964.281 169.332 963.875 167.815 961.626 165.235C960.15 163.541 957.522 164.811 958.185 166.898C958.795 168.822 956.922 169.445 954.769 168.035C953.835 167.424 951.685 166.703 949.992 166.433C947.084 165.968 946.868 166.058 946.115 168.035C945.676 169.186 945.492 171.006 945.706 172.08C946.039 173.752 945.807 174.094 944.087 174.472C942.916 174.729 940.911 174.425 939.277 173.742C937.483 172.992 935.792 172.766 934.576 173.112C933.531 173.409 929.998 173.678 926.726 173.711C921.541 173.762 920.542 173.989 918.967 175.469C917.972 176.403 916.777 178.698 916.311 180.568C915.845 182.438 914.991 184.697 914.413 185.589C913.415 187.13 913.511 187.286 916.366 188.742C919.464 190.323 922.842 190.739 925.403 189.856C927.378 189.175 933.404 193.873 935.286 197.561C936.056 199.072 937.33 200.652 938.117 201.073C941.092 202.665 941.696 213.112 939.208 219.942C937.486 224.671 935.558 226.217 932.727 225.141C931.645 224.73 930.651 224.393 930.517 224.393C930.383 224.393 929.573 225.738 928.716 227.381C927.591 229.539 927.372 230.627 927.927 231.295C928.988 232.574 928.203 234.238 926.08 235.205C925.101 235.651 924.3 236.333 924.3 236.721C924.3 237.109 926.578 238.995 929.364 240.912C932.907 243.35 934.801 245.224 935.669 247.149C936.352 248.663 936.777 250.022 936.614 250.169C936.451 250.316 934.962 251.119 933.306 251.955L930.293 253.473L928.481 249.313C926.452 244.656 924.712 242.784 921.646 241.959C920.103 241.543 919.565 240.954 919.565 239.679C919.565 238.51 918.809 237.516 917.204 236.576C914.866 235.206 914.819 235.207 912.331 236.745C909.84 238.285 909.811 238.285 909.046 236.856C908.622 236.063 908.275 234.913 908.275 234.3C908.275 233.687 907.663 232.857 906.914 232.457C905.802 231.861 905.099 232.221 903.054 234.434C901.678 235.922 899.916 237.502 899.138 237.945C897.931 238.631 897.866 238.921 898.699 239.924C899.235 240.571 901.087 241.89 902.815 242.855C905.562 244.391 906.088 244.478 907.014 243.551C907.895 242.671 908.612 242.639 911.27 243.36L914.466 244.228L912.685 245.418C909.381 247.627 908.339 248.786 907.867 250.779C907.48 252.415 907.711 252.907 909.18 253.576C910.16 254.022 911.65 255.804 912.491 257.534C913.331 259.265 915.011 261.267 916.223 261.983C918.889 263.558 919.662 265.231 918.122 266.093C916.687 266.896 917.373 268.096 919.267 268.096C921.535 268.096 921.548 269.45 919.356 277.26C916.7 286.719 914.303 289.875 908.031 292.169C905.561 293.073 902.557 293.866 901.355 293.933C898.562 294.088 896.395 295.271 894.505 297.673L893.005 299.581L892.305 297.74C891.392 295.339 889.299 294.736 886.295 296.007C883.541 297.172 881.726 299.029 880.994 301.431C880.339 303.581 882.659 307.361 886.5 310.403C889.653 312.901 893.191 319.168 894.022 323.728C894.744 327.694 893.464 330.298 890.029 331.847C888.465 332.552 887 333.709 886.775 334.418C886.235 336.12 883.001 338.238 882.408 337.279C882.161 336.879 882.151 335.946 882.387 335.204C882.622 334.463 882.61 333.325 882.361 332.675C882.002 331.74 881.604 331.655 880.454 332.271C879.256 332.912 878.794 332.749 877.827 331.347C875.45 327.9 868.56 322.361 866.65 322.361C865.977 322.361 865.718 323.171 865.832 324.911C865.925 326.313 865.639 329.047 865.198 330.986C864.478 334.145 864.552 334.724 865.908 336.558C866.74 337.683 867.628 339.428 867.88 340.435C868.137 341.458 870.244 343.793 872.653 345.725C876.668 348.945 877.091 349.581 878.781 354.931C879.779 358.091 880.596 360.988 880.596 361.368C880.596 362.603 879.075 362.103 875.899 359.822C872.616 357.465 870.52 353.735 868.771 347.143C868.012 344.28 867.18 343.053 864.818 341.316C861.921 339.185 861.833 338.998 862.067 335.472C862.199 333.469 862.528 330.63 862.796 329.163C863.174 327.098 862.862 325.618 861.411 322.608C860.38 320.469 859.161 317.185 858.703 315.309C857.677 311.119 856.229 310.417 853.669 312.87C852.611 313.884 851.541 314.713 851.291 314.713C850.131 314.713 848.539 312.246 848.921 311.042C849.615 308.855 845.347 301.234 842.85 300.2C841.484 299.634 840.235 298.261 839.399 296.407C837.946 293.186 836.317 291.954 834.689 292.845C834.098 293.168 831.734 293.818 829.435 294.289C825.221 295.154 823.709 296.43 824.285 298.636C824.498 299.449 823.761 300.233 821.992 301.077C820.558 301.76 819.014 303.135 818.56 304.132C818.105 305.129 817.105 306.144 816.337 306.388C815.569 306.632 814.384 307.746 813.704 308.865C813.023 309.984 810.998 312.028 809.202 313.408C806.744 315.297 805.976 316.354 806.099 317.683C806.813 325.45 805.717 331.949 803.042 335.808C800.434 339.573 800.25 339.678 798.043 338.672C796.828 338.118 796.081 337.037 795.771 335.387C795.517 334.034 794.05 330.222 792.511 326.916C783.197 306.912 781.82 303.095 782.613 299.483C783.15 297.042 781.863 293.359 780.62 293.776C780.122 293.943 779.706 294.543 779.695 295.11C779.633 298.434 775.898 298.945 772.98 296.027L771.047 294.094L772.71 293.479C774.582 292.786 774.41 290.92 772.506 291.262C771.83 291.383 770.282 290.646 769.066 289.623C767.85 288.6 766.575 287.763 766.232 287.763C765.889 287.763 765.4 287.104 765.144 286.298C764.473 284.183 760.609 282.343 758.672 283.216C756.93 284.002 741.119 283.838 738.473 283.006C737.519 282.707 735.756 281.336 734.554 279.961C732.382 277.475 732.349 277.465 729.091 278.344C726.005 279.176 725.556 279.097 721.398 276.998C717.805 275.185 716.729 274.206 715.62 271.747C714.205 268.609 711.062 266.337 709.151 267.07C708.549 267.301 707.847 268.448 707.589 269.62C707.22 271.302 707.597 272.395 709.382 274.824C710.626 276.514 711.981 279.151 712.393 280.683C713.279 283.973 715.028 284.951 716.479 282.968C717.354 281.771 717.59 281.73 718.182 282.668C718.561 283.267 718.765 284.085 718.636 284.485C718.231 285.744 722.434 287.816 724.395 287.324C725.386 287.075 727.504 285.387 729.101 283.573C731.618 280.714 732.496 280.521 732.066 282.922C731.776 284.538 733.048 286.431 735.152 287.519C738.403 289.2 742.931 292.943 742.931 293.949C742.931 294.413 742.079 295.588 741.039 296.559C739.998 297.53 738.501 299.585 737.711 301.125C735.792 304.868 730.229 310.343 728.346 310.343C726.169 310.343 722.931 312.181 721.642 314.149C721.031 315.081 719.425 316.396 718.074 317.07C711.15 320.527 702.815 324.031 700.469 324.471C697.961 324.941 697.758 324.827 696.429 322.207C695.66 320.69 694.787 317.645 694.489 315.442C694.102 312.576 693.352 310.755 691.853 309.043C690.701 307.727 689.758 306.334 689.758 305.948C689.758 305.562 688.444 303.892 686.837 302.236C684.837 300.174 683.544 297.937 682.733 295.134C682.082 292.882 680.758 290.057 679.79 288.856C673.106 280.554 671.126 277.627 670.13 274.57C668.809 270.519 667.692 269.865 667.177 272.841L666.811 274.953L664.347 271.842C660.55 267.048 660.071 269.227 663.636 275.08C665.322 277.849 668.011 282.737 669.611 285.942C671.21 289.147 673.284 292.783 674.219 294.023C675.182 295.299 675.919 297.295 675.919 298.623C675.919 301.368 676.738 303.081 679.954 307.065C681.248 308.668 682.526 311.007 682.795 312.264C683.139 313.877 684.545 315.562 687.568 317.987C692.161 321.671 695.138 325.517 695.876 328.722C696.154 329.926 697.205 331.161 698.538 331.851C700.569 332.901 701.284 332.872 707.704 331.482C711.533 330.652 715.59 329.496 716.718 328.912L718.77 327.851L719.257 330.734C719.7 333.354 719.224 334.616 714.038 344.561C708.463 355.254 708.202 355.608 702.659 359.984C699.538 362.448 696.273 365.464 695.402 366.687C694.531 367.909 691.746 371.212 689.212 374.025C681.817 382.236 680.812 389.457 685.716 399.136C686.962 401.594 687.449 403.455 687.153 404.632C686.908 405.61 687.065 408.081 687.503 410.123C688.193 413.339 688.115 414.198 686.921 416.537C685.199 419.911 683.829 421.124 679.015 423.537C676.911 424.591 675.191 425.764 675.191 426.145C675.191 426.525 673.716 428.497 671.913 430.527C670.11 432.557 668.635 434.548 668.635 434.951C668.635 435.354 669.311 437.009 670.137 438.628C672.613 443.481 670.949 446.998 665.014 449.457C662.511 450.493 661.69 452.609 662.309 456.424C662.633 458.422 662.427 459.087 661.295 459.693C660.513 460.112 659.099 461.669 658.154 463.154C655.168 467.843 646.585 476.14 642.686 478.107C639.432 479.748 638.6 479.893 636.209 479.233C634.102 478.651 632.401 478.743 628.867 479.631C623.143 481.069 623.751 481.128 621.534 478.912L621.534 478.912ZM717.473 246.59C719.354 245.618 719.622 245.083 719.622 242.309C719.622 240.321 719.197 238.786 718.482 238.193C717.854 237.672 716.838 236.273 716.223 235.084C715.206 233.116 715.21 232.962 716.271 233.369C717.672 233.906 719.622 233.26 719.622 232.258C719.622 231.862 718.945 230.586 718.116 229.423C716.869 227.671 716.369 227.437 715.203 228.061C714.26 228.566 713.795 228.571 713.795 228.075C713.795 227.669 712.495 226.673 710.906 225.862C707.39 224.068 706.138 222.081 707.235 220.031C708.065 218.48 711.031 217.393 712.297 218.176C714.004 219.231 714.508 217.676 713.099 215.697C709.683 210.9 704.926 211.216 699.027 216.632C695.22 220.127 694.889 221.056 697.042 222.208C697.843 222.637 698.499 223.475 698.499 224.071C698.499 224.667 699.795 226.56 701.378 228.277C705.025 232.234 705.694 234.042 705.243 238.725L704.879 242.494L709.884 245.062C712.636 246.474 714.986 247.646 715.106 247.666C715.226 247.685 716.291 247.201 717.473 246.59H717.473ZM697.406 450.052C695.35 448.885 695.057 448.27 694.52 443.97C694.091 440.535 694.27 439.788 696.325 436.448C698.414 433.053 698.565 432.399 698.104 428.712C697.439 423.387 698.571 420.589 701.665 419.911C704.581 419.271 710.889 413.702 712.401 410.433L713.556 407.935L714.359 409.697C716.379 414.131 716.173 416.078 712.659 425.802C710.779 431.005 708.761 437.228 708.176 439.632C706.303 447.325 705.239 449.18 702.171 450.099C698.904 451.077 699.221 451.08 697.406 450.052V450.052ZM1056.21 437.388C1053.89 434.845 1052.5 432.663 1052.5 431.561C1052.5 429.117 1052.89 429.33 1054.99 432.917C1056 434.632 1057.81 436.988 1059.03 438.152C1060.24 439.316 1061.24 440.535 1061.24 440.861C1061.24 442.262 1059.69 441.191 1056.21 437.388V437.388ZM731.276 436.354C731.276 435.954 731.604 435.626 732.005 435.626C732.405 435.626 732.733 435.954 732.733 436.354C732.733 436.755 732.405 437.083 732.005 437.083C731.604 437.083 731.276 436.755 731.276 436.354ZM1114.85 435.026C1114.6 434.61 1114.74 434.05 1115.17 433.782C1116.26 433.113 1116.64 433.645 1115.92 434.814C1115.53 435.44 1115.15 435.515 1114.85 435.026V435.026ZM736.375 433.848C736.375 433.671 736.703 433.324 737.104 433.077C737.504 432.829 737.832 432.973 737.832 433.398C737.832 433.822 737.504 434.169 737.104 434.169C736.703 434.169 736.375 434.025 736.375 433.848ZM1095.91 426.455C1095.2 424.606 1096.1 423.958 1098.11 424.873C1099.84 425.663 1099.88 425.784 1098.67 426.667C1096.98 427.902 1096.45 427.861 1095.91 426.455ZM1100.53 423.216C1099.1 422.336 1100.09 421.634 1102.35 421.914C1104.13 422.133 1104.17 422.213 1102.9 422.994C1102.09 423.494 1101.12 423.584 1100.53 423.216V423.216ZM1066.52 420.543C1065.02 417.322 1065.55 416.085 1067.09 419.185C1068.7 422.412 1068.73 422.517 1067.97 422.509C1067.67 422.506 1067.02 421.621 1066.52 420.543V420.543ZM1069.31 420.026C1069.28 419.258 1069.45 418.828 1069.69 419.07C1069.93 419.312 1069.96 419.94 1069.75 420.466C1069.51 421.047 1069.34 420.875 1069.31 420.026H1069.31ZM1128.6 413.033C1127.94 411.954 1128.57 411.403 1130.13 411.707C1131.26 411.929 1131.28 412.047 1130.25 412.899C1129.43 413.578 1128.96 413.616 1128.6 413.033V413.033ZM698.135 409.404C697.887 409.003 698.032 408.675 698.456 408.675C698.88 408.675 699.227 409.003 699.227 409.404C699.227 409.805 699.083 410.132 698.906 410.132C698.73 410.132 698.382 409.805 698.135 409.404ZM1017.9 402.561C1013.29 401.107 1011.2 399.757 1009.38 397.061C1007.31 393.98 1003.52 391.649 1001.58 392.264C1000.8 392.512 999.481 393.863 998.653 395.266C997.244 397.655 996.973 397.786 994.412 397.331C992.907 397.064 990.805 396.033 989.741 395.041C988.388 393.78 987.352 393.382 986.296 393.717C985.465 393.981 984.261 393.903 983.621 393.545C982.62 392.985 982.718 392.722 984.319 391.673C986.175 390.457 986.177 390.441 984.933 387.831C983.933 385.735 982.554 384.642 978.044 382.375C974.943 380.816 971.437 379.54 970.253 379.54C967.545 379.54 966.426 377.043 968.466 375.551C969.68 374.664 969.503 374.443 966.336 372.905C962.974 371.271 962.926 371.202 964.532 370.31C965.439 369.806 966.901 369.382 967.78 369.368C969.486 369.341 971.645 371.803 971.645 373.777C971.645 374.435 972.353 375.874 973.219 376.974C974.77 378.946 974.81 378.954 975.95 377.53C976.587 376.736 978.619 375.22 980.466 374.161L983.824 372.237L988.478 374.337C991.038 375.492 994.672 376.991 996.553 377.669C998.435 378.348 1002.2 380.363 1004.92 382.148C1010.11 385.558 1012.36 388.433 1011.07 389.991C1010.02 391.261 1014.16 397.048 1018.44 400.295C1023.16 403.863 1023.08 404.194 1017.9 402.561V402.561ZM1049.6 402.502C1049.02 401.81 1048.97 401.392 1049.45 401.392C1050.33 401.392 1051.36 402.774 1050.85 403.279C1050.67 403.462 1050.1 403.112 1049.6 402.502V402.502ZM927.212 399.537C926.157 398.953 925.851 398.524 926.485 398.515C927.786 398.498 929.866 399.71 929.376 400.2C929.187 400.389 928.213 400.091 927.212 399.537ZM939.527 398.574C941.593 395.673 944.826 394.432 947.814 395.392C949.992 396.091 950.026 396.149 948.297 396.219C947.274 396.259 944.886 397.276 942.991 398.478C938.666 401.221 937.622 401.25 939.527 398.574V398.574ZM1045.21 399.571C1044.23 398.385 1044.46 398.236 1046.25 398.92C1046.88 399.163 1047.4 399.655 1047.4 400.013C1047.4 401.02 1046.22 400.782 1045.21 399.571V399.571ZM1048.62 398.928C1048.35 398.214 1048.15 397.084 1048.17 396.415C1048.2 395.611 1048.46 395.794 1048.92 396.959C1049.31 397.926 1049.51 399.057 1049.37 399.471C1049.23 399.886 1048.9 399.642 1048.62 398.928ZM1104.94 399.614C1104.94 399.437 1105.27 399.09 1105.67 398.842C1106.07 398.595 1106.4 398.739 1106.4 399.163C1106.4 399.588 1106.07 399.935 1105.67 399.935C1105.27 399.935 1104.94 399.79 1104.94 399.614ZM918.65 396.554C918.147 396.342 917.92 395.869 918.147 395.502C918.703 394.602 923.372 394.652 923.935 395.564C924.183 395.965 923.956 396.297 923.432 396.303C922.908 396.308 921.823 396.454 921.022 396.627C920.221 396.799 919.153 396.767 918.65 396.554V396.554ZM929.464 396.008C928.14 394.413 929.665 393.927 933.097 394.851C936.554 395.782 936.542 395.928 932.959 396.575C931.098 396.91 930.075 396.745 929.464 396.008V396.008ZM1038.83 395.564C1038.32 394.758 1038.23 394.108 1038.62 394.108C1039.01 394.108 1039.68 394.763 1040.11 395.564C1040.54 396.366 1040.63 397.021 1040.31 397.021C1040 397.021 1039.33 396.366 1038.83 395.564V395.564ZM1043.39 394.832C1041.44 392.68 1042.48 392.341 1044.49 394.475C1045.43 395.475 1045.86 396.293 1045.45 396.293C1045.04 396.293 1044.11 395.635 1043.39 394.832V394.832ZM906.818 394.705C904.214 394.344 900.543 393.543 898.659 392.925C896.776 392.307 894.557 392.017 893.728 392.28C892.061 392.809 884.967 390.724 884.967 389.704C884.967 387.376 891.496 387.199 894.966 389.434C896.262 390.268 897.283 390.324 900.022 389.71C903.056 389.03 903.688 389.113 905.471 390.432C906.58 391.252 907.818 391.923 908.221 391.923C909.661 391.923 914.033 394.359 913.664 394.956C913.457 395.291 912.897 395.519 912.42 395.463C911.943 395.407 909.422 395.066 906.818 394.705V394.705ZM1037.56 391.194C1036.84 390.393 1036.57 389.737 1036.97 389.737C1037.37 389.737 1038.3 390.393 1039.02 391.194C1039.75 391.995 1040.01 392.651 1039.61 392.651C1039.21 392.651 1038.29 391.995 1037.56 391.194ZM1032.97 390.272C1032.56 389.773 1032.01 388.384 1031.75 387.184C1031.33 385.252 1031.38 385.169 1032.16 386.46C1032.64 387.261 1033.5 388.457 1034.07 389.119C1034.68 389.82 1034.82 390.5 1034.42 390.75C1034.03 390.985 1033.38 390.77 1032.97 390.272ZM1017.54 387.956L1015.73 386.954L1018.54 386.428C1020.08 386.138 1022.45 384.928 1023.81 383.738C1025.29 382.439 1026.27 381.968 1026.26 382.56C1026.25 384.041 1025.35 385.183 1022.63 387.191C1019.78 389.289 1019.92 389.269 1017.54 387.956V387.956ZM880.91 385.12C878.234 383.595 873.407 377.697 871.836 374.031C870.988 372.053 869.046 368.796 867.519 366.793C865.992 364.79 864.24 362.168 863.625 360.966C863.01 359.764 861.141 357.47 859.473 355.867C855.955 352.489 853.792 348.938 855.266 348.964C857.177 348.997 862.097 351.732 864.207 353.935C870.029 360.012 871.222 361.094 873.97 362.787C876.622 364.421 877.878 366.122 878.004 368.25C878.027 368.651 878.782 369.798 879.68 370.799C880.578 371.801 882.273 373.684 883.446 374.985C884.619 376.286 885.79 378.315 886.049 379.495C886.897 383.356 883.788 386.759 880.91 385.12V385.12ZM734.19 384.639C734.19 384.238 734.518 383.91 734.918 383.91C735.319 383.91 735.647 384.238 735.647 384.639C735.647 385.039 735.319 385.367 734.918 385.367C734.518 385.367 734.19 385.039 734.19 384.639ZM926.845 384.632C926.595 384.228 926.593 383.26 926.838 382.48C927.085 381.7 926.785 380.295 926.168 379.354C925.153 377.806 925.163 377.482 926.271 375.901C926.943 374.941 927.736 372.364 928.033 370.173C928.4 367.471 929.124 365.641 930.286 364.479C931.876 362.889 932.276 362.818 935.849 363.496C938.917 364.078 940.125 364.006 941.795 363.142C944.592 361.696 944.796 361.761 943.867 363.799C942.687 366.391 940.328 367.219 937.84 365.915C933.398 363.588 927.504 367.047 930.614 370.156C931.757 371.299 932.389 371.403 934.506 370.796C938.135 369.755 939.565 369.946 937.312 371.171C934.761 372.556 934.277 374.094 935.592 376.636C936.19 377.793 936.679 379.586 936.679 380.622C936.679 382.28 936.505 382.411 935.221 381.724C934.419 381.295 933.263 379.746 932.651 378.281C931.546 375.637 931.527 375.628 930.113 377.042C928.874 378.281 928.79 378.832 929.469 381.289C930.082 383.509 930.04 384.243 929.275 384.728C927.989 385.544 927.391 385.52 926.842 384.632H926.845ZM1026.78 380.747C1026.09 379.699 1024.52 378.319 1023.29 377.68C1022.05 377.042 1021.2 376.355 1021.4 376.155C1022.54 375.022 1028.86 380.166 1028.32 381.782C1028.15 382.279 1027.49 381.834 1026.78 380.747ZM912.397 378.323C911.298 377.747 909.817 377.461 909.107 377.686C907.295 378.261 900.096 376.796 899.383 375.707C898.816 374.841 897.148 369.504 896.255 365.701C896.009 364.655 896.255 363.298 896.828 362.513C897.662 361.374 898.093 361.287 899.413 361.994C900.807 362.739 901.102 362.612 901.866 360.935C902.344 359.886 903.935 358.416 905.401 357.668C906.953 356.876 908.446 355.393 908.974 354.116C909.584 352.644 910.698 351.655 912.364 351.105C913.73 350.655 915.701 349.165 916.746 347.796C917.791 346.426 919.034 345.306 919.509 345.306C919.983 345.306 921.421 346.388 922.702 347.71L925.033 350.115L923.165 352.627C921.043 355.481 921.154 357.935 923.558 361.312L925.014 363.357L923.2 364.545C922.202 365.199 921.387 366.136 921.389 366.628C921.396 368.296 916.728 377.912 915.558 378.643C914.744 379.152 913.795 379.056 912.397 378.323V378.323ZM954.71 378.309C953.203 377.916 952.993 376.626 954.437 376.626C954.988 376.626 956.529 376.845 957.862 377.111C959.915 377.522 960.069 377.681 958.864 378.153C957.282 378.771 956.579 378.798 954.71 378.309V378.309ZM1070.71 369.021C1070.71 368.845 1071.03 368.498 1071.43 368.25C1071.83 368.002 1072.16 368.147 1072.16 368.571C1072.16 368.995 1071.83 369.343 1071.43 369.343C1071.03 369.343 1070.71 369.198 1070.71 369.021ZM952.158 367.046C951.576 366.463 951.542 365.788 952.046 364.846C952.447 364.097 952.58 363.171 952.343 362.787C951.686 361.724 953.331 359.145 954.666 359.145C955.737 359.145 955.733 359.27 954.619 360.5C953.657 361.563 953.55 362.267 954.122 363.771C955.278 366.812 954.02 368.909 952.158 367.046H952.158ZM586.327 364.651C586.327 364.474 586.655 364.127 587.055 363.88C587.456 363.632 587.784 363.777 587.784 364.201C587.784 364.625 587.456 364.972 587.055 364.972C586.655 364.972 586.327 364.828 586.327 364.651ZM1091.46 362.787C1091.22 362.386 1091.36 362.059 1091.79 362.059C1092.21 362.059 1092.56 362.386 1092.56 362.787C1092.56 363.188 1092.41 363.515 1092.24 363.515C1092.06 363.515 1091.71 363.188 1091.46 362.787ZM590.697 355.91C590.697 355.734 591.025 355.386 591.426 355.139C591.826 354.891 592.154 355.036 592.154 355.46C592.154 355.884 591.826 356.231 591.426 356.231C591.025 356.231 590.697 356.087 590.697 355.91ZM941.06 344.959C939.671 341.718 939.485 341.572 937.347 342.042C935.216 342.51 935.142 342.453 935.94 340.961C936.602 339.725 937.215 339.48 938.782 339.824C940.292 340.156 941.257 339.82 942.737 338.449C943.814 337.451 944.702 336.045 944.711 335.325C944.733 333.487 947.438 339.652 948.055 342.948C948.524 345.451 948.466 345.587 947.327 344.645C945.638 343.245 944.011 344.697 945.397 346.367C945.95 347.034 946.021 347.491 945.572 347.491C945.155 347.491 944.298 347.689 943.668 347.93C942.822 348.255 942.139 347.476 941.06 344.959V344.959ZM808.254 346.246C807.439 344.923 806.976 338.988 807.565 337.412C808.188 335.742 808.235 335.762 810.091 338.505C812.315 341.792 813.027 343.9 812.293 345.025C811.591 346.103 808.703 346.975 808.254 346.246ZM970.916 342.478C970.916 342.077 971.244 341.547 971.645 341.3C972.045 341.052 972.373 341.177 972.373 341.578C972.373 341.978 972.045 342.509 971.645 342.756C971.244 343.004 970.916 342.879 970.916 342.478ZM1085.27 342.392C1085.27 341.991 1085.42 341.664 1085.59 341.664C1085.77 341.664 1086.12 341.991 1086.37 342.392C1086.61 342.793 1086.47 343.12 1086.04 343.12C1085.62 343.12 1085.27 342.793 1085.27 342.392ZM919.929 338.184C919.929 337.872 921.39 335.988 923.174 333.996C925.79 331.077 926.426 330.664 926.452 331.87C926.47 332.693 925.375 334.578 924.019 336.058C921.72 338.569 919.929 339.499 919.929 338.184V338.184ZM935.706 336.24C935.44 335.549 935.494 334.499 935.825 333.907C936.338 332.99 936.552 332.981 937.271 333.847C937.915 334.623 937.886 335.175 937.151 336.181C936.248 337.415 936.158 337.419 935.706 336.24V336.24ZM377.912 333.402C378.358 332.865 378.508 332.209 378.244 331.946C377.981 331.682 378.444 331.466 379.275 331.466C380.426 331.466 380.694 331.812 380.404 332.923C380.183 333.769 379.41 334.38 378.562 334.38C377.422 334.38 377.279 334.165 377.912 333.402ZM940.593 333.209C940.322 332.451 939.967 331.585 939.805 331.284C939.642 330.984 939.818 330.738 940.196 330.738C940.923 330.738 941.946 333.729 941.405 334.27C941.23 334.445 940.865 333.968 940.593 333.209V333.209ZM933.212 331.309C932.189 330.076 933.186 328.322 934.716 328.663C935.675 328.877 935.71 329.18 934.941 330.605C934.198 331.98 933.877 332.111 933.212 331.309V331.309ZM941.824 328.806C940.988 327.743 940.425 326.752 940.574 326.603C941.166 326.011 943.214 327.316 944.303 328.978C945.978 331.535 943.854 331.387 941.824 328.806ZM929.849 325.986C929.201 325.337 928.67 324.429 928.67 323.968C928.67 323.507 929.389 323.85 930.268 324.729C931.147 325.608 931.678 326.516 931.448 326.746C931.217 326.977 930.498 326.635 929.849 325.986ZM358.098 325.882C357.831 325.615 357.613 325.058 357.613 324.644C357.613 324.187 357.952 324.23 358.475 324.753C358.949 325.227 359.167 325.784 358.96 325.991C358.753 326.198 358.366 326.149 358.098 325.882V325.882ZM353.971 324.911C353.971 324.51 354.115 324.182 354.292 324.182C354.469 324.182 354.816 324.51 355.064 324.911C355.311 325.311 355.167 325.639 354.742 325.639C354.318 325.639 353.971 325.311 353.971 324.911ZM388.205 323.454C388.205 323.053 388.35 322.726 388.526 322.726C388.703 322.726 389.05 323.053 389.298 323.454C389.545 323.855 389.401 324.182 388.977 324.182C388.552 324.182 388.205 323.855 388.205 323.454ZM937.176 323.343C936.446 322.931 935.061 322.792 934.099 323.033C932.689 323.387 931.717 322.82 929.077 320.103C925.347 316.266 924.622 314.648 925.716 312.604C926.139 311.814 926.485 310.182 926.485 308.977C926.485 305.023 929.133 305.183 931.074 309.254C932.15 311.509 932.157 311.994 931.146 314.413C930.058 317.017 930.079 317.133 932.02 319.159C933.422 320.623 934.474 321.119 935.582 320.841C936.519 320.606 937.529 320.898 938.08 321.562C939.391 323.142 938.819 324.27 937.176 323.343H937.176ZM383.835 318.762C383.835 318.586 384.163 318.239 384.563 317.991C384.964 317.743 385.292 317.888 385.292 318.312C385.292 318.737 384.964 319.084 384.563 319.084C384.163 319.084 383.835 318.939 383.835 318.762V318.762ZM498.192 316.17C498.192 315.769 498.52 315.442 498.92 315.442C499.321 315.442 499.649 315.769 499.649 316.17C499.649 316.571 499.321 316.898 498.92 316.898C498.52 316.898 498.192 316.571 498.192 316.17ZM381.65 313.342C381.65 312.942 381.977 312.412 382.378 312.164C382.779 311.916 383.106 312.042 383.106 312.442C383.106 312.843 382.779 313.373 382.378 313.621C381.977 313.868 381.65 313.743 381.65 313.342ZM375.464 310.351C375.208 309.938 375.501 309.816 376.149 310.065C377.411 310.549 377.642 311.071 376.594 311.071C376.217 311.071 375.708 310.747 375.464 310.351ZM491.272 310.343C491.025 309.942 491.169 309.615 491.593 309.615C492.018 309.615 492.365 309.942 492.365 310.343C492.365 310.744 492.22 311.071 492.044 311.071C491.867 311.071 491.52 310.744 491.272 310.343V310.343ZM378.372 308.886C378.124 308.486 378.269 308.158 378.693 308.158C379.117 308.158 379.465 308.486 379.465 308.886C379.465 309.287 379.32 309.615 379.143 309.615C378.967 309.615 378.62 309.287 378.372 308.886ZM381.65 308.886C381.65 308.486 381.794 308.158 381.971 308.158C382.148 308.158 382.495 308.486 382.742 308.886C382.99 309.287 382.845 309.615 382.421 309.615C381.997 309.615 381.65 309.287 381.65 308.886ZM331.573 306.947C331.072 306.745 330.662 306.279 330.662 305.912C330.662 304.862 333.878 305.132 335.44 306.314C336.783 307.33 336.745 307.381 334.669 307.349C333.467 307.33 332.074 307.149 331.573 306.947V306.947ZM350.004 306.534C349.351 306.168 347.908 306.069 346.797 306.313C345.687 306.557 343.978 306.436 343.001 306.045C341.43 305.417 341.569 305.343 344.203 305.404C348.076 305.495 349.11 304.864 348.12 303.015C347.418 301.702 347.629 301.602 351.104 301.602C354.465 301.602 359.314 303.144 360.136 304.474C360.683 305.358 351.309 307.264 350.004 306.534ZM363.976 306.994C363.113 306.131 364.186 305.244 366.093 305.244C367.238 305.244 367.819 305.588 367.632 306.155C367.296 307.174 364.743 307.761 363.976 306.994ZM890.948 305.836C889.02 303.907 890.929 301.602 894.455 301.602C896.018 301.602 896.019 301.615 894.678 303.911C893.115 306.588 892.182 307.069 890.948 305.836ZM369.995 305.686C369.995 305.529 370.487 305.211 371.088 304.981C371.689 304.75 372.181 304.879 372.181 305.267C372.181 305.655 371.689 305.973 371.088 305.973C370.487 305.973 369.995 305.844 369.995 305.686V305.686ZM338.509 300.465C338.284 300.24 336.746 300.038 335.092 300.015C332.809 299.983 332.262 299.759 332.822 299.084C333.363 298.432 332.586 297.564 329.908 295.829C324.658 292.427 321.726 291.762 318.199 293.173C314.891 294.497 314.638 294.534 314.638 293.701C314.638 292.176 320.435 290.499 324.609 290.817C328.601 291.12 330.837 291.97 338.675 296.163C345.118 299.61 345.125 299.617 343.045 300.21C340.684 300.883 339.02 300.977 338.509 300.465V300.465ZM343.773 294.318C345.186 293.406 345.959 293.406 345.959 294.318C345.959 294.719 345.221 295.042 344.32 295.036C342.995 295.027 342.89 294.889 343.773 294.318ZM923.862 293.027C923.421 292.736 922.664 291.743 922.178 290.822C921.446 289.432 921.522 288.757 922.622 286.874C924.321 283.965 925.468 283.602 926.02 285.799C926.6 288.11 924.923 293.727 923.862 293.027V293.027ZM348.556 292.056C349.042 291.269 351.786 291.18 351.785 291.951C351.785 292.252 350.968 292.545 349.969 292.602C348.97 292.66 348.334 292.414 348.556 292.056V292.056ZM334.152 285.036C332.987 283.699 333.157 281.936 334.45 281.936C334.864 281.936 335.035 282.576 334.831 283.358C334.626 284.14 334.834 284.914 335.292 285.079C335.75 285.244 335.932 285.589 335.696 285.847C335.46 286.104 334.765 285.739 334.152 285.036V285.036ZM338.383 279.314C338.124 278.638 338.076 277.921 338.276 277.721C338.477 277.521 338.853 277.91 339.112 278.585C339.371 279.261 339.419 279.977 339.219 280.178C339.019 280.378 338.643 279.989 338.383 279.314ZM333.819 278.658C333.819 278.057 334.443 277.565 335.206 277.565C336.439 277.565 336.472 277.687 335.501 278.658C334.9 279.259 334.276 279.751 334.114 279.751C333.951 279.751 333.819 279.259 333.819 278.658V278.658ZM944.694 262.689C944.694 262.119 943.899 260.707 942.926 259.551C940.618 256.808 941.435 254.977 944.169 256.768C946.135 258.056 947.162 260.687 946.437 262.576C945.887 264.008 944.694 264.086 944.694 262.689V262.689ZM379.465 258.306C379.465 258.129 379.792 257.782 380.193 257.535C380.594 257.287 380.921 257.432 380.921 257.856C380.921 258.28 380.594 258.627 380.193 258.627C379.792 258.627 379.465 258.483 379.465 258.306ZM948.754 257.411C948.282 256.18 949.397 255.017 951.068 254.997C952.225 254.982 952.247 256.611 951.104 257.753C949.917 258.941 949.307 258.852 948.754 257.411ZM955.409 254.752C953.995 252.594 951.997 252.297 947.424 253.568C945.564 254.084 944.283 254.09 943.417 253.586C942.718 253.178 942.53 252.835 943 252.822C943.47 252.81 944.842 251.969 946.049 250.954C947.606 249.643 948.747 249.234 949.977 249.542C951.281 249.87 952.688 249.243 955.648 247.019C961.41 242.69 961.932 241.324 959.587 236.698C957.337 232.257 957.964 230.828 961.298 232.797C963.725 234.231 966.011 238.337 965.347 240.068C965.108 240.691 965.465 242.647 966.139 244.413C967.094 246.914 967.185 247.965 966.548 249.155C965.612 250.904 963.009 252.072 960.049 252.072C958.39 252.072 957.894 252.497 957.352 254.388L956.688 256.704L955.409 254.752V254.752ZM660.331 252.266C659.462 251.397 659.924 250.615 661.308 250.615C662.086 250.615 662.924 250.287 663.172 249.887C663.849 248.791 665.004 249.011 664.566 250.152C664.117 251.323 660.963 252.897 660.331 252.266ZM635.493 251.006L633.308 250.005L636.222 249.956C639.85 249.895 642.524 250.575 641.998 251.426C641.412 252.374 638.001 252.154 635.493 251.006V251.006ZM606.069 243.74C603.154 242.247 603.017 242.061 604.538 241.663C606.361 241.186 610.395 241.779 610.313 242.512C610.285 242.762 610.039 243.51 609.766 244.173C609.319 245.263 608.964 245.222 606.069 243.74V243.74ZM591.469 235.859C590.839 234.051 590.889 233.359 591.708 232.54C593.189 231.059 594.339 232.099 594.339 234.92C594.339 238.251 592.512 238.849 591.469 235.859V235.859ZM574.389 236.464C574.906 235.118 577.122 234.89 576.676 236.229C576.509 236.73 575.828 237.246 575.161 237.375C574.316 237.539 574.083 237.263 574.389 236.464V236.464ZM954.974 228.15C953.641 226.278 953.604 225.933 954.589 224.527C955.556 223.146 955.552 222.732 954.556 220.806C952.917 217.637 953.148 217.445 955.989 219.613C957.394 220.684 960.166 222.043 962.149 222.632C966.247 223.849 967.236 224.804 965.1 225.482C964.293 225.738 963.632 226.424 963.632 227.005C963.632 227.798 963.13 227.934 961.629 227.55C957.786 226.567 956.694 226.807 956.941 228.581C957.243 230.755 956.752 230.648 954.974 228.15H954.974ZM592.64 229.006C591.795 228.161 592.113 226.75 593.247 226.315C594.036 226.012 594.339 226.395 594.339 227.694C594.339 229.442 593.626 229.993 592.64 229.006ZM950.352 213.649C949.734 212.948 948.245 210.407 947.042 208.003C945.84 205.598 942.661 201.183 939.978 198.191C936.98 194.848 935.457 192.631 936.026 192.441C936.536 192.271 937.63 193.033 938.457 194.134C940.461 196.802 942.928 199.119 946.822 201.989C950.05 204.368 951.646 206.569 949.564 205.77C947.162 204.848 947.761 207.036 950.869 210.535C952.681 212.575 954.164 214.397 954.164 214.584C954.164 215.47 951.348 214.78 950.352 213.649ZM417.341 212.375C417.341 211.774 417.658 211.282 418.046 211.282C418.434 211.282 418.563 211.774 418.333 212.375C418.102 212.976 417.784 213.467 417.627 213.467C417.47 213.467 417.341 212.976 417.341 212.375ZM413.535 210.024L410.821 209.739L415.927 204.684C418.736 201.903 421.401 199.628 421.849 199.628C422.323 199.628 422.181 200.163 421.511 200.903C419.995 202.579 421.029 204.461 423.8 205.07C425.01 205.335 426.216 206.262 426.681 207.285C427.429 208.927 427.303 209.094 424.779 209.795C422.132 210.53 418.971 210.594 413.535 210.024V210.024ZM236.049 204.798C233.526 202.442 233.244 201.449 234.917 200.807C236.416 200.232 239.182 202.106 240.23 204.407C241.33 206.821 241.31 206.912 239.691 206.912C238.932 206.912 237.293 205.961 236.049 204.798ZM556.827 201.098C557.629 200.703 559.205 200.047 560.331 199.641C562.812 198.746 562.4 197.792 559.263 197.165C557.111 196.735 557.035 196.625 558.266 195.725C558.999 195.189 559.386 194.405 559.125 193.982C558.858 193.551 559.607 192.881 560.834 192.453C562.036 192.034 563.019 191.368 563.019 190.972C563.019 189.29 561.5 186.46 560.657 186.57C558.712 186.824 557.811 186.481 558.125 185.606C558.304 185.106 558.156 184.122 557.796 183.421C556.858 181.598 559.013 177.828 561.016 177.787C561.316 177.782 561.48 178.178 561.38 178.669C561.28 179.161 561.967 179.679 562.907 179.822L564.617 180.081L562.983 181.82L561.35 183.559L563.191 184.259C565.168 185.01 567.073 187.458 569.012 191.74C569.942 193.791 570.553 194.327 571.638 194.044C573.864 193.461 574.128 194.97 572.039 196.338C570.625 197.265 570.356 197.788 570.976 198.407C571.595 199.027 570.374 199.443 566.137 200.054C563.02 200.504 559.322 201.085 557.92 201.344C555.97 201.705 555.713 201.647 556.827 201.098V201.098ZM544.544 197.074C544.295 196.425 544.579 194.95 545.176 193.796C545.86 192.472 545.993 191.533 545.535 191.25C544.272 190.47 544.746 189.474 546.6 189.009C547.585 188.761 548.772 188.1 549.239 187.538C550.209 186.369 554.696 186.154 555.37 187.244C555.617 187.644 555.308 188.7 554.684 189.591C554.06 190.482 553.55 192.083 553.55 193.148C553.55 194.772 553.05 195.258 550.454 196.159C548.751 196.75 546.827 197.464 546.178 197.744C545.416 198.074 544.836 197.836 544.544 197.074V197.074ZM557.92 189.838C557.92 189.661 558.248 189.314 558.648 189.066C559.049 188.819 559.377 188.963 559.377 189.387C559.377 189.812 559.049 190.159 558.648 190.159C558.248 190.159 557.92 190.014 557.92 189.838ZM234.661 186.328C233.947 185.468 233.993 185.068 234.888 184.324C236.368 183.096 237.102 183.929 236.241 185.86C235.647 187.192 235.431 187.256 234.661 186.328V186.328ZM233.522 180.85C233.276 180.452 233.562 179.721 234.159 179.226C235.343 178.243 235.591 179.014 234.595 180.585C234.215 181.186 233.793 181.29 233.522 180.85ZM186.441 180.385C186.441 179.873 188.65 178.977 191.783 178.218C192.971 177.93 193.673 177.999 193.437 178.381C193.212 178.746 192.119 179.228 191.009 179.452C189.899 179.676 188.417 180.081 187.716 180.352C187.015 180.624 186.441 180.638 186.441 180.385V180.385ZM619.287 172.195C617.943 171.653 618.181 170.817 619.712 170.702C620.446 170.646 621.047 171.068 621.047 171.639C621.047 172.724 620.795 172.803 619.287 172.195ZM459.223 168.472C454.614 165.959 452.41 162.097 453.746 158.872C454.378 157.346 454.397 156.387 453.818 155.304C452.612 153.05 454.185 150.409 458.21 147.933C460.121 146.756 462.03 145.15 462.451 144.363C463.618 142.183 462.579 138.447 460.548 137.522C459.52 137.054 458.961 136.314 459.188 135.722C459.705 134.374 457.28 129.772 454.865 127.517C453.087 125.858 452.323 125.692 446.236 125.653C437.947 125.598 436.402 125.138 436.54 122.759C436.597 121.771 436.816 120.963 437.026 120.962C437.237 120.962 440.187 120.62 443.582 120.203C447.916 119.669 451.802 118.57 456.634 116.51C464.114 113.32 464.684 113.257 482.532 113.677C488.167 113.809 493.352 113.392 500.013 112.271C506.216 111.226 510.78 110.832 513.244 111.129C515.338 111.381 518.37 111.215 520.082 110.754C524.054 109.684 534.375 110.971 538.434 113.042C540.834 114.266 542.104 114.428 546.153 114.025C550.528 113.589 550.858 113.647 549.543 114.612C548.742 115.201 546.284 115.919 544.08 116.21C539.299 116.839 534.906 120.247 536.07 122.423C536.573 123.361 536.212 124.162 534.589 125.718C533.408 126.849 532.27 128.318 532.059 128.983C531.552 130.581 525.113 133.555 521.92 133.666C518.373 133.789 518.003 134.543 520.745 136.053C522.041 136.767 523.932 137.983 524.948 138.755L526.795 140.16L525.125 140.777C523.845 141.251 522.806 140.946 520.676 139.469C517.786 137.466 514.676 137.456 516.335 139.455C516.982 140.235 516.826 140.538 515.615 140.854C512.909 141.562 514.823 142.962 517.808 142.458C519.708 142.137 520.777 142.306 521.371 143.022C522.078 143.874 521.156 144.268 515.851 145.383C512.348 146.119 507.679 146.749 505.476 146.782C501.383 146.843 498.433 148.018 494.094 151.316C492.679 152.391 489.672 153.457 486.153 154.13C478.799 155.537 476.313 157.165 471.882 163.475C468.323 168.543 466.177 170.432 463.958 170.449C463.357 170.454 461.226 169.564 459.223 168.472V168.472ZM407.577 163.601C406.013 162.639 404.096 160.847 403.317 159.617C401.797 157.216 400.396 156.911 396.292 158.088C394.903 158.487 393.344 158.525 392.72 158.176C390.564 156.969 394.459 155.782 398.798 156.324C402.098 156.736 402.832 156.619 403.217 155.616C403.99 153.601 407.528 152.157 409.496 153.054C410.707 153.606 411.808 153.59 413.355 153C415.437 152.205 415.465 152.134 414.106 151.136C413.328 150.565 412.441 150.097 412.134 150.097C411.826 150.097 410.718 148.634 409.669 146.846C408.621 145.057 406.657 142.91 405.304 142.074C403.005 140.653 402.701 140.628 400.645 141.691C398.847 142.621 397.808 142.686 394.964 142.047C393.049 141.618 390.376 141.473 389.024 141.726C386.677 142.165 382.378 141.016 382.378 139.951C382.378 137.993 388.547 133.601 392.211 132.949L395.125 132.43L393.042 134.649C390.169 137.71 391.25 139.119 394.369 136.379C395.693 135.218 397.98 134.041 399.452 133.765C401.701 133.343 402.665 133.618 405.489 135.489C409.247 137.978 409.536 138.044 411.656 136.91C412.932 136.227 413.405 136.415 414.791 138.153C415.749 139.355 417.89 140.664 419.978 141.325C423.304 142.377 423.532 142.606 423.532 144.901C423.532 146.621 424.028 147.707 425.197 148.543C430.085 152.039 429.978 151.894 428.921 153.588C427.47 155.91 426.325 156.078 423.115 154.441C420.882 153.302 419.907 153.146 418.783 153.747C417.407 154.483 417.393 154.641 418.5 156.782C419.409 158.539 419.492 159.426 418.874 160.782C418.113 162.452 417.992 162.477 415.926 161.409C411.864 159.309 409.129 160.691 412.918 162.929C414.105 163.63 414.911 164.472 414.709 164.799C414.003 165.94 410.399 165.335 407.577 163.601V163.601ZM557.191 164.544C557.191 164.21 557.683 163.937 558.284 163.937C558.885 163.937 559.377 164.21 559.377 164.544C559.377 164.878 558.885 165.151 558.284 165.151C557.683 165.151 557.191 164.878 557.191 164.544ZM380.113 160.627C378.677 159.872 377.562 159.807 375.551 160.362C372.132 161.306 370.936 160.615 372.671 158.698C374.892 156.244 376.399 155.761 379.078 156.645C382.093 157.641 383.431 159.12 382.618 160.558C382.099 161.475 381.745 161.485 380.113 160.627V160.627ZM524.778 160.295C523.576 159.505 522.047 159.031 521.379 159.242C520.459 159.533 520.255 159.281 520.537 158.201C520.97 156.544 527.37 154.152 529.534 154.839C530.288 155.078 532.216 154.881 533.818 154.401C536.333 153.648 536.999 153.705 538.7 154.819L540.669 156.109L538.915 157.476C537.434 158.629 534.689 159.63 528.056 161.434C527.455 161.598 525.98 161.085 524.778 160.295V160.295ZM327.021 146.698C326.019 146.539 323.579 145.683 321.599 144.794L317.998 143.178L323.056 142.813C325.837 142.613 328.113 142.121 328.113 141.721C328.113 141.32 326.146 140.817 323.743 140.602C320.569 140.319 319.971 140.119 321.558 139.874C324.214 139.463 324.406 138.312 321.922 137.685C320.133 137.233 320.146 137.205 322.662 136.121C327.023 134.242 331.668 133.882 335.783 135.104C339.162 136.108 339.69 136.104 341.283 135.06C342.41 134.322 343.078 134.198 343.136 134.717C343.186 135.164 343.268 135.912 343.318 136.379C343.487 137.957 344.94 137.753 346.674 135.908C348.279 134.199 351.061 133.381 351.055 134.619C351.053 134.92 350.405 136.226 349.615 137.523L348.177 139.88L350.528 141.106L352.878 142.332L349.019 144.094C345.536 145.683 344.822 145.774 341.7 145.026C338.674 144.299 337.805 144.382 334.756 145.69C331.311 147.166 330.585 147.261 327.021 146.698V146.698ZM356.233 146.184C355.576 145.392 355.847 145.002 357.547 144.297C358.731 143.807 360.428 143.644 361.338 143.932C362.916 144.433 362.879 144.512 360.481 145.789C357.422 147.418 357.269 147.433 356.233 146.184V146.184ZM557.191 142.813C558.604 141.901 559.377 141.901 559.377 142.813C559.377 143.214 558.639 143.537 557.738 143.531C556.412 143.522 556.308 143.384 557.191 142.813V142.813ZM690.851 140.793C687.127 139.322 687.203 139.402 688.287 138.097C688.794 137.486 688.922 136.976 688.573 136.963C688.223 136.95 688.593 136.445 689.394 135.839C690.195 135.234 690.856 134.507 690.863 134.224C690.889 133.146 693.854 130.305 695.95 129.35C697.151 128.803 700.265 128.186 702.869 127.979C705.473 127.772 708.961 127.393 710.62 127.137C712.386 126.865 713.825 126.976 714.091 127.406C714.607 128.242 713.621 128.597 707.968 129.613C702.358 130.62 698.986 132.191 696.765 134.83C694.425 137.611 694.347 139.367 696.496 140.865L698.135 142.009L695.95 141.976C694.748 141.958 692.453 141.426 690.851 140.793V140.793ZM309.361 138.681C308.186 137.506 308.454 137.25 314.09 134.165C320.693 130.55 324.011 130.07 329.934 131.874L333.212 132.871L328.841 133.738C325.267 134.447 317.693 136.98 311.711 139.466C311.101 139.72 310.048 139.368 309.361 138.681V138.681ZM361.983 137.738C361.983 137.35 361.082 136.516 359.98 135.883L357.977 134.733L360.659 135.155C362.565 135.455 363.513 135.276 363.937 134.539C364.44 133.661 369.076 131.905 370.925 131.892C371.235 131.889 370.982 132.87 370.361 134.07C368.899 136.898 361.983 139.925 361.983 137.738V137.738ZM373.324 135.611C372.28 133.923 379.407 131.309 382.435 132.27C384.642 132.97 383.167 134.174 379.318 134.813C377.596 135.1 375.646 135.564 374.986 135.846C374.325 136.127 373.577 136.022 373.324 135.611ZM396.582 130.248C391.774 129.865 387.751 129.469 387.642 129.367C386.99 128.763 388.615 126.796 390.363 126.072C392.082 125.36 392.874 125.454 395.227 126.652C397.521 127.819 399 128.013 403.261 127.706C406.133 127.499 409.411 127.565 410.545 127.852L412.606 128.374L410.057 129.736C408.655 130.485 407.016 131.063 406.415 131.021C405.814 130.978 401.389 130.63 396.582 130.248ZM606.196 127.271C602.618 125.439 602.273 124.608 605.083 124.593C606.185 124.586 607.578 124.228 608.179 123.795C609.123 123.116 609.111 123.06 608.085 123.386C607.433 123.592 606.518 123.38 606.052 122.914C605.408 122.27 605.072 122.281 604.651 122.962C604.262 123.592 603.462 123.666 601.95 123.214C598.109 122.063 597.253 121.553 597.253 120.412C597.253 119.446 598.216 119.358 604.173 119.776C608.709 120.095 611.092 120.007 611.092 119.52C611.092 118.086 613.113 118.794 613.649 120.415L614.191 122.054L614.513 120.415C614.69 119.514 615.304 118.777 615.877 118.777C616.451 118.777 616.919 118.383 616.919 117.903C616.919 117.223 617.114 117.223 617.793 117.903C618.302 118.411 620.739 118.777 623.621 118.777C628.828 118.777 630.051 119.708 626.578 121.028C624.773 121.714 621.634 121.52 618.194 120.51C617.493 120.304 616.921 120.403 616.924 120.731C616.929 121.403 621.022 123.875 622.129 123.875C622.526 123.875 623.31 124.335 623.872 124.897C624.749 125.774 624.742 125.977 623.82 126.331C623.23 126.558 622.747 126.389 622.747 125.957C622.747 125.448 621.82 125.344 620.126 125.662C618.29 126.006 617.654 125.912 618.003 125.347C618.277 124.903 618.105 124.063 617.621 123.479C616.687 122.354 614.006 122.009 614.006 123.015C614.006 123.342 612.941 124.788 611.639 126.228L609.271 128.845L606.196 127.271L606.196 127.271ZM412.97 125.668C411.708 124.927 409.921 124.712 407.143 124.968C404.547 125.207 402.55 125.001 401.469 124.383C399.979 123.53 400.343 123.433 404.892 123.47C410.581 123.516 413.079 122.298 409.998 120.981C408.535 120.355 408.748 120.299 411.257 120.646C414.532 121.1 415.805 120.222 414.021 118.741C412.118 117.162 414.21 116.672 420.98 117.111C425.17 117.382 427.802 117.23 428.878 116.654C430.94 115.551 430.131 114.146 427.775 114.737C426.146 115.146 414.844 114.475 415.321 113.998C415.662 113.657 431.674 112.174 442.189 111.51C447.642 111.165 453.706 110.685 455.664 110.442L459.223 110L453.347 112.822C447.838 115.469 438.88 118.048 435.199 118.048C434.303 118.048 431.728 119.032 429.475 120.233C427.223 121.435 424.929 122.419 424.377 122.419C423.825 122.419 421.442 123.398 419.082 124.595C416.722 125.791 414.791 126.763 414.791 126.754C414.791 126.745 413.972 126.256 412.97 125.668V125.668ZM398.767 119.014C395.237 118.233 395.107 117.939 397.701 116.594C401.483 114.634 405.061 114.132 406.688 115.333C407.976 116.283 407.901 116.43 405.371 117.923C402.735 119.478 401.665 119.655 398.767 119.014V119.014Z" fill="#1F5D71" fill-opacity="0.44"/>
</svg>
