<svg id="e8e5f283-0b0e-4c22-8b0b-3e0b9c439712" data-name="Layer 1" xmlns="http://www.w3.org/2000/svg" xmlns:xlink="http://www.w3.org/1999/xlink" viewBox="0 0 49.52 19.27">
  <defs>
    <linearGradient id="b02d0ab3-901b-4a66-828d-2f142eba7be2" x1="0.5" y1="9.64" x2="13.87" y2="9.64" gradientUnits="userSpaceOnUse">
      <stop offset="0" stop-color="#fff"/>
      <stop offset="1" stop-color="#b3b3b3"/>
    </linearGradient>
  </defs>
  <g>
    <g>
      <path d="M19.68,9.45h2.2v4.71H21.2l-.33-.72h0a1.4,1.4,0,0,1-1.36.85,2,2,0,0,1-1.3-.47c-.47-.43-.71-1.15-.71-2.9V8.38c0-1.75.24-2.47.71-2.9A2.09,2.09,0,0,1,19.63,5a2.09,2.09,0,0,1,1.45.49c.52.47.72,1.31.72,2.7v0H20.31v0c0-1.1,0-1.81-.68-1.81S19,7.08,19,8.05v3.2c0,1,0,1.67.69,1.67s.8-.93.8-2.05v-.08h-.76Z"/>
      <path d="M24.1,11.07v.53c0,1,0,1.51.53,1.51s.59-.69.59-1.17v0H26.5v0a2.59,2.59,0,0,1-.61,1.92,1.66,1.66,0,0,1-1.25.43,1.68,1.68,0,0,1-1.26-.43,3.48,3.48,0,0,1-.6-2.51V10.29a3.48,3.48,0,0,1,.6-2.51,1.68,1.68,0,0,1,1.26-.43,1.66,1.66,0,0,1,1.25.43,3.47,3.47,0,0,1,.61,2.51v.78Zm0-1h1.07v0c0-1,0-1.52-.53-1.52S24.1,9,24.1,10Z"/>
      <path d="M27.8,13.86a3.47,3.47,0,0,1-.61-2.51V10.29a3.47,3.47,0,0,1,.61-2.51,1.68,1.68,0,0,1,1.26-.43,1.66,1.66,0,0,1,1.25.43,3.47,3.47,0,0,1,.62,2.51v1.06a3.47,3.47,0,0,1-.62,2.51,1.66,1.66,0,0,1-1.25.43A1.68,1.68,0,0,1,27.8,13.86Zm1.8-2.26V10c0-1,0-1.52-.54-1.52S28.52,9,28.52,10V11.6c0,1,0,1.51.54,1.51S29.6,12.6,29.6,11.6Z"/>
      <path d="M31.84,14.16v-9h2a2,2,0,0,1,2.24,2.27v0a2.12,2.12,0,0,1-.94,2v0a2.11,2.11,0,0,1,1.12,2v0c0,1.74-.85,2.65-2.4,2.65ZM33.31,8.8h.37c.64,0,.92-.52.92-1.25v0c0-.68-.3-1.08-.9-1.08h-.39Zm.42,4.06c.76,0,1-.5,1-1.41v0c0-.84-.31-1.31-1-1.31h-.39v2.75Z"/>
      <path d="M40.7,14.16H39.42V13.4h0a2.11,2.11,0,0,1-1.43.86c-.58,0-1-.43-1-1.16V7.47h1.35v5.15c0,.18,0,.44.29.44a1.21,1.21,0,0,0,.73-.41V8.39l0-.92H40.7l0,.92v4.85Z"/>
      <path d="M41.31,7.47h.75V6.79c0-1.15.57-1.7,1.55-1.7a6.11,6.11,0,0,1,.73.06V6.31l-.46,0c-.31,0-.5.15-.5.65v.53H44.7V6.79c0-1.15.56-1.7,1.55-1.7a6.3,6.3,0,0,1,.73.06V6.31l-.47,0c-.3,0-.49.15-.49.65v.53h1V8.62H46v5.54H44.68l0-.92V8.62H43.38v4.62l0,.92H42.05V8.62h-.75Z"/>
    </g>
    <path d="M48.46,5.17V6h-.21V5.17h-.17V5h.55v.17Zm.47.33a.59.59,0,0,1,0-.13h0V6h-.18V5H49l.1.42,0,.12h0l0-.12.1-.42h.27V6h-.19V5.37h0l0,.13L49.18,6h-.13Z"/>
    <g>
      <g>
        <path d="M7.15,18.77c-1.41,0-5-5-6.28-9.41A6.71,6.71,0,0,1,.52,7.61a3.64,3.64,0,0,1,0-.43,6.69,6.69,0,0,1,13.37,0v.14a.45.45,0,0,0,0,.11,6.8,6.8,0,0,1-.36,1.93c-1.26,4.38-4.87,9.41-6.28,9.41Z" style="fill: url(#b02d0ab3-901b-4a66-828d-2f142eba7be2)"/>
        <path d="M7.18,1a6.19,6.19,0,0,1,6.19,6.16v.15a.15.15,0,0,0,0,.07v.06A6.45,6.45,0,0,1,13,9.19s0,0,0,.05c-1.27,4.42-4.77,9-5.79,9H7.15c-1-.05-4.53-4.61-5.8-9,0,0,0,0,0-.06A6.49,6.49,0,0,1,1,7.58a.31.31,0,0,0,0-.1c0-.1,0-.2,0-.3A6.18,6.18,0,0,1,7.18,1m0-1A7.19,7.19,0,0,0,0,7.18c0,.13,0,.26,0,.39a.2.2,0,0,1,0,.07A7.58,7.58,0,0,0,.38,9.49h0c1.19,4.17,4.89,9.77,6.76,9.77h.07c1.87,0,5.55-5.58,6.75-9.75a6.64,6.64,0,0,0,.38-2v0s0-.06,0-.1V7.18A7.19,7.19,0,0,0,7.18,0Z"/>
      </g>
      <g>
        <g>
          <path d="M14.35,7.18a.57.57,0,0,1,0,.13s0-.08,0-.13Z" style="fill: #00c964"/>
          <path d="M14.37,7.18Zm0,0h0a.57.57,0,0,1,0,.13s0-.08,0-.13Z"/>
        </g>
        <g>
          <path d="M7.58,12.65a2.43,2.43,0,0,1,.24-.53,3.42,3.42,0,0,0,.23-.47A3.05,3.05,0,0,0,7.8,9,2.4,2.4,0,0,0,6.06,7.76a1.52,1.52,0,0,0,.12-.32c.29-1.29-.85-3.05-1.73-3.65a2.47,2.47,0,0,0-1.4-.44,3.1,3.1,0,0,0-1.69.56A6.68,6.68,0,0,1,13.71,5.75l-.26-.11a2.63,2.63,0,0,0-.85-.2,1,1,0,0,0-.79.36,1,1,0,0,0-.45-.12.92.92,0,0,0-.43.11.84.84,0,0,0-.39.86,1.61,1.61,0,0,0,.2.58,2.49,2.49,0,0,1,.25,1v.19c0,.18,0,.35,0,.54a2.16,2.16,0,0,0,.29.84l-.05.05a3.48,3.48,0,0,1-.38.39c-.6.51-1.17,1-1.74,1.38l-.39.3A4.22,4.22,0,0,1,7.58,12.65Z" style="fill: #00c964"/>
          <path d="M7.18,1A6.18,6.18,0,0,1,13,5a1.37,1.37,0,0,0-.36,0,1.62,1.62,0,0,0-.49.08,1.39,1.39,0,0,0-.4.21,1,1,0,0,0-.35-.05,1.36,1.36,0,0,0-.68.18A1.34,1.34,0,0,0,10,6.7a2.37,2.37,0,0,0,.25.75l0,0a2.12,2.12,0,0,1,.18.74v.18c0,.19,0,.37.05.57a2.88,2.88,0,0,0,.18.7l-.15.14c-.59.5-1.15.94-1.72,1.35l-.19.15a3.65,3.65,0,0,0-.44-2.61A3,3,0,0,0,6.69,7.41a4.76,4.76,0,0,0-2-4,2.93,2.93,0,0,0-1.68-.53l-.29,0A6.14,6.14,0,0,1,7.18,1m0-1A7.19,7.19,0,0,0,0,7.18,3.09,3.09,0,0,1,.58,5.35a3.32,3.32,0,0,1,2.47-1.5,2,2,0,0,1,1.12.35A3.75,3.75,0,0,1,5.69,7.33C5.53,8,4.3,8,3.78,8.2h1a10.38,10.38,0,0,1,1.12.05,2.38,2.38,0,0,1,1.69,3.23,4.88,4.88,0,0,0-.51,1.17.52.52,0,0,0,.17.45.4.4,0,0,0,.26.08h.13A6.29,6.29,0,0,0,9.46,12c.6-.45,1.19-.91,1.77-1.4a7.82,7.82,0,0,0,.63-.66.19.19,0,0,0,0-.27,1.75,1.75,0,0,1-.31-.79c0-.24,0-.45,0-.7a3.12,3.12,0,0,0-.27-1.08A2.92,2.92,0,0,1,11,6.6a.38.38,0,0,1,.15-.37.31.31,0,0,1,.18-.05.46.46,0,0,1,.24.08,3.83,3.83,0,0,1,.28.29L12,6.32A1,1,0,0,1,12.44,6l.16,0a2.06,2.06,0,0,1,.68.18,2.59,2.59,0,0,1,.79.41l0,0a.79.79,0,0,1,.27.64h0A7.19,7.19,0,0,0,7.18,0Zm7.19,7.19v0Z"/>
        </g>
      </g>
    </g>
  </g>
</svg>
