<svg id="bcc5f739-56a3-4af1-8149-52ab3ae5413d" data-name="Layer 1" xmlns="http://www.w3.org/2000/svg" xmlns:xlink="http://www.w3.org/1999/xlink" viewBox="0 0 72.37 18.91">
  <defs>
    <linearGradient id="bf99d733-6b04-476d-b765-6e2053fdd979" x1="0.49" y1="9.46" x2="13.61" y2="9.46" gradientUnits="userSpaceOnUse">
      <stop offset="0" stop-color="#fff"/>
      <stop offset="1" stop-color="#b3b3b3"/>
    </linearGradient>
  </defs>
  <g>
    <g>
      <g>
        <path d="M7,18.42c-1.38,0-4.93-5-6.16-9.24A6.82,6.82,0,0,1,.51,7.47c0-.19,0-.31,0-.42a6.56,6.56,0,0,1,13.12,0v.13a.37.37,0,0,1,0,.11,6.52,6.52,0,0,1-.34,1.89c-1.24,4.3-4.79,9.24-6.17,9.24Z" style="fill: url(#bf99d733-6b04-476d-b765-6e2053fdd979)"/>
        <path d="M7.05,1a6.07,6.07,0,0,1,6.07,6v.22a.11.11,0,0,0,0,0A5.89,5.89,0,0,1,12.78,9s0,0,0,.05c-1.25,4.33-4.69,8.81-5.69,8.86H7c-1-.05-4.45-4.53-5.69-8.87a.19.19,0,0,1,0-.07A6.17,6.17,0,0,1,1,7.43a.28.28,0,0,0,0-.09c0-.1,0-.2,0-.29A6.07,6.07,0,0,1,7.05,1m0-1A7.05,7.05,0,0,0,0,7.05c0,.12,0,.25,0,.38A.17.17,0,0,1,0,7.5,6.84,6.84,0,0,0,.38,9.31h0c1.17,4.09,4.8,9.59,6.63,9.59h.07c1.84,0,5.45-5.48,6.63-9.57a6.69,6.69,0,0,0,.37-2h0a.3.3,0,0,0,0-.1s0-.06,0-.1a.43.43,0,0,0,0,0v0a7.05,7.05,0,0,0-7-7Z"/>
      </g>
      <g>
        <g>
          <path d="M14.08,7.05a.49.49,0,0,1,0,.12s0-.08,0-.12Z" style="fill: #00c964"/>
          <path d="M14.1,7.05Zm0,0h0a.49.49,0,0,1,0,.12s0-.08,0-.12Z"/>
        </g>
        <g>
          <path d="M7.44,12.41a2.52,2.52,0,0,1,.23-.52,3.94,3.94,0,0,0,.23-.46,3,3,0,0,0-.25-2.62,2.38,2.38,0,0,0-1.71-1.2.84.84,0,0,0,.12-.31c.29-1.27-.83-3-1.7-3.58A2.36,2.36,0,0,0,3,3.29a3,3,0,0,0-1.67.55,6.55,6.55,0,0,1,12.12,1.8l-.26-.1a2.46,2.46,0,0,0-.83-.2.86.86,0,0,0-.32,0,1.11,1.11,0,0,0-.45.3,1,1,0,0,0-.45-.12.91.91,0,0,0-.42.11.83.83,0,0,0-.38.84,1.77,1.77,0,0,0,.2.57,2.61,2.61,0,0,1,.24,1v.18c0,.18,0,.35,0,.53a2.16,2.16,0,0,0,.28.82l0,.05a3.41,3.41,0,0,1-.37.39c-.59.49-1.15.93-1.71,1.35l-.39.3A4.23,4.23,0,0,1,7.44,12.41Z" style="fill: #00c964"/>
          <path d="M7.05,1a6.09,6.09,0,0,1,5.67,3.9l-.36,0a1.41,1.41,0,0,0-.47.07,1.37,1.37,0,0,0-.4.21,1.34,1.34,0,0,0-.35,0A1.3,1.3,0,0,0,9.85,6.57a2.32,2.32,0,0,0,.24.73l0,.06a2.06,2.06,0,0,1,.17.72v.18a5.29,5.29,0,0,0,0,.56,2.2,2.2,0,0,0,.18.68l-.15.14c-.58.49-1.13.93-1.68,1.33l-.19.14a3.62,3.62,0,0,0-.43-2.56A3,3,0,0,0,6.57,7.27a4.71,4.71,0,0,0-1.93-4A2.89,2.89,0,0,0,3,2.8H2.71A6,6,0,0,1,7.05,1m0-1A7.05,7.05,0,0,0,0,7.05a3,3,0,0,1,.57-1.8A3.24,3.24,0,0,1,3,3.78a1.94,1.94,0,0,1,1.09.34A3.69,3.69,0,0,1,5.58,7.19c-.15.69-1.36.65-1.87.85h1a10,10,0,0,1,1.1,0,2.34,2.34,0,0,1,1.66,3.17A4.51,4.51,0,0,0,7,12.4a.51.51,0,0,0,.16.44.4.4,0,0,0,.26.08H7.5a6.17,6.17,0,0,0,1.78-1.15c.59-.44,1.17-.89,1.73-1.37a6.3,6.3,0,0,0,.62-.65c.09-.08.06-.18,0-.27a1.63,1.63,0,0,1-.31-.77c0-.23,0-.44-.05-.69A3.11,3.11,0,0,0,11,7a2.29,2.29,0,0,1-.19-.48A.36.36,0,0,1,11,6.11a.37.37,0,0,1,.17-.05.46.46,0,0,1,.24.08c.07.05.21.23.28.28l.14-.22a1,1,0,0,1,.4-.35.44.44,0,0,1,.16,0A2.35,2.35,0,0,1,13,6a2.91,2.91,0,0,1,.78.41h0a.81.81,0,0,1,.26.64h0a7.05,7.05,0,0,0-7-7ZM14.1,7.05v0Z"/>
        </g>
      </g>
    </g>
    <g>
      <path d="M26.52,13.71a3,3,0,0,1-.51.48,3.78,3.78,0,0,1-.83.48,5.74,5.74,0,0,1-1.17.38,7.78,7.78,0,0,1-1.54.14,5.1,5.1,0,0,1-1.87-.33,4,4,0,0,1-1.46-1,4.55,4.55,0,0,1-.93-1.61,6.62,6.62,0,0,1-.33-2.18V9.44a6.91,6.91,0,0,1,.31-2.18,4.54,4.54,0,0,1,.9-1.62,3.8,3.8,0,0,1,1.4-1,4.7,4.7,0,0,1,1.83-.35,5.52,5.52,0,0,1,1.78.26,3.38,3.38,0,0,1,1.26.73,3.26,3.26,0,0,1,.79,1.11,4.94,4.94,0,0,1,.37,1.42H24.4a2.7,2.7,0,0,0-.21-.73,1.6,1.6,0,0,0-.38-.55,1.5,1.5,0,0,0-.59-.35,2.57,2.57,0,0,0-.84-.12,1.92,1.92,0,0,0-1.7.85,4.41,4.41,0,0,0-.58,2.51v.64a4.22,4.22,0,0,0,.63,2.52,2.19,2.19,0,0,0,1.86.85,4.4,4.4,0,0,0,.68,0,2.78,2.78,0,0,0,.5-.13,1.53,1.53,0,0,0,.34-.17,1.72,1.72,0,0,0,.23-.17V11.09h-2V9.48h4.17Z"/>
      <path d="M31.78,15.19a4.44,4.44,0,0,1-1.64-.29,3.63,3.63,0,0,1-1.23-.82,3.34,3.34,0,0,1-.77-1.21,4.1,4.1,0,0,1-.27-1.49V11.1a5.1,5.1,0,0,1,.26-1.65,3.92,3.92,0,0,1,.73-1.28A3.36,3.36,0,0,1,30,7.33,3.76,3.76,0,0,1,31.55,7,3.67,3.67,0,0,1,33,7.31a2.9,2.9,0,0,1,1.09.78,3.36,3.36,0,0,1,.67,1.22A5.66,5.66,0,0,1,35,10.9v.89H30a2.49,2.49,0,0,0,.21.7,1.81,1.81,0,0,0,.4.54,1.63,1.63,0,0,0,.57.34,2,2,0,0,0,.74.13A2.48,2.48,0,0,0,33,13.28a2.06,2.06,0,0,0,.84-.66l1,1.15a2.84,2.84,0,0,1-.47.53,3,3,0,0,1-.67.45,4.25,4.25,0,0,1-.87.33A5,5,0,0,1,31.78,15.19Zm-.24-6.46a1.4,1.4,0,0,0-.6.12,1.34,1.34,0,0,0-.45.34,1.81,1.81,0,0,0-.3.51,3.19,3.19,0,0,0-.16.66H33v-.17a1.81,1.81,0,0,0-.09-.58,1.33,1.33,0,0,0-.25-.47,1.37,1.37,0,0,0-.44-.3A1.73,1.73,0,0,0,31.54,8.73Z"/>
      <path d="M35.89,11a5.16,5.16,0,0,1,.24-1.6,3.85,3.85,0,0,1,.72-1.27A3.58,3.58,0,0,1,38,7.33,4,4,0,0,1,39.6,7a4,4,0,0,1,1.6.3,3.38,3.38,0,0,1,1.17.84,3.71,3.71,0,0,1,.73,1.27,5.16,5.16,0,0,1,.25,1.6v.15a5.11,5.11,0,0,1-.25,1.6,3.8,3.8,0,0,1-.73,1.27,3.28,3.28,0,0,1-1.16.83,4.36,4.36,0,0,1-3.18,0,3.32,3.32,0,0,1-1.17-.83,3.8,3.8,0,0,1-.73-1.27,5.11,5.11,0,0,1-.24-1.6Zm2.1.15a4.29,4.29,0,0,0,.09.9,2.33,2.33,0,0,0,.28.74,1.56,1.56,0,0,0,.5.49,1.5,1.5,0,0,0,.76.18,1.42,1.42,0,0,0,.74-.18,1.59,1.59,0,0,0,.51-.49,2.11,2.11,0,0,0,.28-.74,4.29,4.29,0,0,0,.09-.9V11a4.26,4.26,0,0,0-.09-.89,2.06,2.06,0,0,0-.28-.73,1.44,1.44,0,0,0-.51-.5,1.41,1.41,0,0,0-.76-.19,1.36,1.36,0,0,0-.74.19,1.41,1.41,0,0,0-.5.5,2.27,2.27,0,0,0-.28.73A4.26,4.26,0,0,0,38,11Z"/>
      <path d="M44.78,15.05V4.45h3.71a7.41,7.41,0,0,1,1.65.17,3.61,3.61,0,0,1,1.24.54,2.34,2.34,0,0,1,.77.91,2.86,2.86,0,0,1,.27,1.29,2.61,2.61,0,0,1-.09.69,2.57,2.57,0,0,1-.28.63,2.59,2.59,0,0,1-.47.53,2.63,2.63,0,0,1-.68.39,2.16,2.16,0,0,1,1.34.9,2.23,2.23,0,0,1,.32.68,3.14,3.14,0,0,1,.09.75,2.76,2.76,0,0,1-1,2.33,4.48,4.48,0,0,1-2.83.79ZM47,8.89h1.62a2,2,0,0,0,1.24-.35,1.17,1.17,0,0,0,.41-1,1.2,1.2,0,0,0-.42-1,2.12,2.12,0,0,0-1.32-.32H47Zm0,1.54V13.3h1.87a2.2,2.2,0,0,0,.73-.11,1.39,1.39,0,0,0,.51-.29,1.22,1.22,0,0,0,.31-.44,1.63,1.63,0,0,0,.09-.55,1.91,1.91,0,0,0-.09-.61,1.1,1.1,0,0,0-.27-.47,1.16,1.16,0,0,0-.48-.3,2.48,2.48,0,0,0-.71-.1Z"/>
      <path d="M58.87,14.25a2.67,2.67,0,0,1-.9.7,3.06,3.06,0,0,1-1.25.24A3.29,3.29,0,0,1,55.65,15a2,2,0,0,1-.82-.52,2.39,2.39,0,0,1-.54-.91,4,4,0,0,1-.19-1.33V7.17h2.1v5.11a1.53,1.53,0,0,0,.09.56,1,1,0,0,0,.23.38.94.94,0,0,0,.35.2,1.35,1.35,0,0,0,.46.07,2,2,0,0,0,.92-.19,1.45,1.45,0,0,0,.55-.55V7.17h2.11v7.88h-2Z"/>
      <path d="M63.07,15.05V8.72H61.9V7.17h1.17V6.49a3.37,3.37,0,0,1,.2-1.19,2.38,2.38,0,0,1,.58-.87,2.48,2.48,0,0,1,.91-.53A3.44,3.44,0,0,1,66,3.71a3.31,3.31,0,0,1,.55,0l.52.1,0,1.63a3,3,0,0,0-.64-.06,1.3,1.3,0,0,0-.88.27,1,1,0,0,0-.31.79v.68h1.57V8.72H65.18v6.33Z"/>
      <path d="M68.41,15.05V8.72H67.24V7.17h1.17V6.49a3.37,3.37,0,0,1,.2-1.19A2.32,2.32,0,0,1,70.1,3.9a3.47,3.47,0,0,1,1.2-.19,3.31,3.31,0,0,1,.55,0l.52.1,0,1.63a3,3,0,0,0-.64-.06,1.3,1.3,0,0,0-.88.27,1,1,0,0,0-.31.79v.68h1.57V8.72H70.52v6.33Z"/>
    </g>
  </g>
</svg>
