<svg width="1261" height="657" fill="none" xmlns="http://www.w3.org/2000/svg"><path fill="#276F86" d="M0 0h1261v657H0z"/><g clip-path="url(#clip0)"><path d="M709.965 518.698l2.653 2.833 2.017-8.448-2.017-.42 4.835-10.465-8.072-.421-12.106 5.254-2.019 9.667-4.833 6.052-4.456-.799-12.486 4.455-4.456-3.656-4.034.42-12.108-18.955-.377-3.236-.421-11.306.421-4.455 2.396-1.177-.8 2.396 2.018-5.632-1.597-7.691-2.017-.379h2.017l1.177-5.253 4.456-2.018-1.598-1.597 3.616.378-1.22.799 6.054-3.615.421-4.034 2.816.798-1.598 1.219 5.213-2.438 8.492.421 2.437-2.018 5.634 4.035 2.018-2.017 2.017 1.218-.798-2.815 2.396.378 2.439 3.236 2.017-2.017-4.036-1.597 2.438-2.438-2.438-.42-4.035-.799 12.106-2.396.421-2.858 1.177 2.438-1.177 1.219 5.212-3.236-.799 1.597 5.254-1.597-1.596.798 4.835-.378.798 1.597 1.219 2.017 4.035-2.815 1.598-1.219 2.017.42.8.378 6.473 5.254v6.052l2.018-.799-.799 3.237 2.018 2.816 2.017-.799 2.396 6.052 4.037 1.177v2.858l2.858-1.219v1.219l1.176-11.306-8.869-17.778-3.615-6.851 3.615-7.271-1.219-1.597 1.64 1.219 2.396-3.657 4.876-7.649 10.088-10.507-3.236.42 2.017-2.438-2.816-.378 4.414-.42 1.64-2.396-1.219-2.017-.421 2.396-.379-2.018-3.236 1.219 2.017-2.816 2.019.799-1.64-3.615 3.236 4.833-3.615-6.052-5.254-.798 2.817.378-2.396-2.396 2.017 1.597.379-2.437-.379-.168v-1.85l-5.675-1.176v-2.018l5.254 2.396-3.615-6.851 3.196-2.816-1.177 4.833 4.833 4.456-.42 5.631 2.018-9.288-4.035-7.271 4.035 3.656 2.017-6.052-2.017-4.034 2.017-4.456 8.492-4.833-.798-3.236 1.597 2.017 4.834-3.236-1.219-2.017-.379 2.437-4.456-2.816.421-9.288 1.598-.799-.799-2.017h2.817l-.379-5.254.798 2.438 1.598-2.858 1.64 1.219 2.816-4.833-2.017-2.018h3.236l5.633-8.49-.798 4.035 1.598-.798 4.035-2.018-1.598 3.236-2.437-1.218-3.616 7.691 1.597 4.413 3.236.798 1.598-8.868 2.858-.378-.84-1.639 6.894-6.851 1.177-1.597-1.975-.504 3.194-4.75.421-.798-.799-.42-1.639-.421v4.455l-1.22.799.841-4.833-2.017-4.035-1.22 7.649 2.271 2.312-2.69-.673-4.415 3.615-6.894-1.219-2.396-4.035-2.018 1.219v-5.254l-2.438 2.438-1.22-1.597-3.614 1.177 5.255-2.816 2.017-3.615-2.816-3.656-5.675 2.017-5.255 6.473-6.852 15.34 2.438-7.691-1.219-2.816 6.473-10.087.379-4.833.421-2.018 20.975-10.885h.421l.379-7.692 4.456-4.034 1.219-6.053-2.859-.798 2.019-1.219-3.196.841 2.017-1.219-2.017-.42-.42-3.615-3.615-1.219-1.219 3.615-1.219-3.195-3.616.379-2.858 6.85 2.018-6.43-2.396 3.236 4.035-6.892-2.816.42v-1.219l-2.439 2.017-1.219-1.597-.378 1.597-.42-1.597-.085.883-1.513 1.135v-1.639l-.42.84-1.219 2.396-1.598-4.834v2.018l-.798-1.597-3.657.798.419-2.017-2.017 1.219.799-1.219h-2.018l1.219-1.219-3.237.42 2.817-.84-.799-2.816-4.456-.379 1.219-1.639-2.816-.798-.421-1.597-1.598 2.395.421-3.614-2.017 2.396.377-3.195-1.596-1.639-2.439 1.219 1.219-1.597-6.053-2.858v-1.597h-1.598l.379 4.035 2.438 1.597-1.639 1.639 1.639.378-1.219 2.438 2.017 2.816-2.815-2.816-1.22 6.472-2.438-2.858-.379 4.035-1.219-4.833-5.633 2.437.379-2.017 1.639.799-.42-3.237-1.598.799-1.639-3.615-3.236.799 3.236-1.597-2.396-5.674-.421 2.017-5.632-.378-.841-2.438-2.017.799-6.054-3.615-1.177 2.816-8.912-.378-1.177 2.396 3.195 3.656-.379 4.834 2.018-.799 2.396 4.413-1.177 9.289 6.053 2.437 5.214 8.868v-.798l2.437 2.017-2.437.378v-1.597l-1.598 7.65-6.054 6.052 3.615 2.017 5.675 10.886-1.638 3.656 2.017 3.237-2.817-2.438-.798 3.614h-3.237l-.379-2.816-8.492-6.052-3.614-13.323-10.09 1.639-21.396-10.087-6.852 3.236 1.177-2.858-3.615-8.069h-3.237v2.017l-2.396-3.614-.421-8.868 4.036-7.692-1.219-1.177 4.834-4.455-2.017-1.218h3.237l1.638-2.396-3.656-2.858-1.598 1.219.379-1.597-4.835-.421v-2.017l9.291 4.035 1.219-4.413 5.254-.841 2.018-6.052-11.308-3.194 2.817-.841 6.852 2.858 2.815-5.253-2.815-2.018 8.071 1.219-4.835-4.035 3.237-.42 2.018 2.816 3.236-7.271-4.875-4.834 2.438-1.597-2.019-1.218.8-2.018-4.415-.798 1.178-1.219-6.853.42 3.658 5.632-2.018.42v8.448l-2.017 1.639-4.037-10.087-2.858-1.639-.798 6.473-4.036-6.473 2.438-.798-5.675-.799.42-1.639v-1.597l2.019.42-7.273-9.709-3.616 6.851 1.598.42-.378 4.035v.799l6.432 2.437-2.019.379-.377 3.236 1.596-1.597.8 2.395-4.036 3.237.798 5.253-3.194-1.597 1.176-4.875-1.597 1.639.421-1.639-2.018-1.177-3.236.799 1.219 2.816 2.017-.421v2.858l-3.236-3.656-.421 2.437-2.818.379h-5.254l-2.815-3.195h-3.616l-2.438-4.875-6.473 3.236 2.858 1.219 4.413-2.438-6.054 4.456 2.019 4.034-.378 1.597-1.641-.798 1.22 3.656-2.816-4.455 1.596-1.219-4.413-4.833-4.456 1.597-7.65-2.017.377-2.396 3.238-.42-1.598-3.236-4.456-1.177-5.254-4.455-3.238-2.816-6.052.798 1.219-3.614.42-.841-.798.841-3.237 3.194-.8-4.833-.84-3.615v2.816h-1.598l-7.272 1.597 3.658-2.816 1.596-1.219-2.815.841-6.475 1.177-2.396-.378.8-2.816-4.456 1.176-.379 3.657-5.255-8.868-2.438-4.875-.799-1.177-10.508-9.709-.8-2.396 1.64-.84-2.438-2.018.419-2.395-2.858.378 2.439-1.177.419-1.639-4.455.42-2.018-2.017-2.816 1.219.378-.841.84-.378-3.656-1.219-2.017.42-6.854 1.177-2.815-2.816-3.237.799-1.219 6.472-2.396 2.438 2.017 3.614-2.438 2.018 1.219 2.438-1.639-2.438 1.639-3.236-2.816 5.253-3.658-4.035 2.018-2.816-8.45-2.815v4.833l-1.639-1.219-2.396 3.615 2.816 5.673 1.219-.798-1.219 1.597h4.036l.798 2.017h-2.815l-1.64 3.237-2.397.798-1.219-2.017-4.035.42-.421-2.858-10.887 3.236-1.219 2.438 1.219 1.597h-1.597l.378 1.219.841 2.816-2.018-1.219-3.236 3.236 4.413 2.816-4.036 5.674-3.194.378 4.834 2.018v1.219l-.799 4.455 4.036-2.438-1.64 2.816 4.036.841-4.036 1.176-4.035 4.456-9.291-.799h-1.176l-2.439 2.396-2.017-3.615-4.037.42.421 2.396 2.817-1.219-.799 1.639 4.415.799.419.42-.798 1.597 17.319-2.017 4.456 1.219 4.835-1.639-1.22-2.396 1.639-1.639 15.723-2.816 3.237 1.639h-3.237l.798 3.615-2.017-3.237-3.196-.378-5.254 3.615 2.017 1.597-4.034 1.639 6.052 1.219 1.219-1.64-.419 1.64 1.596-2.018 1.64 2.396 2.816-1.219v-3.194l4.036-.841-2.017 2.018 2.017-.799-.798 1.639h3.237l-2.018.799 1.177 1.219h-1.598l1.598.378-1.177 1.639 2.396 1.597-.378 3.236 7.23 3.615.841 4.035 1.177-.379 2.017-.42.841 2.017-2.018.799 1.177-2.396-2.396 1.597 3.615 11.685h2.018l-.379-5.212 1.178 2.816 1.22-1.639-1.598 4.035 2.017 2.017 3.237-7.229-2.018 6.851 1.177 1.597 2.018-1.219-2.396 2.438 2.018 2.017h-1.64l1.219 2.438-1.219-2.018.421 2.396-2.019.42 3.616 8.07-4.035 2.816 2.438-.799 2.437-.798v2.395l-2.858 5.674 3.658-2.437 2.396-3.237-3.196 4.834 1.178 1.218-3.195.799-.841 1.639 2.439 2.018-2.439.798 1.219 4.455 3.658-2.858-1.219 2.438 2.017 1.219-2.817-1.639 2.019 6.472-3.237 1.597 2.018-.798-.421 2.017 4.036-1.597-4.834 4.035v2.395l2.017-.798-2.816 1.219 2.396.798-2.817.42 4.035 1.219h-3.614l4.834 2.018h-1.597l.798 1.177 3.237-.799-3.658 1.219 1.641 2.017 1.597-1.597-1.219 1.597 1.975.799-.336.42h3.196l-2.817 2.396 1.638 2.017 1.598-1.177.798-.84v1.219l.421 2.017-2.017.799 3.237-.379-1.22 4.035 2.018 2.396-2.439 9.288.421-4.413-3.236 2.816 3.236-4.455-7.272-3.615-.799 9.667h1.598l-2.396 4.035 2.396.798-2.019-.378-8.448 19.754-.421 8.868-3.237 5.674.421 10.465 2.018 6.473 3.615.42v4.035l-1.598-2.438-.419 3.614 5.673 14.963-.84 3.614 2.859 1.597 6.852 4.035 4.414 6.052 5.254 21.393.799 1.639 7.693 9.667-1.64 2.816 1.64 2.017-6.054-1.597 7.273 7.65 2.396-1.219 4.835 6.052-.379 7.691 9.669 8.868 1.639 4.035 3.194-1.219-1.596-5.253-4.835-2.396-3.237-13.743-6.053-8.448-.421-4.035-8.071-11.306-.378-11.684 8.87 5.632 2.017 8.069 1.219 4.834-.042.042-1.177 1.177 1.219 1.597v-2.69l.379 1.513 5.254 7.229 3.237.841-.42 3.194 7.273 7.271-1.598 3.236 7.272 4.455v2.816l11.267 11.306 4.035 8.868-2.018 3.614 1.64 1.219-2.817.799 1.177 2.438 11.729 10.465 9.29 2.437 5.212 4.035 6.473 2.018 20.977 6.472 13.747-3.236L688.092 545l2.489-8.907 7.736-.838-.17-2.205-5.583-3.168 1.942-.663-.034-3.269 10.858-1.702 4.635-5.55z" fill="#27AE60"/><path d="M533.037 273.013l-1.598 2.018.799.798 1.177-1.135-.378-1.681z" fill="#27AE60"/><path d="M533.415 274.694l-1.597 1.934h2.018l-.421-1.934zM456.36 219.763l-3.446.378h1.428l.421 1.219 1.597-1.597zM452.914 220.141l.209-1.597-4.035-.799 2.017 2.017 1.639 1.598.17-1.219zM480.155 193.116l-2.396-.42-.421 1.639 2.438.378.379-1.597zM487.426 169.328l-2.018 1.176v5.254l2.439.799-.421-7.229zM473.302 189.88l-.8 4.455h2.019l1.596-2.438-2.815-2.017zM443.456 215.308l-1.556 1.933 2.775-.336-1.219-1.597zM441.901 217.241h-.253l.169.084.084-.084zM441.648 217.241L439 216.106l2.017 1.219.631-.084zM488.225 225.814l-1.598 2.018h3.237l-1.639-2.018zM481.373 226.613l-1.598.799v2.816h1.219l-2.017 1.219h5.211v-1.597l.841 1.597 2.019-2.018-1.22-2.437-2.018 1.218.378-1.597-2.396 3.237-.419-3.237zM532.237 232.245l-1.639 3.657v-2.858l1.639-.799zM539.09 243.551l-1.219 5.632-2.396.42 2.817-3.615-2.817-.84 2.396.42 1.219-2.017zM526.562 253.638l-1.177 5.253 1.177-2.017 1.64 2.017-1.219-3.656 1.597 2.437 1.22-1.218-3.238-2.816zM531.018 254.437l-3.237 8.069 2.817-1.219 1.639-4.413-1.219-2.437zM528.582 263.305l-2.396 5.674 2.017-3.657.379-2.017zM529.423 263.305l-.841 3.656 1.639.799 1.598-2.438-2.396-2.017zM528.581 267.339l-1.598 4.455 1.598.799-2.019 1.639 1.641 2.396.378 2.437 1.639-3.236-2.017-1.597 2.396.378-2.018-7.271zM523.747 280.663l-1.22 6.85 2.439 7.271-1.219-5.253 2.017-.799-2.017-1.597 4.834-4.455-4.415 2.017 2.019-2.017-2.438-2.017zM534.634 290.75l-1.177 3.656.8-.42v2.816l.377-6.052zM540.688 290.75l4.455.42 4.456 3.236-2.858.378-2.396-3.614-3.657 1.597 2.858-1.597-2.858-.42zM530.6 306.51l.419 2.396h2.817l-2.817 2.017 2.817 1.219.421.799 2.396 7.691 3.657-.42-2.018 2.816 6.433 3.656-3.616-11.306-.799-2.437-9.71-6.431zM692.021 112l-1.596 2.017 3.236 1.64-.799 1.218-.841.379 5.675 4.455-8.869-4.035 2.815 4.035-2.815-2.018-1.64 5.254-1.597-1.639 2.018-4.035-2.018-2.816-2.019 2.438-2.017-1.219-.42 6.43-2.019-2.395 1.22-4.035-4.456 5.254 4.036 2.395h-.379l-4.456.42 1.22 2.018 3.236-1.639 2.018.84-4.835 1.597h4.415l-1.219 1.219-1.598-.798-2.017.798 4.371.379 1.682.84-7.273.378 5.255 2.816h-3.616l.8 2.018-3.237-2.396-2.019 2.816.421.42 4.414 1.177-4.035-.798-1.219.798 3.236 3.236h-2.017l2.017 1.64-2.017-.841-.379 4.455 1.598 1.219 2.437-1.639 1.598 5.253-2.816 1.639-1.64 6.053 6.474 1.597 3.236-2.438 1.219 1.639-3.656 1.597 3.656-.798-5.675 2.816h5.256l-1.219 2.017 2.438 1.219 3.237-.42-2.018-1.177h2.816l1.219-2.858 4.036-.799 2.018.799 10.089 2.858.378 2.816.798-1.639 5.675 4.875 4.414 1.177-1.597 1.219 1.597-.379 1.01 1.976.209 2.059 3.658-.84-3.237-4.035 3.237 2.438 2.017-2.018-.419 2.816 1.596-2.017v2.816l.841-1.597v1.218l2.019-.798-1.22 1.177 4.835 1.218-5.256.799-2.017 2.438h6.054l2.815-2.438.421.42 2.439 4.455 1.596-1.218.8 1.597-2.019-.379 3.238 2.396.42 2.438 2.817-.421-6.054 2.438 3.237-.42-2.439 1.219 1.598 2.816 1.219-4.413v1.176l2.817-2.395-3.615 6.43 4.035-2.816-3.237 4.035 4.035-.799-1.218 2.438 2.437-.84.421-3.615 1.598-.42-2.019 7.691 2.817-2.438-1.219 3.237 2.858.798.379-3.614 2.017-.421-2.017 4.455.799-.798 2.018 2.816.841-2.018-.421 2.396 2.438 2.018v-4.414l-2.438-1.639 6.053 2.018-3.236.84 2.017-.42-1.598 3.615 2.817-2.396-2.017 2.816 1.598-.799v2.396l2.017-1.597-.379 2.017 2.018-1.219-1.639 1.64 2.439-1.219 1.596 2.816v-2.438l1.219 3.656 2.817-.798.42 2.017 1.219-1.639v2.018l.379-1.598.84 1.598 1.177-.379-.798 1.597 2.017-2.017-.798 2.017 2.439-1.597 2.815 2.018 2.396-6.052.421 4.034.42-2.858.8 3.237.377-2.396 1.64 1.597-.421-2.438 1.64 3.657-.421-3.236 2.018 2.816-.42-2.396 2.858-.841h-4.035l2.396-2.395h-2.396l.379-2.438-2.019 1.219 1.64-1.597h-2.017l.798-2.018-1.64.799.842-2.018-1.219.799v-2.438l-4.037-.378 2.018-.798h-3.237l1.598-2.858-2.396-1.177 2.017-.421-2.815-.42 2.017-.798h-1.64l.799-2.018-2.396.421 2.396-1.219-2.396-1.219-2.018.798 1.219-2.395-4.876-1.639 2.018-1.177-2.018-2.018-.378-.42 2.017-3.236-4.035-3.236 1.597-.799 1.219 2.438 1.598-.421-2.018-1.218 1.639.42.379-3.236-2.018-.379 1.639-1.639-5.675-6.85-.379-2.816-4.035-1.219h3.616l1.219-2.438-1.598-1.177h1.598l-.421-6.052-5.212-9.288-.421-.799-3.615 3.615 1.177 4.034v.421l-.379.378-1.218.798-.799-4.034-.756 1.849.756-3.867-2.816-.798 2.018 4.791v.042l-.841 2.017-2.817-4.034 1.64-.799-.841-2.816-3.615 3.615v-2.018l-2.438.421 5.675-3.237 6.052.421-2.017-2.018 2.396.799v-1.597h-3.615l-2.018-1.639-.42.798-1.178-1.177v1.597l-1.219-1.218-4.035 1.218 1.219 2.018-1.219-.799-.798 1.219.377-2.438h-2.017l.799 2.438-2.396.378v-3.614l-1.64 3.236v-2.017l-2.017.378 2.438-.799-1.219-2.437-3.237.42 3.237-.799-1.598-.798 2.017-2.017-1.219 2.017 3.238-.841-.421-3.194-2.396-.84-1.64 1.218 2.438 1.219h-2.815l-2.86-1.597 2.439-2.017.421-.421-1.219-1.218-.8 1.218-.841.799-2.396-1.219-1.219 2.018.421-2.396-2.858 1.597 3.237-2.017.419-.379-3.656-1.219-.379.379-1.64 1.639-.798-2.438-.798 2.018h-3.237l.42-2.816v-2.018l-3.237-.798-1.219 1.597-.379.798-.42-1.176-.42-.841-1.177.42-1.22.421 2.018 1.597-2.816-.799-4.456-3.236-6.053-3.236.798 2.017v.42l-2.018-.42-.378-.378-1.639-3.657-.798 2.816v.841l-.421-.841-.799-4.035-5.255-2.017z" fill="#27AE60"/><path d="M746.922 196.731l-2.018 1.639h1.598v2.017l.42-3.656zM740.869 185.845l-2.817 1.219-.798 2.816 3.615-4.035zM730.359 124.525l2.439 1.597.419-1.597h-2.858zM737.254 129.358l-1.641.799.8 1.219.841-2.018zM667.01 134.612l-2.817 2.437.42-1.639-7.692 1.639-1.598 1.598-1.219 1.597 2.817 2.437-4.835-1.218-.798 1.639 2.396 1.176-3.195-.798-3.237 2.816h2.396l-.379 1.639 2.396-1.219-1.596 2.816 4.456-2.396-4.036 2.816 2.396 1.219 4.036-3.656-2.396 2.437v1.219l2.017-2.017h1.598l-.799 1.597 2.018-1.219.378-1.219 1.64-3.614-.8 3.236 2.398-.42-2.817 2.017-2.439 2.017 4.036 3.237-4.414-2.438h-3.237l5.633 5.674 2.018-.42-1.597 1.639 1.597 1.177-3.615-1.177-2.019 1.177v3.236l1.598-1.597 1.219 1.219v-2.438l1.639 5.254 2.398-3.237-1.598 4.455-5.675-2.017 2.858 3.194-3.656 3.657 2.017.798-.379-2.017 2.018 2.017-.42-1.597 1.597 1.597-.378-1.597 2.396 1.177.841-2.017 2.017.84-.84-1.639 2.017 1.639-1.177-2.017 3.616 2.816 1.219-.799 2.017-1.639-.798-2.816h-2.859l-2.816.42-1.219-2.858 3.237.841h2.017l-.798-3.236 2.815-.799-2.017-.84 2.017-1.177-2.396-.42 2.019-1.219-5.675-.799 4.835-1.219-4.835-.378 4.835-2.438-2.019-1.219 3.236-.378-.377-2.017h-2.019l2.019-.841-1.64-1.177 1.64.379.798-6.431-3.236 3.194 1.219-2.815h-2.817l3.196-.799.84-2.816-.421-2.017-3.236-1.219zM743.686 134.612v2.437l.589-.714-.589 1.513h2.438l2.817-1.639-4.247-.378 1.009-1.219h-2.017zM742.887 135.032l-2.817 1.177.8 2.017 2.017-3.194z" fill="#27AE60"/><path d="M646.032 147.935l-1.596 2.816 2.017 1.597-2.859.841 2.438 2.017-2.438-.84v1.218l2.859.421-.84 2.816 5.675-.421-4.456 1.639 3.656 2.018-1.639.798 1.219 1.219h3.616l-1.177-2.437 2.017 2.017-.421-4.413 1.22 2.017 2.396-4.035-1.598-1.639-1.597.799-1.64-4.413-.377 2.017-6.475-6.052zM633.506 158.4l.421 2.858 2.017.379-1.598 2.437 2.019-.798 3.614 2.017 1.219.799-1.219-3.657-.419-1.177-6.054-2.858zM626.655 160.838l-3.237 2.017 4.877-.42-1.64-1.597zM642.418 161.258l.379 4.035 2.438.799 1.219-2.816-4.036-2.018zM622.619 164.453l-.379 2.017 2.816 1.219 1.598-2.396-4.035-.84zM613.748 166.092l-1.597 1.219-6.053 4.413 3.194-.799.421 2.018.42.42 4.414-4.455v2.816l4.456-4.413-2.018-1.219h-3.237zM648.051 166.47l-3.237 1.219 4.037.42-.8-1.639zM651.666 167.311l1.64 1.597.379-1.597h-2.019zM627.075 170.925l-2.439 2.437 1.219 4.834-3.615-.42-4.036-6.431-1.639 1.177 1.639.84-3.657.799 2.816.378-4.035 1.219h3.237l-4.835 1.639 2.817 2.018 3.237-2.438-.421 2.438 4.877-.421-6.054 2.018 2.817 2.017 6.852-2.438 4.456.421 1.177-4.455-1.598-1.177-.798 2.396-1.64-1.219-.377-5.632zM644.436 170.925l2.396 4.035 3.656-1.219 2.396 7.271 4.036 2.017 2.018-2.438 1.639 2.438 6.853-1.597-.421-2.017 3.237 1.597 2.438-2.018.798-1.218H671.465l.378-1.219v-1.597h-.799l-2.816-.799-6.852 3.615-4.036-1.219v1.639l-2.018-2.816-1.638 1.177 1.219-1.597-2.396-.799 3.614-.42-3.614-.799.798-.798-3.658 1.597-.798-2.816h-4.413zM613.748 172.522l-3.615 2.017h2.019l1.596-2.017zM641.998 172.522l-.799 1.639-1.22-.42-1.596-.378 1.596 3.194-2.815-2.816 1.219 3.656-2.86.799 4.456-.42h.421l-.421.798-1.218 1.219 1.218 2.017 3.238-.378 1.22-2.017-2.439-6.893zM648.471 177.776l-2.858 3.656 5.254 1.598-2.396-5.254zM598.825 178.995l.379 3.614-8.45 7.691 2.019.799.798 5.632 5.633-.799 1.64-2.816.798-.42 11.308-5.632-2.817-4.455-2.858.841-1.177-1.639-1.64-2.396-5.633-.42zM729.561 181.432l-2.397 1.597.8.799 2.017 2.017 2.018-1.597.799 2.017 1.597-3.236-3.195-1.219-1.639-.378zM674.702 184.248l-1.22.378 2.396 3.657h.421l1.598.798 5.674-2.017-4.035-2.816h-4.834zM663.394 185.845l-3.658 4.455.421 9.667 6.054.42 4.035-.798-3.237-3.657-1.598-4.035 1.22-6.052h-3.237zM656.922 186.644l-8.871.42 1.598 10.886 2.859-2.816-1.64-1.597 4.036-.421 2.018-6.472zM638.382 187.863l.799 2.437-2.018-.42 2.816 1.219.421.42-.421 1.177-.42 1.219-3.615-2.017-1.219 2.437 5.254 5.632 1.598 1.639 2.017-.42v-1.219l2.438-.378.421-5.674-3.657-1.597 2.438-4.035-5.255-.42h-1.597z" fill="#27AE60"/><path d="M614.169 188.283l-8.912 3.236-2.396 3.615 2.396 1.219-1.597 1.219 6.473.378-7.272 1.219.379 2.816 8.071.798 4.456 2.858-12.906-.42v.42l.799 3.615 5.632 3.236.421 3.236h9.669l6.053-4.035 2.859 3.615 7.65-.42-1.219-2.816-2.017 2.437-.379-3.656 2.017 1.219 2.396-2.396 1.22 1.597v-2.816l-7.272-5.253-.379-10.087-2.438-2.816-2.817.378-.42 8.91-2.817-8.07h-1.596l1.177 3.195-1.598-1.177-.798 1.597-2.019-.42 2.019-2.018-2.439-2.017-4.036 2.017 1.64-4.413zM628.293 188.283l-.842 1.219 3.238 2.816 1.219-3.236-3.615-.799zM683.951 204.8l-1.177.841-1.219.798h1.598l.798-1.639zM644.437 210.054l-2.019 5.674 5.633 2.396 2.817-2.396-6.431-5.674zM700.092 211.273l-2.018.798h3.237l-1.219-.798zM693.24 211.693l1.64 6.053 3.195-2.018-.798-3.656-4.037-.379z" fill="#27AE60"/><path d="M672.264 185.046l-5.254 3.237 2.817 1.218-3.196.379 3.196 1.219-3.616-.421 4.456 4.455-2.438-1.218-1.219 1.639 3.657 1.597.378 4.035-.799-1.219-8.869 2.017 2.017 2.816 2.396 1.219 2.859-2.017 1.597 2.815h.799l8.071-1.176-1.218-.421-2.396-1.218 3.237 1.218 2.396 1.219-1.598-1.639-.798-.378h3.615l2.815-.42-.798-.379-2.017-1.639.798-2.017 3.237 3.236 1.598 1.219.419-1.639.421 2.017 2.018-.798 2.396 1.639-.799 3.614 1.597-2.438 3.658 2.018.799-1.177 6.852 6.052-.379 3.615 2.397-.421-2.397.841-1.64 4.035 4.037 3.194-4.835 2.858h-4.456l.421 6.052 9.289-2.438-1.639-2.815 4.035 2.395-.377-2.017 3.615 4.035h4.456l-2.019 1.639 2.019 1.219 17.739.378-12.906-6.431 4.456.799-2.017-2.017 10.888 2.815-4.835-5.631 3.616 2.017-2.439-3.657-3.615-.798 1.219-1.219-2.817-1.597-.84 2.017-2.018-2.017.841 2.017-4.456-4.455-1.219 2.018-2.396-3.237 3.195-.798-4.036-2.396 2.858-1.219 3.196 2.018v-2.018l.84 2.816 1.598-3.614-.421 4.035 7.273 2.395-3.615-5.253 3.236.84-2.858-2.437 2.858-.421-3.236-.798 2.815-1.219-2.437-.799 1.639-1.219-2.817-1.176v2.816l-1.218-1.64-1.64 2.018-.379-3.615v2.816l-.419-2.017-1.598 2.438.798-2.018-2.017.378 1.598-.798-2.817-1.597-.799 1.597v.42l-2.017-1.639.798 2.017-1.219-2.395v2.017l-1.177-2.017-.421 1.219-1.596-1.639-1.641 1.218 2.019-2.017-6.432.42 3.194-1.219-2.017-1.639-1.177 1.639 1.177-2.017h-2.396l5.255-.799-2.019-1.218-5.675 2.017 4.835-3.236-.798-1.219h-.379l-2.439-1.219-.798 2.438v-1.219l-2.017 2.017 2.017-4.034-3.236-.379-.8 2.396v-2.816l-.798 5.632-.42-2.816-1.219 1.219.42-4.455-2.018 3.656.379-4.035-3.196-1.218-.841 4.034-1.596-4.034-1.219 4.034-.379-2.816-1.219.379 1.219-2.816-3.658 2.437.8-4.034h-4.834l-1.22 2.017 3.657.799-3.657.42 3.237 2.017-5.633-2.858v.841l-.799 2.816-.42-4.834-4.036-4.455zM679.537 228.21l1.598 1.64h2.017l-3.615-1.64zM676.72 229.85l1.178 10.885-2.019 3.615 4.036-1.597 2.018 3.236 4.456-7.271 2.017 2.395 4.456.421 1.598-2.438-2.817-1.597-2.437 1.597-.379-3.194-8.492-4.035-.798 1.597-2.817-3.614zM739.65 236.28l-2.019 1.219 2.019.798v-2.017zM701.733 239.516l-2.438.42 2.017 1.598.421-2.018zM691.643 245.148l-3.237 1.219-2.017 2.816 1.219 1.639 4.035-5.674zM698.496 246.367l.42 4.455 1.177-2.018-1.597-2.437zM719.094 251.2l1.178 1.639-5.213.379 4.035-2.018zM719.472 258.471h.421l3.237.799-4.456.42.798-1.219zM724.727 270.197l-1.219 2.018 1.639.378-3.657 1.639 3.237-4.035zM726.745 277.426h.42l2.019 1.639h-2.86l.421-1.639zM710.601 280.284l-.798 4.834 2.017-1.64.379 1.219v-1.219l-1.598-3.194zM710.181 302.476l-2.816 2.017 5.254.799-2.438-2.816zM796.944 276.25l-1.176 8.069 1.596 4.035 1.598 3.194-1.598 1.219 2.438 1.639h-2.017l-.841 5.632 3.237-2.438-1.598 5.674 1.598 1.219 2.018-2.858 5.675-1.597 1.597-4.455.799 3.656 3.657-4.034-1.64 6.43 2.439-2.017.378-6.851 2.018 1.639 1.219 4.035.421-3.657 1.596 3.237 1.641-.799-1.641-6.052-1.218-.799-.799 2.396-.798-4.035v4.455l-2.018-.798.42-1.639-1.639-.379 1.639-3.656-2.858 3.236-1.177-6.052-2.86 2.017-1.176-1.597-.841 4.833-.798-3.236-2.396 2.438v-4.035l-2.019 1.597-.42-.42-.421-.799v4.455l-.377-2.816-1.219-7.691-2.019-.798 1.598-.799-2.018-.798zM766.678 284.319l2.859 1.597-1.64.421-1.219-2.018zM782.442 299.239l-6.473 2.018 10.509.378v-1.597l-4.036-.799zM794.127 316.177l-6.852 3.615-2.017-3.194v3.194l6.852.84 2.017-4.455z" fill="#27AE60"/><path d="M758.607 265.742l.84 1.597-2.017-.378 1.177-1.219zM754.992 268.18l1.219 1.597h-2.018l.799-1.597zM761.844 273.392l4.036 3.236 2.438-.799-2.817 2.438-2.438-.42-.799 2.816 2.018 1.218-1.639.421-.799-2.438-5.633-2.438 1.219 2.018-3.237-4.413 7.273 4.413 1.177-1.177-.379-.42 2.018-1.219-2.438-3.236zM745.325 281.461l.798 1.219-2.018 1.639 1.22-2.858zM753.395 285.118l.798 3.236-2.017.378 1.219-3.614zM758.607 296.003l.841 7.271-3.111-3.615-.126-.042.042-.084-1.681-1.933 4.035-1.597zM757.809 303.652l2.438 3.657 1.219 1.597-2.019-1.219-1.219-.798-.419-3.237zM743.684 304.871l-2.396 9.289-.841-5.632 3.237-3.657zM755.791 310.125l3.657 2.438-2.858-1.219-2.018 2.816 1.219-4.035zM730.779 311.344l-1.597 2.395-1.219-2.017 2.816-.378zM736.412 312.142l2.018.42-.8 2.396-1.218-2.816zM728.761 316.177h.421l1.177 2.018v.42l-2.017 2.017.419-2.017v-2.438zM565.742 201.186l-2.858 6.472 6.473 4.035.798 6.43-2.017 3.657 6.473 7.229-.42 2.858v-2.858l-6.053-7.229 1.64-3.236-1.64-7.271-4.414-1.219-1.64-3.615 3.658-5.253zM591.554 220.561h.419l1.598 1.597-3.237 1.219v.799l3.237 1.218 2.817-1.597-2.019 5.632-4.413-1.597-.421 2.816-1.597.378-3.657 1.219 3.236-3.614-5.254 2.395-3.237-2.395 4.876-2.438-1.219-1.597 4.036.798-4.036-2.437-4.833.84.377-2.437 13.327-.799zM606.098 226.991h1.597l-.799 2.858-.798-2.858zM646.833 228.63v.379l.798 1.639-2.018.798 1.22-2.816zM610.932 231.026l4.035 5.254-.799 1.639-3.236-6.893zM602.861 231.446l4.835 3.236-.421 1.598-4.414-4.834zM643.595 232.245l-3.195 2.018h-.421l-4.456-1.219 4.456-.379 3.616-.42zM609.713 239.096h4.456l-3.658 1.219-.798-1.219zM608.115 239.937l2.018 2.017-3.656-.841 1.638-1.176zM647.63 239.937h.42l-4.035 2.395-4.037-.798-2.017-.799h2.017l7.652-.798zM616.984 240.735l3.238 3.236-6.894-1.219 3.656-2.017zM589.955 241.534l1.177 2.816-2.816-2.396 1.639-.42zM645.234 244.35h2.816l-.798 1.218-2.018-1.218zM594.37 247.166l6.474 6.052 8.449-4.413 4.877 1.597h-4.456l2.017.42-3.236.378h2.817l-3.616.841-9.669 6.851h-3.657l-7.272-4.035-.295-.462-6.557-1.177 5.675-.379.882 1.556.295.042v.42l4.876 2.017 2.017-3.236 2.817-.42-2.438-6.052z" fill="#6DCA94"/><path d="M609.713 250.401h-2.817l-.798 1.64 3.615-1.64zM637.961 247.166l-1.22 4.875-2.815-2.018 4.035-2.857zM646.831 250.401l1.218 3.237-3.237-1.219 2.019-2.018zM639.181 252.419l.798 2.017.421 1.639-.421-.42-1.596-.798.798-2.438zM614.169 253.217l-2.858 4.876-.799-1.639 3.657-3.237zM634.345 253.638h1.598l-2.017 2.017.419-2.017zM625.056 256.454l.8 1.639-3.237 2.395 2.437-4.034zM628.67 262.926l-2.018 3.237v-2.438l2.018-.799zM644.014 263.305l-2.438 3.236 1.219 1.219-2.017-.421.798 3.657-1.598-1.219-.419-.42.419-1.597.421-2.816 3.615-1.639zM632.708 264.523l.798 4.455-2.018-1.639 1.22-2.816zM625.856 266.163l.798 2.816h-2.396l1.598-2.816zM609.713 269.357l10.887 2.858h-10.887l-5.632 3.194-.841-1.597h-.379l6.852-4.455zM556.451 275.829l1.219 4.833 5.633 1.64-5.254-1.219.42 5.632-2.018-10.886zM630.311 277.426l-1.219 4.455h-2.018l.798-3.614 2.439-.841zM633.926 279.864l-.8 7.271-4.833 4.035.798-3.657v2.438l2.018-1.597-1.22-4.455 4.037-4.035zM618.581 281.881l.8 2.018-3.615.798 2.815-2.816zM646.452 282.68l-.42 3.656-5.255 2.018 3.237-1.64 2.438-4.034zM609.713 286.336l.168.589 1.849 2.227-.798 1.513v.084l-.127.127-1.89 3.53-1.22-3.657 1.597 1.64 1.513-1.513.127-.211-1.051-3.74-.168-.21v-.379zM638.382 292.389l1.596 2.816-2.437-.421.841-2.395zM647.251 302.854l1.219 2.017 6.432 17.779-1.597 5.211-.421-7.649-2.018 1.219-1.219-4.455-2.018 1.219-3.615-5.632 1.598-.841.42-.378-3.237-1.639 1.219-3.194 4.035.798-.798-4.455zM639.559 304.073v2.816l.42-.379 1.598-.84-1.598 1.219v2.017l2.439 2.438-2.439-.799-3.614-1.639 2.396-.798.798-4.035zM635.943 310.923h2.439l1.596.799 1.219.84-.419 8.07-.8-6.052v-1.639l-4.035-.379v-1.639zM643.217 319.413l4.035 9.667-2.816-6.431-2.438-1.639 1.219-1.597zM612.95 321.809l1.598 1.639-6.433 1.597 4.037-1.219.798-2.017zM742.885 322.229l2.816 2.018-4.035-.42 1.219-1.598zM673.861 324.667l-.379 2.816-2.816.798-3.236-2.437 3.614 1.219 2.817-2.396zM686.808 325.466l1.596 1.597v.42l-.798 4.035-3.237-2.438 1.219-1.597 1.22-2.017zM759.448 329.878l-7.944 11.811.251-.084-5.632 8.069-1.639 2.816 1.639 3.236-2.439 2.816-12.106 3.237 2.018-4.035 8.071-2.438.798-2.017-2.816.798 6.474-4.413 5.381-7.985-9.416 2.731 9.289-2.815 8.071-11.727zM662.175 330.299l2.438 4.035h-3.236l3.236.798-4.877 2.018 2.439-4.834-2.439.421 2.439-2.438zM737.63 331.098l1.64 4.034-2.438-1.597.798-2.437zM688.405 333.535l7.651.378 3.237 4.456 4.456-.799 2.816 8.868h16.563l4.413 4.035 1.641 1.597-.841 2.017v.841h-4.036l-4.035-3.236 2.858 3.614-.421 8.07-2.437 2.816-3.196-5.632-4.456 2.816 2.018-4.413-1.597-5.674-7.273-2.018-1.219 6.851-.798-2.816-2.439 3.657 2.018 10.465v.42l-.798 6.851-3.237 2.438-4.036-9.709 1.219-10.087-2.816.799 3.237-8.07 2.017 1.639 4.037-4.035 6.852-.42-2.019-2.396h-3.237v-1.639l-9.668 3.236-2.438-2.017-2.817 1.219-1.219-2.816-6.852 5.212h-2.439l.421-2.396-5.254 1.597 10.887-12.104 2.018.42.421-2.816v2.396l1.597-1.219-.799-2.396zM667.807 336.351l4.036 3.615-4.036-1.598v-2.017zM627.452 341.983l1.64 2.438 1.219-1.219v2.437l4.835.379h-5.675l-1.598-3.195-4.035-.42 3.614-.42zM727.162 342.824l1.598.798-2.815.379h-2.019l2.019-.799 1.217-.378zM613.747 343.202l-.799 2.017-.421-1.597-6.431 2.017-.84-1.639 8.491-.798zM637.163 351.692l1.219 14.122-4.036-1.639 2.817-2.018v-10.465zM735.613 362.157l-.379 3.236-3.237 3.237-6.852 6.472h-8.071l2.396-6.472 1.641 1.597-2.439 1.219.798 1.639 4.835-4.455 6.894-2.018h-1.639l1.639-1.219 4.414-3.236zM642.795 369.05l4.036 5.632-3.615-2.816-.421-2.816zM579.865 378.716l3.195 5.254-1.177-1.219-.841 2.438-1.177-6.473zM588.315 404.144l-1.597 4.035-4.456 1.219 6.053-5.254zM567.758 409.397v2.396l1.177-.378 1.641 3.194-1.641-2.816-4.035.42 2.858-2.816zM731.2 422.3l1.177 1.597-2.018.421.841-2.018zM658.14 430.749v1.639l-2.439-.421 2.439-1.218zM586.297 457.395l2.438 1.219-2.017 1.597-.421-2.816zM746.5 461.009l.42 3.237-2.018-1.219 1.598-2.018zM619.801 514.302h2.817l1.219.799-4.036-.799zM627.074 522.75l4.835 2.017-3.238-.378.421 2.018-2.018-3.657z" fill="#6DCA94"/></g><defs><clipPath id="clip0"><path fill="#fff" transform="translate(439 112)" d="M0 0h383v433H0z"/></clipPath></defs></svg>