<svg xmlns="http://www.w3.org/2000/svg" viewBox="0 0 362.03 442.48"><defs><style>.cls-1{fill:#965656;}.cls-2{fill:#b7926c;}.cls-3{fill:#cca683;}.cls-4{fill:#827587;}.cls-5{fill:#2b2b2b;}.cls-6{fill:#9f90a5;}</style></defs><g id="Layer_2" data-name="Layer 2"><g id="Creator_Series_2_Output_" data-name="Creator Series 2 (Output)"><g id="Pearl"><polygon class="cls-1" points="201.13 221.24 181.01 221.24 181.01 241.35 201.13 241.35 221.24 241.35 221.24 221.24 201.13 221.24"/><path class="cls-2" d="M221.24,120.68h40.22V100.56H241.35V80.45H221.24V60.34H160.9V80.45H140.79v20.11H120.68v20.12H181v20.11H160.9V160.9H140.79V140.79H120.68V181H100.56v20.12h20.12v20.11h20.11v40.23H160.9V382.14H181v20.11h20.12V382.14h20.11V301.69H181V281.58h60.34V261.47h20.11V140.79H241.35V160.9H221.24V120.68Zm0,120.67H181V221.24h40.23Zm0-40.22H201.13V181h20.11Z"/><polygon class="cls-3" points="140.79 261.46 140.79 281.58 140.79 301.69 140.79 321.8 140.79 341.92 140.79 362.03 160.9 362.03 160.9 341.92 160.9 321.8 160.9 301.69 160.9 281.58 160.9 261.46 140.79 261.46"/><polygon class="cls-3" points="140.79 221.24 120.68 221.24 120.68 241.35 120.68 261.46 140.79 261.46 140.79 241.35 140.79 221.24"/><rect class="cls-3" x="100.56" y="201.13" width="20.11" height="20.11"/><rect class="cls-3" x="80.45" y="160.9" width="20.11" height="20.11"/><polygon class="cls-4" points="321.8 422.37 321.8 402.25 301.69 402.25 281.58 402.25 261.46 402.25 261.46 382.14 241.35 382.14 221.24 382.14 201.13 382.14 201.13 402.25 181.01 402.25 181.01 382.14 160.9 382.14 160.9 362.03 140.79 362.03 120.68 362.03 120.68 382.14 100.56 382.14 100.56 402.25 80.45 402.25 60.34 402.25 60.34 422.37 40.23 422.37 40.23 442.48 60.34 442.48 80.45 442.48 100.56 442.48 120.68 442.48 140.79 442.48 160.9 442.48 181.01 442.48 201.13 442.48 221.24 442.48 241.35 442.48 261.46 442.48 281.58 442.48 301.69 442.48 321.8 442.48 341.92 442.48 341.92 422.37 321.8 422.37"/><polygon class="cls-5" points="301.69 120.68 301.69 100.56 301.69 80.45 281.58 80.45 281.58 60.34 281.58 40.23 261.46 40.23 261.46 20.11 241.35 20.11 241.35 0 221.24 0 201.13 0 181.01 0 160.9 0 140.79 0 120.68 0 120.68 20.11 100.56 20.11 100.56 40.23 80.45 40.23 80.45 60.34 80.45 80.45 60.34 80.45 60.34 100.56 60.34 120.68 40.23 120.68 40.23 140.79 40.23 160.9 40.23 181.01 40.23 201.13 40.23 221.24 40.23 241.35 60.34 241.35 60.34 261.46 40.23 261.46 40.23 281.58 60.34 281.58 80.45 281.58 100.56 281.58 120.68 281.58 120.68 261.46 100.56 261.46 100.56 241.35 100.56 221.24 80.45 221.24 80.45 201.13 80.45 181.01 60.34 181.01 60.34 160.9 60.34 140.79 80.45 140.79 80.45 160.9 100.56 160.9 100.56 181.01 120.68 181.01 120.68 160.9 120.68 140.79 140.79 140.79 160.9 140.79 181.01 140.79 181.01 120.68 160.9 120.68 140.79 120.68 120.68 120.68 120.68 100.56 140.79 100.56 140.79 80.45 160.9 80.45 160.9 60.34 181.01 60.34 201.13 60.34 221.24 60.34 221.24 80.45 241.35 80.45 241.35 100.56 261.46 100.56 261.46 120.68 281.58 120.68 281.58 140.79 281.58 160.9 281.58 181.01 281.58 201.13 281.58 221.24 281.58 241.35 281.58 261.46 261.46 261.46 261.46 281.58 281.58 281.58 301.69 281.58 321.8 281.58 321.8 261.46 321.8 241.35 321.8 221.24 301.69 221.24 301.69 201.13 321.8 201.13 321.8 181.01 321.8 160.9 321.8 140.79 321.8 120.68 301.69 120.68"/><polygon class="cls-5" points="221.24 120.68 221.24 140.79 241.35 140.79 261.46 140.79 261.46 120.68 241.35 120.68 221.24 120.68"/><rect class="cls-6" x="100.56" y="362.03" width="20.11" height="20.11"/><rect class="cls-6" x="80.45" y="382.14" width="20.11" height="20.11"/><rect class="cls-6" x="40.23" y="402.25" width="20.11" height="20.11"/><rect class="cls-6" x="20.11" y="422.37" width="20.11" height="20.11"/><rect x="341.92" y="422.37" width="20.11" height="20.11"/><rect x="321.8" y="402.25" width="20.11" height="20.11"/><polygon points="301.69 382.14 281.58 382.14 261.46 382.14 261.46 402.25 281.58 402.25 301.69 402.25 321.8 402.25 321.8 382.14 301.69 382.14"/><polygon points="281.58 241.35 281.58 221.24 281.58 201.13 281.58 181.01 281.58 160.9 281.58 140.79 281.58 120.68 261.46 120.68 261.46 140.79 261.46 160.9 261.46 181.01 261.46 201.13 261.46 221.24 261.46 241.35 261.46 261.46 281.58 261.46 281.58 241.35"/><polygon points="241.35 362.03 241.35 341.92 241.35 321.8 241.35 301.69 241.35 281.58 221.24 281.58 201.13 281.58 181.01 281.58 181.01 301.69 201.13 301.69 221.24 301.69 221.24 321.8 221.24 341.92 221.24 362.03 221.24 382.14 241.35 382.14 261.46 382.14 261.46 362.03 241.35 362.03"/><rect x="241.35" y="261.47" width="20.11" height="20.11"/><rect x="221.24" y="140.79" width="20.11" height="20.11"/><rect x="201.13" y="181.01" width="20.11" height="20.11"/><rect x="140.79" y="140.79" width="20.11" height="20.11"/><polygon points="120.68 281.58 120.68 301.69 120.68 321.8 120.68 341.92 100.56 341.92 100.56 362.03 120.68 362.03 140.79 362.03 140.79 341.92 140.79 321.8 140.79 301.69 140.79 281.58 140.79 261.46 120.68 261.46 120.68 281.58"/><polygon points="120.68 221.24 100.56 221.24 100.56 241.35 100.56 261.46 120.68 261.46 120.68 241.35 120.68 221.24"/><rect x="80.45" y="362.03" width="20.11" height="20.11"/><polygon points="100.56 181.01 80.45 181.01 80.45 201.13 80.45 221.24 100.56 221.24 100.56 201.13 100.56 181.01"/><polygon points="80.45 140.79 60.34 140.79 60.34 160.9 60.34 181.01 80.45 181.01 80.45 160.9 80.45 140.79"/><polygon points="40.23 382.14 40.23 402.25 60.34 402.25 80.45 402.25 80.45 382.14 60.34 382.14 40.23 382.14"/><rect x="20.11" y="402.25" width="20.11" height="20.11"/><rect y="422.37" width="20.11" height="20.11"/></g></g></g></svg>