<svg xmlns="http://www.w3.org/2000/svg" viewBox="0 0 402.25 442.48"><defs><style>.cls-1{fill:#c16b6b;}.cls-2{fill:#9f8869;}.cls-3{fill:#d4b286;}.cls-4{fill:#e7c8a7;}.cls-5{fill:#423627;}.cls-6{fill:#b2b244;}.cls-7{fill:#d8db4d;}</style></defs><g id="Layer_2" data-name="Layer 2"><g id="Creator_Series_2_Output_" data-name="Creator Series 2 (Output)"><g id="Ryan_Clough" data-name="Ryan Clough"><rect class="cls-1" x="201.13" y="221.24" width="20.11" height="20.11"/><rect class="cls-1" x="181.01" y="221.24" width="20.11" height="20.11"/><polygon class="cls-2" points="261.46 201.13 261.46 221.24 261.46 241.35 241.35 241.35 241.35 261.46 221.24 261.46 221.24 281.58 201.13 281.58 181.01 281.58 181.01 261.46 160.9 261.46 160.9 241.35 140.79 241.35 140.79 221.24 140.79 201.13 120.68 201.13 120.68 221.24 120.68 241.35 120.68 261.46 120.68 281.58 140.79 281.58 140.79 301.69 160.9 301.69 181.01 301.69 201.13 301.69 221.24 301.69 241.35 301.69 261.46 301.69 261.46 281.58 281.58 281.58 281.58 261.46 281.58 241.35 281.58 221.24 281.58 201.13 261.46 201.13"/><polygon class="cls-2" points="201.13 221.24 221.24 221.24 241.35 221.24 241.35 201.13 221.24 201.13 201.13 201.13 181.01 201.13 160.9 201.13 160.9 221.24 181.01 221.24 201.13 221.24"/><path class="cls-3" d="M281.58,160.9V140.79H261.46V160.9H241.35V140.79H221.24V120.68h60.34V100.56H261.46V80.45H241.35V60.34H160.9V80.45H140.79v20.11H120.68v20.12H181v20.11H160.9V160.9H140.79V140.79H120.68v60.34h20.11v40.22H160.9v20.11H181v20.12h40.23V261.46h20.11V241.35h20.11V201.13h20.12V181h20.11V160.9Zm-40.23,60.34H221.24v20.11H181V221.24H160.9V201.13H181V181h40.23v20.12h20.11Z"/><polygon class="cls-3" points="201.13 321.8 201.13 301.69 181.01 301.69 181.01 321.8 181.01 341.92 181.01 362.03 181.01 382.14 181.01 402.25 201.13 402.25 221.24 402.25 221.24 382.14 241.35 382.14 241.35 362.03 241.35 341.92 241.35 321.8 221.24 321.8 201.13 321.8"/><polygon class="cls-4" points="160.9 321.8 160.9 341.92 160.9 362.03 160.9 382.14 181.01 382.14 181.01 362.03 181.01 341.92 181.01 321.8 160.9 321.8"/><rect class="cls-4" x="100.56" y="160.9" width="20.11" height="20.11"/><polygon class="cls-5" points="301.69 40.23 301.69 20.11 281.58 20.11 281.58 0 261.46 0 241.35 0 221.24 0 201.13 0 181.01 0 160.9 0 140.79 0 120.68 0 120.68 20.11 100.56 20.11 100.56 40.23 80.45 40.23 80.45 60.34 80.45 80.45 80.45 100.56 80.45 120.68 80.45 140.79 100.56 140.79 100.56 160.9 120.68 160.9 120.68 140.79 140.79 140.79 160.9 140.79 181.01 140.79 181.01 120.68 160.9 120.68 140.79 120.68 120.68 120.68 120.68 100.56 140.79 100.56 140.79 80.45 160.9 80.45 160.9 60.34 181.01 60.34 201.13 60.34 221.24 60.34 241.35 60.34 241.35 80.45 261.46 80.45 261.46 100.56 281.58 100.56 281.58 120.68 261.46 120.68 241.35 120.68 221.24 120.68 221.24 140.79 241.35 140.79 261.46 140.79 281.58 140.79 281.58 160.9 301.69 160.9 301.69 140.79 321.8 140.79 321.8 120.68 321.8 100.56 321.8 80.45 321.8 60.34 321.8 40.23 301.69 40.23"/><polygon class="cls-6" points="362.03 422.37 362.03 402.25 341.92 402.25 321.8 402.25 301.69 402.25 281.58 402.25 281.58 382.14 261.46 382.14 261.46 362.03 241.35 362.03 241.35 382.14 221.24 382.14 221.24 402.25 201.13 402.25 181.01 402.25 181.01 382.14 160.9 382.14 140.79 382.14 140.79 402.25 120.68 402.25 100.56 402.25 80.45 402.25 60.34 402.25 60.34 422.37 40.23 422.37 40.23 442.48 60.34 442.48 80.45 442.48 100.56 442.48 120.68 442.48 140.79 442.48 160.9 442.48 181.01 442.48 201.13 442.48 221.24 442.48 241.35 442.48 261.46 442.48 281.58 442.48 301.69 442.48 321.8 442.48 341.92 442.48 362.03 442.48 382.14 442.48 382.14 422.37 362.03 422.37"/><rect class="cls-7" x="140.79" y="362.03" width="20.11" height="20.11"/><rect class="cls-7" x="120.68" y="382.14" width="20.11" height="20.11"/><rect class="cls-7" x="40.23" y="402.25" width="20.11" height="20.11"/><rect class="cls-7" x="20.11" y="422.37" width="20.11" height="20.11"/><rect x="382.14" y="422.37" width="20.11" height="20.11"/><rect x="362.03" y="402.25" width="20.11" height="20.11"/><polygon points="341.92 382.14 321.8 382.14 301.69 382.14 281.58 382.14 281.58 402.25 301.69 402.25 321.8 402.25 341.92 402.25 362.03 402.25 362.03 382.14 341.92 382.14"/><polygon points="301.69 261.46 301.69 241.35 301.69 221.24 301.69 201.13 321.8 201.13 321.8 181.01 321.8 160.9 321.8 140.79 301.69 140.79 301.69 160.9 301.69 181.01 281.58 181.01 281.58 201.13 281.58 221.24 281.58 241.35 281.58 261.46 281.58 281.58 301.69 281.58 301.69 261.46"/><rect x="261.46" y="362.03" width="20.11" height="20.11"/><rect x="261.46" y="281.58" width="20.11" height="20.11"/><polygon points="261.46 321.8 261.46 301.69 241.35 301.69 221.24 301.69 201.13 301.69 201.13 321.8 221.24 321.8 241.35 321.8 241.35 341.92 241.35 362.03 261.46 362.03 261.46 341.92 261.46 321.8"/><rect x="241.35" y="140.79" width="20.11" height="20.11"/><polygon points="221.24 201.13 221.24 181.01 201.13 181.01 181.01 181.01 181.01 201.13 201.13 201.13 221.24 201.13"/><polygon points="140.79 301.69 140.79 321.8 140.79 341.92 140.79 362.03 160.9 362.03 160.9 341.92 160.9 321.8 181.01 321.8 181.01 301.69 160.9 301.69 140.79 301.69"/><rect x="140.79" y="140.79" width="20.11" height="20.11"/><rect x="120.68" y="362.03" width="20.11" height="20.11"/><rect x="120.68" y="281.58" width="20.11" height="20.11"/><polygon points="120.68 241.35 120.68 221.24 120.68 201.13 120.68 181.01 100.56 181.01 100.56 160.9 100.56 140.79 80.45 140.79 80.45 160.9 80.45 181.01 80.45 201.13 100.56 201.13 100.56 221.24 100.56 241.35 100.56 261.46 100.56 281.58 120.68 281.58 120.68 261.46 120.68 241.35"/><polygon points="80.45 382.14 60.34 382.14 40.23 382.14 40.23 402.25 60.34 402.25 80.45 402.25 100.56 402.25 120.68 402.25 120.68 382.14 100.56 382.14 80.45 382.14"/><rect x="20.11" y="402.25" width="20.11" height="20.11"/><rect y="422.37" width="20.11" height="20.11"/></g></g></g></svg>