<svg xmlns="http://www.w3.org/2000/svg" viewBox="0 0 362.17 442.66">
  <g id="fc467cd6-2081-4c90-a9e1-ad10e553e46e" data-name="Layer 2">
    <g id="a1752cbc-6881-411c-9d10-bafdcea8033b" data-name="Output (Front)">
      <g>
        <rect x="342.05" y="422.53" width="20.12" height="20.12"/>
        <polygon points="321.93 422.54 321.93 402.41 301.81 402.41 301.81 422.54 301.81 442.65 321.93 442.65 342.05 442.65 342.05 422.54 321.93 422.54" style="fill: #7f7671"/>
        <polygon points="321.93 382.29 301.81 382.29 281.69 382.29 281.69 402.41 281.69 422.54 301.81 422.54 301.81 402.41 321.93 402.41 321.93 422.54 342.05 422.54 342.05 402.41 342.05 382.29 342.05 362.17 342.05 342.05 321.93 342.05 321.93 362.17 321.93 382.29"/>
        <polygon points="301.81 301.81 281.69 301.81 261.57 301.81 261.57 321.93 281.69 321.93 301.81 321.93 301.81 342.05 321.93 342.05 321.93 321.93 321.93 301.81 321.93 281.69 321.93 261.57 301.81 261.57 301.81 281.69 301.81 301.81"/>
        <rect x="281.69" y="422.53" width="20.12" height="20.12" style="fill: #a5a2a0"/>
        <polygon points="301.81 321.93 281.69 321.93 261.57 321.93 261.57 342.05 261.57 362.17 281.69 362.17 281.69 382.29 301.81 382.29 321.93 382.29 321.93 362.17 321.93 342.05 301.81 342.05 301.81 321.93" style="fill: #a35f35"/>
        <rect x="261.57" y="422.53" width="20.12" height="20.12"/>
        <rect x="261.57" y="362.17" width="20.12" height="20.12"/>
        <polygon points="261.57 261.57 261.57 281.69 261.57 301.81 281.69 301.81 301.81 301.81 301.81 281.69 301.81 261.57 281.69 261.57 261.57 261.57" style="fill: #c1bc6a"/>
        <polygon points="261.57 201.21 261.57 221.33 261.57 241.45 241.45 241.45 241.45 261.57 261.57 261.57 281.69 261.57 301.81 261.57 301.81 241.45 281.69 241.45 281.69 221.33 281.69 201.21 281.69 181.09 261.57 181.09 261.57 201.21"/>
        <polygon points="241.45 422.54 221.33 422.54 221.33 442.65 241.45 442.65 261.57 442.65 261.57 422.54 241.45 422.54" style="fill: #a5a2a0"/>
        <polygon points="241.45 342.05 241.45 321.93 241.45 301.81 241.45 281.69 241.45 261.57 221.33 261.57 221.33 281.69 201.21 281.69 181.09 281.69 181.09 301.81 201.21 301.81 221.33 301.81 221.33 321.93 221.33 342.05 221.33 362.17 241.45 362.17 261.57 362.17 261.57 342.05 241.45 342.05"/>
        <polygon points="241.45 301.81 241.45 321.93 241.45 342.05 261.57 342.05 261.57 321.93 261.57 301.81 261.57 281.69 261.57 261.57 241.45 261.57 241.45 281.69 241.45 301.81" style="fill: #947c61"/>
        <polygon points="241.45 422.54 261.57 422.54 281.69 422.54 281.69 402.41 281.69 382.29 261.57 382.29 261.57 362.17 241.45 362.17 221.33 362.17 221.33 382.29 201.21 382.29 201.21 402.41 201.21 422.54 201.21 442.65 221.33 442.65 221.33 422.54 241.45 422.54" style="fill: #7f7671"/>
        <rect x="221.33" y="140.84" width="20.12" height="20.12"/>
        <path d="M201.21,402.41V382.29h20.12V301.81H181.09V281.69h40.24V261.57h20.12V241.45h20.12V140.84H241.45V161H221.33V140.84H201.21V120.72h40.24V100.6H221.33V80.48H201.21V60.36H161V80.48H140.84V100.6H120.72v20.12H161v20.12H140.84V161H120.72V140.84H100.6v60.37h20.12v40.24h20.12v20.12H161V442.66h40.24V402.41ZM161,181.09h40.24v20.12H161Zm0,40.24h40.24v20.12H161Z" style="fill: #d8c0a9"/>
        <polygon points="201.21 241.45 201.21 221.33 181.09 221.33 160.97 221.33 160.97 241.45 181.09 241.45 201.21 241.45" style="fill: #c16b6b"/>
        <polygon points="201.21 201.21 201.21 181.09 181.09 181.09 160.97 181.09 160.97 201.21 181.09 201.21 201.21 201.21"/>
        <polygon points="160.97 402.41 160.97 382.29 140.84 382.29 140.84 362.17 120.72 362.17 120.72 382.29 100.6 382.29 100.6 402.41 80.48 402.41 80.48 422.54 100.6 422.54 120.72 422.54 140.84 422.54 140.84 442.65 160.97 442.65 160.97 422.54 160.97 402.41" style="fill: #7f7671"/>
        <polygon points="140.84 321.93 140.84 342.05 140.84 362.17 140.84 382.29 160.97 382.29 160.97 362.17 160.97 342.05 160.97 321.93 160.97 301.81 140.84 301.81 140.84 321.93" style="fill: #e2cfbf"/>
        <rect x="140.84" y="261.57" width="20.12" height="20.12" style="fill: #e2cfbf"/>
        <polygon points="120.72 422.54 100.6 422.54 100.6 442.65 120.72 442.65 140.84 442.65 140.84 422.54 120.72 422.54" style="fill: #a5a2a0"/>
        <polygon points="120.72 281.69 120.72 301.81 120.72 321.93 120.72 342.05 100.6 342.05 100.6 362.17 120.72 362.17 140.84 362.17 140.84 342.05 140.84 321.93 140.84 301.81 160.97 301.81 160.97 281.69 140.84 281.69 140.84 261.57 120.72 261.57 120.72 281.69"/>
        <rect x="120.72" y="241.45" width="20.12" height="20.12" style="fill: #e2cfbf"/>
        <rect x="120.72" y="140.84" width="20.12" height="20.12"/>
        <rect x="100.6" y="362.17" width="20.12" height="20.12" style="fill: #a5a2a0"/>
        <polygon points="100.6 241.45 120.72 241.45 120.72 221.33 120.72 201.21 100.6 201.21 100.6 221.33 100.6 241.45" style="fill: #e2cfbf"/>
        <rect x="80.48" y="422.53" width="20.12" height="20.12"/>
        <rect x="80.48" y="382.29" width="20.12" height="20.12" style="fill: #a5a2a0"/>
        <rect x="80.48" y="362.17" width="20.12" height="20.12"/>
        <polygon points="100.6 362.17 100.6 342.05 120.72 342.05 120.72 321.93 120.72 301.81 120.72 281.69 120.72 261.57 100.6 261.57 100.6 281.69 100.6 301.81 100.6 321.93 80.48 321.93 80.48 342.05 60.36 342.05 60.36 362.17 60.36 382.29 80.48 382.29 80.48 362.17 100.6 362.17" style="fill: #947c61"/>
        <rect x="80.48" y="281.69" width="20.12" height="20.12" style="fill: #c1bc6a"/>
        <polygon points="100.6 261.57 120.72 261.57 120.72 241.45 100.6 241.45 100.6 221.33 100.6 201.21 80.48 201.21 80.48 221.33 80.48 241.45 60.36 241.45 60.36 261.57 80.48 261.57 100.6 261.57"/>
        <polygon points="100.6 181.09 100.6 160.97 100.6 140.84 120.72 140.84 140.84 140.84 160.97 140.84 160.97 120.72 140.84 120.72 120.72 120.72 120.72 100.6 140.84 100.6 140.84 80.48 160.97 80.48 160.97 60.36 181.09 60.36 201.21 60.36 201.21 80.48 221.33 80.48 221.33 100.6 241.45 100.6 241.45 120.72 221.33 120.72 201.21 120.72 201.21 140.84 221.33 140.84 241.45 140.84 261.57 140.84 261.57 160.97 261.57 181.09 281.69 181.09 301.81 181.09 301.81 201.21 321.93 201.21 321.93 181.09 321.93 160.97 301.81 160.97 301.81 140.84 301.81 120.72 301.81 100.6 281.69 100.6 281.69 80.48 281.69 60.36 281.69 40.24 261.57 40.24 261.57 20.12 241.45 20.12 241.45 0 221.33 0 201.21 0 181.09 0 160.97 0 140.84 0 120.72 0 120.72 20.12 100.6 20.12 100.6 40.24 80.48 40.24 80.48 60.36 80.48 80.48 60.36 80.48 60.36 100.6 60.36 120.72 60.36 140.84 80.48 140.84 80.48 160.97 80.48 181.09 80.48 201.21 100.6 201.21 100.6 181.09" style="fill: #947c61"/>
        <rect x="60.36" y="422.53" width="20.12" height="20.12" style="fill: #a5a2a0"/>
        <rect x="60.36" y="321.93" width="20.12" height="20.12" style="fill: #b77651"/>
        <polygon points="60.36 301.81 80.48 301.81 80.48 281.69 100.6 281.69 100.6 261.57 80.48 261.57 60.36 261.57 60.36 281.69 60.36 301.81" style="fill: #d1cc93"/>
        <polygon points="80.48 140.84 60.36 140.84 60.36 160.97 60.36 181.09 80.48 181.09 80.48 160.97 80.48 140.84"/>
        <rect x="40.24" y="422.53" width="20.12" height="20.12" style="fill: #7f7671"/>
        <rect x="40.24" y="402.41" width="20.12" height="20.12" style="fill: #a5a2a0"/>
        <polygon points="40.24 382.29 60.36 382.29 60.36 362.17 60.36 342.05 40.24 342.05 40.24 362.17 40.24 382.29" style="fill: #b77651"/>
        <polygon points="60.36 321.93 80.48 321.93 100.6 321.93 100.6 301.81 80.48 301.81 60.36 301.81 60.36 281.69 60.36 261.57 40.24 261.57 40.24 281.69 40.24 301.81 40.24 321.93 40.24 342.05 60.36 342.05 60.36 321.93"/>
        <rect x="20.12" y="422.53" width="20.12" height="20.12" style="fill: #a5a2a0"/>
        <polygon points="40.24 402.41 60.36 402.41 60.36 422.54 80.48 422.54 80.48 402.41 80.48 382.29 60.36 382.29 40.24 382.29 40.24 362.17 40.24 342.05 20.12 342.05 20.12 362.17 20.12 382.29 20.12 402.41 20.12 422.54 40.24 422.54 40.24 402.41"/>
        <rect y="422.53" width="20.12" height="20.12"/>
      </g>
    </g>
  </g>
</svg>
