<svg xmlns="http://www.w3.org/2000/svg" viewBox="0 0 402.41 462.78">
  <g id="b66d7812-57db-43c3-b71d-9ff9ee65ce88" data-name="Layer 2">
    <g id="e0d789e5-1fe0-4e57-95a8-e5f2da1ac583" data-name="Output">
      <g>
        <rect x="382.29" y="442.66" width="20.12" height="20.12"/>
        <polygon points="362.17 442.65 362.17 422.53 342.05 422.53 321.93 422.53 321.93 442.65 301.81 442.65 301.81 462.78 321.93 462.78 342.05 462.78 362.17 462.78 382.29 462.78 382.29 442.65 362.17 442.65" style="fill: #d8c0a9"/>
        <rect x="362.17" y="422.53" width="20.12" height="20.12"/>
        <polygon points="321.93 382.29 321.93 402.41 301.81 402.41 281.69 402.41 281.69 422.53 281.69 442.65 301.81 442.65 301.81 422.53 321.93 422.53 342.05 422.53 362.17 422.53 362.17 402.41 342.05 402.41 342.05 382.29 342.05 362.17 342.05 342.05 321.93 342.05 321.93 362.17 321.93 382.29"/>
        <rect x="301.81" y="422.53" width="20.12" height="20.12" style="fill: #aa4141"/>
        <rect x="281.69" y="442.66" width="20.12" height="20.12" style="fill: #aa4141"/>
        <polygon points="281.69 342.05 261.57 342.05 261.57 362.17 261.57 382.29 281.69 382.29 281.69 402.41 301.81 402.41 321.93 402.41 321.93 382.29 321.93 362.17 321.93 342.05 301.81 342.05 281.69 342.05" style="fill: #998675"/>
        <polygon points="281.69 120.72 281.69 140.84 281.69 160.97 281.69 181.09 281.69 201.21 281.69 221.33 281.69 241.45 281.69 261.57 281.69 281.69 281.69 301.81 301.81 301.81 301.81 281.69 301.81 261.57 301.81 241.45 301.81 221.33 301.81 201.21 301.81 181.09 301.81 160.97 301.81 140.84 301.81 120.72 301.81 100.6 301.81 80.48 281.69 80.48 281.69 100.6 281.69 120.72"/>
        <rect x="261.57" y="442.66" width="20.12" height="20.12"/>
        <polygon points="281.69 442.65 281.69 422.53 281.69 402.41 261.57 402.41 261.57 382.29 241.45 382.29 241.45 402.41 221.33 402.41 221.33 422.53 221.33 442.65 201.21 442.65 201.21 422.53 201.21 402.41 181.09 402.41 160.97 402.41 160.97 382.29 140.84 382.29 140.84 402.41 120.72 402.41 120.72 422.53 120.72 442.65 140.84 442.65 140.84 462.78 160.97 462.78 181.09 462.78 201.21 462.78 221.33 462.78 241.45 462.78 261.57 462.78 261.57 442.65 281.69 442.65" style="fill: #aa4141"/>
        <rect x="261.57" y="382.29" width="20.12" height="20.12"/>
        <polygon points="261.57 321.93 241.45 321.93 221.33 321.93 201.21 321.93 181.09 321.93 181.09 342.05 201.21 342.05 221.33 342.05 241.45 342.05 241.45 362.17 241.45 382.29 261.57 382.29 261.57 362.17 261.57 342.05 281.69 342.05 301.81 342.05 321.93 342.05 321.93 321.93 301.81 321.93 281.69 321.93 281.69 301.81 261.57 301.81 261.57 321.93"/>
        <polygon points="261.57 140.84 241.45 140.84 241.45 160.97 261.57 160.97 281.69 160.97 281.69 140.84 261.57 140.84" style="fill: #654825"/>
        <rect x="261.57" y="60.36" width="20.12" height="20.12"/>
        <rect x="241.45" y="160.97" width="20.12" height="20.12"/>
        <rect x="241.45" y="100.6" width="20.12" height="20.12" style="fill: #e2cfbf"/>
        <polygon points="241.45 342.05 221.33 342.05 201.21 342.05 181.09 342.05 181.09 321.93 160.97 321.93 160.97 342.05 160.97 362.17 160.97 382.29 160.97 402.41 181.09 402.41 201.21 402.41 201.21 422.53 201.21 442.65 221.33 442.65 221.33 422.53 221.33 402.41 241.45 402.41 241.45 382.29 241.45 362.17 241.45 342.05" style="fill: #d8c0a9"/>
        <polygon points="221.33 241.45 201.21 241.45 201.21 261.57 221.33 261.57 241.45 261.57 241.45 241.45 221.33 241.45" style="fill: #c16b6b"/>
        <rect x="221.33" y="201.21" width="20.12" height="20.12"/>
        <rect x="221.33" y="80.48" width="20.12" height="20.12" style="fill: #e2cfbf"/>
        <path d="M221.33,60.36V80.48h20.12V100.6h20.12v20.12H241.45V100.6H221.33V80.48H201.21V60.36H161V80.48H140.84v60.36h60.37V161H181.09v20.12H161V161H120.72v60.36h20.12v80.48h40.25v20.12h80.48V301.81h20.12V161H261.57v20.12H241.45V140.84h40.24V80.48H261.57V60.36H221.33Zm40.24,161v60.36H241.45V261.57H201.21v20.12H181.09V221.33h40.24V201.21h20.12v20.12Z" style="fill: #d8c0a9"/>
        <polygon points="241.45 60.36 261.57 60.36 261.57 40.24 241.45 40.24 221.33 40.24 221.33 60.36 241.45 60.36"/>
        <polygon points="201.21 221.33 181.09 221.33 181.09 241.45 181.09 261.57 181.09 281.69 201.21 281.69 201.21 261.57 201.21 241.45 221.33 241.45 241.45 241.45 241.45 261.57 241.45 281.69 261.57 281.69 261.57 261.57 261.57 241.45 261.57 221.33 241.45 221.33 221.33 221.33 201.21 221.33" style="fill: #654825"/>
        <rect x="201.21" y="60.36" width="20.12" height="20.12" style="fill: #e2cfbf"/>
        <polygon points="201.21 60.36 221.33 60.36 221.33 40.24 221.33 20.12 221.33 0 201.21 0 181.09 0 181.09 20.12 181.09 40.24 181.09 60.36 201.21 60.36" style="fill: #654825"/>
        <rect x="160.97" y="301.81" width="20.12" height="20.12"/>
        <rect x="160.97" y="160.97" width="20.12" height="20.12"/>
        <polygon points="181.09 160.97 201.21 160.97 201.21 140.84 181.09 140.84 160.97 140.84 140.84 140.84 140.84 160.97 160.97 160.97 181.09 160.97" style="fill: #654825"/>
        <polygon points="181.09 60.36 181.09 40.24 160.97 40.24 140.84 40.24 140.84 60.36 160.97 60.36 181.09 60.36"/>
        <polygon points="160.97 342.05 160.97 321.93 160.97 301.81 140.84 301.81 140.84 321.93 140.84 342.05 140.84 362.17 140.84 382.29 160.97 382.29 160.97 362.17 160.97 342.05" style="fill: #e2cfbf"/>
        <rect x="140.84" y="60.36" width="20.12" height="20.12" style="fill: #e2cfbf"/>
        <rect x="120.72" y="442.66" width="20.12" height="20.12"/>
        <rect x="120.72" y="382.29" width="20.12" height="20.12" style="fill: #c16b6b"/>
        <polygon points="140.84 281.69 140.84 261.57 140.84 241.45 140.84 221.33 120.72 221.33 120.72 241.45 120.72 261.57 120.72 281.69 120.72 301.81 140.84 301.81 140.84 281.69" style="fill: #e2cfbf"/>
        <polygon points="120.72 120.72 120.72 140.84 120.72 160.97 140.84 160.97 140.84 140.84 140.84 120.72 140.84 100.6 140.84 80.48 120.72 80.48 120.72 100.6 120.72 120.72" style="fill: #e2cfbf"/>
        <rect x="120.72" y="60.36" width="20.12" height="20.12"/>
        <rect x="100.6" y="442.66" width="20.12" height="20.12" style="fill: #aa4141"/>
        <rect x="100.6" y="422.53" width="20.12" height="20.12"/>
        <rect x="100.6" y="402.41" width="20.12" height="20.12" style="fill: #c16b6b"/>
        <rect x="100.6" y="382.29" width="20.12" height="20.12"/>
        <polygon points="120.72 261.57 120.72 241.45 120.72 221.33 120.72 201.21 100.6 201.21 100.6 181.09 100.6 160.97 80.48 160.97 80.48 181.09 80.48 201.21 80.48 221.33 100.6 221.33 100.6 241.45 100.6 261.57 100.6 281.69 100.6 301.81 120.72 301.81 120.72 281.69 120.72 261.57"/>
        <polygon points="100.6 201.21 120.72 201.21 120.72 181.09 120.72 160.97 100.6 160.97 100.6 181.09 100.6 201.21" style="fill: #e2cfbf"/>
        <polygon points="120.72 140.84 120.72 120.72 120.72 100.6 120.72 80.48 100.6 80.48 100.6 100.6 100.6 120.72 100.6 140.84 100.6 160.97 120.72 160.97 120.72 140.84"/>
        <polygon points="80.48 442.65 60.36 442.65 40.24 442.65 40.24 462.78 60.36 462.78 80.48 462.78 100.6 462.78 100.6 442.65 80.48 442.65" style="fill: #d8c0a9"/>
        <rect x="80.48" y="422.53" width="20.12" height="20.12" style="fill: #aa4141"/>
        <rect x="80.48" y="221.33" width="20.12" height="20.12" style="fill: #eae081"/>
        <polygon points="60.36 422.53 40.24 422.53 40.24 442.65 60.36 442.65 80.48 442.65 80.48 422.53 60.36 422.53" style="fill: #e2cfbf"/>
        <polygon points="80.48 422.53 100.6 422.53 100.6 402.41 80.48 402.41 60.36 402.41 40.24 402.41 40.24 422.53 60.36 422.53 80.48 422.53"/>
        <polygon points="80.48 402.41 100.6 402.41 100.6 382.29 120.72 382.29 120.72 362.17 120.72 342.05 100.6 342.05 80.48 342.05 80.48 362.17 60.36 362.17 60.36 382.29 40.24 382.29 40.24 402.41 60.36 402.41 80.48 402.41" style="fill: #998675"/>
        <polygon points="80.48 342.05 100.6 342.05 120.72 342.05 120.72 362.17 120.72 382.29 140.84 382.29 140.84 362.17 140.84 342.05 140.84 321.93 140.84 301.81 120.72 301.81 120.72 321.93 100.6 321.93 80.48 321.93 60.36 321.93 40.24 321.93 40.24 342.05 60.36 342.05 80.48 342.05"/>
        <polygon points="40.24 382.29 60.36 382.29 60.36 362.17 80.48 362.17 80.48 342.05 60.36 342.05 40.24 342.05 40.24 362.17 40.24 382.29" style="fill: #b2a396"/>
        <rect x="20.12" y="442.66" width="20.12" height="20.12" style="fill: #e2cfbf"/>
        <polygon points="40.24 442.65 40.24 422.53 20.12 422.53 20.12 402.41 20.12 382.29 0 382.29 0 402.41 0 422.53 0 442.65 0 462.78 20.12 462.78 20.12 442.65 40.24 442.65"/>
        <polygon points="20.12 422.53 40.24 422.53 40.24 402.41 40.24 382.29 20.12 382.29 20.12 402.41 20.12 422.53" style="fill: #b2a396"/>
        <polygon points="40.24 362.17 40.24 342.05 20.12 342.05 20.12 362.17 20.12 382.29 40.24 382.29 40.24 362.17"/>
      </g>
    </g>
  </g>
</svg>
