<svg width="1603" height="742" fill="none" xmlns="http://www.w3.org/2000/svg"><path d="M378.212 718.811c-5.999-2.245-7.677-4.444-6.252-8.192.66-1.736 1.928-3.157 2.818-3.157.89 0 4.784 2.047 8.655 4.548 3.871 2.502 8.603 5.118 10.518 5.813l3.48 1.263-4.282.093c-2.355.051-5.809.315-7.677.586-1.867.27-5.134-.159-7.26-.954zm-13.617-11.525c-1.129-.632-3.013-.845-4.185-.473-1.476.469-2.616-.229-3.708-2.27-.868-1.621-2.423-3.238-3.455-3.593-2.37-.815-7.337-8.863-10.102-16.366-1.396-3.789-3.274-6.409-5.503-7.677-3.956-2.25-4.239-3.27-1.177-4.242 3.503-1.112 4.154-7.287 1.206-11.427-1.407-1.977-2.148-4.297-1.724-5.402.5-1.304-.88-3.591-4.224-6.998-4.22-4.301-5.001-5.864-5.19-10.395-.122-2.933-.836-6.073-1.587-6.977-.945-1.14-1.138-5.23-.628-13.315.554-8.763.231-14.172-1.293-21.71-2.265-11.194-3.421-32.052-2.833-51.081.126-4.06-.401-9.634-1.169-12.387-1.872-6.703-10.484-15.164-21.129-20.758-7.613-4-8.683-5.026-11.659-11.171-1.803-3.721-5.247-9.283-7.655-12.359-2.407-3.076-5.025-7.594-5.817-10.039-2.512-7.761-6.942-15.559-9.962-17.538-1.607-1.053-3.439-3.79-4.073-6.084-1.024-3.711-.754-4.747 2.453-9.408 3.478-5.055 3.519-5.261 1.169-5.876-5.775-1.51-3.346-9.228 7.019-22.308 6.889-8.694 8.907-15.317 6.999-22.968-.727-2.915-1.378-5.965-1.447-6.777-.069-.812-.587-1.477-1.151-1.477-.564 0-.455-1.065.241-2.367 1.074-2.006.803-2.579-1.777-3.754-3.761-1.714-9.439-.02-9.461 2.822-.026 3.408-1.525 3.659-6.466 1.083-2.646-1.379-5.395-2.508-6.108-2.508-.714 0-3.487-1.887-6.165-4.193-2.677-2.306-5.531-4.719-6.343-5.361-.812-.643-1.477-2.394-1.477-3.892 0-1.497-1.043-3.667-2.317-4.82-1.275-1.154-2.927-3.943-3.671-6.197-.978-2.964-1.711-3.743-2.643-2.81-1.946 1.945-4.827 1.576-11.819-1.516-3.655-1.617-7.463-4.378-8.985-6.514-1.452-2.039-4.226-4.528-6.165-5.531-3.199-1.654-3.999-1.641-8.66.138l-5.135 1.961-15.754-7.634c-9.691-4.696-17.212-9.175-19.541-11.639-3.612-3.819-3.729-4.234-2.527-8.969 1.101-4.338.914-5.679-1.481-10.626-1.507-3.115-4.801-7.898-7.319-10.63-2.518-2.731-4.292-5.429-3.942-5.995.349-.566-1.425-4.378-3.942-8.472-2.86-4.65-4.878-9.632-5.38-13.277-.642-4.674-1.391-6.104-3.762-7.184-2.514-1.145-3.216-.999-4.655.967-2.027 2.769-1.451 5.692 3.03 15.376 1.821 3.935 3.703 9.769 4.183 12.964.479 3.195 1.894 7.814 3.144 10.266 2.962 5.806 1.05 5.703-3.621-.194-2.755-3.479-3.499-5.386-2.952-7.568.585-2.329.009-3.45-2.854-5.568-4.342-3.21-5.261-5.281-3.666-8.262.93-1.738.503-3.644-1.859-8.306-2.399-4.734-2.901-7.028-2.307-10.544.971-5.747-1.607-10.948-6.414-12.939-2.775-1.15-3.732-2.436-4.297-5.777-.401-2.363-1.167-6.02-1.703-8.127-.558-2.19-.518-4.112.095-4.49.588-.364.203-1.984-.856-3.601-1.56-2.381-1.667-3.508-.563-5.932.75-1.646 1.033-3.528.63-4.182-.404-.653.602-2.607 2.237-4.34 1.634-1.734 3.81-5.191 4.836-7.683 1.025-2.492 4.184-7.112 7.02-10.267 2.836-3.154 6.431-8.68 7.99-12.279 2.163-4.995 3.431-6.548 5.359-6.564 1.39-.01 2.453.645 2.362 1.457-.376 3.383 2.3 2.341 5.305-2.067 1.772-2.599 2.727-4.902 2.124-5.118-.603-.217-1.097-1.194-1.097-2.172 0-.979-2.445-4.155-5.433-7.06-4.957-4.817-5.275-5.456-3.627-7.277 1.335-1.475 1.492-2.558.602-4.149-1.565-2.796.904-9.059 3.582-9.084 1.106-.01 1.421-.387.742-.886-1.523-1.119-2.213-3.661-1.999-7.363.342-5.914-.952-8.388-5.349-10.225-2.372-.991-5.991-3.082-8.042-4.647-2.051-1.564-4.654-2.844-5.784-2.844-1.129 0-6.264-1.075-11.41-2.389-8.274-2.113-9.732-2.196-12.598-.721-5.94 3.057-12.232 4.303-14.798 2.93-1.924-1.03-4.024-.394-11.347 3.436-4.942 2.585-10.846 5.101-13.12 5.592-2.273.49-6.624 2.146-9.668 3.68-8.636 4.352-21.006 8.738-24.428 8.662-2.208-.049-.715-1.018 5.16-3.348 9.986-3.96 20.246-9.116 21.196-10.652 1.169-1.891-1.369-2.57-4.417-1.181-2.244 1.022-3.627.927-6.217-.43l-3.33-1.745 3.623-1.874c4.095-2.117 5.384-4.513 4.443-8.262-.912-3.631 4.113-6.3 14.937-7.932 5.816-.877 10.238-2.337 13.215-4.363 5.249-3.574 4.347-6.274-1.313-3.93-2.679 1.11-4.63 1.122-8.598.053-4.822-1.298-4.994-1.484-2.837-3.06 3.609-2.64 11.073-4.227 15.977-3.398 3.103.524 5.645.157 8.254-1.192l3.77-1.95-2.482-2.64c-1.365-1.454-2.482-2.955-2.482-3.337 0-1.095 7.11-3.287 10.666-3.287 1.774 0 6.639-1.284 10.81-2.855 4.171-1.57 13.794-3.713 21.385-4.763 12.312-1.702 14.919-1.723 24.151-.192 5.691.944 13.537 2.07 17.435 2.501 3.898.432 10.796 1.803 15.33 3.047 10.531 2.89 17.389 2.854 29.154-.15 5.195-1.326 10.445-2.094 11.667-1.706 1.223.388 3.301.129 4.619-.577 1.816-.971 3.224-.854 5.815.486 2.34 1.21 5.23 1.556 9.164 1.096 4.15-.486 7.784.017 13.089 1.81 4.04 1.367 8.526 2.484 9.97 2.484 2.558 0 2.566.044.332 1.687-2.19 1.612-2.196 1.725-.139 2.522 1.183.459 5.294.506 9.133.104 6.934-.724 6.994-.704 8.927 3.035l1.947 3.764 2.527-3.169c1.452-1.82 4.902-3.883 8.112-4.85 4.851-1.46 6.323-1.455 11.196.038 3.439 1.053 7.556 1.437 10.639.991 3.926-.567 5.748-.214 8.31 1.61 3.233 2.303 3.323 2.304 6.191.081 1.601-1.24 4.894-2.808 7.319-3.484 5.805-1.617 7.774-5.064 4.288-7.505-2.465-1.727-2.358-1.86 4.123-5.038 4.833-2.37 7.01-2.908 7.952-1.966.942.942.932 1.978-.035 3.786-1.649 3.081.403 7.738 2.975 6.751.925-.355 2.459-.347 3.408.018 1.493.572 1.469 1.058-.175 3.567-4.541 6.93 5.64 4.967 12.532-2.417 2.802-3.002 7.143-3.913 11.213-2.351 2.628 1.008 2.381 1.834-1.971 6.606-5.186 5.687-7.84 6.85-15.63 6.85-3.765 0-8.209.815-10.28 1.886-2.867 1.483-4.265 1.606-6.526.576-4.215-1.92-5.683-.322-2.659 2.897l2.581 2.747-5.15 1.462c-2.832.804-7.541 1.539-10.464 1.634-4.239.138-5.317.598-5.323 2.274-.006 1.433-2.068 2.943-6.496 4.753-14.348 5.864-26.519 16.439-22.112 19.211.825.52 2.136 2.392 2.912 4.16.894 2.036 2.617 3.457 4.7 3.874 1.808.362 6.477 2.228 10.374 4.148 3.898 1.919 8.681 3.837 10.63 4.261 5.365 1.17 5.412 1.293 2.913 7.632-2.137 5.424-2.181 6.198-.524 9.401.993 1.92 2.456 3.472 3.251 3.449 3.87-.111 7.499-3.683 9.754-9.599 2.149-5.639 3.128-6.691 9.296-9.986 9.103-4.862 12.889-9.65 11.88-15.028-.657-3.502-.316-4.324 2.682-6.459 1.89-1.345 4.391-4.565 5.559-7.155 2.611-5.789 6.806-7.796 13.88-6.64 6.273 1.026 13.692 5.009 14.588 7.832.368 1.159.062 3.241-.679 4.626-1.123 2.097-.911 2.983 1.27 5.304l2.618 2.787 4.274-2.216c2.352-1.219 6.12-3.596 8.374-5.283l4.099-3.067.963 2.603c.53 1.432.68 3.341.335 4.242-.346.902-.077 2.671.597 3.931.759 1.419.818 3.023.155 4.208-.748 1.336-.248 3.366 1.653 6.713 2.723 4.794 2.723 4.798.332 6.473-3.147 2.204-1.128 4.541 2.326 2.693 3.43-1.836 7.357-1.597 9.778.594 3.58 3.24.603 7.116-8.898 11.586-10.335 4.862-14.941 5.825-28.431 5.944-9.961.089-11.28.406-20.964 5.049-5.684 2.724-10.334 5.421-10.334 5.993 0 2.437 1.791 2.225 8.662-1.026 4.049-1.915 9.267-3.446 11.753-3.446 4.245-.001 4.4.13 3.074 2.607-.767 1.435-2.424 3.441-3.68 4.459-1.975 1.599-2.091 2.275-.855 4.989 1.855 4.07 6.698 6.028 12.49 5.051l4.579-.773-3.521 2.429c-1.936 1.335-5.124 2.775-7.086 3.198-1.961.424-5.993 1.993-8.958 3.487-3.01 1.516-6.035 2.319-6.847 1.817-1.869-1.155.104-2.888 6.176-5.426 5.401-2.256 4.538-4.654-1.283-3.562-2.267.426-9.619 3.195-16.337 6.154-10.486 4.619-12.315 5.839-12.926 8.618-.75 3.417-3.31 5.033-12.312 7.771-2.871.874-6.591 2.985-8.267 4.691-1.676 1.707-4.885 4.262-7.131 5.679-2.246 1.416-4.396 3.898-4.778 5.515-.63 2.664-.777 2.727-1.565.675-1.478-3.846-3.705-.086-3.833 6.471-.132 6.719-3.537 11.302-11.006 14.811-7.658 3.598-18.555 12.101-20.763 16.201-1.95 3.619-2.031 5.029-.83 14.332 1.12 8.68 1.053 10.857-.421 13.709-1.101 2.129-2.386 3.147-3.455 2.736-2.534-.972-5.634-11.4-4.765-16.031.604-3.217.204-4.436-2.193-6.687-1.932-1.815-3.715-2.505-5.231-2.024-1.265.402-4.842-.36-7.953-1.694-4.767-2.043-6.288-2.214-9.691-1.091-2.307.761-4.599 2.567-5.35 4.215-1.116 2.451-1.856 2.765-4.94 2.102-1.995-.429-5.063-1.513-6.817-2.41-4.32-2.207-6.74-2.053-11.592.737-2.264 1.302-6.883 3.793-10.265 5.536-3.886 2.003-6.556 4.283-7.256 6.196-.609 1.665-2.787 8.156-4.839 14.424l-3.732 11.396 1.906 7.356c3.502 13.515 8.375 17.561 18.527 15.384 7.654-1.641 12.25-4.967 13.94-10.087 1.073-3.251 2.23-4.326 5.695-5.288 5.215-1.448 7.392-1.502 9.395-.231 1.653 1.049 1.072 2.775-6.328 18.796-5.078 10.993-4.712 11.976 3.987 10.722 7.925-1.143 15.17-.266 16.016 1.939.33.86-.207 6.661-1.193 12.891-1.763 11.147-1.75 11.396.788 15.503 1.419 2.296 4.08 4.951 5.913 5.898 2.925 1.513 3.843 1.51 7.525-.028 5.849-2.444 9.026-2.186 13.089 1.065 3.249 2.599 3.708 2.672 6.261.999 1.515-.992 3.582-3.453 4.594-5.468 2.28-4.543 6.122-7.736 9.35-7.77 1.348-.015 3.7-1.355 5.225-2.979 3.099-3.298 8.554-4.373 5.888-1.16-2.238 2.696-3.517 11.369-2.075 14.064 1.201 2.244 1.297 2.231 3.483-.468 1.555-1.921 1.869-3.153 1.019-4.004-2.029-2.028-1.418-3.714 2.357-6.505 3.919-2.897 6.951-2.6 10.332 1.014 2.48 2.649 15.719 6.231 19.514 5.278 5.778-1.45 21.39 8.043 27.257 16.573 2.793 4.062 11.716 8.149 15.64 7.165 8.071-2.026 19.137 6.061 21.725 15.876.771 2.923 1.933 5.646 2.582 6.05 1.723 1.074-.858 5.316-6.501 10.683-3.605 3.43-4.465 4.906-3.451 5.92 1.014 1.015 2.681.126 6.684-3.564 5.822-5.367 7.765-5.912 10.682-2.995 1.774 1.774 1.72 2.136-.712 4.724-1.449 1.542-3.471 2.837-4.495 2.878-1.078.044-.642.562 1.037 1.232 2.308.922 3.511.662 5.906-1.272 6.236-5.039 7.702-5.281 13.241-2.186 3.601 2.012 5.043 3.543 4.862 5.163-.505 4.504.557 5.501 3.68 3.455 2.481-1.626 4.184-1.703 12.487-.566 8.833 1.209 9.99 1.691 14.227 5.929 3.146 3.146 6.685 5.215 11.13 6.507 5.969 1.735 6.617 2.264 7.7 6.284 1.569 5.829-.27 12.297-5.243 18.441-2.125 2.625-4.729 6.477-5.787 8.562-1.058 2.085-3.309 5.175-5.001 6.867-2.864 2.864-3.024 3.581-2.31 10.383 1.395 13.287-5.104 38.078-11.373 43.38-2.042 1.726-3.788 2.131-7.025 1.63-2.66-.412-4.63-.146-5.149.695-.463.749-3.043 2.329-5.732 3.512-2.689 1.182-6.693 3.69-8.897 5.573-3.815 3.258-3.943 3.619-2.659 7.509 1.481 4.485.484 9.796-2.689 14.325-1.025 1.464-1.864 3.955-1.864 5.536 0 1.58-1.233 4.518-2.739 6.528-1.506 2.01-4.411 6.611-6.456 10.225-5.031 8.891-8.056 10.431-15.35 7.817-6.331-2.269-9.706-2.54-9.706-.78 0 .664 1.261 1.782 2.804 2.484 1.542.703 3.946 3.564 5.341 6.358 2.078 4.16 2.297 5.605 1.215 7.981-1.678 3.682-8.093 6.773-14.055 6.773-5.281 0-6.591 1.292-4.767 4.7 1.126 2.104.368 5.489-1.809 8.084-.176.21-2.026-.499-4.109-1.577-4.975-2.572-6.736-.934-4.222 3.928 1.023 1.977 2.967 3.947 4.321 4.376 2.327.739 2.352.903.46 2.993-1.102 1.217-1.673 3.065-1.272 4.111.432 1.125-.531 3.553-2.356 5.947-2.969 3.891-3.011 4.161-1.108 7.065 1.088 1.66 2.785 3.329 3.771 3.707 3.557 1.365 4.147 6.028 1.435 11.345-2.717 5.326-3.134 10.665-1.031 13.2 1.912 2.303-4.522 6.791-7.415 5.172zm-87.043-511.533c3.156-6.595 9.028-11.506 13.757-11.506 3.404 0 3.444.553.327 4.515l-2.45 3.115 2.514 2.036c2.026 1.641 3.071 1.782 5.381.73 1.576-.718 3.192-2.333 3.59-3.589.543-1.708 1.424-2.107 3.504-1.585 1.925.483 3.13.069 3.922-1.346 2.4-4.288-3.707-9.773-8.203-7.366-3.217 1.721-7.42-1.704-6.523-5.316.333-1.339-.351-3.669-1.536-5.232-2.441-3.222-6.155-3.562-14.283-1.305-2.923.811-6.257 1.439-7.407 1.394-1.151-.044-1.784.419-1.407 1.029.377.61.256 1.121-.27 1.136-.525.014-2.278 1.042-3.894 2.284l-2.939 2.258 3.3 1.255c2.58.981 4.102.841 6.967-.641 3.369-1.742 3.992-1.741 7.668.012 2.214 1.056 5.237 1.598 6.768 1.214 1.522-.382 3.093-.167 3.491.478.407.658-1.256 1.506-3.799 1.936-6.912 1.168-10.504 4.046-15.517 12.437-4.188 7.008-4.428 7.853-2.759 9.706 1.638 1.818 2.09 1.847 4.337.275 1.379-.965 3.837-4.531 5.461-7.924zm21.458 7.29c4.204-2.145 4.609-2.684 3.127-4.165-1.482-1.482-2.418-1.385-7.238.747-5.66 2.503-7.456 5.881-3.127 5.881 1.325 0 4.582-1.108 7.238-2.463zm20.942-8.925c2.46-1.723 2.551-2.061.816-3.032-2.554-1.429-10.146 1.034-10.146 3.292 0 2.326 5.871 2.163 9.33-.26zm88.699 510.037c0-.52.638-1.583 1.417-2.362.78-.78.971-1.418.426-1.418-.546 0-1.63.872-2.408 1.937-1.119 1.53-1.891 1.661-3.674.627-1.274-.74-1.584-1.326-.711-1.347.85-.02 1.217-.567.816-1.217-.771-1.247 1.256-1.587 7.086-1.189 5.204.356 5.728 1.116 2.511 3.646-2.996 2.357-5.463 2.954-5.463 1.323zM1395 674.513c-3.38-2.141 3.66-6.868 21.1-14.177 4.88-2.041 12.3-6.31 16.5-9.486 7.15-5.401 7.74-5.635 9.16-3.614 2.14 3.069.88 5.29-4.37 7.657-2.51 1.131-5.66 3.324-7.01 4.873-1.35 1.548-3.51 2.815-4.82 2.815-1.3 0-4.36 1.79-6.79 3.978-8.35 7.488-18.92 11.026-23.77 7.954zm-82.66-15.343c-1.22-.778-1.29-1.578-.29-3.447.72-1.339 1.3-4.1 1.3-6.136 0-3.327.27-3.606 2.66-2.765 1.46.514 4.52 1.004 6.79 1.089 2.27.085 4.54.232 5.05.326 1.95.367-3.28 6.323-7.98 9.078-5.6 3.281-5.37 3.224-7.53 1.855zm136.48-10.328c-.41-.411.56-1.777 2.16-3.036 2.41-1.896 2.69-2.697 1.64-4.666-1.52-2.849.74-5.906 5.99-8.078 4.06-1.684 5.08-5.099 3.99-13.342-.75-5.671-.65-6.025 1.17-4.513 1.44 1.186 1.79 2.681 1.28 5.408-.56 2.988-.06 4.541 2.43 7.503 2.7 3.2 3.5 3.548 5.59 2.427 2.09-1.117 2.33-1.016 1.68.697-.43 1.103-.77 2.214-.77 2.469 0 .255-1.73 1.348-3.84 2.429-2.11 1.081-6.23 3.94-9.15 6.354-4.76 3.924-9.65 7.095-10.95 7.095-.26 0-.81-.336-1.22-.747zm-124.89-15.254c-2.49-2.647-2.95-2.749-5.34-1.184-3.04 1.995-8.76.83-13.35-2.72-2.45-1.894-2.62-2.505-1.36-4.862 1.08-2.012 1.12-3.422.14-5.555-.71-1.572-1.3-3.897-1.3-5.165 0-2.862-1.86-2.998-3.39-.25-.64 1.131-1.49 1.719-1.91 1.305-.41-.413.96-2.695 3.04-5.07 5.13-5.845 3.13-7.432-3.65-2.892-2.92 1.956-5.5 4.093-5.73 4.749-.23.656-1.63-1.368-3.12-4.498-1.61-3.393-4.39-6.804-6.89-8.449-3.75-2.473-5.02-2.676-12.23-1.959-10.57 1.052-20.77 3.659-27.45 7.016-3.03 1.525-8.96 3.087-13.52 3.566-4.47.469-11.58 2.151-15.8 3.739-6.45 2.428-8.28 2.683-11.55 1.604-4.38-1.447-6.2-4.429-3.37-5.517 1.03-.394 2.89-3.104 4.14-6.023 2-4.672 2.12-6.126.93-12.162-.98-4.995-1.01-9.723-.1-17.412.68-5.805.95-11.698.58-13.095-.36-1.397.21-4.817 1.27-7.6 1.87-4.907 2.33-5.228 15-10.594 7.18-3.044 14.54-5.535 16.34-5.535 4.89 0 10.93-4.644 14.26-10.956 2.06-3.901 3.49-5.385 4.73-4.907 3.45 1.333 4.13 1.071 3.86-1.486-.17-1.645.54-2.842 1.95-3.288 1.21-.386 3.46-2.537 4.99-4.779 1.57-2.296 4.79-4.883 7.37-5.92 4.31-1.732 4.74-1.706 7.09.426 4.32 3.933 7.39 5.082 8.86 3.317.71-.858.95-1.898.54-2.311-1.35-1.352 4.83-9.114 7.86-9.859 1.62-.401 4.96-1.733 7.41-2.961 3.82-1.915 5.16-2.042 9.44-.892 9.24 2.479 9.54 2.884 6.11 8.074-4.42 6.675-3.25 9.285 7.59 16.91 5 3.521 9.72 6.192 10.49 5.935.77-.256 3.2-2.952 5.41-5.99 3-4.141 4.17-7.152 4.65-12.02.68-6.917 3.99-16.535 5.68-16.535.56 0 1.85 2.844 2.86 6.321 1.01 3.476 3.13 7.533 4.71 9.016 3.68 3.464 5.83 13.15 4.17 18.873-1.1 3.792-.88 4.401 2.88 8.268 2.23 2.296 5.76 7.894 7.84 12.441 2.08 4.548 5.84 10.981 8.35 14.298l4.55 6.03-1.29 9.316c-.94 6.758-2.4 11.263-5.3 16.41-4.45 7.884-11.11 15.407-14.62 16.521-1.26.4-4.18 3.359-6.49 6.576-2.31 3.216-4.72 5.847-5.36 5.847-.64 0-3.34 2.761-6 6.134-4.45 5.626-5.27 6.142-9.9 6.229-3.56.067-6.28 1.031-9.2 3.258l-4.15 3.164-2.72-2.897zm-575.915-24.832c-2.501-2.502-2.919-3.781-2.36-7.226.526-3.241.025-5.148-2.222-8.454-1.596-2.349-2.901-4.848-2.901-5.554 0-.706-2.089-4.083-4.641-7.504-3.946-5.288-4.756-7.401-5.407-14.091-1.148-11.805-4.917-24.583-9.984-33.844-2.49-4.553-4.883-10.464-5.316-13.136-.923-5.686 1.386-14.149 6.657-24.403l3.507-6.821-1.97-5.932c-1.103-3.319-1.641-7.246-1.223-8.914.49-1.951-.036-4.276-1.525-6.734-1.25-2.064-3.106-6.677-4.125-10.249-1.361-4.773-3.258-7.875-7.15-11.693-7.485-7.344-8.458-10.235-6.135-18.227 4.729-16.268-.38-25.756-12.861-23.884-4.86.728-5.046.638-5.732-2.796-.527-2.634-1.955-4.183-5.54-6.012-4.658-2.376-6.652-2.385-12.372-.056-1.299.529-6.614 2.363-11.811 4.075-7.814 2.575-10.16 2.907-13.561 1.92-3.223-.934-5.937-.692-12.531 1.117-6.813 1.869-9.283 2.07-12.964 1.053-7.682-2.121-20.88-14.017-22.758-20.512-1.453-5.026-10.488-16.739-13.562-17.583-1.954-.537-2.195-.952-.998-1.724 1.203-.777.994-1.17-.886-1.661-2.985-.781-3.282-3.22-.395-3.245 1.766-.016 1.809-.185.295-1.163-1.116-.721-1.24-1.152-.335-1.163.938-.012.581-1.469-1.029-4.197-2.265-3.839-2.312-4.346-.582-6.259 5.284-5.839 6.442-18.41 2.425-26.331-1.917-3.781-.684-9.004 3.408-14.434 1.541-2.045 4.549-7.019 6.685-11.055 3.736-7.06 12.064-16.874 14.318-16.874 2.494 0 10.542-8.652 10.542-11.334 0-6.054 3.62-12.091 9.521-15.878 3.172-2.034 6.887-5.514 8.258-7.732 2.804-4.536 3.201-4.684 6.466-2.408 1.281.893 4.465 1.982 7.075 2.42 3.981.667 5.884.187 11.811-2.983 10.198-5.454 16.5-6.816 28.168-6.088 7.696.48 11.161.173 14.891-1.32 5.494-2.198 10.243-.897 8.958 2.454-.387 1.007-.151 2.496.524 3.309.849 1.023.842 2.489-.022 4.761-1.085 2.855-.844 3.705 1.845 6.512 1.701 1.776 4.747 3.559 6.769 3.963 9.492 1.899 12.191 3.128 14.151 6.446 1.436 2.431 3.318 3.679 6.43 4.263 2.421.454 5.935 1.619 7.81 2.588 3.184 1.647 3.597 1.587 6.253-.908 1.785-1.677 2.595-3.452 2.176-4.772-.367-1.156-.088-3.184.621-4.508 1.827-3.414 7.015-3.079 15.116.976 8.826 4.419 25.562 7.571 31.496 5.933 2.854-.788 5.598-.799 8.096-.031 8.161 2.509 12.34.545 13.454-6.32.37-2.28 1.002-4.146 1.404-4.146.764 0 1.163-3.428 1.274-10.925.036-2.436.611-4.429 1.279-4.429.796 0 .756-.855-.113-2.481-1.453-2.714-4.398-2.652-11.448.241-3.343 1.372-4.274 1.314-7.268-.455-3.884-2.294-7.87-2.638-9.019-.779-.854 1.383-6.893.414-10.169-1.632-2.353-1.469-4.551-5.843-4.551-9.055 0-1.232-1.196-3.082-2.658-4.112-2.262-1.593-2.394-2.044-.886-3.031.975-.638 2.979-.876 4.454-.529 1.882.443 3.612-.298 5.797-2.482 2.055-2.056 4.555-3.191 7.356-3.339 2.334-.124 5.714-1.195 7.512-2.38 3.903-2.571 12.763-1.857 19.638 1.584 9.271 4.641 17.504 4.368 20.818-.69 1.724-2.631 1.733-3.184.097-5.681-.997-1.521-5.785-5.026-10.641-7.788l-8.828-5.023 1.654-3.199c.91-1.759 1.356-3.496.992-3.86-.364-.364-.224-1.362.31-2.217s1.074-2.241 1.202-3.08c.271-1.789-1.634-1.295-11.027 2.859-5.452 2.411-6.262 3.15-5.053 4.607.792.955 2.571 1.76 3.953 1.788 1.939.041 1.48.598-2.008 2.438-4.235 2.234-4.707 2.263-7.461.459-2.354-1.542-2.662-2.26-1.546-3.604 1.107-1.335.942-1.848-.807-2.506-1.21-.454-2.77-1.586-3.466-2.514-3.383-4.51-14.116 7.352-17.238 19.05-1.465 5.491-1.416 5.776 1.342 7.857l2.862 2.159-5.251 1.083c-2.888.596-6.781.665-8.65.154-3.45-.942-7.821.478-7.821 2.541 0 .607-.804.794-1.787.417-.983-.377-2.543-.058-3.467.709-1.433 1.189-1.271 2.164 1.104 6.631 2.573 4.839 2.653 5.501 1.048 8.718-2.011 4.031-3.881 3.731-6.722-1.078-1.98-3.352-1.967-3.429.653-3.801 3.307-.47 3.52-2.575.313-3.088-7.318-1.17-11.221-5.026-11.221-11.086 0-4.729-4.383-9.942-9.7-11.535-2.762-.828-5.765-2.565-6.673-3.862-.908-1.296-3.566-3.157-5.907-4.135-2.34-.978-4.96-2.784-5.821-4.013-1.235-1.765-2.048-1.977-3.857-1.008-1.261.674-2.293 1.986-2.293 2.916 0 3.066 15.054 16.939 22.413 20.653 7.802 3.939 9.02 5.345 3.6 4.155-4.833-1.062-6.15.001-4.496 3.629 1.161 2.548.971 3.323-1.365 5.568l-2.714 2.607.618-3.518c.98-5.585-6.384-13.607-12.49-13.607-2.238 0-10.838-8.343-13.091-12.699-2.407-4.655-5.086-5.555-8.881-2.982-5.716 3.876-10.002 5.187-14.486 4.429-5.956-1.006-9.704 1.071-8.755 4.853.496 1.974.22 2.855-.893 2.855-.886 0-3.155 1.328-5.043 2.952-1.887 1.623-3.838 2.951-4.334 2.952-1.461.002-5.584 7.464-5.589 10.115-.005 2.535-4.623 7.531-9.08 9.821-1.419.729-4.722 1.325-7.34 1.325-3.602 0-5.078.594-6.066 2.44-1.294 2.418-1.333 2.412-4.36-.615-2.84-2.839-4.475-3.55-10.206-4.436-3.011-.466-3.519-7.282-1.267-16.993.962-4.151 1.435-8.802 1.05-10.337-1.119-4.459 2.384-7.088 8.245-6.188 13.533 2.079 21.449 2.194 23.305.338 2.549-2.549 3.699-10.958 2.143-15.672-1.015-3.075-2.41-4.333-6.575-5.923-6.125-2.339-6.254-4.602-.266-4.662 2.281-.023 5.573-.975 7.314-2.116 1.741-1.141 3.666-1.765 4.279-1.386 1.669 1.032 7.992-2.613 10.091-5.817 1.015-1.549 3.013-3.113 4.44-3.477 1.428-.364 5.253-3.137 8.501-6.163 4.604-4.289 7.021-5.634 10.969-6.105 4.892-.584 9.81-4.607 7.501-6.134-1.435-.95-2.634-6.669-1.835-8.752.379-.987 2.051-2.687 3.716-3.778l3.027-1.983-.777 4.859c-.675 4.218-.503 4.814 1.303 4.513 1.143-.192 3.283-1.009 4.754-1.818 2.241-1.23 2.79-1.17 3.38.369 1.013 2.637-1.801 5.739-3.744 4.126-1.073-.89-1.754-.858-2.353.112-.618 1-1.102.946-1.813-.204-.533-.862-1.24-1.297-1.571-.966-.332.332.613 2.127 2.098 3.99 2.504 3.14 2.981 3.289 6.55 2.045 3.056-1.065 4.523-.993 7.125.353 2.938 1.519 3.93 1.447 9.576-.699 4.946-1.879 6.896-2.12 9.085-1.123 2.015.918 3.507.899 5.378-.068 5.312-2.745 6.784-4.815 6.124-8.614-.977-5.632.813-7.477 5.529-5.697 3.209 1.212 4.146 1.164 5.597-.287 1.535-1.535 1.403-2.102-1.113-4.781-2.421-2.577-2.591-3.218-1.115-4.214.957-.646 4.545-.877 7.973-.514 6.273.664 14.09-1.786 12.728-3.99-1.193-1.93-8.393-2.488-14.493-1.123-5.41 1.211-6.83 1.113-10.976-.757-6.44-2.904-7.198-6.301-2.781-12.457 5.685-7.924 6.725-10.45 5.105-12.4-2.398-2.89-4.754-1.948-10.232 4.09-2.895 3.192-6.84 6.456-8.766 7.254-1.927.798-4.31 3.01-5.296 4.917-1.605 3.106-1.603 3.756.025 6.24.999 1.526 2.894 3.115 4.21 3.533 3.623 1.15 2.906 3.308-2.276 6.854-1.594 1.091-3.72 4.176-4.724 6.856-1.259 3.359-3.172 5.651-6.157 7.374-4.208 2.43-4.399 2.439-6.725.335-1.316-1.191-2.712-3.621-3.103-5.399-.39-1.778-2.164-4.975-3.942-7.104l-3.231-3.871-4.098 2.498c-2.253 1.373-5.16 2.488-6.459 2.476-3.748-.035-8.087-4.084-8.378-7.817-.144-1.855-.626-4.283-1.071-5.395-1.058-2.645 4.231-7.607 9.727-9.124 5.516-1.523 16.704-9.364 18.61-13.043.849-1.637 3.722-4.93 6.386-7.318 2.664-2.389 4.843-4.87 4.843-5.513 0-.643 2.525-2.069 5.61-3.169 3.086-1.099 8.268-3.094 11.516-4.433 3.987-1.643 8.973-2.512 15.354-2.676 11.147-.285 18.438 1.193 24.453 4.957 3.019 1.888 5.401 2.532 7.68 2.077 4.078-.816 25.815 5.922 26.721 8.282.91 2.372-5.324 4.611-10.688 3.839-2.457-.354-7.538-1.3-11.291-2.103-5.052-1.08-7.168-1.114-8.152-.131-.983.983-.492 1.709 1.893 2.795 1.772.807 3.99 2.954 4.929 4.77 2.391 4.623 10.049 8.392 14 6.89 3.796-1.443 3.77-1.898-.236-4.071-3.704-2.01-1.994-2.444 2.658-.675 3.715 1.412 7.924-.345 6.943-2.9-.459-1.195.832-2.06 4.473-2.992 7.793-1.997 8.363-2.282 7.717-3.862-2.445-5.977-2.479-5.806 1.078-5.4 1.898.217 3.284 1.029 3.127 1.831-.156.793.833 2.039 2.198 2.77 2.05 1.096 3.667.706 9.304-2.25 8.266-4.332 14.702-5.745 17.102-3.753 1.338 1.11 3.557 1.118 9.979.035 4.542-.767 8.774-1.074 9.405-.685.63.39 1.495.145 1.92-.543.931-1.506-1.643-4.923-3.052-4.052-1.701 1.05-7.287-.832-6.072-2.048 1.224-1.223 34.092 6.436 36.059 8.403 1.326 1.326 5.525-.443 5.525-2.328 0-.635-2.344-2.293-5.209-3.685-8.884-4.316-9.454-11.228-1.1-13.325 4.849-1.217 6.945.187 13.651 9.14 8.707 11.623 8.485 11.032 5.64 15.027-2.106 2.958-2.233 3.65-.772 4.21 2.769 1.063 8.696-2.655 9.53-5.978.977-3.894-.848-7.212-5.205-9.466-3.426-1.771-5.906-5.017-5.906-7.73 0-.925 1.285-1.156 3.839-.69 3.828.7 6.995-.688 15.666-6.868 1.983-1.413 5.335-2.344 8.715-2.42 6.855-.156 9.074-1.307 7.101-3.684-.773-.933-1.16-1.941-.86-2.242 1.509-1.508 20.953-4.226 25.431-3.555 4.309.646 5.642.297 9.187-2.407 2.281-1.74 4.149-3.632 4.149-4.204 0-1.444-10.322-1.315-11.222.14-1.237 2.002-2.84 1.305-2.389-1.038.381-1.979-.619-2.3-9.221-2.97-23.492-1.83-25.401-2.259-22.583-5.077 2.478-2.477 8.555-2.43 13.642.108 2.084 1.04 5.536 1.89 7.671 1.89 2.136 0 4.212.532 4.613 1.182.402.65 2.47 1.18 4.597 1.18 5.891 0 17.282 2.545 16.562 3.701-.34.563.76 1.024 2.45 1.024 1.7 0 4.78.915 6.86 2.034 2.8 1.504 6.7 2.045 15 2.079 8.92.035 11.89.494 14.47 2.235 1.79 1.205 3.24 2.529 3.23 2.941-.01.413-2.73 2.25-6.06 4.082-8.02 4.427-6.32 6.356 3.38 3.841 6.29-1.629 7.73-1.639 12.94-.093 4.27 1.267 6.93 1.43 9.83.6 2.89-.83 5.86-.651 10.89.653 5.25 1.361 7.98 1.5 11.3.575 7.6-2.11 16.95-1.514 22.37 1.427 2.7 1.461 7.67 4.165 11.05 6.01 5.99 3.267 6.25 3.303 10.41 1.44 3.48-1.559 5.42-1.69 10.55-.709 5.1.975 6.95.857 9.82-.629 2.81-1.453 3.27-2.167 2.19-3.459-2.07-2.498 5.29-3.427 14.33-1.808 4.14.741 9.39 1.482 11.66 1.645 2.27.163 6.72 1.459 9.87 2.879 4.81 2.166 8.45 2.657 22.53 3.044 13.36.367 17.61.901 20.83 2.619 3.27 1.743 7 2.187 19.41 2.308 11.41.111 16.52.652 19.9 2.107 5.47 2.349 7.65 1.487 4.68-1.842-2.14-2.395-2.13-2.398 6.12-1.579 13.83 1.374 30.41 4.399 36.03 6.572 2.92 1.13 8.49 2.445 12.38 2.92 3.88.476 9.55 2.127 12.6 3.67 4.62 2.342 6.12 2.6 9.09 1.566 4.06-1.414 6.69-.396 12.89 4.987l3.85 3.344-2.9.729c-2.92.73-10.65-1.184-13.32-3.295-.78-.621-1.88-.846-2.44-.5-.56.345-3.32-.166-6.14-1.137-6.59-2.273-9.52-1.42-6.52 1.901 2.05 2.268 2.01 2.315-1.9 2.042-7.33-.51-5.31 1.652 5.44 5.846 5.84 2.28 10.88 4.388 11.18 4.685 1.11 1.073-2.54 2.403-5.2 1.894-2.92-.558-10.12 2.576-10.12 4.406 0 .607-1.13 2.164-2.52 3.458-2.32 2.162-2.8 2.212-5.91.606-2.9-1.502-3.83-1.518-6.62-.111-1.79.9-4.84 2.019-6.79 2.487-1.94.469-4.2 1.401-5.01 2.072-2.37 1.973 1.82 7.715 7.72 10.572 3.22 1.556 5.54 3.642 6.24 5.585.6 1.706 1.89 4.507 2.86 6.226 1.57 2.8 1.56 3.199-.13 3.848-1.24.476-1.61 1.43-1.07 2.781.45 1.132.96 3.386 1.14 5.01.17 1.624.69 3.835 1.15 4.913.61 1.403.11 2.194-1.75 2.785-2.08.658-3.47-.134-6.88-3.902-2.35-2.6-6.27-6.179-8.72-7.954-2.44-1.775-6.82-6.391-9.72-10.258-5.13-6.82-5.24-7.131-3.53-10.421.96-1.865 1.77-4.614 1.79-6.108.03-1.493.77-4.036 1.67-5.649 1.7-3.081 1.05-5.541-2.6-9.725-2.4-2.747-6.66-.688-5.58 2.697.99 3.119-2.05 4.129-5.54 1.843-1.51-.991-5-2.16-7.75-2.598-4.71-.753-5.06-.608-6.28 2.597-.71 1.868-1.01 4.819-.67 6.559.54 2.712.17 3.267-2.62 3.88-1.9.417-5.15-.077-7.8-1.184-2.91-1.216-5.65-1.583-7.62-1.022-1.7.481-7.43.919-12.73.972-8.41.083-10.03.45-12.58 2.85-1.62 1.515-3.55 5.235-4.31 8.268-.75 3.032-2.14 6.696-3.08 8.142-1.62 2.499-1.46 2.751 3.17 5.113 5.02 2.562 10.5 3.238 14.65 1.806 3.21-1.105 12.98 6.513 16.03 12.493 1.25 2.45 3.31 5.012 4.59 5.694 4.82 2.582 5.8 19.522 1.77 30.597-2.79 7.668-5.92 10.175-10.51 8.429-1.76-.666-3.37-1.212-3.58-1.212-.22 0-1.54 2.18-2.92 4.845-1.83 3.5-2.18 5.263-1.28 6.347 1.72 2.073.44 4.771-3 6.339-1.59.723-2.89 1.83-2.89 2.459s3.7 3.687 8.22 6.795c5.74 3.954 8.81 6.991 10.22 10.114 1.11 2.454 1.8 4.658 1.53 4.896-.26.238-2.68 1.541-5.36 2.896l-4.89 2.462-2.94-6.746c-3.29-7.551-6.11-10.587-11.08-11.925-2.5-.674-3.37-1.629-3.37-3.697 0-1.895-1.23-3.506-3.83-5.031-3.79-2.222-3.87-2.219-7.9.275-4.04 2.496-4.09 2.497-5.33.18-.69-1.286-1.25-3.151-1.25-4.145 0-.995-.99-2.339-2.21-2.989-1.8-.965-2.94-.382-6.26 3.207-2.23 2.413-5.08 4.974-6.34 5.691-1.96 1.114-2.07 1.584-.72 3.211.87 1.048 3.88 3.186 6.68 4.752 4.45 2.489 5.3 2.631 6.81 1.129 1.42-1.428 2.59-1.48 6.9-.311l5.18 1.407-2.89 1.931c-5.36 3.581-7.05 5.461-7.81 8.692-.63 2.652-.25 3.45 2.13 4.535 1.59.724 4 3.613 5.37 6.419 1.36 2.807 4.08 6.053 6.05 7.214 4.32 2.553 5.57 5.266 3.08 6.663-2.33 1.303-1.22 3.249 1.85 3.249 3.68 0 3.7 2.194.15 14.859-4.31 15.337-8.19 20.454-18.36 24.175-4.01 1.465-8.88 2.752-10.83 2.86-4.53.25-8.04 2.169-11.11 6.065l-2.43 3.092-1.13-2.984c-1.48-3.893-4.88-4.872-9.75-2.811-4.46 1.889-7.41 4.901-8.6 8.796-1.06 3.485 2.7 9.616 8.93 14.548 5.12 4.05 10.85 14.212 12.2 21.606 1.17 6.431-.91 10.653-6.47 13.164-2.54 1.144-4.92 3.021-5.28 4.17-.88 2.759-6.12 6.194-7.08 4.638-.4-.648-.42-2.161-.04-3.363s.37-3.048-.04-4.102c-.58-1.516-1.23-1.653-3.09-.655-1.94 1.04-2.69.776-4.26-1.498-3.86-5.589-15.03-14.57-18.12-14.57-1.09 0-1.52 1.312-1.33 4.134.15 2.273-.31 6.706-1.03 9.85-1.17 5.123-1.05 6.062 1.15 9.035 1.35 1.825 2.79 4.654 3.2 6.287.42 1.658 3.83 5.445 7.74 8.578 6.51 5.222 7.2 6.253 9.94 14.927 1.62 5.124 2.94 9.821 2.94 10.437 0 2.004-2.47 1.192-7.62-2.506-5.32-3.823-8.72-9.87-11.55-20.559-1.23-4.642-2.58-6.631-6.41-9.449-4.7-3.456-4.84-3.757-4.47-9.475.22-3.248.75-7.851 1.19-10.23.61-3.349.1-5.748-2.25-10.63-1.67-3.467-3.65-8.793-4.39-11.834-1.66-6.794-4.01-7.932-8.16-3.956-1.72 1.645-3.45 2.99-3.86 2.99-1.88 0-4.46-4.002-3.84-5.954 1.12-3.545-5.8-15.903-9.84-17.58-2.22-.918-4.25-3.143-5.6-6.15-2.36-5.222-5-7.221-7.64-5.776-.96.524-4.79 1.578-8.52 2.343-6.83 1.401-9.28 3.471-8.35 7.048.35 1.317-.85 2.59-3.72 3.957-2.32 1.109-4.83 3.338-5.56 4.955-.74 1.616-2.36 3.262-3.61 3.657-1.24.396-3.16 2.203-4.27 4.017-1.1 1.814-4.38 5.129-7.3 7.367-3.98 3.063-5.22 4.776-5.03 6.931 1.16 12.595-.62 23.132-4.95 29.39-4.23 6.104-4.53 6.274-8.11 4.643-1.97-.897-3.18-2.65-3.68-5.326-.41-2.194-2.79-8.375-5.29-13.736-15.1-32.436-17.33-38.625-16.05-44.482.87-3.958-1.21-9.931-3.23-9.254-.81.271-1.48 1.244-1.5 2.163-.1 5.391-6.157 6.218-10.888 1.488l-3.134-3.135 2.696-.998c3.035-1.122 2.756-4.149-.33-3.595-1.097.198-3.607-.998-5.578-2.657-1.972-1.659-4.039-3.016-4.595-3.016s-1.35-1.069-1.765-2.375c-1.089-3.43-7.354-6.414-10.494-4.998-2.826 1.274-28.462 1.008-32.754-.34-1.545-.485-4.404-2.707-6.353-4.938-3.522-4.03-3.576-4.046-8.858-2.622-5.005 1.349-5.732 1.222-12.474-2.182-5.826-2.94-7.571-4.527-9.37-8.515-2.294-5.088-7.39-8.772-10.489-7.583-.975.374-2.115 2.235-2.532 4.134-.599 2.728.012 4.5 2.907 8.438 2.017 2.742 4.213 7.017 4.882 9.501 1.437 5.334 4.273 6.921 6.625 3.706 1.419-1.941 1.802-2.009 2.762-.488.614.972.945 2.298.736 2.947-.657 2.042 6.158 5.402 9.338 4.604 1.607-.404 5.041-3.141 7.631-6.083 4.08-4.636 5.505-4.948 4.807-1.056-.469 2.62 1.592 5.691 5.005 7.455 5.27 2.725 12.612 8.794 12.612 10.426 0 .753-1.38 2.657-3.067 4.231-1.688 1.575-4.116 4.907-5.397 7.405-3.111 6.069-12.131 14.946-15.185 14.946-3.529 0-8.78 2.981-10.871 6.171-.99 1.512-3.594 3.644-5.785 4.738-11.226 5.604-24.742 11.285-28.545 11.999-4.067.763-4.397.578-6.551-3.67-1.248-2.461-2.663-7.397-3.146-10.97-.627-4.647-1.844-7.6-4.274-10.376-1.868-2.133-3.397-4.391-3.397-5.018 0-.626-2.131-3.335-4.736-6.019-3.245-3.343-5.341-6.971-6.655-11.517-1.055-3.65-3.203-8.23-4.772-10.179-10.839-13.461-14.049-18.207-15.665-23.163-2.141-6.569-3.952-7.63-4.788-2.805l-.593 3.425-3.996-5.045c-6.156-7.773-6.932-4.24-1.152 5.25 2.735 4.491 7.095 12.417 9.688 17.614 2.594 5.196 5.956 11.093 7.472 13.103 1.561 2.069 2.757 5.305 2.757 7.459 0 4.451 1.328 7.228 6.543 13.689 2.098 2.598 4.171 6.392 4.606 8.43.558 2.614 2.838 5.347 7.739 9.278 7.448 5.975 12.274 12.21 13.472 17.407.45 1.952 2.155 3.956 4.316 5.074 3.294 1.703 4.454 1.656 14.862-.599 6.21-1.345 12.787-3.22 14.617-4.166l3.328-1.721.789 4.675c.718 4.248-.054 6.295-8.462 22.421-9.041 17.339-9.463 17.912-18.452 25.008-5.06 3.995-10.355 8.885-11.767 10.868-1.412 1.982-5.928 7.337-10.037 11.899-11.991 13.313-13.621 25.022-5.668 40.716 2.02 3.986 2.809 7.004 2.33 8.912-.398 1.586-.143 5.593.567 8.905 1.118 5.213.992 6.607-.943 10.399-2.793 5.472-5.014 7.439-12.821 11.35-3.41 1.709-6.2 3.612-6.2 4.229s-2.392 3.815-5.315 7.106c-2.923 3.292-5.315 6.519-5.315 7.173 0 .654 1.096 3.337 2.435 5.962 4.015 7.87 1.317 13.573-8.307 17.559-4.057 1.681-5.389 5.112-4.386 11.297.526 3.24.192 4.319-1.644 5.301-1.268.679-3.56 3.204-5.093 5.612-4.842 7.603-18.759 21.057-25.081 24.246-5.276 2.662-6.625 2.896-10.502 1.826-3.417-.944-6.175-.794-11.905.645-9.281 2.331-8.296 2.428-11.89-1.166zM903.578 232.05c3.049-1.576 3.485-2.444 3.485-6.942 0-3.224-.689-5.712-1.849-6.674-1.018-.845-2.666-3.113-3.663-5.041-1.65-3.19-1.643-3.441.078-2.781 2.272.872 5.434-.177 5.434-1.802 0-.642-1.099-2.71-2.442-4.596-2.023-2.841-2.833-3.22-4.724-2.208-1.529.818-2.283.826-2.283.023 0-.66-2.108-2.274-4.684-3.589-5.702-2.909-7.731-6.132-5.953-9.455 1.346-2.515 6.155-4.277 8.208-3.008 2.769 1.711 3.585-.811 1.3-4.019-5.539-7.779-13.252-7.267-22.818 1.515-6.172 5.667-6.708 7.173-3.217 9.042 1.299.695 2.362 2.054 2.362 3.02 0 .966 2.101 4.036 4.668 6.821 5.914 6.416 6.999 9.347 6.267 16.94l-.589 6.113 8.114 4.163c4.463 2.29 8.273 4.19 8.468 4.222.195.032 1.922-.753 3.838-1.744zM871.04 561.96c-3.334-1.891-3.808-2.89-4.679-9.861-.696-5.571-.406-6.782 2.927-12.198 3.387-5.504 3.63-6.565 2.883-12.544-1.078-8.633.758-13.17 5.775-14.271 4.728-1.037 14.957-10.067 17.408-15.367l1.873-4.05 1.301 2.857c3.276 7.188 2.942 10.346-2.756 26.113-3.049 8.437-6.32 18.528-7.269 22.426-3.037 12.473-4.763 15.481-9.737 16.971-5.297 1.587-4.784 1.592-7.726-.076zm581.8-20.534c-3.77-4.123-6.03-7.661-6.03-9.448 0-3.963.64-3.617 4.05 2.198 1.63 2.781 4.57 6.601 6.54 8.489 1.97 1.887 3.59 3.864 3.59 4.392 0 2.272-2.52.535-8.15-5.631zm-526.88-1.676c0-.65.532-1.181 1.181-1.181.65 0 1.181.531 1.181 1.181 0 .649-.531 1.181-1.181 1.181a1.185 1.185 0 01-1.181-1.181zm621.96-2.155c-.41-.674-.18-1.581.52-2.016 1.76-1.084 2.38-.222 1.21 1.674-.63 1.015-1.24 1.136-1.73.342zm-613.692-1.909c0-.287.531-.85 1.181-1.251.649-.402 1.181-.167 1.181.521 0 .688-.532 1.25-1.181 1.25-.65 0-1.181-.234-1.181-.52zm582.982-11.987c-1.15-2.998.31-4.049 3.56-2.566 2.81 1.281 2.88 1.477.92 2.908-2.74 2.003-3.61 1.937-4.48-.342zm7.48-5.253c-2.31-1.426-.71-2.565 2.96-2.111 2.88.355 2.95.485.89 1.752-1.31.809-2.88.956-3.85.359zm-55.14-4.334c-2.43-5.223-1.58-7.229.93-2.202 2.61 5.232 2.66 5.403 1.43 5.39-.49-.005-1.55-1.44-2.36-3.188zm4.52-.838c-.05-1.245.23-1.943.62-1.55.39.392.44 1.411.09 2.264-.37.942-.65.662-.71-.714zm96.15-11.34c-1.08-1.748-.05-2.642 2.47-2.15 1.84.36 1.86.552.2 1.933-1.33 1.101-2.08 1.163-2.67.217zm-697.999-5.884c-.401-.65-.167-1.181.521-1.181.688 0 1.251.531 1.251 1.181s-.234 1.181-.521 1.181c-.286 0-.849-.531-1.251-1.181zm518.489-11.096c-7.47-2.357-10.86-4.546-13.8-8.918-3.36-4.995-9.51-8.776-12.65-7.779-1.27.403-3.41 2.594-4.75 4.869-2.29 3.873-2.73 4.086-6.88 3.348-2.44-.433-5.85-2.104-7.57-3.713-2.2-2.044-3.88-2.69-5.59-2.147-1.35.428-3.3.302-4.34-.279-1.62-.908-1.46-1.334 1.14-3.036 3-1.971 3.01-1.997.99-6.229-1.62-3.399-3.86-5.17-11.17-8.847-5.03-2.528-10.71-4.597-12.63-4.597-4.39 0-6.21-4.048-2.9-6.468 1.97-1.439 1.68-1.796-3.45-4.291-5.46-2.648-5.53-2.76-2.93-4.207 1.47-.817 3.84-1.504 5.27-1.527 2.76-.045 6.26 3.948 6.26 7.148 0 1.067 1.15 3.4 2.56 5.185 2.51 3.197 2.58 3.211 4.43.902 1.03-1.289 4.32-3.747 7.32-5.463l5.44-3.12 7.55 3.404c4.15 1.873 10.04 4.305 13.09 5.404 3.05 1.1 9.16 4.368 13.56 7.263 8.42 5.528 12.08 10.189 9.98 12.717-1.71 2.059 5.01 11.443 11.96 16.707 7.64 5.786 7.51 6.322-.89 3.674zm51.4-.096c-.93-1.122-1.02-1.8-.24-1.8 1.43 0 3.1 2.241 2.28 3.06-.3.297-1.22-.27-2.04-1.26zm-198.44-4.807c-1.71-.947-2.21-1.643-1.18-1.657 2.11-.028 5.48 1.937 4.69 2.732-.31.307-1.89-.177-3.51-1.075zm19.97-1.561c3.34-4.704 8.59-6.717 13.43-5.16 3.53 1.133 3.59 1.228.79 1.34-1.66.067-5.54 1.715-8.61 3.664-7.01 4.447-8.7 4.494-5.61.156zm171.36 1.616c-1.59-1.923-1.21-2.164 1.68-1.055 1.02.394 1.87 1.191 1.87 1.771 0 1.634-1.92 1.247-3.55-.716zm5.53-1.043c-.44-1.157-.77-2.99-.73-4.074.05-1.304.46-1.007 1.22.882.62 1.568.95 3.401.73 4.074-.23.672-.77.276-1.22-.882zm91.32 1.112c0-.286.53-.849 1.18-1.251.65-.401 1.18-.167 1.18.521 0 .688-.53 1.251-1.18 1.251-.65 0-1.18-.234-1.18-.521zm-302.07-4.96c-.81-.344-1.18-1.112-.81-1.706.9-1.46 8.47-1.379 9.38.101.41.649.04 1.188-.81 1.197-.85.009-2.61.245-3.91.525-1.3.28-3.03.227-3.85-.117zm17.54-.887c-2.15-2.586.32-3.373 5.89-1.875 5.6 1.51 5.59 1.745-.22 2.794-3.02.545-4.68.276-5.67-.919zm177.33-.718c-.82-1.309-.97-2.362-.33-2.362.63 0 1.72 1.063 2.41 2.362.7 1.299.85 2.362.33 2.362s-1.6-1.063-2.41-2.362zm7.39-1.189c-3.15-3.489-1.46-4.037 1.79-.578 1.52 1.621 2.22 2.948 1.56 2.948-.66 0-2.17-1.066-3.35-2.37zm-221.44-.204c-4.22-.586-10.18-1.885-13.23-2.887-3.05-1.002-6.65-1.472-8-1.046-2.7.858-14.2-2.523-14.2-4.176 0-3.776 10.58-4.062 16.21-.439 2.1 1.352 3.76 1.443 8.2.447 4.92-1.102 5.94-.967 8.83 1.171 1.8 1.329 3.81 2.417 4.46 2.417 2.34 0 9.43 3.951 8.83 4.919-.34.543-1.24.913-2.02.822-.77-.09-4.86-.643-9.08-1.228zm212-5.694c-1.17-1.299-1.61-2.362-.96-2.362.65 0 2.15 1.063 3.32 2.362 1.18 1.299 1.61 2.362.96 2.362-.65 0-2.14-1.063-3.32-2.362zm-7.45-1.496c-.67-.808-1.56-3.061-1.98-5.006-.67-3.133-.6-3.267.66-1.175.78 1.299 2.18 3.24 3.11 4.312.98 1.137 1.21 2.239.56 2.644-.62.383-1.68.034-2.35-.775zm-25.01-3.755l-2.93-1.624 4.54-.854c2.51-.469 6.35-2.432 8.55-4.361 2.4-2.106 3.99-2.87 3.98-1.91-.03 2.402-1.48 4.253-5.9 7.51-4.61 3.402-4.39 3.369-8.24 1.239zm-221.55-4.599c-4.34-2.472-12.17-12.036-14.72-17.98-1.37-3.207-4.52-8.488-6.99-11.736-2.48-3.248-5.32-7.499-6.32-9.448-1-1.949-4.03-5.669-6.73-8.268-5.71-5.478-9.21-11.235-6.82-11.194 3.1.053 11.07 4.489 14.5 8.061 9.44 9.854 11.37 11.608 15.83 14.353 4.3 2.65 6.33 5.407 6.54 8.859.03.649 1.26 2.509 2.71 4.133 1.46 1.624 4.21 4.679 6.11 6.788 1.9 2.109 3.8 5.399 4.22 7.312 1.38 6.261-3.66 11.779-8.33 9.12zm-237.906-.779c0-.65.532-1.181 1.182-1.181.649 0 1.181.531 1.181 1.181 0 .649-.532 1.181-1.181 1.181-.65 0-1.182-.532-1.182-1.181zm312.386-.011c-.4-.655-.41-2.226-.01-3.489.4-1.266-.09-3.543-1.09-5.069-1.64-2.51-1.63-3.036.17-5.6 1.09-1.556 2.38-5.735 2.86-9.286.59-4.382 1.77-7.35 3.65-9.235 2.58-2.577 3.23-2.692 9.02-1.593 4.98.944 6.93.827 9.64-.573 4.54-2.346 4.87-2.241 3.36 1.065-1.91 4.202-5.74 5.545-9.77 3.431-7.2-3.774-16.76 1.835-11.72 6.876 1.86 1.854 2.88 2.022 6.31 1.038 5.89-1.688 8.21-1.378 4.55.607-4.13 2.247-4.92 4.741-2.79 8.863.97 1.875 1.77 4.783 1.77 6.463 0 2.687-.29 2.901-2.37 1.787-1.3-.696-3.17-3.208-4.16-5.584-1.8-4.286-1.83-4.301-4.12-2.009-2.01 2.01-2.14 2.903-1.04 6.887.99 3.6.92 4.791-.32 5.577-2.08 1.322-3.05 1.284-3.94-.156zm162.05-6.299c-1.12-1.7-3.67-3.937-5.67-4.973s-3.38-2.149-3.05-2.474c1.83-1.836 12.08 6.505 11.21 9.125-.27.805-1.34.084-2.49-1.678zm-185.48-3.931c-1.78-.934-4.18-1.399-5.33-1.033-2.94.933-14.61-1.443-15.77-3.208-.92-1.405-3.62-10.059-5.07-16.226-.4-1.696 0-3.896.93-5.169 1.35-1.847 2.05-1.988 4.19-.842 2.26 1.209 2.74 1.002 3.98-1.717.77-1.7 3.35-4.084 5.73-5.297 2.52-1.284 4.94-3.689 5.79-5.759.99-2.387 2.8-3.99 5.5-4.882 2.22-.731 5.41-3.146 7.11-5.366 1.69-2.221 3.71-4.038 4.48-4.038.77 0 3.1 1.754 5.17 3.899l3.78 3.898-3.03 4.074c-3.44 4.627-3.26 8.607.64 14.083l2.36 3.315-2.94 1.928c-1.62 1.06-2.94 2.579-2.94 3.376.02 2.706-7.55 18.298-9.45 19.483-1.32.825-2.86.669-5.13-.519zm68.61-.022c-2.44-.639-2.78-2.729-.44-2.729.89 0 3.39.354 5.56.786 3.32.666 3.57.924 1.62 1.689-2.56 1.003-3.71 1.046-6.74.254zm188.09-15.061c0-.286.53-.849 1.18-1.25.65-.402 1.18-.168 1.18.52 0 .688-.53 1.251-1.18 1.251-.65 0-1.18-.234-1.18-.521zm-192.22-3.203c-.95-.944-1-2.039-.19-3.568.65-1.213.87-2.715.49-3.337-1.07-1.724 1.6-5.906 3.76-5.906 1.74 0 1.73.203-.07 2.197-1.56 1.725-1.74 2.865-.81 5.305 1.88 4.93-.16 8.33-3.18 5.309zm-593.193-3.883c0-.287.531-.849 1.181-1.251.65-.401 1.181-.167 1.181.521 0 .688-.531 1.251-1.181 1.251s-1.181-.235-1.181-.521zM1510 420.462c-.4-.65-.17-1.182.52-1.182.69 0 1.25.532 1.25 1.182 0 .649-.23 1.181-.52 1.181-.29 0-.85-.532-1.25-1.181zm-811.987-11.151c0-.286.532-.849 1.181-1.251.65-.401 1.181-.167 1.181.521 0 .688-.531 1.251-1.181 1.251-.649 0-1.181-.235-1.181-.521zm568.107-17.758c-2.25-5.255-2.55-5.491-6.02-4.73-3.45.759-3.58.667-2.28-1.753 1.07-2.003 2.07-2.401 4.61-1.843 2.45.538 4.01-.006 6.41-2.23 1.75-1.618 3.19-3.897 3.2-5.065.04-2.981 4.42 7.017 5.42 12.362.76 4.058.67 4.279-1.18 2.75-2.74-2.27-5.37.085-3.13 2.793.9 1.081 1.02 1.822.29 1.822-.68 0-2.07.321-3.09.713-1.37.526-2.48-.736-4.23-4.819zm-215.34 2.087c-1.32-2.145-2.07-11.769-1.12-14.323 1.01-2.708 1.09-2.675 4.1 1.772 3.6 5.329 4.76 8.747 3.57 10.572-1.14 1.747-5.82 3.162-6.55 1.979zm263.75-6.109c0-.65.53-1.51 1.18-1.911.65-.402 1.18-.199 1.18.451s-.53 1.51-1.18 1.911c-.65.401-1.18.198-1.18-.451zm185.43-.14c0-.649.24-1.181.52-1.181.29 0 .85.532 1.25 1.181.4.65.17 1.182-.52 1.182-.69 0-1.25-.532-1.25-1.182zm-268.1-6.823c0-.505 2.37-3.561 5.26-6.791 4.24-4.733 5.27-5.402 5.31-3.447.03 1.335-1.74 4.391-3.94 6.792-3.73 4.07-6.63 5.579-6.63 3.446zm25.58-3.151c-.43-1.122-.34-2.824.19-3.784.83-1.487 1.18-1.501 2.35-.097 1.04 1.258.99 2.153-.2 3.784-1.46 2.002-1.61 2.008-2.34.097zm-904.454-4.602c.723-.872.965-1.935.538-2.362-.428-.428.325-.778 1.671-.778 1.867 0 2.302.561 1.831 2.363-.359 1.371-1.611 2.362-2.987 2.362-1.848 0-2.08-.349-1.053-1.585zm912.374-.313c-.44-1.23-1.01-2.635-1.27-3.122-.27-.487.02-.886.63-.886 1.18 0 2.84 4.85 1.96 5.728-.28.284-.88-.49-1.32-1.72zm-11.96-3.082c-1.66-1.999-.05-4.844 2.43-4.29 1.56.347 1.62.839.37 3.149-1.21 2.229-1.73 2.441-2.8 1.141zm13.96-4.059c-1.36-1.723-2.27-3.33-2.03-3.571.96-.959 4.28 1.155 6.05 3.851 2.72 4.145-.73 3.906-4.02-.28zm-19.42-4.572c-1.05-1.052-1.91-2.524-1.91-3.271 0-.748 1.17-.193 2.59 1.232 1.43 1.426 2.29 2.898 1.91 3.272-.37.374-1.54-.181-2.59-1.233zm-927.082-.169c-.433-.433-.788-1.336-.788-2.007 0-.74.551-.671 1.398.177.769.769 1.123 1.672.787 2.008-.335.335-.964.256-1.397-.178zm-6.693-1.574c0-.65.234-1.181.521-1.181.286 0 .849.531 1.251 1.181.401.649.167 1.181-.521 1.181-.688 0-1.251-.532-1.251-1.181zm55.51-2.362c0-.65.235-1.181.521-1.181.287 0 .85.531 1.251 1.181.401.649.167 1.181-.521 1.181-.688 0-1.251-.532-1.251-1.181zm890.145-.18c-1.18-.668-3.43-.894-4.99-.503-2.28.574-3.86-.346-8.14-4.751-6.05-6.222-7.22-8.845-5.45-12.16.69-1.281 1.25-3.927 1.25-5.88 0-6.411 4.29-6.152 7.44.449 1.74 3.657 1.75 4.442.12 8.364-1.77 4.223-1.73 4.411 1.41 7.697 2.28 2.373 3.98 3.178 5.78 2.727 1.52-.381 3.15.092 4.05 1.168 2.13 2.563 1.2 4.392-1.47 2.889zm-897.231-7.428c0-.286.531-.849 1.181-1.25.65-.402 1.181-.168 1.181.52 0 .688-.531 1.251-1.181 1.251s-1.181-.234-1.181-.521zm185.428-4.203c0-.65.532-1.181 1.181-1.181.65 0 1.181.531 1.181 1.181 0 .649-.531 1.181-1.181 1.181a1.185 1.185 0 01-1.181-1.181zm-188.971-4.585c0-.65.531-1.51 1.181-1.911.649-.402 1.181-.198 1.181.451 0 .65-.532 1.51-1.181 1.911-.65.402-1.181.199-1.181-.451zm-10.031-4.85c-.414-.67.06-.868 1.111-.464 2.047.785 2.421 1.631.722 1.631-.611 0-1.436-.525-1.833-1.167zm187.782-.014c-.401-.649-.167-1.181.521-1.181.688 0 1.251.532 1.251 1.181 0 .65-.235 1.181-.521 1.181-.287 0-.849-.531-1.251-1.181zm-183.066-2.362c-.402-.649-.167-1.181.521-1.181.688 0 1.251.532 1.251 1.181 0 .65-.235 1.181-.521 1.181-.287 0-.85-.531-1.251-1.181zm5.315 0c0-.649.234-1.181.521-1.181.286 0 .849.532 1.25 1.181.402.65.167 1.181-.52 1.181-.688 0-1.251-.531-1.251-1.181zm-81.199-3.144c-.812-.328-1.476-1.083-1.476-1.679 0-1.702 5.213-1.264 7.746.652 2.178 1.647 2.116 1.731-1.25 1.678-1.949-.03-4.208-.324-5.02-.651zm29.886-.67c-1.059-.593-3.399-.754-5.2-.359-1.801.396-4.571.201-6.156-.433-2.547-1.019-2.322-1.14 1.95-1.04 6.28.147 7.956-.875 6.351-3.874-1.139-2.128-.796-2.291 4.838-2.291 5.45 0 13.313 2.5 14.646 4.657.886 1.433-14.314 4.523-16.429 3.34zm22.655.747c-1.399-1.4.34-2.838 3.433-2.838 1.857 0 2.798.557 2.495 1.476-.544 1.654-4.685 2.604-5.928 1.362zm854.482-1.879c-3.13-3.127-.04-6.865 5.68-6.865 2.54 0 2.54.021.36 3.744-2.53 4.34-4.04 5.121-6.04 3.121zm-844.721-.242c0-.256.797-.77 1.771-1.144.975-.374 1.772-.165 1.772.464s-.797 1.144-1.772 1.144c-.974 0-1.771-.209-1.771-.464zm-51.056-8.466c-.364-.365-2.857-.694-5.54-.731-3.701-.051-4.589-.415-3.681-1.509.877-1.057-.382-2.464-4.725-5.278-8.513-5.516-13.266-6.595-18.986-4.306-5.363 2.146-5.774 2.207-5.774.855 0-2.472 9.4-5.191 16.168-4.676 6.474.492 10.098 1.87 22.808 8.669 10.446 5.589 10.458 5.6 7.086 6.561-3.829 1.092-6.526 1.244-7.356.415zm8.537-9.967c2.29-1.48 3.543-1.48 3.543 0 0 .649-1.196 1.173-2.657 1.163-2.149-.015-2.319-.237-.886-1.163zm940.61-2.095c-.72-.472-1.95-2.081-2.74-3.575-1.18-2.253-1.06-3.347.72-6.401 2.76-4.717 4.62-5.306 5.51-1.743.94 3.747-1.77 12.855-3.49 11.719zm-932.855-1.574c.788-1.276 5.237-1.42 5.236-.17 0 .487-1.326.962-2.945 1.056-1.619.093-2.65-.305-2.291-.886zm-23.356-11.383c-1.888-2.168-1.614-5.027.483-5.027.672 0 .949 1.038.618 2.306-.332 1.268.005 2.524.748 2.791.743.267 1.038.827.655 1.245-.383.418-1.51-.174-2.504-1.315zm6.861-9.278c-.42-1.096-.498-2.258-.174-2.582.325-.325.935.305 1.355 1.401.421 1.095.499 2.257.174 2.582-.325.325-.935-.306-1.355-1.401zm-7.401-1.063c0-.975 1.012-1.772 2.249-1.772 2 0 2.053.197.478 1.772-.974.974-1.986 1.771-2.249 1.771-.263 0-.478-.797-.478-1.771zm990.521-25.893c0-.925-1.29-3.215-2.86-5.089-3.75-4.448-2.42-7.417 2.01-4.513 3.19 2.088 4.85 6.354 3.68 9.417-.89 2.323-2.83 2.45-2.83.185zm-916.507-7.108c0-.286.531-.849 1.181-1.25.649-.402 1.181-.167 1.181.52 0 .688-.532 1.251-1.181 1.251-.65 0-1.181-.234-1.181-.521zm923.097-1.451c-.77-1.996 1.04-3.882 3.75-3.915 1.88-.023 1.91 2.617.06 4.47-1.93 1.926-2.92 1.782-3.81-.555zm10.79-4.311c-2.3-3.5-5.53-3.981-12.95-1.921-3.02.837-5.09.847-6.5.029-1.13-.661-1.44-1.218-.67-1.237.76-.02 2.98-1.384 4.94-3.031 2.52-2.124 4.38-2.789 6.37-2.288 2.11.531 4.4-.485 9.2-4.091 9.34-7.02 10.18-9.234 6.38-16.736-3.65-7.2-2.63-9.519 2.78-6.325 3.93 2.324 7.64 8.982 6.56 11.79-.39 1.01.19 4.181 1.29 7.046 1.54 4.054 1.69 5.759.66 7.689-1.52 2.834-5.74 4.729-10.54 4.729-2.69 0-3.49.69-4.37 3.755l-1.08 3.755-2.07-3.165v.001zm-478.466-4.032c-1.41-1.409-.66-2.677 1.584-2.677 1.26 0 2.62-.531 3.022-1.181 1.098-1.776 2.97-1.419 2.26.431-.729 1.899-5.842 4.451-6.866 3.427zm-40.275-2.043l-3.543-1.623 4.724-.08c5.884-.099 10.219 1.005 9.366 2.385-.95 1.537-6.481 1.179-10.547-.682zm-47.711-11.782c-4.727-2.42-4.949-2.722-2.482-3.367 2.956-.773 9.497.188 9.363 1.376-.045.406-.444 1.618-.886 2.694-.725 1.768-1.3 1.7-5.995-.703zm-23.673-12.778c-1.022-2.932-.942-4.055.387-5.383 2.401-2.401 4.267-.713 4.267 3.86 0 5.401-2.964 6.371-4.654 1.523zm-27.695.981c.838-2.183 4.431-2.552 3.708-.381-.27.812-1.375 1.648-2.456 1.858-1.37.265-1.749-.181-1.252-1.477zm617.11-13.481c-2.16-3.036-2.22-3.595-.62-5.875 1.57-2.239 1.56-2.91-.06-6.034-2.65-5.138-2.28-5.449 2.33-1.934 2.28 1.737 6.77 3.94 9.99 4.895 6.64 1.973 8.25 3.522 4.78 4.622-1.31.415-2.38 1.527-2.38 2.47 0 1.284-.81 1.506-3.25.883-6.23-1.594-8-1.205-7.6 1.672.49 3.525-.3 3.351-3.19-.699zm-587.517 1.388c-1.37-1.37-.854-3.659.984-4.364 1.28-.491 1.772.129 1.772 2.236 0 2.835-1.156 3.728-2.756 2.128zm580.027-24.901c-1-1.137-3.42-5.257-5.37-9.156-1.95-3.898-7.1-11.058-11.45-15.91-4.86-5.421-7.33-9.015-6.41-9.323.83-.275 2.6.96 3.94 2.745 3.25 4.327 7.25 8.084 13.56 12.737 5.24 3.857 7.83 7.427 4.45 6.131-3.89-1.494-2.92 2.052 2.12 7.726 2.93 3.308 5.34 6.263 5.34 6.566 0 1.436-4.57.317-6.18-1.516zm-864.272-2.067c0-.974.515-1.771 1.144-1.771.629 0 .838.797.464 1.771-.373.975-.888 1.772-1.144 1.772-.255 0-.464-.797-.464-1.772zm-6.171-3.811l-4.4-.462 8.279-8.198c4.554-4.509 8.875-8.198 9.603-8.198.768 0 .538.868-.548 2.068-2.459 2.717-.782 5.769 3.711 6.756 1.961.431 3.917 1.934 4.672 3.593 1.213 2.661 1.007 2.932-3.085 4.069-4.293 1.192-9.417 1.297-18.232.372zm-287.791-8.473c-4.091-3.822-4.547-5.432-1.834-6.473 2.429-.933 6.914 2.107 8.614 5.838 1.783 3.914 1.752 4.061-.874 4.061-1.231 0-3.888-1.542-5.906-3.426zm520.138-6.001c1.299-.641 3.855-1.704 5.681-2.363 4.022-1.451 3.355-2.997-1.732-4.014-3.49-.698-3.613-.876-1.616-2.336 1.189-.869 1.815-2.14 1.392-2.825-.433-.7.782-1.786 2.772-2.48 1.948-.679 3.542-1.759 3.542-2.4 0-2.728-2.462-7.317-3.83-7.139-3.153.412-4.614-.144-4.105-1.562.291-.812.051-2.407-.534-3.543-1.52-2.956 1.973-9.069 5.221-9.136.487-.009.753.634.59 1.431-.162.796.952 1.637 2.477 1.868l2.772.421-2.649 2.819-2.648 2.82 2.985 1.135c3.205 1.218 6.294 5.188 9.439 12.13 1.507 3.326 2.498 4.196 4.257 3.736 3.61-.944 4.038 1.502.652 3.72-2.294 1.503-2.73 2.35-1.725 3.355s-.976 1.679-7.846 2.671c-5.055.729-11.05 1.67-13.324 2.091-3.162.586-3.578.492-1.771-.399zm-19.918-6.524c-.404-1.053.057-3.445 1.024-5.316 1.11-2.146 1.325-3.67.583-4.129-2.047-1.265-1.28-2.879 1.727-3.634 1.597-.4 3.523-1.474 4.278-2.384 1.574-1.896 8.849-2.245 9.942-.477.401.649-.099 2.361-1.111 3.806-1.012 1.445-1.84 4.04-1.84 5.768 0 2.633-.81 3.421-5.02 4.882-2.761.959-5.881 2.115-6.934 2.57-1.235.534-2.175.148-2.649-1.086zm21.689-11.734c0-.287.532-.85 1.181-1.251.65-.402 1.181-.167 1.181.521 0 .688-.531 1.25-1.181 1.25-.649 0-1.181-.234-1.181-.52zm-524.16-5.691c-1.157-1.394-1.083-2.044.369-3.249 2.4-1.992 3.591-.64 2.194 2.49-.964 2.159-1.314 2.263-2.563.759zm-1.847-8.883c-.398-.645.067-1.83 1.034-2.632 1.92-1.594 2.321-.344.707 2.203-.617.974-1.3 1.142-1.741.429zm-76.34-.753c0-.831 3.582-2.284 8.662-3.515 1.926-.466 3.065-.354 2.682.265-.365.592-2.137 1.373-3.937 1.737-1.8.363-4.203 1.02-5.34 1.46-1.136.439-2.066.464-2.066.053zm701.852-13.28c-2.179-.88-1.793-2.235.689-2.422 1.191-.09 2.166.595 2.166 1.52 0 1.759-.41 1.888-2.855.902zm-259.54-6.037c-7.474-4.076-11.047-10.338-8.881-15.566 1.025-2.474 1.056-4.03.116-5.786-1.955-3.655.596-7.937 7.122-11.953 3.099-1.907 6.194-4.511 6.877-5.787 1.892-3.535.207-9.593-3.086-11.093-1.666-.76-2.573-1.96-2.205-2.92.839-2.184-3.093-9.646-7.01-13.303-2.882-2.69-4.122-2.959-13.992-3.023-13.441-.088-15.945-.835-15.722-4.692.092-1.602.447-2.913.789-2.914.342 0 5.125-.554 10.63-1.231 7.028-.865 13.329-2.648 21.163-5.988 12.129-5.173 13.053-5.274 41.993-4.594 9.139.215 17.546-.461 28.346-2.28 10.058-1.694 17.458-2.332 21.454-1.851 3.396.409 8.312.14 11.088-.608 6.441-1.735 23.176.352 29.758 3.71 3.891 1.985 5.95 2.247 12.516 1.593 7.093-.706 7.629-.613 5.497.953-1.299.954-5.286 2.12-8.858 2.59-7.753 1.02-14.877 6.546-12.988 10.075.814 1.521.23 2.82-2.403 5.343-1.914 1.833-3.759 4.216-4.102 5.294-.822 2.59-11.263 7.413-16.441 7.593-5.75.2-6.351 1.422-1.904 3.871 2.101 1.157 5.167 3.129 6.814 4.381l2.995 2.277-2.707 1.002c-2.076.768-3.76.273-7.214-2.12-4.687-3.249-9.729-3.265-7.039-.023 1.049 1.264.796 1.755-1.167 2.268-4.389 1.148-1.284 3.418 3.556 2.6 3.081-.52 4.813-.246 5.777.915 1.146 1.38-.349 2.02-8.951 3.828-5.68 1.194-13.25 2.215-16.823 2.268-6.637.1-11.42 2.004-18.456 7.352-2.295 1.744-7.17 3.472-12.876 4.564-11.925 2.281-15.954 4.92-23.14 15.151-5.771 8.218-9.251 11.281-12.849 11.31-.975.008-4.429-1.435-7.677-3.206zm-83.744-7.9c-2.536-1.558-5.644-4.464-6.907-6.458-2.464-3.893-4.737-4.388-11.391-2.48-2.253.647-4.78.709-5.791.143-3.498-1.957 2.82-3.882 9.855-3.003 5.351.669 6.54.478 7.164-1.148 1.254-3.267 6.992-5.608 10.182-4.155 1.964.895 3.75.87 6.258-.087 3.375-1.288 3.421-1.404 1.217-3.023-1.261-.926-2.7-1.684-3.198-1.684-.498 0-2.296-2.372-3.996-5.272-1.699-2.9-4.884-6.382-7.078-7.737-3.728-2.304-4.221-2.345-7.555-.62-2.915 1.507-4.599 1.612-9.211.577-3.105-.697-7.439-.932-9.632-.522-3.805.711-10.776-1.15-10.776-2.878 0-3.174 10.003-10.297 15.944-11.354l4.725-.84-3.377 3.597c-4.659 4.963-2.907 7.248 2.152 2.806 2.145-1.884 5.854-3.792 8.241-4.24 3.647-.684 5.21-.238 9.789 2.796 6.093 4.036 6.563 4.144 9.999 2.305 2.069-1.107 2.837-.803 5.084 2.015 1.554 1.95 5.025 4.072 8.41 5.143 5.394 1.707 5.763 2.078 5.763 5.798 0 2.79.805 4.551 2.699 5.906 7.927 5.668 7.754 5.434 6.039 8.18-2.352 3.766-4.209 4.039-9.413 1.383-3.621-1.847-5.203-2.1-7.025-1.124-2.231 1.193-2.254 1.448-.459 4.92 1.473 2.85 1.608 4.288.607 6.486-1.234 2.708-1.431 2.75-4.781 1.017-6.586-3.406-11.021-1.164-4.877 2.465 1.925 1.137 3.231 2.501 2.904 3.032-1.144 1.851-6.988.869-11.565-1.943zm242.598 1.53c0-.541.797-.984 1.772-.984.974 0 1.771.443 1.771.984 0 .541-.797.984-1.771.984-.975 0-1.772-.442-1.772-.984zm-287.129-6.352c-2.329-1.224-4.137-1.329-7.398-.428-5.544 1.53-7.483.41-4.669-2.698 3.601-3.98 6.044-4.763 10.387-3.329 4.889 1.614 7.059 4.012 5.74 6.344-.84 1.487-1.414 1.503-4.06.111zm234.571-.537c-1.948-1.282-4.429-2.05-5.512-1.707-1.491.471-1.822.062-1.364-1.689.702-2.687 11.08-6.565 14.587-5.452 1.224.389 4.349.07 6.947-.709 4.078-1.222 5.159-1.13 7.916.677l3.193 2.092-2.844 2.216c-2.401 1.871-6.853 3.494-17.608 6.42-.974.264-3.366-.567-5.315-1.848zM270.465 70.076c-1.624-.257-5.58-1.646-8.791-3.087l-5.838-2.62 8.2-.591c4.511-.325 8.201-1.122 8.201-1.772 0-.65-3.189-1.466-7.086-1.814-5.146-.46-6.117-.783-3.544-1.181 4.308-.666 4.619-2.532.591-3.55-2.901-.732-2.879-.777 1.201-2.535 7.071-3.046 14.602-3.63 21.275-1.648 5.479 1.627 6.335 1.62 8.918-.073 1.826-1.197 2.91-1.397 3.005-.555.081.724.214 1.937.295 2.695.274 2.559 2.63 2.228 5.441-.765 2.602-2.77 7.113-4.097 7.103-2.09-.002.488-1.053 2.607-2.335 4.709l-2.33 3.822 3.811 1.988 3.811 1.989-6.257 2.856c-5.647 2.577-6.806 2.725-11.867 1.51-4.908-1.177-6.316-1.042-11.261 1.078-5.586 2.394-6.763 2.547-12.543 1.634zm47.369-.832c-1.067-1.286-.627-1.918 2.13-3.06 1.919-.795 4.672-1.06 6.147-.592 2.558.812 2.499.94-1.389 3.01-4.961 2.643-5.209 2.666-6.888.642zm325.85-5.466c2.29-1.48 3.543-1.48 3.543 0 0 .65-1.196 1.173-2.657 1.163-2.149-.015-2.319-.237-.886-1.163zM860.411 60.5c-6.039-2.385-5.915-2.255-4.158-4.372.822-.99 1.031-1.817.464-1.837-.567-.021.032-.841 1.332-1.823 1.299-.982 2.371-2.16 2.381-2.62.042-1.746 4.85-6.353 8.248-7.901 1.949-.888 6.998-1.889 11.22-2.224 4.223-.335 9.878-.95 12.568-1.365 2.863-.442 5.197-.261 5.628.436.837 1.355-.761 1.93-9.928 3.578-9.096 1.634-14.564 4.18-18.165 8.46-3.794 4.509-3.921 7.356-.437 9.786l2.657 1.854-3.543-.053c-1.949-.029-5.669-.892-8.267-1.919zM241.83 57.077c-1.905-1.905-1.47-2.32 7.668-7.322 10.707-5.862 16.088-6.64 25.692-3.716l5.315 1.618-7.087 1.405c-5.795 1.15-18.077 5.256-27.776 9.288-.99.412-2.698-.159-3.812-1.273zm85.327-1.529c0-.629-1.462-1.982-3.248-3.008l-3.248-1.864 4.349.684c3.09.486 4.628.197 5.315-1 .816-1.423 8.333-4.27 11.33-4.292.504-.004.093 1.586-.914 3.533-2.371 4.585-13.584 9.494-13.584 5.947zm18.388-3.449c-1.692-2.737 9.865-6.975 14.774-5.417 3.578 1.135 1.187 3.087-5.054 4.124-2.792.464-5.954 1.217-7.025 1.674-1.071.456-2.284.285-2.695-.38zm37.713-8.697c-7.795-.62-14.318-1.262-14.496-1.427-1.056-.98 1.578-4.17 4.412-5.343 2.788-1.155 4.072-1.002 7.888.94 3.719 1.893 6.116 2.208 13.026 1.71 4.657-.336 9.972-.23 11.81.236l3.343.846-4.133 2.209c-2.274 1.215-4.931 2.152-5.906 2.083-.974-.07-8.149-.633-15.944-1.254zm339.886-4.827c-5.802-2.97-6.362-4.317-1.804-4.342 1.786-.01 4.045-.592 5.019-1.292 1.532-1.102 1.511-1.192-.151-.665-1.058.335-2.542-.01-3.297-.765-1.045-1.045-1.59-1.026-2.272.077-.631 1.022-1.928 1.143-4.379.409-6.229-1.865-7.617-2.693-7.617-4.543 0-1.566 1.561-1.71 11.22-1.03 7.356.517 11.22.373 11.22-.417 0-2.325 3.277-1.177 4.146 1.453l.878 2.657.523-2.657c.288-1.462 1.283-2.658 2.212-2.658.93 0 1.69-.637 1.69-1.417 0-1.102.315-1.102 1.417 0 .825.825 4.777 1.417 9.449 1.417 8.444 0 10.427 1.51 4.795 3.651-2.926 1.113-8.016.798-13.594-.84-1.137-.334-2.064-.173-2.06.358.008 1.09 6.645 5.099 8.44 5.099.644 0 1.916.745 2.827 1.657 1.422 1.422 1.41 1.752-.084 2.325-.958.367-1.741.094-1.741-.607 0-.825-1.503-.994-4.25-.478-2.976.558-4.008.405-3.442-.511.445-.72.166-2.082-.619-3.028-1.514-1.825-5.862-2.384-5.862-.754 0 .532-1.728 2.877-3.839 5.21l-3.838 4.244-4.987-2.553zm-313.312-2.598c-2.048-1.202-4.944-1.55-9.449-1.135-4.21.387-7.447.053-9.2-.95-2.417-1.382-1.826-1.54 5.55-1.48 9.224.075 13.275-1.9 8.28-4.035-2.374-1.015-2.028-1.107 2.04-.543 5.311.735 7.375-.687 4.482-3.089-3.086-2.56.307-3.355 11.285-2.644 6.793.44 11.061.193 12.806-.74 3.343-1.79 2.032-4.067-1.789-3.108-2.641.663-20.968-.425-20.194-1.198.553-.553 26.517-2.958 43.566-4.035 8.843-.559 18.675-1.338 21.849-1.732l5.772-.717-9.528 4.577c-8.932 4.29-23.458 8.473-29.426 8.473-1.453 0-5.63 1.595-9.281 3.544-3.652 1.948-7.373 3.543-8.268 3.543-.895 0-4.758 1.587-8.585 3.528-3.827 1.94-6.957 3.516-6.957 3.501 0-.014-1.329-.806-2.953-1.76zm-23.031-10.79c-5.724-1.267-5.934-1.743-1.728-3.923 6.132-3.178 11.934-3.993 14.572-2.046 2.088 1.541 1.967 1.78-2.135 4.2-4.275 2.522-6.01 2.809-10.709 1.769z" fill="#219250"/></svg>