<svg xmlns="http://www.w3.org/2000/svg" viewBox="0 0 60 63"><defs><style>.cls-1{fill:#965656;}.cls-2{fill:#9e791e;}.cls-3{fill:#fcce38;}.cls-4{fill:#b79177;}.cls-5{fill:#2b2b2b;}.cls-6{fill:#9b7b5f;}.cls-7{fill:#323749;}.cls-8{fill:#4c5472;}</style></defs><g id="Layer_2" data-name="Layer 2"><g id="_220527_Avatar_Release_-_Side" data-name="220527 Avatar Release - Side"><g id="Comando_1_-_Side" data-name="Comando 1 - Side"><polygon class="cls-1" points="33 30 30 30 30 33 33 33 36 33 36 30 33 30"/><rect class="cls-2" x="18" y="48" width="3" height="3"/><rect class="cls-2" x="30" y="60" width="3" height="3"/><rect class="cls-2" x="15" y="51" width="3" height="3"/><rect class="cls-2" x="27" y="57" width="3" height="3"/><rect class="cls-2" x="33" y="57" width="3" height="3"/><polygon class="cls-3" points="45 54 42 54 42 51 39 51 39 48 36 48 33 48 33 51 30 51 27 51 27 48 24 48 21 48 21 51 18 51 18 54 15 54 12 54 12 57 15 57 15 60 15 63 18 63 21 63 24 63 27 63 30 63 30 60 27 60 27 57 30 57 30 60 33 60 33 57 36 57 36 60 33 60 33 63 36 63 39 63 42 63 45 63 45 60 45 57 48 57 48 54 45 54"/><polygon class="cls-4" points="6 54 6 57 9 57 12 57 12 54 9 54 6 54"/><polygon class="cls-4" points="18 21 18 18 15 18 15 21 15 24 18 24 18 21"/><polygon class="cls-4" points="3 60 3 63 6 63 6 60 6 57 3 57 3 60"/><polygon class="cls-4" points="21 42 21 45 21 48 24 48 24 45 24 42 21 42"/><rect class="cls-4" x="18" y="27" width="3" height="3"/><polygon class="cls-5" points="24 18 27 18 30 18 30 15 27 15 24 15 21 15 18 15 18 18 21 18 24 18"/><polygon class="cls-5" points="39 15 36 15 36 18 39 18 42 18 42 15 39 15"/><polygon class="cls-5" points="36 36 36 39 33 39 30 39 30 36 27 36 24 36 24 33 21 33 21 30 18 30 18 33 18 36 18 39 21 39 21 42 24 42 24 45 27 45 27 48 30 48 33 48 36 48 36 45 39 45 39 42 42 42 42 39 42 36 39 36 36 36"/><polygon class="cls-5" points="27 27 27 30 30 30 33 30 36 30 39 30 39 27 36 27 33 27 30 27 27 27"/><polygon points="18 42 18 45 18 48 21 48 21 45 21 42 21 39 18 39 18 42"/><rect x="54" y="54" width="3" height="3"/><rect x="3" y="54" width="3" height="3"/><rect x="24" y="18" width="3" height="3"/><rect x="36" y="18" width="3" height="3"/><rect x="15" y="48" width="3" height="3"/><rect x="39" y="48" width="3" height="3"/><polygon points="18 33 18 30 18 27 18 24 15 24 15 21 15 18 12 18 12 21 12 24 12 27 15 27 15 30 15 33 15 36 15 39 18 39 18 36 18 33"/><rect x="36" y="45" width="3" height="3"/><rect x="33" y="24" width="3" height="3"/><rect x="15" y="15" width="3" height="3"/><polygon points="45 36 45 33 45 30 45 27 45 24 45 21 45 18 45 15 42 15 42 18 42 21 42 24 42 27 42 30 42 33 42 36 42 39 45 39 45 36"/><polygon points="9 51 6 51 6 54 9 54 12 54 15 54 15 51 12 51 9 51"/><polygon points="51 51 48 51 45 51 42 51 42 54 45 54 48 54 51 54 54 54 54 51 51 51"/><polygon points="57 57 57 60 57 63 60 63 60 60 60 57 57 57"/><polygon points="0 60 0 63 3 63 3 60 3 57 0 57 0 60"/><path class="cls-6" d="M39,21H36V15H30v3H27v3H24V18H18v9h3v6h3v3h6v3h6V36h6V18H39Zm0,9H36v3H30V30H27V27h6V24h3v3h3Z"/><polygon class="cls-6" points="27 48 27 51 30 51 33 51 33 48 30 48 27 48"/><rect class="cls-6" x="24" y="45" width="3" height="3"/><polygon class="cls-6" points="9 57 6 57 6 60 6 63 9 63 12 63 15 63 15 60 15 57 12 57 9 57"/><polygon class="cls-6" points="54 57 54 54 51 54 48 54 48 57 45 57 45 60 45 63 48 63 51 63 54 63 57 63 57 60 57 57 54 57"/><rect class="cls-7" x="18" y="3" width="3" height="3"/><polygon class="cls-7" points="9 21 9 24 9 27 6 27 6 30 6 33 9 33 9 30 12 30 12 27 12 24 12 21 12 18 9 18 9 21"/><rect class="cls-7" x="3" y="33" width="3" height="3"/><rect class="cls-7" x="21" width="3" height="3"/><polygon class="cls-7" points="15 9 15 12 12 12 12 15 12 18 15 18 15 15 18 15 21 15 21 12 18 12 18 9 18 6 15 6 15 9"/><polygon class="cls-7" points="33 6 33 3 30 3 27 3 27 6 30 6 30 9 33 9 36 9 36 6 33 6"/><path class="cls-8" d="M42,6V3H39V0H24V3H21V6H18v6h3v3H45V6ZM30,3h3V6h3V9H30V6H27V3Z"/><polygon class="cls-8" points="12 30 12 33 12 36 15 36 15 33 15 30 15 27 12 27 12 30"/></g></g></g></svg>