<svg xmlns="http://www.w3.org/2000/svg" viewBox="0 0 382.29 442.66">
  <g id="b3abb872-cc79-4f2a-9527-2286135ddfe2" data-name="Layer 2">
    <g id="f9c333e9-7237-4f26-84e9-4e5b765dd626" data-name="Output">
      <g>
        <rect x="362.17" y="422.53" width="20.12" height="20.12"/>
        <polygon points="342.05 422.53 342.05 402.41 321.93 402.41 301.81 402.41 281.69 402.41 281.69 382.29 261.57 382.29 261.57 362.17 241.45 362.17 241.45 382.29 221.33 382.29 221.33 402.41 201.21 402.41 201.21 382.29 181.09 382.29 181.09 362.17 160.97 362.17 140.84 362.17 140.84 382.29 120.72 382.29 120.72 402.41 100.6 402.41 80.48 402.41 80.48 422.53 60.36 422.53 60.36 442.65 80.48 442.65 100.6 442.65 120.72 442.65 140.84 442.65 140.84 422.53 160.97 422.53 160.97 442.65 181.09 442.65 201.21 442.65 221.33 442.65 241.45 442.65 261.57 442.65 261.57 422.53 281.69 422.53 281.69 442.65 301.81 442.65 321.93 442.65 342.05 442.65 362.17 442.65 362.17 422.53 342.05 422.53" style="fill: #61664d"/>
        <rect x="342.05" y="402.41" width="20.12" height="20.12"/>
        <polygon points="321.93 181.09 321.93 160.97 321.93 140.84 321.93 120.72 301.81 120.72 301.81 140.84 301.81 160.97 301.81 181.09 301.81 201.21 301.81 221.33 301.81 241.45 301.81 261.57 301.81 281.69 301.81 301.81 301.81 321.93 301.81 342.05 301.81 362.17 321.93 362.17 321.93 382.29 342.05 382.29 342.05 402.41 362.17 402.41 362.17 422.53 382.29 422.53 382.29 402.41 382.29 382.29 362.17 382.29 362.17 362.17 362.17 342.05 342.05 342.05 342.05 321.93 342.05 301.81 362.17 301.81 362.17 281.69 362.17 261.57 342.05 261.57 342.05 241.45 342.05 221.33 321.93 221.33 321.93 201.21 321.93 181.09" style="fill: #e27727"/>
        <polygon points="281.69 382.29 281.69 402.41 301.81 402.41 321.93 402.41 342.05 402.41 342.05 382.29 321.93 382.29 301.81 382.29 281.69 382.29"/>
        <polygon points="281.69 281.69 261.57 281.69 261.57 301.81 261.57 321.93 261.57 342.05 261.57 362.17 281.69 362.17 281.69 382.29 301.81 382.29 321.93 382.29 321.93 362.17 301.81 362.17 301.81 342.05 301.81 321.93 301.81 301.81 301.81 281.69 301.81 261.57 281.69 261.57 281.69 281.69" style="fill: #b75f25"/>
        <polygon points="281.69 140.84 281.69 160.97 281.69 181.09 281.69 201.21 281.69 221.33 281.69 241.45 281.69 261.57 301.81 261.57 301.81 241.45 301.81 221.33 301.81 201.21 301.81 181.09 301.81 160.97 301.81 140.84 301.81 120.72 281.69 120.72 281.69 140.84"/>
        <rect x="261.57" y="422.53" width="20.12" height="20.12" style="fill: #878275"/>
        <rect x="261.57" y="362.17" width="20.12" height="20.12"/>
        <rect x="261.57" y="261.57" width="20.12" height="20.12"/>
        <polygon points="261.57 321.93 261.57 301.81 261.57 281.69 241.45 281.69 221.33 281.69 201.21 281.69 201.21 301.81 221.33 301.81 241.45 301.81 241.45 321.93 241.45 342.05 241.45 362.17 261.57 362.17 261.57 342.05 261.57 321.93"/>
        <rect x="241.45" y="140.84" width="20.12" height="20.12"/>
        <polygon points="261.57 140.84 281.69 140.84 281.69 120.72 261.57 120.72 241.45 120.72 241.45 140.84 261.57 140.84" style="fill: #b75f25"/>
        <rect x="241.45" y="40.24" width="20.12" height="20.12" style="fill: #878275"/>
        <rect x="221.33" y="362.17" width="20.12" height="20.12" style="fill: #d3d3d3"/>
        <path d="M241.45,321.93V301.81H201.21V281.69h60.36V261.57h20.12V140.84H261.57V161H241.45V120.72H201.21v20.12H181.09V161H161V140.84H120.72v60.37h20.12v20.12H161v40.24h20.12v100.6h20.12v20.12h20.12V362.17h20.12V321.93Zm-40.24-100.6h40.24v20.12H201.21Zm40.24-20.12H221.33V181.09h20.12Z" style="fill: #d4b286"/>
        <polygon points="241.45 241.45 241.45 221.33 221.33 221.33 201.21 221.33 201.21 241.45 221.33 241.45 241.45 241.45" style="fill: #c16b6b"/>
        <rect x="221.33" y="181.09" width="20.12" height="20.12"/>
        <rect x="201.21" y="382.29" width="20.12" height="20.12" style="fill: #d3d3d3"/>
        <polygon points="221.33 60.36 221.33 40.24 201.21 40.24 181.09 40.24 181.09 60.36 201.21 60.36 221.33 60.36" style="fill: #878275"/>
        <rect x="181.09" y="362.17" width="20.12" height="20.12" style="fill: #d3d3d3"/>
        <rect x="160.97" y="342.05" width="20.12" height="20.12" style="fill: #d3d3d3"/>
        <polygon points="160.97 301.81 160.97 321.93 160.97 342.05 181.09 342.05 181.09 321.93 181.09 301.81 181.09 281.69 181.09 261.57 160.97 261.57 160.97 281.69 160.97 301.81" style="fill: #e7c8a7"/>
        <rect x="160.97" y="140.84" width="20.12" height="20.12"/>
        <rect x="140.84" y="422.53" width="20.12" height="20.12" style="fill: #878275"/>
        <polygon points="160.97 321.93 160.97 301.81 160.97 281.69 160.97 261.57 140.84 261.57 140.84 281.69 140.84 301.81 140.84 321.93 140.84 342.05 120.72 342.05 120.72 362.17 140.84 362.17 160.97 362.17 160.97 342.05 160.97 321.93"/>
        <polygon points="140.84 261.57 160.97 261.57 160.97 241.45 160.97 221.33 140.84 221.33 140.84 241.45 140.84 261.57" style="fill: #e7c8a7"/>
        <polygon points="160.97 140.84 181.09 140.84 201.21 140.84 201.21 120.72 181.09 120.72 160.97 120.72 140.84 120.72 140.84 140.84 160.97 140.84" style="fill: #b75f25"/>
        <polygon points="160.97 60.36 160.97 40.24 140.84 40.24 140.84 20.12 120.72 20.12 120.72 40.24 120.72 60.36 140.84 60.36 160.97 60.36" style="fill: #878275"/>
        <rect x="140.84" width="20.12" height="20.12" style="fill: #878275"/>
        <rect x="120.72" y="362.17" width="20.12" height="20.12" style="fill: #878275"/>
        <polygon points="120.72 241.45 120.72 261.57 140.84 261.57 140.84 241.45 140.84 221.33 120.72 221.33 120.72 241.45"/>
        <rect x="120.72" y="201.21" width="20.12" height="20.12" style="fill: #e7c8a7"/>
        <rect x="120.72" y="120.72" width="20.12" height="20.12" style="fill: #e7c8a7"/>
        <path d="M140.84,100.6h40.25V80.48h80.48V100.6h40.24V40.24H281.69V20.12H261.57V0H161V20.12H140.84V40.24H161V60.36H120.72V80.48H100.6V100.6h40.24ZM261.57,60.36H241.45V40.24h20.12ZM181.09,40.24h40.24V60.36H181.09Z" style="fill: #61664d"/>
        <rect x="100.6" y="382.29" width="20.12" height="20.12" style="fill: #878275"/>
        <rect x="100.6" y="362.17" width="20.12" height="20.12"/>
        <polygon points="120.72 201.21 120.72 181.09 100.6 181.09 100.6 201.21 100.6 221.33 120.72 221.33 120.72 201.21"/>
        <polygon points="120.72 160.97 120.72 140.84 100.6 140.84 100.6 160.97 100.6 181.09 120.72 181.09 120.72 160.97" style="fill: #e7c8a7"/>
        <rect x="100.6" y="60.36" width="20.12" height="20.12" style="fill: #878275"/>
        <polygon points="80.48 382.29 60.36 382.29 60.36 402.41 80.48 402.41 100.6 402.41 100.6 382.29 80.48 382.29"/>
        <polygon points="100.6 382.29 100.6 362.17 120.72 362.17 120.72 342.05 140.84 342.05 140.84 321.93 140.84 301.81 140.84 281.69 140.84 261.57 120.72 261.57 120.72 241.45 120.72 221.33 100.6 221.33 100.6 241.45 100.6 261.57 100.6 281.69 80.48 281.69 80.48 301.81 80.48 321.93 80.48 342.05 60.36 342.05 60.36 362.17 60.36 382.29 80.48 382.29 100.6 382.29" style="fill: #b75f25"/>
        <polygon points="100.6 140.84 80.48 140.84 80.48 160.97 80.48 181.09 100.6 181.09 100.6 160.97 100.6 140.84"/>
        <polygon points="100.6 120.72 120.72 120.72 140.84 120.72 160.97 120.72 181.09 120.72 201.21 120.72 221.33 120.72 241.45 120.72 261.57 120.72 281.69 120.72 301.81 120.72 321.93 120.72 342.05 120.72 362.17 120.72 382.29 120.72 382.29 100.6 362.17 100.6 342.05 100.6 321.93 100.6 301.81 100.6 281.69 100.6 261.57 100.6 261.57 80.48 241.45 80.48 221.33 80.48 201.21 80.48 181.09 80.48 181.09 100.6 160.97 100.6 140.84 100.6 120.72 100.6 100.6 100.6 80.48 100.6 60.36 100.6 40.24 100.6 20.12 100.6 20.12 120.72 40.24 120.72 60.36 120.72 80.48 120.72 100.6 120.72" style="fill: #878275"/>
        <rect x="60.36" y="402.41" width="20.12" height="20.12" style="fill: #878275"/>
        <polygon points="80.48 140.84 100.6 140.84 120.72 140.84 120.72 120.72 100.6 120.72 80.48 120.72 60.36 120.72 60.36 140.84 60.36 160.97 80.48 160.97 80.48 140.84" style="fill: #b75f25"/>
        <rect x="40.24" y="422.53" width="20.12" height="20.12" style="fill: #878275"/>
        <rect x="40.24" y="402.41" width="20.12" height="20.12"/>
        <rect x="20.12" y="422.53" width="20.12" height="20.12"/>
        <polygon points="40.24 422.53 40.24 402.41 60.36 402.41 60.36 382.29 60.36 362.17 60.36 342.05 80.48 342.05 80.48 321.93 80.48 301.81 80.48 281.69 100.6 281.69 100.6 261.57 100.6 241.45 100.6 221.33 100.6 201.21 100.6 181.09 80.48 181.09 80.48 160.97 60.36 160.97 60.36 181.09 60.36 201.21 40.24 201.21 40.24 221.33 40.24 241.45 40.24 261.57 40.24 281.69 20.12 281.69 20.12 301.81 20.12 321.93 20.12 342.05 40.24 342.05 40.24 362.17 20.12 362.17 20.12 382.29 20.12 402.41 0 402.41 0 422.53 0 442.65 20.12 442.65 20.12 422.53 40.24 422.53" style="fill: #e27727"/>
      </g>
    </g>
  </g>
</svg>
