<svg xmlns="http://www.w3.org/2000/svg" viewBox="0 0 60 66"><defs><style>.cls-1{fill:#e2cfbf;}.cls-2{fill:#c16b6b;}.cls-3{fill:#d8c0a9;}.cls-4{fill:#9fb7b6;}.cls-5{fill:#7f7f7f;}.cls-6{fill:#934a4a;}.cls-7{fill:#ce4949;}.cls-8{fill:#722a2a;}.cls-9{fill:#9b713a;}</style></defs><g id="Layer_2" data-name="Layer 2"><g id="_220527_Avatar_Release_-_Side" data-name="220527 Avatar Release - Side"><g id="Researcher_1_-_Side" data-name="Researcher 1 - Side"><rect class="cls-1" x="21" y="45" width="3" height="3"/><rect class="cls-1" x="15" y="24" width="3" height="3"/><rect class="cls-1" x="21" y="48" width="3" height="3"/><rect class="cls-2" x="33" y="33" width="3" height="3"/><rect class="cls-2" x="30" y="33" width="3" height="3"/><polygon class="cls-3" points="39 15 39 12 36 12 36 9 33 9 30 9 27 9 27 12 24 12 24 15 21 15 21 18 24 18 27 18 30 18 30 21 33 21 36 21 36 18 39 18 42 18 42 15 39 15"/><polygon class="cls-3" points="36 27 36 30 39 30 39 33 36 33 36 36 33 36 30 36 30 33 27 33 27 30 30 30 33 30 33 27 36 27 36 24 33 24 30 24 30 27 27 27 24 27 21 27 21 30 21 33 24 33 24 36 27 36 27 39 30 39 30 42 33 42 36 42 36 39 39 39 39 36 42 36 42 33 42 30 42 27 39 27 36 27"/><polygon class="cls-3" points="30 48 27 48 27 45 24 45 24 48 24 51 24 54 27 54 27 57 30 57 33 57 33 54 36 54 36 51 36 48 33 48 30 48"/><polygon class="cls-4" points="39 21 36 21 33 21 30 21 27 21 24 21 21 21 21 24 21 27 24 27 27 27 30 27 30 24 33 24 36 24 36 27 39 27 42 27 42 24 42 21 39 21"/><polygon class="cls-5" points="39 18 36 18 36 21 39 21 42 21 42 18 39 18"/><polygon class="cls-5" points="24 18 21 18 21 21 24 21 27 21 30 21 30 18 27 18 24 18"/><polygon class="cls-5" points="15 21 15 24 18 24 21 24 21 21 18 21 15 21"/><rect class="cls-6" x="9" y="60" width="3" height="3"/><polygon class="cls-6" points="15 60 15 63 18 63 18 66 21 66 21 63 21 60 18 60 15 60"/><rect class="cls-6" x="51" y="60" width="3" height="3"/><polygon class="cls-6" points="42 60 42 63 45 63 45 66 48 66 48 63 48 60 45 60 42 60"/><rect class="cls-6" x="12" y="63" width="3" height="3"/><rect class="cls-6" x="54" y="63" width="3" height="3"/><rect class="cls-6" x="39" y="57" width="3" height="3"/><polygon class="cls-6" points="36 57 39 57 39 54 39 51 36 51 36 54 33 54 33 57 30 57 30 60 33 60 33 63 36 63 36 66 39 66 39 63 39 60 36 60 36 57"/><polygon class="cls-6" points="27 57 27 54 24 54 24 51 21 51 21 54 21 57 21 60 24 60 24 63 27 63 27 66 30 66 30 63 30 60 27 60 27 57"/><polygon class="cls-7" points="42 60 39 60 39 63 39 66 42 66 45 66 45 63 42 63 42 60"/><polygon class="cls-7" points="33 60 30 60 30 63 30 66 33 66 36 66 36 63 33 63 33 60"/><polygon class="cls-7" points="24 60 21 60 21 63 21 66 24 66 27 66 27 63 24 63 24 60"/><rect class="cls-7" x="12" y="60" width="3" height="3"/><polygon class="cls-7" points="6 63 6 66 9 66 12 66 12 63 9 63 6 63"/><rect class="cls-7" x="15" y="63" width="3" height="3"/><polygon class="cls-7" points="51 63 51 60 48 60 48 63 48 66 51 66 54 66 54 63 51 63"/><rect class="cls-7" x="36" y="57" width="3" height="3"/><rect class="cls-7" x="27" y="57" width="3" height="3"/><rect class="cls-7" x="18" y="57" width="3" height="3"/><rect class="cls-8" x="6" y="60" width="3" height="3"/><rect class="cls-8" x="3" y="63" width="3" height="3"/><polygon class="cls-8" points="18 51 18 54 18 57 21 57 21 54 21 51 18 51"/><rect class="cls-8" x="15" y="57" width="3" height="3"/><polygon points="39 45 36 45 33 45 30 45 27 45 27 48 30 48 33 48 36 48 36 51 39 51 39 48 39 45"/><rect x="3" y="60" width="3" height="3"/><rect x="54" y="60" width="3" height="3"/><polygon points="45 39 45 36 45 33 45 30 45 27 45 24 45 21 45 18 42 18 42 21 42 24 42 27 42 30 42 33 42 36 42 39 42 42 45 42 45 39"/><rect x="33" y="27" width="3" height="3"/><rect y="63" width="3" height="3"/><rect x="57" y="63" width="3" height="3"/><polygon points="18 36 18 33 18 30 18 27 15 27 15 24 15 21 12 21 12 24 12 27 12 30 15 30 15 33 15 36 15 39 15 42 18 42 18 39 18 36"/><polygon points="42 51 39 51 39 54 39 57 42 57 42 54 42 51"/><polygon points="15 54 15 57 18 57 18 54 18 51 15 51 15 54"/><polygon points="9 57 6 57 6 60 9 60 12 60 15 60 15 57 12 57 9 57"/><polygon points="51 57 48 57 45 57 42 57 42 60 45 60 48 60 51 60 54 60 54 57 51 57"/><rect x="39" y="42" width="3" height="3"/><rect x="24" y="42" width="3" height="3"/><polygon points="18 45 18 48 18 51 21 51 21 48 21 45 21 42 18 42 18 45"/><polygon class="cls-9" points="33 30 30 30 27 30 27 33 30 33 33 33 36 33 39 33 39 30 36 30 33 30"/><polygon class="cls-9" points="42 42 42 39 42 36 39 36 39 39 36 39 36 42 33 42 30 42 30 39 27 39 27 36 24 36 24 33 21 33 21 30 21 27 21 24 18 24 18 27 18 30 18 33 18 36 18 39 18 42 21 42 21 45 24 45 24 42 27 42 27 45 30 45 33 45 36 45 39 45 39 42 42 42"/><polygon class="cls-9" points="48 18 48 15 48 12 45 12 45 9 45 6 42 6 42 3 39 3 39 0 36 0 33 0 30 0 27 0 24 0 21 0 18 0 18 3 15 3 15 6 12 6 12 9 12 12 9 12 9 15 6 15 6 18 3 18 3 21 6 21 6 24 3 24 3 27 3 30 6 30 6 33 3 33 3 36 6 36 6 39 9 39 9 42 12 42 12 45 9 45 9 48 12 48 12 51 15 51 18 51 18 48 18 45 18 42 15 42 15 39 15 36 15 33 15 30 12 30 12 27 12 24 12 21 15 21 18 21 21 21 21 18 21 15 24 15 24 12 27 12 27 9 30 9 33 9 36 9 36 12 39 12 39 15 42 15 42 18 45 18 45 21 45 24 45 27 45 30 45 33 45 36 45 39 45 42 48 42 48 39 51 39 51 36 51 33 48 33 48 30 51 30 51 27 48 27 48 24 51 24 51 21 51 18 48 18"/><polygon class="cls-9" points="42 45 39 45 39 48 39 51 42 51 45 51 45 48 48 48 48 45 45 45 45 42 42 42 42 45"/></g></g></g></svg>