<svg xmlns="http://www.w3.org/2000/svg" viewBox="0 0 54 66"><defs><style>.cls-1{fill:#d1cc93;}.cls-2{fill:#965656;}.cls-3{fill:#b7926c;}.cls-4{fill:#cca683;}.cls-5{fill:#96cc72;}.cls-6{fill:#2b2b2b;}.cls-7{fill:#7d996d;}</style></defs><g id="Layer_2" data-name="Layer 2"><g id="_220527_Avatar_Release_-_Front" data-name="220527 Avatar Release - Front"><g id="Traveler_1_-_Front" data-name="Traveler 1 - Front"><polygon class="cls-1" points="45 54 42 54 42 57 45 57 48 57 48 54 45 54"/><polygon class="cls-2" points="27 33 24 33 24 36 27 36 30 36 30 33 27 33"/><path class="cls-3" d="M39,24V21H36v3H33V21H30V18h6V15H18v3h6v3H21v3H18V21H15v9h3v6h3v3h3v9h9V45H27V42h6V39h3V36h3V27h3V24ZM24,27h6v3H24Zm0,6h6v3H24Z"/><rect class="cls-4" x="21" y="45" width="3" height="3"/><rect class="cls-4" x="21" y="39" width="3" height="3"/><rect class="cls-4" x="18" y="36" width="3" height="3"/><polygon class="cls-4" points="18 30 15 30 15 33 15 36 18 36 18 33 18 30"/><rect class="cls-4" x="12" y="24" width="3" height="3"/><polygon class="cls-5" points="48 63 48 60 45 60 45 63 42 63 42 66 45 66 48 66 51 66 51 63 48 63"/><polygon class="cls-5" points="42 57 39 57 39 54 36 54 33 54 33 51 33 48 30 48 30 51 30 54 30 57 30 60 33 60 36 60 36 63 39 63 42 63 42 60 42 57"/><rect class="cls-5" x="39" y="12" width="3" height="3"/><polygon class="cls-5" points="30 63 27 63 24 63 21 63 18 63 18 66 21 66 24 66 27 66 30 66 33 66 36 66 36 63 33 63 30 63"/><polygon class="cls-5" points="27 9 24 9 24 12 21 12 21 15 24 15 27 15 30 15 33 15 33 12 30 12 30 9 27 9"/><polygon class="cls-5" points="21 60 24 60 24 57 24 54 24 51 24 48 21 48 21 51 21 54 18 54 18 57 15 57 15 60 12 60 12 63 15 63 18 63 18 60 21 60"/><polygon class="cls-5" points="18 9 21 9 21 6 24 6 27 6 30 6 33 6 33 9 36 9 36 12 39 12 39 9 39 6 36 6 36 3 33 3 30 3 27 3 24 3 21 3 18 3 18 6 15 6 15 9 15 12 18 12 18 9"/><rect class="cls-5" x="12" y="12" width="3" height="3"/><polygon class="cls-5" points="6 63 6 66 9 66 12 66 12 63 9 63 6 63"/><polygon class="cls-1" points="9 54 6 54 6 57 9 57 12 57 12 54 9 54"/><polygon class="cls-6" points="45 21 45 24 45 27 42 27 42 30 42 33 42 36 42 39 39 39 36 39 36 42 36 45 36 48 36 51 39 51 42 51 45 51 45 48 42 48 42 45 42 42 45 42 45 39 48 39 48 36 45 36 45 33 48 33 48 30 48 27 48 24 48 21 45 21"/><polygon class="cls-6" points="45 15 42 15 39 15 36 15 36 18 33 18 30 18 30 21 33 21 36 21 39 21 39 24 42 24 42 21 45 21 45 18 45 15"/><polygon class="cls-6" points="18 18 18 15 15 15 12 15 9 15 9 18 6 18 6 21 6 24 6 27 6 30 9 30 9 33 6 33 6 36 6 39 9 39 9 42 9 45 12 45 12 48 9 48 9 51 12 51 15 51 18 51 18 48 18 45 18 42 18 39 15 39 12 39 12 36 12 33 12 30 12 27 9 27 9 24 9 21 12 21 12 24 15 24 15 21 18 21 21 21 24 21 24 18 21 18 18 18"/><polygon class="cls-7" points="39 6 39 9 39 12 42 12 42 9 42 6 39 6"/><rect class="cls-7" x="36" y="63" width="3" height="3"/><rect class="cls-7" x="36" y="3" width="3" height="3"/><polygon class="cls-7" points="33 60 30 60 30 57 30 54 30 51 30 48 27 48 24 48 24 51 24 54 24 57 24 60 21 60 18 60 18 63 21 63 24 63 27 63 30 63 33 63 36 63 36 60 33 60"/><polygon class="cls-7" points="36 9 33 9 33 6 30 6 27 6 24 6 21 6 21 9 18 9 18 12 15 12 15 15 18 15 21 15 21 12 24 12 24 9 27 9 30 9 30 12 33 12 33 15 36 15 39 15 39 12 36 12 36 9"/><polygon class="cls-7" points="24 3 27 3 30 3 33 3 36 3 36 0 33 0 30 0 27 0 24 0 21 0 18 0 18 3 21 3 24 3"/><rect class="cls-7" x="15" y="63" width="3" height="3"/><rect class="cls-7" x="15" y="54" width="3" height="3"/><rect class="cls-7" x="15" y="3" width="3" height="3"/><rect class="cls-7" x="12" y="57" width="3" height="3"/><polygon class="cls-7" points="15 6 12 6 12 9 12 12 15 12 15 9 15 6"/><rect class="cls-7" x="9" y="12" width="3" height="3"/><rect class="cls-7" x="6" y="60" width="3" height="3"/><rect class="cls-7" x="3" y="63" width="3" height="3"/><rect x="51" y="63" width="3" height="3"/><polygon points="51 57 51 54 51 51 48 51 45 51 42 51 39 51 36 51 36 48 36 45 36 42 36 39 33 39 33 42 30 42 27 42 27 45 30 45 33 45 33 48 33 51 33 54 36 54 39 54 39 57 42 57 42 54 45 54 48 54 48 57 45 57 42 57 42 60 42 63 45 63 45 60 48 60 48 63 51 63 51 60 51 57"/><polygon points="45 24 45 21 42 21 42 24 42 27 45 27 45 24"/><rect x="39" y="63" width="3" height="3"/><polygon points="42 39 42 36 42 33 42 30 42 27 39 27 39 30 39 33 39 36 36 36 36 39 39 39 42 39"/><rect x="33" y="21" width="3" height="3"/><polygon points="30 30 30 27 27 27 24 27 24 30 27 30 30 30"/><polygon points="21 39 18 39 18 42 18 45 18 48 18 51 15 51 12 51 9 51 6 51 3 51 3 54 3 57 3 60 3 63 6 63 6 60 9 60 9 63 12 63 12 60 12 57 9 57 6 57 6 54 9 54 12 54 12 57 15 57 15 54 18 54 21 54 21 51 21 48 21 45 24 45 24 42 21 42 21 39"/><rect x="18" y="21" width="3" height="3"/><polygon points="15 36 15 33 15 30 15 27 12 27 12 30 12 33 12 36 12 39 15 39 18 39 18 36 15 36"/><rect x="12" y="63" width="3" height="3"/><polygon points="12 21 9 21 9 24 9 27 12 27 12 24 12 21"/><rect y="63" width="3" height="3"/></g></g></g></svg>