<svg xmlns="http://www.w3.org/2000/svg" viewBox="0 0 402.41 442.66">
  <g id="ae511b4b-1bd2-4afa-9eeb-b0367ab8569a" data-name="Layer 2">
    <g id="a1844753-1ba5-4f20-ae2b-3557f63623df" data-name="Creator Series - Side (Output)">
      <g id="aaceec20-6fa8-4866-8cc7-c37428d2cf21" data-name="Daniel Marchbank - Side">
        <rect x="382.29" y="422.53" width="20.12" height="20.12"/>
        <polygon points="362.17 422.53 362.17 402.41 342.05 402.41 321.93 402.41 301.81 402.41 281.69 402.41 281.69 382.29 261.57 382.29 261.57 362.17 241.45 362.17 241.45 382.29 241.45 402.41 221.33 402.41 201.21 402.41 181.09 402.41 181.09 382.29 160.97 382.29 160.97 362.17 140.84 362.17 140.84 382.29 120.72 382.29 120.72 402.41 100.6 402.41 80.48 402.41 60.36 402.41 60.36 422.53 40.24 422.53 40.24 442.65 60.36 442.65 80.48 442.65 100.6 442.65 120.72 442.65 140.84 442.65 160.97 442.65 181.09 442.65 201.21 442.65 221.33 442.65 241.45 442.65 261.57 442.65 281.69 442.65 301.81 442.65 321.93 442.65 342.05 442.65 362.17 442.65 382.29 442.65 382.29 422.53 362.17 422.53" style="fill: #42a842"/>
        <rect x="362.17" y="402.41" width="20.12" height="20.12"/>
        <polygon points="301.81 402.41 321.93 402.41 342.05 402.41 362.17 402.41 362.17 382.29 342.05 382.29 321.93 382.29 301.81 382.29 281.69 382.29 281.69 402.41 301.81 402.41"/>
        <polygon points="281.69 301.81 261.57 301.81 261.57 321.93 261.57 342.05 261.57 362.17 281.69 362.17 301.81 362.17 321.93 362.17 321.93 342.05 301.81 342.05 301.81 321.93 321.93 321.93 321.93 301.81 301.81 301.81 301.81 281.69 281.69 281.69 281.69 301.81" style="fill: #725f41"/>
        <polygon points="281.69 140.84 281.69 160.97 281.69 181.09 281.69 201.21 281.69 221.33 281.69 241.45 281.69 261.57 281.69 281.69 301.81 281.69 301.81 261.57 301.81 241.45 301.81 221.33 301.81 201.21 301.81 181.09 301.81 160.97 301.81 140.84 301.81 120.72 281.69 120.72 281.69 140.84"/>
        <rect x="261.57" y="362.17" width="20.12" height="20.12"/>
        <rect x="261.57" y="281.69" width="20.12" height="20.12"/>
        <polygon points="261.57 321.93 261.57 301.81 241.45 301.81 221.33 301.81 201.21 301.81 181.09 301.81 181.09 321.93 201.21 321.93 221.33 321.93 241.45 321.93 241.45 342.05 241.45 362.17 261.57 362.17 261.57 342.05 261.57 321.93"/>
        <rect x="241.45" y="140.84" width="20.12" height="20.12"/>
        <polygon points="241.45 120.72 241.45 140.84 261.57 140.84 281.69 140.84 281.69 120.72 261.57 120.72 241.45 120.72" style="fill: #725f41"/>
        <polygon points="241.45 321.93 221.33 321.93 201.21 321.93 181.09 321.93 181.09 301.81 160.97 301.81 160.97 321.93 160.97 342.05 160.97 362.17 160.97 382.29 181.09 382.29 181.09 402.41 201.21 402.41 221.33 402.41 241.45 402.41 241.45 382.29 241.45 362.17 241.45 342.05 241.45 321.93" style="fill: #d4b286"/>
        <rect x="221.33" y="181.09" width="20.12" height="20.12"/>
        <polygon points="201.21 221.33 201.21 241.45 221.33 241.45 241.45 241.45 241.45 221.33 221.33 221.33 201.21 221.33" style="fill: #c16b6b"/>
        <polygon points="201.21 201.21 181.09 201.21 181.09 221.33 201.21 221.33 221.33 221.33 241.45 221.33 261.57 221.33 261.57 201.21 241.45 201.21 221.33 201.21 201.21 201.21" style="fill: #9f8869"/>
        <rect x="160.97" y="281.69" width="20.12" height="20.12"/>
        <rect x="160.97" y="140.84" width="20.12" height="20.12"/>
        <polygon points="160.97 321.93 160.97 301.81 140.84 301.81 140.84 321.93 140.84 342.05 140.84 362.17 160.97 362.17 160.97 342.05 160.97 321.93" style="fill: #e7c8a7"/>
        <polygon points="140.84 301.81 160.97 301.81 160.97 281.69 181.09 281.69 181.09 301.81 201.21 301.81 221.33 301.81 241.45 301.81 261.57 301.81 261.57 281.69 281.69 281.69 281.69 261.57 281.69 241.45 261.57 241.45 261.57 261.57 241.45 261.57 241.45 281.69 221.33 281.69 201.21 281.69 201.21 261.57 181.09 261.57 181.09 241.45 160.97 241.45 160.97 221.33 140.84 221.33 140.84 201.21 140.84 181.09 120.72 181.09 120.72 201.21 120.72 221.33 120.72 241.45 120.72 261.57 120.72 281.69 140.84 281.69 140.84 301.81" style="fill: #9f8869"/>
        <rect x="120.72" y="362.17" width="20.12" height="20.12" style="fill: #6ac66a"/>
        <polygon points="140.84 321.93 140.84 301.81 140.84 281.69 120.72 281.69 120.72 301.81 120.72 321.93 120.72 342.05 120.72 362.17 140.84 362.17 140.84 342.05 140.84 321.93"/>
        <path d="M140.84,181.09v40.24H161v20.12h20.12v20.12h20.12v20.12h40.24V261.57h20.12V241.45h20.12V140.84H261.57V161H241.45V120.72h40.24V100.6H261.57V80.48H241.45V60.36H181.09V80.48H161V100.6H140.84v20.12h60.37v20.12H181.09V161H161V140.84H120.72v40.25Zm120.73,20.12v20.12H241.45v20.12H201.21V221.33H181.09V201.21h40.24V181.09h20.12v20.12Z" style="fill: #d4b286"/>
        <rect x="100.6" y="382.29" width="20.12" height="20.12" style="fill: #6ac66a"/>
        <rect x="100.6" y="362.17" width="20.12" height="20.12"/>
        <polygon points="120.72 342.05 120.72 321.93 120.72 301.81 120.72 281.69 100.6 281.69 100.6 261.57 100.6 241.45 100.6 221.33 100.6 201.21 80.48 201.21 80.48 181.09 80.48 160.97 80.48 140.84 100.6 140.84 100.6 160.97 120.72 160.97 120.72 140.84 140.84 140.84 160.97 140.84 181.09 140.84 201.21 140.84 201.21 120.72 181.09 120.72 160.97 120.72 140.84 120.72 140.84 100.6 160.97 100.6 160.97 80.48 181.09 80.48 181.09 60.36 201.21 60.36 221.33 60.36 241.45 60.36 241.45 80.48 261.57 80.48 261.57 100.6 281.69 100.6 281.69 120.72 301.81 120.72 301.81 100.6 301.81 80.48 301.81 60.36 301.81 40.24 281.69 40.24 281.69 20.12 261.57 20.12 261.57 0 241.45 0 221.33 0 201.21 0 181.09 0 160.97 0 140.84 0 120.72 0 120.72 20.12 100.6 20.12 100.6 40.24 80.48 40.24 80.48 60.36 80.48 80.48 60.36 80.48 60.36 100.6 60.36 120.72 60.36 140.84 40.24 140.84 40.24 160.97 40.24 181.09 60.36 181.09 60.36 201.21 40.24 201.21 40.24 221.33 60.36 221.33 60.36 241.45 60.36 261.57 40.24 261.57 40.24 281.69 40.24 301.81 60.36 301.81 60.36 321.93 80.48 321.93 80.48 342.05 60.36 342.05 60.36 362.17 80.48 362.17 100.6 362.17 120.72 362.17 120.72 342.05" style="fill: #725f41"/>
        <polygon points="120.72 241.45 120.72 221.33 120.72 201.21 120.72 181.09 100.6 181.09 100.6 160.97 100.6 140.84 80.48 140.84 80.48 160.97 80.48 181.09 80.48 201.21 100.6 201.21 100.6 221.33 100.6 241.45 100.6 261.57 100.6 281.69 120.72 281.69 120.72 261.57 120.72 241.45"/>
        <rect x="100.6" y="160.97" width="20.12" height="20.12" style="fill: #e7c8a7"/>
        <polygon points="80.48 402.41 100.6 402.41 100.6 382.29 80.48 382.29 60.36 382.29 40.24 382.29 40.24 402.41 60.36 402.41 80.48 402.41"/>
        <rect x="40.24" y="402.41" width="20.12" height="20.12" style="fill: #6ac66a"/>
        <rect x="20.12" y="422.53" width="20.12" height="20.12" style="fill: #6ac66a"/>
        <rect x="20.12" y="402.41" width="20.12" height="20.12"/>
        <rect y="422.53" width="20.12" height="20.12"/>
      </g>
    </g>
  </g>
</svg>
