<svg xmlns="http://www.w3.org/2000/svg" viewBox="0 0 402.41 442.66">
  <g id="b35e5503-1169-490c-b9d6-52880b3cbade" data-name="Layer 2">
    <g id="ab279afd-66df-43a5-9319-f368bb402964" data-name="Creator Series - Side (Output)">
      <g id="a51fcb05-92a4-4e45-b643-4fde2c2cb52d" data-name="Kirby McKenzie - SIde">
        <rect x="382.29" y="422.53" width="20.12" height="20.12"/>
        <polygon points="362.17 422.54 362.17 402.41 342.05 402.41 321.93 402.41 301.81 402.41 301.81 382.29 281.69 382.29 281.69 362.17 261.57 362.17 241.45 362.17 241.45 382.29 221.33 382.29 221.33 402.41 201.21 402.41 201.21 422.54 221.33 422.54 221.33 442.65 241.45 442.65 261.57 442.65 281.69 442.65 301.81 442.65 321.93 442.65 342.05 442.65 362.17 442.65 382.29 442.65 382.29 422.54 362.17 422.54" style="fill: #ab272b"/>
        <rect x="362.17" y="402.41" width="20.12" height="20.12"/>
        <polygon points="321.93 402.41 342.05 402.41 362.17 402.41 362.17 382.29 342.05 382.29 321.93 382.29 301.81 382.29 301.81 402.41 321.93 402.41"/>
        <rect x="281.69" y="362.17" width="20.12" height="20.12"/>
        <polygon points="281.69 140.84 281.69 160.97 281.69 181.09 281.69 201.21 281.69 221.33 281.69 241.45 281.69 261.57 281.69 281.69 301.81 281.69 301.81 261.57 301.81 241.45 301.81 221.33 301.81 201.21 301.81 181.09 301.81 160.97 301.81 140.84 301.81 120.72 281.69 120.72 281.69 140.84"/>
        <rect x="261.57" y="281.69" width="20.12" height="20.12"/>
        <path d="M281.69,241.45V181.09H241.45v20.12H221.33V181.09h20.12V161H201.21v20.12H161V161H120.72v40.24h20.12v80.48h40.25v20.12h80.48V281.69h20.12V241.45Zm-40.24-20.12v20.12H201.21V221.33h40.24Z" style="fill: #d4b286"/>
        <polygon points="261.57 160.97 241.45 160.97 241.45 181.09 261.57 181.09 281.69 181.09 281.69 160.97 281.69 140.84 261.57 140.84 261.57 160.97" style="fill: #86a8a8"/>
        <rect x="241.45" y="140.84" width="20.12" height="20.12" style="fill: #4c5e5e"/>
        <polygon points="241.45 120.72 241.45 140.84 261.57 140.84 281.69 140.84 281.69 120.72 261.57 120.72 241.45 120.72" style="fill: #604816"/>
        <polygon points="241.45 321.93 221.33 321.93 201.21 321.93 181.09 321.93 181.09 301.81 160.97 301.81 160.97 321.93 160.97 342.05 160.97 362.17 181.09 362.17 181.09 382.29 201.21 382.29 221.33 382.29 241.45 382.29 241.45 362.17 241.45 342.05 241.45 321.93" style="fill: #d4b286"/>
        <polygon points="221.33 301.81 201.21 301.81 181.09 301.81 181.09 321.93 201.21 321.93 221.33 321.93 241.45 321.93 241.45 342.05 241.45 362.17 261.57 362.17 281.69 362.17 281.69 342.05 261.57 342.05 261.57 321.93 261.57 301.81 241.45 301.81 221.33 301.81"/>
        <rect x="221.33" y="181.09" width="20.12" height="20.12"/>
        <polygon points="221.33 140.84 201.21 140.84 201.21 160.97 221.33 160.97 241.45 160.97 241.45 140.84 221.33 140.84"/>
        <rect x="201.21" y="422.53" width="20.12" height="20.12" style="fill: #bf5860"/>
        <rect x="201.21" y="382.29" width="20.12" height="20.12" style="fill: #bf5860"/>
        <polygon points="201.21 241.45 221.33 241.45 241.45 241.45 241.45 221.33 221.33 221.33 201.21 221.33 201.21 241.45" style="fill: #c16b6b"/>
        <polygon points="181.09 422.54 181.09 402.41 201.21 402.41 201.21 382.29 181.09 382.29 181.09 362.17 160.97 362.17 160.97 342.05 140.84 342.05 140.84 362.17 140.84 382.29 120.72 382.29 100.6 382.29 100.6 402.41 80.48 402.41 60.36 402.41 60.36 422.54 40.24 422.54 40.24 442.65 60.36 442.65 80.48 442.65 100.6 442.65 120.72 442.65 140.84 442.65 160.97 442.65 181.09 442.65 201.21 442.65 201.21 422.54 181.09 422.54" style="fill: #ab272b"/>
        <rect x="181.09" y="402.41" width="20.12" height="20.12" style="fill: #bf5860"/>
        <polygon points="181.09 140.84 181.09 160.97 160.97 160.97 160.97 181.09 181.09 181.09 201.21 181.09 201.21 160.97 201.21 140.84 181.09 140.84" style="fill: #86a8a8"/>
        <polygon points="201.21 140.84 201.21 120.72 181.09 120.72 160.97 120.72 140.84 120.72 140.84 140.84 160.97 140.84 181.09 140.84 201.21 140.84" style="fill: #604816"/>
        <rect x="160.97" y="281.69" width="20.12" height="20.12"/>
        <rect x="160.97" y="140.84" width="20.12" height="20.12" style="fill: #4c5e5e"/>
        <polygon points="160.97 301.81 160.97 281.69 140.84 281.69 140.84 301.81 140.84 321.93 140.84 342.05 160.97 342.05 160.97 321.93 160.97 301.81" style="fill: #e7c8a7"/>
        <polygon points="160.97 160.97 160.97 140.84 140.84 140.84 120.72 140.84 120.72 160.97 140.84 160.97 160.97 160.97"/>
        <polygon points="160.97 120.72 181.09 120.72 201.21 120.72 201.21 140.84 221.33 140.84 241.45 140.84 241.45 120.72 261.57 120.72 281.69 120.72 281.69 100.6 261.57 100.6 261.57 80.48 241.45 80.48 241.45 60.36 221.33 60.36 201.21 60.36 181.09 60.36 160.97 60.36 160.97 80.48 140.84 80.48 140.84 100.6 140.84 120.72 160.97 120.72" style="fill: #d4b286"/>
        <polygon points="140.84 362.17 140.84 342.05 140.84 321.93 140.84 301.81 140.84 281.69 120.72 281.69 120.72 301.81 120.72 321.93 120.72 342.05 100.6 342.05 100.6 362.17 120.72 362.17 140.84 362.17"/>
        <polygon points="140.84 261.57 140.84 241.45 140.84 221.33 140.84 201.21 120.72 201.21 120.72 221.33 120.72 241.45 120.72 261.57 120.72 281.69 140.84 281.69 140.84 261.57" style="fill: #e7c8a7"/>
        <polygon points="140.84 120.72 140.84 100.6 120.72 100.6 120.72 120.72 120.72 140.84 140.84 140.84 140.84 120.72" style="fill: #e7c8a7"/>
        <polygon points="120.72 382.29 140.84 382.29 140.84 362.17 120.72 362.17 100.6 362.17 100.6 382.29 120.72 382.29" style="fill: #bf5860"/>
        <polygon points="120.72 241.45 120.72 221.33 120.72 201.21 120.72 181.09 100.6 181.09 100.6 160.97 100.6 140.84 80.48 140.84 80.48 160.97 80.48 181.09 80.48 201.21 100.6 201.21 100.6 221.33 100.6 241.45 100.6 261.57 100.6 281.69 120.72 281.69 120.72 261.57 120.72 241.45"/>
        <rect x="100.6" y="160.97" width="20.12" height="20.12" style="fill: #e7c8a7"/>
        <polygon points="100.6 160.97 120.72 160.97 120.72 140.84 120.72 120.72 120.72 100.6 140.84 100.6 140.84 80.48 160.97 80.48 160.97 60.36 181.09 60.36 201.21 60.36 221.33 60.36 241.45 60.36 241.45 80.48 261.57 80.48 261.57 100.6 281.69 100.6 281.69 120.72 301.81 120.72 321.93 120.72 321.93 100.6 321.93 80.48 321.93 60.36 301.81 60.36 301.81 40.24 281.69 40.24 281.69 20.12 261.57 20.12 261.57 0 241.45 0 221.33 0 201.21 0 181.09 0 160.97 0 140.84 0 120.72 0 120.72 20.12 100.6 20.12 100.6 40.24 80.48 40.24 80.48 60.36 80.48 80.48 80.48 100.6 80.48 120.72 80.48 140.84 100.6 140.84 100.6 160.97" style="fill: #604816"/>
        <rect x="80.48" y="382.29" width="20.12" height="20.12" style="fill: #bf5860"/>
        <rect x="80.48" y="362.17" width="20.12" height="20.12"/>
        <polygon points="80.48 402.41 80.48 382.29 60.36 382.29 40.24 382.29 40.24 402.41 60.36 402.41 80.48 402.41"/>
        <rect x="40.24" y="402.41" width="20.12" height="20.12" style="fill: #bf5860"/>
        <rect x="20.12" y="422.53" width="20.12" height="20.12" style="fill: #bf5860"/>
        <rect x="20.12" y="402.41" width="20.12" height="20.12"/>
        <rect y="422.53" width="20.12" height="20.12"/>
      </g>
    </g>
  </g>
</svg>
