<svg xmlns="http://www.w3.org/2000/svg" viewBox="0 0 60 66"><defs><style>.cls-1{fill:#c16b6b;}.cls-2{fill:#c4a380;}.cls-3{fill:#d4b286;}.cls-4{fill:#e7c8a7;}.cls-5{fill:#e29f3d;}.cls-6{fill:#514430;}.cls-7{fill:#af7a35;}</style></defs><g id="Layer_2" data-name="Layer 2"><g id="_220527_Avatar_Release_-_Front" data-name="220527 Avatar Release - Front"><g id="Lewis_Johnston_-_Front" data-name="Lewis Johnston - Front"><polygon class="cls-1" points="30 33 27 33 27 36 30 36 33 36 33 33 30 33"/><polygon class="cls-2" points="39 30 39 33 39 36 36 36 36 39 33 39 33 42 30 42 27 42 27 39 24 39 24 36 21 36 21 33 21 30 18 30 18 33 18 36 18 39 18 42 21 42 21 45 24 45 27 45 30 45 33 45 36 45 39 45 39 42 42 42 42 39 42 36 42 33 42 30 39 30"/><polygon class="cls-2" points="30 33 33 33 36 33 36 30 33 30 30 30 27 30 24 30 24 33 27 33 30 33"/><path class="cls-3" d="M42,24V21H39v3H36V21H33V18h9V15H36V12H33V9H27v3H24v3H18v3h9v3H24v3H21V21H18v9h3v6h3v3h3v3h6V39h3V36h3V30h3V27h3V24Zm-6,9H33v3H27V33H24V30h3V27h6v3h3Z"/><polygon class="cls-3" points="30 48 30 45 27 45 27 48 27 51 27 54 27 57 27 60 30 60 33 60 33 57 36 57 36 54 36 51 36 48 33 48 30 48"/><polygon class="cls-4" points="24 48 24 51 24 54 24 57 27 57 27 54 27 51 27 48 24 48"/><rect class="cls-4" x="15" y="24" width="3" height="3"/><polygon class="cls-5" points="54 63 54 60 51 60 48 60 45 60 42 60 42 57 39 57 39 54 36 54 36 57 33 57 33 60 30 60 27 60 27 57 24 57 21 57 21 60 18 60 15 60 12 60 9 60 9 63 6 63 6 66 9 66 12 66 15 66 18 66 21 66 24 66 27 66 30 66 33 66 36 66 39 66 42 66 45 66 48 66 51 66 54 66 57 66 57 63 54 63"/><polygon class="cls-6" points="54 21 54 18 51 18 51 15 51 12 48 12 48 9 48 6 45 6 45 3 42 3 42 0 39 0 36 0 33 0 30 0 27 0 24 0 21 0 18 0 18 3 15 3 15 6 12 6 12 9 12 12 12 15 9 15 9 18 9 21 6 21 6 24 9 24 9 27 9 30 12 30 12 27 12 24 12 21 15 21 15 24 18 24 18 21 21 21 24 21 27 21 27 18 24 18 21 18 18 18 18 15 21 15 24 15 24 12 27 12 27 9 30 9 33 9 33 12 36 12 36 15 39 15 42 15 42 18 39 18 36 18 33 18 33 21 36 21 39 21 42 21 42 24 45 24 45 21 48 21 48 24 48 27 48 30 45 30 45 33 45 36 45 39 45 42 42 42 42 45 39 45 39 48 42 48 45 48 48 48 51 48 51 45 48 45 48 42 51 42 51 39 48 39 48 36 48 33 51 33 51 30 51 27 54 27 54 24 51 24 51 21 54 21"/><polygon class="cls-6" points="12 36 9 36 9 39 9 42 12 42 12 45 9 45 9 48 12 48 15 48 18 48 21 48 21 45 18 45 18 42 15 42 15 39 15 36 15 33 15 30 12 30 12 33 12 36"/><rect class="cls-7" x="21" y="54" width="3" height="3"/><rect class="cls-7" x="18" y="57" width="3" height="3"/><rect class="cls-7" x="6" y="60" width="3" height="3"/><rect class="cls-7" x="3" y="63" width="3" height="3"/><rect x="57" y="63" width="3" height="3"/><rect x="54" y="60" width="3" height="3"/><polygon points="51 57 48 57 45 57 42 57 42 60 45 60 48 60 51 60 54 60 54 57 51 57"/><polygon points="45 39 45 36 45 33 45 30 48 30 48 27 48 24 48 21 45 21 45 24 45 27 42 27 42 30 42 33 42 36 42 39 42 42 45 42 45 39"/><rect x="39" y="54" width="3" height="3"/><rect x="39" y="42" width="3" height="3"/><polygon points="39 48 39 45 36 45 33 45 30 45 30 48 33 48 36 48 36 51 36 54 39 54 39 51 39 48"/><rect x="36" y="21" width="3" height="3"/><polygon points="33 30 33 27 30 27 27 27 27 30 30 30 33 30"/><polygon points="21 45 21 48 21 51 21 54 24 54 24 51 24 48 27 48 27 45 24 45 21 45"/><rect x="21" y="21" width="3" height="3"/><rect x="18" y="54" width="3" height="3"/><rect x="18" y="42" width="3" height="3"/><polygon points="18 36 18 33 18 30 18 27 15 27 15 24 15 21 12 21 12 24 12 27 12 30 15 30 15 33 15 36 15 39 15 42 18 42 18 39 18 36"/><polygon points="12 57 9 57 6 57 6 60 9 60 12 60 15 60 18 60 18 57 15 57 12 57"/><rect x="3" y="60" width="3" height="3"/><rect y="63" width="3" height="3"/></g></g></g></svg>